<svg xmlns="http://www.w3.org/2000/svg" xmlns:xlink="http://www.w3.org/1999/xlink" width="189" height="189" viewBox="0 0 189 189">
  <defs>
    <clipPath id="clip-path">
      <rect id="Rectángulo_12142" data-name="Rectángulo 12142" width="189" height="189" transform="translate(311 415)" fill="#fff" stroke="#707070" stroke-width="1"/>
    </clipPath>
  </defs>
  <g id="Enmascarar_grupo_49" data-name="Enmascarar grupo 49" transform="translate(-311 -415)" clip-path="url(#clip-path)">
    <g id="tipografia" transform="translate(311.163 415)">
      <path id="Trazado_103656" data-name="Trazado 103656" d="M52.83,114.577v27.9l-.8,1.39,5.4,3.087h52.486l2.994-5.506V114.577Z" transform="translate(13.803 30.759)" fill="#d7d0d6"/>
      <path id="Trazado_103657" data-name="Trazado 103657" d="M173.347,23.845H12.009V136.613l24.669,5.22h133.93l12.233-7.823V33.336A9.492,9.492,0,0,0,173.347,23.845Z" transform="translate(3.061 6.401)" fill="#c8effe"/>
      <path id="Trazado_103658" data-name="Trazado 103658" d="M21.032,33.336a9.492,9.492,0,0,1,9.494-9.49H11.808a9.492,9.492,0,0,0-9.494,9.49V134.01l36.967,7.823H58L21.031,134.01V33.336Z" transform="translate(0.458 6.401)" fill="#99e6fc"/>
      <path id="Trazado_103659" data-name="Trazado 103659" d="M59.346,114.577H48.685v26.874l9.64,5.506h10.66l-9.64-5.506Z" transform="translate(12.907 30.759)" fill="#c9bfc8"/>
      <path id="Trazado_103660" data-name="Trazado 103660" d="M14.385,110.695v15.646H172.709a9.492,9.492,0,0,0,9.494-9.49v-6.156Z" transform="translate(3.699 29.717)" fill="#efedef"/>
      <path id="Trazado_103661" data-name="Trazado 103661" d="M21.031,116.851v-6.156H2.314v6.156a9.492,9.492,0,0,0,9.494,9.49H30.526A9.492,9.492,0,0,1,21.031,116.851Z" transform="translate(0.458 29.717)" fill="#e5e1e5"/>
      <path id="Trazado_103662" data-name="Trazado 103662" d="M122.074,146.992l-8.052-11.228H53.943v1.029L47.877,147.27l2.578,2.509H120.64A1.762,1.762,0,0,0,122.074,146.992Z" transform="translate(12.69 36.447)" fill="#efedef"/>
      <path id="Trazado_103663" data-name="Trazado 103663" d="M53.068,146.992l8.052-11.228H50.46l-8.052,11.228a1.762,1.762,0,0,0,1.434,2.788H54.5A1.762,1.762,0,0,1,53.068,146.992Z" transform="translate(11.132 36.447)" fill="#e5e1e5"/>
      <g id="XMLID_136_" transform="translate(65.618 20.849)">
        <g id="Grupo_91105" data-name="Grupo 91105">
          <path id="Trazado_103664" data-name="Trazado 103664" d="M109.049,17.59V31.864a.617.617,0,0,1-1.009.477l-4.218-3.453H86.56V80.44l10.751,3.083a.539.539,0,0,1,.388.518V88.2a.537.537,0,0,1-.536.54H63.5a.537.537,0,0,1-.536-.54V84.041a.539.539,0,0,1,.388-.518L74.108,80.44V28.888H56.846l-3.967,3.4a.618.618,0,0,1-1.02-.47V17.59a1.155,1.155,0,0,1,1.153-1.153H107.9a1.153,1.153,0,0,1,1.153,1.153Z" transform="translate(-51.859 -16.436)" fill="#fee45a"/>
        </g>
      </g>
      <g id="Grupo_91106" data-name="Grupo 91106" transform="translate(39.739 2.773)">
        <path id="Trazado_103665" data-name="Trazado 103665" d="M41.008,14.848h-6.44a3.111,3.111,0,0,1-3.111-3.111V5.3a3.111,3.111,0,0,1,3.111-3.111h6.44A3.111,3.111,0,0,1,44.119,5.3v6.44A3.111,3.111,0,0,1,41.008,14.848Z" transform="translate(-31.457 -2.186)" fill="#01c0fa"/>
        <path id="Trazado_103666" data-name="Trazado 103666" d="M110.671,14.848h6.44a3.111,3.111,0,0,0,3.111-3.111V5.3a3.111,3.111,0,0,0-3.111-3.111h-6.44A3.111,3.111,0,0,0,107.56,5.3v6.44A3.111,3.111,0,0,0,110.671,14.848Z" transform="translate(-11.027 -2.186)" fill="#01c0fa"/>
        <path id="Trazado_103667" data-name="Trazado 103667" d="M41.008,77.706h-6.44a3.111,3.111,0,0,0-3.111,3.111v6.44a3.111,3.111,0,0,0,3.111,3.111h6.44a3.111,3.111,0,0,0,3.111-3.111v-6.44A3.111,3.111,0,0,0,41.008,77.706Z" transform="translate(-31.457 18.088)" fill="#01c0fa"/>
        <path id="Trazado_103668" data-name="Trazado 103668" d="M110.671,77.706h6.44a3.111,3.111,0,0,1,3.111,3.111v6.44a3.111,3.111,0,0,1-3.111,3.111h-6.44a3.111,3.111,0,0,1-3.111-3.111v-6.44A3.111,3.111,0,0,1,110.671,77.706Z" transform="translate(-11.027 18.088)" fill="#01c0fa"/>
      </g>
      <g id="Grupo_91107" data-name="Grupo 91107" transform="translate(0 0)">
        <path id="Trazado_103669" data-name="Trazado 103669" d="M176.537,21.658H153.084a2.773,2.773,0,0,0,0,5.546h23.453a6.727,6.727,0,0,1,6.719,6.719v97.9H5.674v-97.9A6.727,6.727,0,0,1,12.393,27.2H35.107a2.773,2.773,0,1,0,0-5.546H12.393A12.279,12.279,0,0,0,.129,33.923V140.754a12.279,12.279,0,0,0,12.265,12.265H58.949V165.5l-7.532,10.5a4.536,4.536,0,0,0,3.686,7.179h78.356a4.536,4.536,0,0,0,3.686-7.179l-7.2-10.039a2.755,2.755,0,0,0-.333-.953v-12h46.926A12.279,12.279,0,0,0,188.8,140.754V33.923a12.279,12.279,0,0,0-12.265-12.264Zm0,125.814H114.707a2.773,2.773,0,1,0,0,5.546h9.359v10.6h-4.891a2.773,2.773,0,1,0,0,5.546h6.24l6.076,8.473H57.07l6.076-8.473h6.61a2.773,2.773,0,1,0,0-5.546H64.494v-10.6h38.4a2.773,2.773,0,1,0,0-5.546h-90.5a6.727,6.727,0,0,1-6.719-6.719V137.37H183.257v3.383A6.727,6.727,0,0,1,176.537,147.473Z" transform="translate(-0.129 5.814)" fill="#12263f"/>
        <path id="Trazado_103670" data-name="Trazado 103670" d="M103.419,32.249l3.452,2.825a3.39,3.39,0,0,0,5.537-2.623V18.175a3.929,3.929,0,0,0-3.924-3.924H53.6a3.929,3.929,0,0,0-3.924,3.924V32.412a3.389,3.389,0,0,0,5.6,2.572l3.188-2.735H71.921V55.266a2.773,2.773,0,0,0,5.546,0V29.477A2.773,2.773,0,0,0,74.694,26.7H57.432a2.772,2.772,0,0,0-1.806.668l-.407.349V19.8h51.643V27.9l-.7-.571a2.773,2.773,0,0,0-1.756-.627H87.147a2.773,2.773,0,0,0-2.773,2.773V81.026a2.773,2.773,0,0,0,2.008,2.665l9.132,2.621v.242H66.327v-.241l9.132-2.621a2.773,2.773,0,0,0,2.008-2.665V67.083a2.773,2.773,0,1,0-5.546,0V78.937L63.18,81.447a3.326,3.326,0,0,0-2.4,3.183v4.158A3.316,3.316,0,0,0,64.093,92.1H97.748a3.316,3.316,0,0,0,3.311-3.312V84.63a3.326,3.326,0,0,0-2.4-3.183L89.92,78.937V32.249Z" transform="translate(13.172 3.826)" fill="#12263f"/>
        <path id="Trazado_103671" data-name="Trazado 103671" d="M35.155,18.208H35.6V95.794h-.447a5.891,5.891,0,0,0-5.884,5.884v6.44A5.891,5.891,0,0,0,35.155,114h6.44a5.891,5.891,0,0,0,5.884-5.884v-.447H125.8v.447A5.891,5.891,0,0,0,131.689,114h6.44a5.891,5.891,0,0,0,5.884-5.884v-6.44a5.891,5.891,0,0,0-5.884-5.884h-1.186V50.222a2.773,2.773,0,0,0-5.546,0V95.809a5.886,5.886,0,0,0-5.592,5.869v.447H47.479v-.447a5.891,5.891,0,0,0-5.884-5.884h-.447V18.208h.447a5.891,5.891,0,0,0,5.884-5.884v-.447H125.8v.447a5.886,5.886,0,0,0,5.592,5.869V38.405a2.773,2.773,0,1,0,5.546,0v-20.2h1.186a5.891,5.891,0,0,0,5.884-5.884V5.884A5.891,5.891,0,0,0,138.129,0h-6.44A5.891,5.891,0,0,0,125.8,5.884v.447H47.479V5.884A5.891,5.891,0,0,0,41.595,0h-6.44a5.891,5.891,0,0,0-5.884,5.884v6.44a5.891,5.891,0,0,0,5.884,5.884Zm96.2,83.47a.339.339,0,0,1,.338-.339h6.44a.339.339,0,0,1,.338.339v6.44a.339.339,0,0,1-.338.339h-6.44a.339.339,0,0,1-.338-.339Zm-89.417,0v6.44a.339.339,0,0,1-.338.339h-6.44a.339.339,0,0,1-.338-.339v-6.44a.339.339,0,0,1,.338-.339h6.44A.339.339,0,0,1,41.933,101.678ZM131.35,5.884a.339.339,0,0,1,.338-.338h6.44a.339.339,0,0,1,.338.338v6.44a.339.339,0,0,1-.338.338h-6.44a.339.339,0,0,1-.338-.338Zm-96.534,0a.339.339,0,0,1,.338-.338h6.44a.339.339,0,0,1,.338.338v6.44a.339.339,0,0,1-.338.338h-6.44a.339.339,0,0,1-.338-.338Z" transform="translate(7.695 0)" fill="#12263f"/>
      </g>
    </g>
  </g>
</svg>
