<svg xmlns="http://www.w3.org/2000/svg" xmlns:xlink="http://www.w3.org/1999/xlink" width="189" height="189" viewBox="0 0 189 189">
  <defs>
    <clipPath id="clip-path">
      <rect id="Rectángulo_12144" data-name="Rectángulo 12144" width="189" height="189" transform="translate(311 709)" fill="#fff" stroke="#707070" stroke-width="1"/>
    </clipPath>
  </defs>
  <g id="Enmascarar_grupo_50" data-name="Enmascarar grupo 50" transform="translate(-311 -709)" clip-path="url(#clip-path)">
    <g id="anadir" transform="translate(311 734.412)">
      <path id="Trazado_103672" data-name="Trazado 103672" d="M125.228,77.862a32.424,32.424,0,1,1-27.687,32.079,32.424,32.424,0,0,1,27.687-32.079Z" transform="translate(23.531 -7.254)" fill="#039be5"/>
      <path id="Trazado_103673" data-name="Trazado 103673" d="M174.678,39.6V98.449a32.462,32.462,0,0,0-24.449-6.337L123.862,73.435,88.082,108.6l-.015-.015L46.348,88.259,4.41,112.583V39.6A15.169,15.169,0,0,1,19.579,24.432h139.93A15.169,15.169,0,0,1,174.678,39.6ZM93.789,64.326A13.343,13.343,0,1,0,80.446,77.671,13.343,13.343,0,0,0,93.789,64.326Z" transform="translate(-1.471 -21.504)" fill="#ffca28"/>
      <path id="Trazado_103674" data-name="Trazado 103674" d="M114.251,63.064l26.368,18.677a32.424,32.424,0,0,0-19.067,54.093H40.211l38.26-37.6Z" transform="translate(8.14 -11.133)" fill="#4dd0e1"/>
      <path id="Trazado_103675" data-name="Trazado 103675" d="M67.18,45.365A13.343,13.343,0,1,1,53.835,58.708,13.343,13.343,0,0,1,67.18,45.365Z" transform="translate(11.798 -15.884)" fill="#4dd0e1"/>
      <path id="Trazado_103676" data-name="Trazado 103676" d="M88.082,95.1l-38.26,37.6H19.579A15.169,15.169,0,0,1,4.41,117.527V99.074L46.348,74.751l41.719,20.33Z" transform="translate(-1.471 -7.995)" fill="#039be5"/>
      <path id="Trazado_103677" data-name="Trazado 103677" d="M67.822,75.727A16.377,16.377,0,1,0,51.443,59.349,16.376,16.376,0,0,0,67.822,75.727Zm0-26.686A10.309,10.309,0,1,1,57.511,59.35,10.309,10.309,0,0,1,67.822,49.041Z" transform="translate(11.156 -16.526)" fill="#083863"/>
      <path id="Trazado_103678" data-name="Trazado 103678" d="M143.195,104.5H129.922V91.229a3.034,3.034,0,0,0-6.068,0V104.5H110.961a3.034,3.034,0,1,0,0,6.068h12.894v12.894a3.034,3.034,0,1,0,6.068,0V110.569h13.273a3.034,3.034,0,0,0,0-6.068Z" transform="translate(26.319 -4.386)" fill="#083863"/>
      <path id="Trazado_103679" data-name="Trazado 103679" d="M178.433,97.617V40.22a18.218,18.218,0,0,0-18.3-18.1H20.2A18.051,18.051,0,0,0,2.093,40.22v91.435A18.2,18.2,0,0,0,20.2,149.923H130.5A36.323,36.323,0,0,0,155.586,160.3a35.505,35.505,0,0,0,22.847-62.683ZM20.2,28.191h139.93A12.143,12.143,0,0,1,172.365,40.22V93.508a35.817,35.817,0,0,0-20.7-3.936L126.251,71.579a3.042,3.042,0,0,0-3.887.312l-34.25,33.662L48.3,86.151a2.942,2.942,0,0,0-2.806.1L8.16,107.935V40.22A11.978,11.978,0,0,1,20.2,28.191ZM90.832,111.42,124.8,78.013l18.921,13.4a35.511,35.511,0,0,0-18.084,52.447H57.861ZM8.16,131.655v-16.7L47.142,92.314l36.4,17.783L49.2,143.855h-29a12.123,12.123,0,0,1-12.04-12.2ZM155.584,154.2a29.39,29.39,0,1,1,17.869-52.725h0A29.39,29.39,0,0,1,155.584,154.2Z" transform="translate(-2.093 -22.123)" fill="#12263f"/>
    </g>
  </g>
</svg>
