<svg xmlns="http://www.w3.org/2000/svg" xmlns:xlink="http://www.w3.org/1999/xlink" width="190" height="190" viewBox="0 0 190 190">
  <defs>
    <clipPath id="clip-path">
      <rect id="Rectángulo_12138" data-name="Rectángulo 12138" width="190" height="190" transform="translate(431 679)" fill="#fff" stroke="#707070" stroke-width="1"/>
    </clipPath>
  </defs>
  <g id="Enmascarar_grupo_47" data-name="Enmascarar grupo 47" transform="translate(-431 -679)" clip-path="url(#clip-path)">
    <g id="diseno-ux" transform="translate(431 695.974)">
      <g id="Grupo_91043" data-name="Grupo 91043" transform="translate(15.488 25.156)">
        <g id="Grupo_91005" data-name="Grupo 91005">
          <g id="Grupo_91004" data-name="Grupo 91004">
            <path id="Trazado_103600" data-name="Trazado 103600" d="M82.394,35.91H20.336a5.334,5.334,0,0,0-5.319,5.319v88.542h72.7V41.229a5.334,5.334,0,0,0-5.318-5.319Z" transform="translate(-15.017 -35.91)" fill="#ffa726"/>
          </g>
        </g>
        <g id="Grupo_91007" data-name="Grupo 91007" transform="translate(0.001 0)">
          <g id="Grupo_91006" data-name="Grupo 91006">
            <path id="Trazado_103601" data-name="Trazado 103601" d="M21.584,54.765V41.229A5.334,5.334,0,0,1,26.9,35.91H20.336a5.334,5.334,0,0,0-5.319,5.319v88.542h6.567V54.765Z" transform="translate(-15.017 -35.91)" fill="#d2820d"/>
          </g>
        </g>
        <g id="Grupo_91009" data-name="Grupo 91009" transform="translate(0 93.862)">
          <g id="Grupo_91008" data-name="Grupo 91008">
            <path id="Trazado_103602" data-name="Trazado 103602" d="M15.017,109.517v17.021a5.334,5.334,0,0,0,5.319,5.319H82.394a5.335,5.335,0,0,0,5.319-5.319V109.517Z" transform="translate(-15.017 -109.517)" fill="#4dd0e1"/>
          </g>
        </g>
        <g id="Grupo_91011" data-name="Grupo 91011" transform="translate(0.001 93.862)">
          <g id="Grupo_91010" data-name="Grupo 91010">
            <path id="Trazado_103603" data-name="Trazado 103603" d="M21.584,126.539V109.517H15.017v17.021a5.334,5.334,0,0,0,5.319,5.319H26.9A5.334,5.334,0,0,1,21.584,126.539Z" transform="translate(-15.017 -109.517)" fill="#039be5"/>
          </g>
        </g>
        <g id="Grupo_91013" data-name="Grupo 91013" transform="translate(32.765 101.543)">
          <g id="Grupo_91012" data-name="Grupo 91012">
            <path id="Trazado_103604" data-name="Trazado 103604" d="M47.876,119.123a3.583,3.583,0,1,1-3.583-3.582A3.583,3.583,0,0,1,47.876,119.123Z" transform="translate(-40.711 -115.541)" fill="#f46275"/>
          </g>
        </g>
        <g id="Grupo_91015" data-name="Grupo 91015" transform="translate(86.329 93.862)">
          <g id="Grupo_91014" data-name="Grupo 91014">
            <path id="Trazado_103605" data-name="Trazado 103605" d="M82.716,109.517v17.021a5.334,5.334,0,0,0,5.319,5.319h62.058a5.335,5.335,0,0,0,5.319-5.319V109.517Z" transform="translate(-82.716 -109.517)" fill="#4dd0e1"/>
          </g>
        </g>
        <g id="Grupo_91017" data-name="Grupo 91017" transform="translate(86.329)">
          <g id="Grupo_91016" data-name="Grupo 91016">
            <path id="Trazado_103606" data-name="Trazado 103606" d="M150.094,35.91H88.036a5.334,5.334,0,0,0-5.319,5.319v88.542h72.7V41.229a5.334,5.334,0,0,0-5.318-5.319Z" transform="translate(-82.716 -35.91)" fill="#ffa726"/>
          </g>
        </g>
        <g id="Grupo_91019" data-name="Grupo 91019" transform="translate(147.139 0)">
          <g id="Grupo_91018" data-name="Grupo 91018" transform="translate(0)">
            <path id="Trazado_103607" data-name="Trazado 103607" d="M136.971,35.91H130.4a5.335,5.335,0,0,1,5.319,5.319v88.542h6.567V41.229A5.335,5.335,0,0,0,136.971,35.91Z" transform="translate(-130.404 -35.91)" fill="#fbc16c"/>
          </g>
        </g>
        <g id="Grupo_91021" data-name="Grupo 91021" transform="translate(147.138 93.862)">
          <g id="Grupo_91020" data-name="Grupo 91020">
            <path id="Trazado_103608" data-name="Trazado 103608" d="M135.723,109.517v17.021a5.335,5.335,0,0,1-5.319,5.319h6.567a5.335,5.335,0,0,0,5.319-5.319V109.517Z" transform="translate(-130.404 -109.517)" fill="#63e2e7"/>
          </g>
        </g>
        <g id="Grupo_91023" data-name="Grupo 91023" transform="translate(119.093 101.543)">
          <g id="Grupo_91022" data-name="Grupo 91022">
            <path id="Trazado_103609" data-name="Trazado 103609" d="M115.576,119.123a3.583,3.583,0,1,1-3.583-3.582A3.583,3.583,0,0,1,115.576,119.123Z" transform="translate(-108.411 -115.541)" fill="#f46275"/>
          </g>
        </g>
        <g id="Grupo_91025" data-name="Grupo 91025" transform="translate(9.012 21.793)">
          <g id="Grupo_91024" data-name="Grupo 91024">
            <path id="Trazado_103610" data-name="Trazado 103610" d="M22.084,53H76.755V78.169H22.084Z" transform="translate(-22.084 -53)" fill="#9e9e9e"/>
          </g>
        </g>
        <g id="Grupo_91027" data-name="Grupo 91027" transform="translate(9.012 24.567)">
          <g id="Grupo_91026" data-name="Grupo 91026">
            <path id="Trazado_103611" data-name="Trazado 103611" d="M22.084,77.57,49.419,55.176,76.755,77.57Z" transform="translate(-22.084 -55.176)" fill="#ffca28"/>
          </g>
        </g>
        <g id="Grupo_91029" data-name="Grupo 91029" transform="translate(49.456 29.568)">
          <g id="Grupo_91028" data-name="Grupo 91028">
            <path id="Trazado_103612" data-name="Trazado 103612" d="M53.8,64.835l7-5.738,7.222,5.917V76.491Z" transform="translate(-53.8 -59.098)" fill="#039be5"/>
          </g>
        </g>
        <g id="Grupo_91031" data-name="Grupo 91031" transform="translate(9.012 53.861)">
          <g id="Grupo_91030" data-name="Grupo 91030">
            <path id="Trazado_103613" data-name="Trazado 103613" d="M22.084,78.149h20.4v32.566h-20.4Z" transform="translate(-22.084 -78.149)" fill="#ffca28"/>
          </g>
        </g>
        <g id="Grupo_91033" data-name="Grupo 91033" transform="translate(36.307 53.861)">
          <g id="Grupo_91032" data-name="Grupo 91032">
            <path id="Trazado_103614" data-name="Trazado 103614" d="M43.489,78.149H70.865V91.83H43.489Z" transform="translate(-43.489 -78.149)" fill="#67beeb"/>
          </g>
        </g>
        <g id="Grupo_91035" data-name="Grupo 91035" transform="translate(95.341 17.771)">
          <g id="Grupo_91034" data-name="Grupo 91034">
            <path id="Trazado_103615" data-name="Trazado 103615" d="M89.784,49.846h54.671V75.015H89.784Z" transform="translate(-89.784 -49.846)" fill="#039be5"/>
          </g>
        </g>
        <g id="Grupo_91037" data-name="Grupo 91037" transform="translate(95.341 49.839)">
          <g id="Grupo_91036" data-name="Grupo 91036">
            <path id="Trazado_103616" data-name="Trazado 103616" d="M89.784,74.994h54.671v25.169H89.784Z" transform="translate(-89.784 -74.994)" fill="#ffca28"/>
          </g>
        </g>
        <g id="Grupo_91042" data-name="Grupo 91042" transform="translate(43.97 59.342)">
          <g id="Grupo_91039" data-name="Grupo 91039">
            <g id="Grupo_91038" data-name="Grupo 91038">
              <path id="Trazado_103617" data-name="Trazado 103617" d="M65.746,87.82,49.5,82.447,51.973,99.38l3.744-5.3,6.752,8.045,4.158-3.491-6.752-8.044Z" transform="translate(-49.498 -82.447)" fill="#ffe587"/>
            </g>
          </g>
          <g id="Grupo_91041" data-name="Grupo 91041">
            <g id="Grupo_91040" data-name="Grupo 91040">
              <path id="Trazado_103618" data-name="Trazado 103618" d="M65.746,87.82,49.5,82.447,51.973,99.38l3.744-5.3,6.752,8.045,4.158-3.491-6.752-8.044Z" transform="translate(-49.498 -82.447)" fill="#9e9e9e"/>
            </g>
          </g>
        </g>
      </g>
      <g id="Grupo_91094" data-name="Grupo 91094" transform="translate(0 0)">
        <g id="Grupo_91045" data-name="Grupo 91045" transform="translate(14.331 24)">
          <g id="Grupo_91044" data-name="Grupo 91044">
            <path id="Trazado_103619" data-name="Trazado 103619" d="M20.585,153.518H82.643a6.483,6.483,0,0,0,6.475-6.475V41.479A6.483,6.483,0,0,0,82.643,35H20.585a6.483,6.483,0,0,0-6.475,6.475V147.042a6.483,6.483,0,0,0,6.475,6.475ZM16.422,46.558H53.665a1.156,1.156,0,0,0,0-2.312H16.422V41.479a4.168,4.168,0,0,1,4.163-4.163H82.643a4.168,4.168,0,0,1,4.163,4.163v87.386H16.422Zm0,84.619H86.806v15.865a4.167,4.167,0,0,1-4.163,4.162H20.585a4.167,4.167,0,0,1-4.163-4.162Z" transform="translate(-14.11 -35.003)" fill="#12263f"/>
          </g>
        </g>
        <g id="Grupo_91047" data-name="Grupo 91047" transform="translate(47.098 125.543)">
          <g id="Grupo_91046" data-name="Grupo 91046">
            <path id="Trazado_103620" data-name="Trazado 103620" d="M44.543,124.11a4.738,4.738,0,1,0-4.737-4.738,4.744,4.744,0,0,0,4.737,4.738Zm0-7.164a2.426,2.426,0,1,1-2.425,2.426,2.429,2.429,0,0,1,2.425-2.426Z" transform="translate(-39.806 -114.634)" fill="#12263f"/>
          </g>
        </g>
        <g id="Grupo_91049" data-name="Grupo 91049" transform="translate(60.592 33.243)">
          <g id="Grupo_91048" data-name="Grupo 91048">
            <path id="Trazado_103621" data-name="Trazado 103621" d="M51.544,44.564h5.74a1.156,1.156,0,1,0,0-2.312h-5.74a1.156,1.156,0,1,0,0,2.312Z" transform="translate(-50.388 -42.251)" fill="#12263f"/>
          </g>
        </g>
        <g id="Grupo_91051" data-name="Grupo 91051" transform="translate(100.661 24)">
          <g id="Grupo_91050" data-name="Grupo 91050">
            <path id="Trazado_103622" data-name="Trazado 103622" d="M81.81,41.479V147.042a6.482,6.482,0,0,0,6.475,6.475h62.058a6.482,6.482,0,0,0,6.475-6.475V41.479A6.483,6.483,0,0,0,150.343,35H88.285A6.482,6.482,0,0,0,81.81,41.479Zm72.695,105.564a4.167,4.167,0,0,1-4.162,4.162H88.285a4.167,4.167,0,0,1-4.162-4.162V131.177h70.382Zm0-105.564v87.386H84.123V46.558h37.242a1.156,1.156,0,1,0,0-2.312H84.123V41.479a4.168,4.168,0,0,1,4.162-4.163h62.058a4.168,4.168,0,0,1,4.162,4.163Z" transform="translate(-81.81 -35.003)" fill="#12263f"/>
          </g>
        </g>
        <g id="Grupo_91053" data-name="Grupo 91053" transform="translate(133.426 125.543)">
          <g id="Grupo_91052" data-name="Grupo 91052">
            <path id="Trazado_103623" data-name="Trazado 103623" d="M112.243,124.11a4.738,4.738,0,1,0-4.737-4.738A4.743,4.743,0,0,0,112.243,124.11Zm0-7.164a2.426,2.426,0,1,1-2.425,2.426A2.429,2.429,0,0,1,112.243,116.946Z" transform="translate(-107.505 -114.634)" fill="#12263f"/>
          </g>
        </g>
        <g id="Grupo_91055" data-name="Grupo 91055" transform="translate(146.92 33.243)">
          <g id="Grupo_91054" data-name="Grupo 91054">
            <path id="Trazado_103624" data-name="Trazado 103624" d="M119.244,44.564h5.74a1.156,1.156,0,1,0,0-2.312h-5.74a1.156,1.156,0,1,0,0,2.312Z" transform="translate(-118.088 -42.251)" fill="#12263f"/>
          </g>
        </g>
        <g id="Grupo_91057" data-name="Grupo 91057" transform="translate(23.343 45.793)">
          <g id="Grupo_91056" data-name="Grupo 91056">
            <path id="Trazado_103625" data-name="Trazado 103625" d="M77,52.093H22.334a1.156,1.156,0,0,0-1.156,1.156V78.418a1.156,1.156,0,0,0,1.156,1.156H77a1.156,1.156,0,0,0,1.156-1.156V53.249A1.156,1.156,0,0,0,77,52.093ZM25.569,77.262l24.1-19.743L62.047,67.659l0,0,11.718,9.6Zm50.279-1.285L64.6,66.764l5.18-4.244,6.067,4.97v8.487Zm0-11.477-5.334-4.37a1.156,1.156,0,0,0-1.465,0l-6.272,5.138L50.4,55.13a1.156,1.156,0,0,0-1.465,0L23.49,75.976V54.406H75.849V64.5Z" transform="translate(-21.177 -52.093)" fill="#12263f"/>
          </g>
        </g>
        <g id="Grupo_91059" data-name="Grupo 91059" transform="translate(23.343 77.861)">
          <g id="Grupo_91058" data-name="Grupo 91058">
            <path id="Trazado_103626" data-name="Trazado 103626" d="M42.733,77.242h-20.4A1.156,1.156,0,0,0,21.177,78.4v32.566a1.156,1.156,0,0,0,1.156,1.156h20.4a1.156,1.156,0,0,0,1.156-1.156V78.4A1.156,1.156,0,0,0,42.733,77.242Zm-1.156,32.566H23.49V79.554H41.576Z" transform="translate(-21.177 -77.242)" fill="#12263f"/>
          </g>
        </g>
        <g id="Grupo_91061" data-name="Grupo 91061" transform="translate(50.639 77.861)">
          <g id="Grupo_91060" data-name="Grupo 91060">
            <path id="Trazado_103627" data-name="Trazado 103627" d="M71.114,77.242H43.739A1.156,1.156,0,0,0,42.583,78.4V92.08a1.156,1.156,0,0,0,1.156,1.156H51.6l1.132,7.743a1.156,1.156,0,0,0,2.088.5L57.7,97.4l5.788,6.9a1.157,1.157,0,0,0,.785.409c.033,0,.067,0,.1,0a1.157,1.157,0,0,0,.743-.271l4.159-3.491a1.156,1.156,0,0,0,.143-1.629L64.31,93.235h6.805a1.156,1.156,0,0,0,1.156-1.156V78.4a1.157,1.157,0,0,0-1.157-1.155ZM61.286,90.975a1.156,1.156,0,0,0-.393,1.789L66.9,99.923l-2.388,2L58.5,94.769a1.158,1.158,0,0,0-.886-.413h-.048a1.155,1.155,0,0,0-.9.488L54.6,97.781,52.815,85.565,64.537,89.44Zm8.672-.052H66.815l1.327-.626a1.156,1.156,0,0,0-.13-2.143L51.763,82.782a1.156,1.156,0,0,0-1.507,1.265l1.005,6.877H44.893V79.555H69.957V90.923Z" transform="translate(-42.583 -77.242)" fill="#12263f"/>
          </g>
        </g>
        <g id="Grupo_91063" data-name="Grupo 91063" transform="translate(50.68 108.308)">
          <g id="Grupo_91062" data-name="Grupo 91062">
            <path id="Trazado_103628" data-name="Trazado 103628" d="M59.957,101.118H43.771a1.156,1.156,0,1,0,0,2.312H59.957a1.156,1.156,0,1,0,0-2.312Z" transform="translate(-42.615 -101.118)" fill="#12263f"/>
          </g>
        </g>
        <g id="Grupo_91065" data-name="Grupo 91065" transform="translate(72.454 108.308)">
          <g id="Grupo_91064" data-name="Grupo 91064">
            <path id="Trazado_103629" data-name="Trazado 103629" d="M66.407,101.118h-5.56a1.156,1.156,0,1,0,0,2.312h5.56a1.156,1.156,0,1,0,0-2.312Z" transform="translate(-59.691 -101.118)" fill="#12263f"/>
          </g>
        </g>
        <g id="Grupo_91067" data-name="Grupo 91067" transform="translate(109.672 41.771)">
          <g id="Grupo_91066" data-name="Grupo 91066">
            <path id="Trazado_103630" data-name="Trazado 103630" d="M88.877,50.1V75.264a1.156,1.156,0,0,0,1.156,1.156H144.7a1.156,1.156,0,0,0,1.156-1.156V50.1a1.156,1.156,0,0,0-1.156-1.156H90.033A1.157,1.157,0,0,0,88.877,50.1Zm6.432,24.013,22.06-10.156,22.06,10.156Zm48.239-.649L120.133,62.68,143.549,51.9Zm-4.12-22.208-22.06,10.156L95.309,51.251ZM91.19,51.9,114.6,62.68,91.19,73.46Z" transform="translate(-88.877 -48.939)" fill="#12263f"/>
          </g>
        </g>
        <g id="Grupo_91069" data-name="Grupo 91069" transform="translate(109.672 73.839)">
          <g id="Grupo_91068" data-name="Grupo 91068">
            <path id="Trazado_103631" data-name="Trazado 103631" d="M144.7,74.088H90.033a1.156,1.156,0,0,0-1.156,1.156v25.169a1.156,1.156,0,0,0,1.156,1.156H144.7a1.156,1.156,0,0,0,1.156-1.156V75.244a1.157,1.157,0,0,0-1.156-1.156ZM139.429,76.4l-22.06,10.156L95.309,76.4Zm-48.239.649L114.6,87.829,91.19,98.608Zm4.12,22.208L117.369,89.1l22.06,10.156Zm48.239-.649-23.415-10.78,23.415-10.78Z" transform="translate(-88.877 -74.088)" fill="#12263f"/>
          </g>
        </g>
        <g id="Grupo_91071" data-name="Grupo 91071" transform="translate(109.672 105.44)">
          <g id="Grupo_91070" data-name="Grupo 91070">
            <path id="Trazado_103632" data-name="Trazado 103632" d="M125.848,98.87H90.033a1.156,1.156,0,1,0,0,2.312h35.815a1.156,1.156,0,0,0,0-2.312Z" transform="translate(-88.877 -98.87)" fill="#12263f"/>
          </g>
        </g>
        <g id="Grupo_91073" data-name="Grupo 91073" transform="translate(151.653 105.44)">
          <g id="Grupo_91072" data-name="Grupo 91072">
            <path id="Trazado_103633" data-name="Trazado 103633" d="M135.646,98.87h-12.69a1.156,1.156,0,1,0,0,2.312h12.69a1.156,1.156,0,1,0,0-2.312Z" transform="translate(-121.799 -98.87)" fill="#12263f"/>
          </g>
        </g>
        <g id="Grupo_91075" data-name="Grupo 91075" transform="translate(109.672 111.873)">
          <g id="Grupo_91074" data-name="Grupo 91074">
            <path id="Trazado_103634" data-name="Trazado 103634" d="M125.848,103.914H90.033a1.156,1.156,0,1,0,0,2.312h35.815a1.156,1.156,0,0,0,0-2.312Z" transform="translate(-88.877 -103.914)" fill="#12263f"/>
          </g>
        </g>
        <g id="Grupo_91077" data-name="Grupo 91077" transform="translate(151.653 111.873)">
          <g id="Grupo_91076" data-name="Grupo 91076">
            <path id="Trazado_103635" data-name="Trazado 103635" d="M135.646,103.914h-12.69a1.156,1.156,0,1,0,0,2.312h12.69a1.156,1.156,0,1,0,0-2.312Z" transform="translate(-121.799 -103.914)" fill="#12263f"/>
          </g>
        </g>
        <g id="Grupo_91079" data-name="Grupo 91079" transform="translate(32.82 153.74)">
          <g id="Grupo_91078" data-name="Grupo 91078">
            <path id="Trazado_103636" data-name="Trazado 103636" d="M151.814,136.747H29.765a1.156,1.156,0,0,0,0,2.312H151.814a1.156,1.156,0,0,0,0-2.312Z" transform="translate(-28.609 -136.747)" fill="#12263f"/>
          </g>
        </g>
        <g id="Grupo_91081" data-name="Grupo 91081" transform="translate(164.181 153.74)">
          <g id="Grupo_91080" data-name="Grupo 91080">
            <path id="Trazado_103637" data-name="Trazado 103637" d="M142.607,136.747H132.78a1.156,1.156,0,1,0,0,2.312h9.828a1.156,1.156,0,1,0,0-2.312Z" transform="translate(-131.624 -136.747)" fill="#12263f"/>
          </g>
        </g>
        <g id="Grupo_91083" data-name="Grupo 91083" transform="translate(13.68 153.74)">
          <g id="Grupo_91082" data-name="Grupo 91082">
            <path id="Trazado_103638" data-name="Trazado 103638" d="M24.583,136.747H14.755a1.156,1.156,0,0,0,0,2.312h9.828a1.156,1.156,0,0,0,0-2.312Z" transform="translate(-13.599 -136.747)" fill="#12263f"/>
          </g>
        </g>
        <g id="Grupo_91085" data-name="Grupo 91085" transform="translate(0 140.202)">
          <g id="Grupo_91084" data-name="Grupo 91084">
            <path id="Trazado_103639" data-name="Trazado 103639" d="M12.121,126.13H4.027a1.156,1.156,0,0,0,0,2.312h8.093a1.156,1.156,0,0,0,0-2.312Z" transform="translate(-2.871 -126.13)" fill="#12263f"/>
          </g>
        </g>
        <g id="Grupo_91087" data-name="Grupo 91087" transform="translate(179.594 140.202)">
          <g id="Grupo_91086" data-name="Grupo 91086">
            <path id="Trazado_103640" data-name="Trazado 103640" d="M152.96,126.13h-8.093a1.156,1.156,0,0,0,0,2.312h8.093a1.156,1.156,0,0,0,0-2.312Z" transform="translate(-143.711 -126.13)" fill="#12263f"/>
          </g>
        </g>
        <g id="Grupo_91089" data-name="Grupo 91089" transform="translate(58.259 7.36)">
          <g id="Grupo_91088" data-name="Grupo 91088">
            <path id="Trazado_103641" data-name="Trazado 103641" d="M49.714,21.953a1.156,1.156,0,1,0,0,2.312h20.94a1.156,1.156,0,1,0,0-2.312Z" transform="translate(-48.558 -21.953)" fill="#12263f"/>
          </g>
        </g>
        <g id="Grupo_91091" data-name="Grupo 91091" transform="translate(96.285 7.36)">
          <g id="Grupo_91090" data-name="Grupo 91090">
            <path id="Trazado_103642" data-name="Trazado 103642" d="M87.949,23.11a1.156,1.156,0,0,0-1.156-1.156H79.535a1.156,1.156,0,0,0,0,2.312h7.258A1.157,1.157,0,0,0,87.949,23.11Z" transform="translate(-78.379 -21.953)" fill="#12263f"/>
          </g>
        </g>
        <g id="Grupo_91093" data-name="Grupo 91093" transform="translate(50.639)">
          <g id="Grupo_91092" data-name="Grupo 91092">
            <path id="Trazado_103643" data-name="Trazado 103643" d="M43.739,33.213a1.156,1.156,0,0,0,1.156-1.156V18.494h84.056V29.266l-4.14-4.14a1.156,1.156,0,0,0-1.635,1.635l6.114,6.114a1.157,1.157,0,0,0,1.636,0l6.115-6.114a1.156,1.156,0,1,0-1.635-1.635l-4.141,4.141V17.338a1.156,1.156,0,0,0-1.156-1.156H43.739a1.156,1.156,0,0,0-1.156,1.156V32.057a1.156,1.156,0,0,0,1.156,1.156Z" transform="translate(-42.583 -16.182)" fill="#12263f"/>
          </g>
        </g>
      </g>
    </g>
  </g>
</svg>
