<svg xmlns="http://www.w3.org/2000/svg" xmlns:xlink="http://www.w3.org/1999/xlink" width="189" height="189" viewBox="0 0 189 189">
  <defs>
    <clipPath id="clip-path">
      <rect id="Rectángulo_12148" data-name="Rectángulo 12148" width="189" height="189" transform="translate(311 1287)" fill="#fff" stroke="#707070" stroke-width="1"/>
    </clipPath>
  </defs>
  <g id="Enmascarar_grupo_52" data-name="Enmascarar grupo 52" transform="translate(-311 -1287)" clip-path="url(#clip-path)">
    <g id="Layer_52" transform="translate(349.143 1287)">
      <g id="Grupo_91301" data-name="Grupo 91301" transform="translate(0)">
        <g id="Grupo_91224" data-name="Grupo 91224" transform="translate(1.846 1.846)">
          <g id="Grupo_91223" data-name="Grupo 91223">
            <path id="Trazado_103735" data-name="Trazado 103735" d="M122.73,1.455H48.887A16.513,16.513,0,0,0,32.374,17.968V170.251a16.513,16.513,0,0,0,16.513,16.513H122.73a16.513,16.513,0,0,0,16.513-16.513V17.968A16.513,16.513,0,0,0,122.73,1.455Z" transform="translate(-32.374 -1.455)" fill="#5290db"/>
          </g>
        </g>
        <g id="Grupo_91226" data-name="Grupo 91226" transform="translate(9.375 9.375)">
          <g id="Grupo_91225" data-name="Grupo 91225">
            <path id="Trazado_103736" data-name="Trazado 103736" d="M121.138,7.391H100.763a5.634,5.634,0,0,0-5.178,3.431,12.362,12.362,0,0,1-22.739,0,5.634,5.634,0,0,0-5.178-3.431H47.294a8.984,8.984,0,0,0-8.984,8.984V168.656a8.984,8.984,0,0,0,8.984,8.984h73.843a8.984,8.984,0,0,0,8.984-8.984V16.375a8.984,8.984,0,0,0-8.983-8.984Z" transform="translate(-38.31 -7.391)" fill="#edf4fc"/>
          </g>
        </g>
        <g id="Grupo_91228" data-name="Grupo 91228" transform="translate(9.375 9.375)">
          <g id="Grupo_91227" data-name="Grupo 91227">
            <path id="Trazado_103737" data-name="Trazado 103737" d="M121.138,7.391H100.763a5.634,5.634,0,0,0-5.178,3.431,12.362,12.362,0,0,1-22.739,0,5.634,5.634,0,0,0-5.178-3.431H47.294a8.984,8.984,0,0,0-8.984,8.984V60.4h91.811V16.375a8.984,8.984,0,0,0-8.983-8.984Z" transform="translate(-38.31 -7.391)" fill="#70d6f9"/>
          </g>
        </g>
        <g id="Grupo_91230" data-name="Grupo 91230" transform="translate(28.333 41.713)">
          <g id="Grupo_91229" data-name="Grupo 91229">
            <path id="Trazado_103738" data-name="Trazado 103738" d="M102.352,32.885h-44.3a4.8,4.8,0,0,0,0,9.6h44.3a4.8,4.8,0,0,0,0-9.6Z" transform="translate(-53.256 -32.885)" fill="#fcdd86"/>
          </g>
        </g>
        <g id="Grupo_91232" data-name="Grupo 91232" transform="translate(28.333 41.713)">
          <g id="Grupo_91231" data-name="Grupo 91231">
            <path id="Trazado_103739" data-name="Trazado 103739" d="M62.854,32.885h-4.8a4.8,4.8,0,0,0,0,9.6h4.8Z" transform="translate(-53.256 -32.885)" fill="#f5c84c"/>
          </g>
        </g>
        <g id="Grupo_91234" data-name="Grupo 91234" transform="translate(57.54 117.756)">
          <g id="Grupo_91233" data-name="Grupo 91233">
            <path id="Trazado_103740" data-name="Trazado 103740" d="M78.448,92.834h29.627A2.167,2.167,0,0,1,110.243,95v28.151a2.167,2.167,0,0,1-2.167,2.167H78.448a2.167,2.167,0,0,1-2.167-2.167V95A2.167,2.167,0,0,1,78.448,92.834Z" transform="translate(-76.282 -92.834)" fill="#fc8c48"/>
          </g>
        </g>
        <g id="Grupo_91236" data-name="Grupo 91236" transform="translate(17.997 74.936)">
          <g id="Grupo_91235" data-name="Grupo 91235">
            <path id="Trazado_103741" data-name="Trazado 103741" d="M47.274,59.076H76.9a2.167,2.167,0,0,1,2.167,2.167V89.394A2.167,2.167,0,0,1,76.9,91.561H47.274a2.167,2.167,0,0,1-2.167-2.167V61.243A2.167,2.167,0,0,1,47.274,59.076Z" transform="translate(-45.107 -59.076)" fill="#70d6f9"/>
          </g>
        </g>
        <g id="Grupo_91238" data-name="Grupo 91238" transform="translate(65.272 132.813)">
          <g id="Grupo_91237" data-name="Grupo 91237" transform="translate(0)">
            <path id="Trazado_103742" data-name="Trazado 103742" d="M106.439,122.132a2.167,2.167,0,0,0,2.167-2.167v-8.253l-6.373-6.373a2.166,2.166,0,0,0-3.064,0L82.377,122.132Z" transform="translate(-82.377 -104.705)" fill="#fcdd86"/>
          </g>
        </g>
        <g id="Grupo_91240" data-name="Grupo 91240" transform="translate(57.54 127.646)">
          <g id="Grupo_91239" data-name="Grupo 91239">
            <path id="Trazado_103743" data-name="Trazado 103743" d="M96.062,111.177l-9.911-9.911a2.166,2.166,0,0,0-3.064,0l-6.805,6.805v12.988a2.167,2.167,0,0,0,2.167,2.167h5.565Z" transform="translate(-76.282 -100.631)" fill="#f5c84c"/>
          </g>
        </g>
        <g id="Grupo_91242" data-name="Grupo 91242" transform="translate(25.729 89.993)">
          <g id="Grupo_91241" data-name="Grupo 91241">
            <path id="Trazado_103744" data-name="Trazado 103744" d="M75.265,88.374a2.167,2.167,0,0,0,2.167-2.167V77.954l-6.373-6.373a2.166,2.166,0,0,0-3.064,0L51.2,88.374Z" transform="translate(-51.203 -70.947)" fill="#b2e26d"/>
          </g>
        </g>
        <g id="Grupo_91244" data-name="Grupo 91244" transform="translate(17.997 84.825)">
          <g id="Grupo_91243" data-name="Grupo 91243">
            <path id="Trazado_103745" data-name="Trazado 103745" d="M64.888,77.419l-9.911-9.911a2.166,2.166,0,0,0-3.064,0l-6.805,6.805V87.3a2.167,2.167,0,0,0,2.167,2.167h5.565Z" transform="translate(-45.107 -66.873)" fill="#87d147"/>
          </g>
        </g>
        <g id="Grupo_91246" data-name="Grupo 91246">
          <g id="Grupo_91245" data-name="Grupo 91245">
            <path id="Trazado_103746" data-name="Trazado 103746" d="M123.121,189H49.278a18.38,18.38,0,0,1-18.359-18.359V18.359A18.379,18.379,0,0,1,49.278,0h73.843A18.38,18.38,0,0,1,141.48,18.359V170.641A18.379,18.379,0,0,1,123.121,189ZM49.278,3.691A14.684,14.684,0,0,0,34.611,18.359V170.641a14.684,14.684,0,0,0,14.667,14.667h73.843a14.684,14.684,0,0,0,14.667-14.667V18.359A14.684,14.684,0,0,0,123.121,3.691Z" transform="translate(-30.919 0)" fill="#12263f"/>
          </g>
        </g>
        <g id="Grupo_91248" data-name="Grupo 91248" transform="translate(21.319 20.672)">
          <g id="Grupo_91247" data-name="Grupo 91247">
            <path id="Trazado_103747" data-name="Trazado 103747" d="M56.955,19.988H49.572a1.846,1.846,0,0,1,0-3.691h7.383a1.846,1.846,0,0,1,0,3.691Z" transform="translate(-47.727 -16.297)" fill="#12263f"/>
          </g>
        </g>
        <g id="Grupo_91250" data-name="Grupo 91250" transform="translate(59.536 73.09)">
          <g id="Grupo_91249" data-name="Grupo 91249">
            <path id="Trazado_103748" data-name="Trazado 103748" d="M94.761,61.313H79.7a1.846,1.846,0,0,1,0-3.691H94.761a1.846,1.846,0,0,1,0,3.691Z" transform="translate(-77.855 -57.621)" fill="#12263f"/>
          </g>
        </g>
        <g id="Grupo_91252" data-name="Grupo 91252" transform="translate(59.536 81.159)">
          <g id="Grupo_91251" data-name="Grupo 91251">
            <path id="Trazado_103749" data-name="Trazado 103749" d="M109.82,67.674H79.7a1.846,1.846,0,0,1,0-3.691H109.82a1.846,1.846,0,0,1,0,3.691Z" transform="translate(-77.855 -63.983)" fill="#12263f"/>
          </g>
        </g>
        <g id="Grupo_91254" data-name="Grupo 91254" transform="translate(59.536 89.227)">
          <g id="Grupo_91253" data-name="Grupo 91253">
            <path id="Trazado_103750" data-name="Trazado 103750" d="M109.82,74.035H79.7a1.846,1.846,0,0,1,0-3.691H109.82a1.846,1.846,0,0,1,0,3.691Z" transform="translate(-77.855 -70.343)" fill="#12263f"/>
          </g>
        </g>
        <g id="Grupo_91256" data-name="Grupo 91256" transform="translate(59.536 97.296)">
          <g id="Grupo_91255" data-name="Grupo 91255">
            <path id="Trazado_103751" data-name="Trazado 103751" d="M109.82,80.4H79.7a1.846,1.846,0,0,1,0-3.691H109.82a1.846,1.846,0,0,1,0,3.691Z" transform="translate(-77.855 -76.704)" fill="#12263f"/>
          </g>
        </g>
        <g id="Grupo_91258" data-name="Grupo 91258" transform="translate(59.536 105.365)">
          <g id="Grupo_91257" data-name="Grupo 91257">
            <path id="Trazado_103752" data-name="Trazado 103752" d="M109.82,86.757H79.7a1.846,1.846,0,0,1,0-3.691H109.82a1.846,1.846,0,0,1,0,3.691Z" transform="translate(-77.855 -83.066)" fill="#12263f"/>
          </g>
        </g>
        <g id="Grupo_91260" data-name="Grupo 91260" transform="translate(16.151 115.91)">
          <g id="Grupo_91259" data-name="Grupo 91259">
            <path id="Trazado_103753" data-name="Trazado 103753" d="M60.557,95.07H45.5a1.846,1.846,0,0,1,0-3.691H60.557a1.846,1.846,0,0,1,0,3.691Z" transform="translate(-43.652 -91.379)" fill="#12263f"/>
          </g>
        </g>
        <g id="Grupo_91262" data-name="Grupo 91262" transform="translate(16.151 123.98)">
          <g id="Grupo_91261" data-name="Grupo 91261">
            <path id="Trazado_103754" data-name="Trazado 103754" d="M75.617,101.432H45.5a1.846,1.846,0,0,1,0-3.691H75.617a1.846,1.846,0,0,1,0,3.691Z" transform="translate(-43.652 -97.741)" fill="#12263f"/>
          </g>
        </g>
        <g id="Grupo_91264" data-name="Grupo 91264" transform="translate(16.151 132.048)">
          <g id="Grupo_91263" data-name="Grupo 91263">
            <path id="Trazado_103755" data-name="Trazado 103755" d="M75.617,107.792H45.5a1.846,1.846,0,1,1,0-3.691H75.617a1.846,1.846,0,0,1,0,3.691Z" transform="translate(-43.652 -104.101)" fill="#12263f"/>
          </g>
        </g>
        <g id="Grupo_91266" data-name="Grupo 91266" transform="translate(16.151 140.116)">
          <g id="Grupo_91265" data-name="Grupo 91265">
            <path id="Trazado_103756" data-name="Trazado 103756" d="M75.617,114.153H45.5a1.846,1.846,0,1,1,0-3.691H75.617a1.846,1.846,0,0,1,0,3.691Z" transform="translate(-43.652 -110.462)" fill="#12263f"/>
          </g>
        </g>
        <g id="Grupo_91268" data-name="Grupo 91268" transform="translate(16.151 148.186)">
          <g id="Grupo_91267" data-name="Grupo 91267">
            <path id="Trazado_103757" data-name="Trazado 103757" d="M75.617,120.515H45.5a1.846,1.846,0,0,1,0-3.691H75.617a1.846,1.846,0,0,1,0,3.691Z" transform="translate(-43.652 -116.824)" fill="#12263f"/>
          </g>
        </g>
        <g id="Grupo_91270" data-name="Grupo 91270" transform="translate(48.84 160.425)">
          <g id="Grupo_91269" data-name="Grupo 91269">
            <path id="Trazado_103758" data-name="Trazado 103758" d="M75.863,134.76a1.849,1.849,0,0,1-1.305-.54l-4.6-4.6a1.846,1.846,0,0,1,2.611-2.61l3.29,3.29,3.29-3.29a1.846,1.846,0,0,1,2.611,2.61l-4.6,4.6a1.849,1.849,0,0,1-1.305.54Z" transform="translate(-69.422 -126.473)" fill="#12263f"/>
          </g>
        </g>
        <g id="Grupo_91282" data-name="Grupo 91282" transform="translate(7.529 7.529)">
          <g id="Grupo_91281" data-name="Grupo 91281">
            <path id="Trazado_103762" data-name="Trazado 103762" d="M121.528,179.878H47.685a10.842,10.842,0,0,1-10.83-10.83V16.765a10.842,10.842,0,0,1,10.83-10.83H68.058a7.479,7.479,0,0,1,6.875,4.55,10.516,10.516,0,0,0,19.345,0,7.48,7.48,0,0,1,6.876-4.551h20.374a10.842,10.842,0,0,1,10.829,10.83V169.048A10.842,10.842,0,0,1,121.528,179.878ZM47.685,9.627a7.147,7.147,0,0,0-7.138,7.138V169.048a7.147,7.147,0,0,0,7.138,7.138h73.843a7.147,7.147,0,0,0,7.138-7.138V16.765a7.146,7.146,0,0,0-7.138-7.138H101.154a3.793,3.793,0,0,0-3.482,2.312,14.207,14.207,0,0,1-26.131,0,3.792,3.792,0,0,0-3.482-2.312Z" transform="translate(-36.855 -5.936)" fill="#12263f"/>
          </g>
        </g>
        <g id="Grupo_91284" data-name="Grupo 91284" transform="translate(8.145 60.539)">
          <g id="Grupo_91283" data-name="Grupo 91283">
            <path id="Trazado_103763" data-name="Trazado 103763" d="M129.972,51.418H39.186a1.846,1.846,0,0,1,0-3.691h90.786a1.846,1.846,0,0,1,0,3.691Z" transform="translate(-37.341 -47.727)" fill="#12263f"/>
          </g>
        </g>
        <g id="Grupo_91286" data-name="Grupo 91286" transform="translate(26.487 39.867)">
          <g id="Grupo_91285" data-name="Grupo 91285">
            <path id="Trazado_103764" data-name="Trazado 103764" d="M102.742,44.719h-44.3a6.645,6.645,0,0,1,0-13.289h44.3a6.645,6.645,0,0,1,0,13.289Zm-44.3-9.6a2.953,2.953,0,0,0,0,5.906h44.3a2.953,2.953,0,0,0,0-5.906Z" transform="translate(-51.801 -31.43)" fill="#12263f"/>
          </g>
        </g>
        <g id="Grupo_91288" data-name="Grupo 91288" transform="translate(36.085 40.467)">
          <g id="Grupo_91287" data-name="Grupo 91287">
            <path id="Trazado_103765" data-name="Trazado 103765" d="M61.213,44.13a1.845,1.845,0,0,1-1.846-1.846V33.749a1.846,1.846,0,1,1,3.691,0v8.536A1.845,1.845,0,0,1,61.213,44.13Z" transform="translate(-59.367 -31.903)" fill="#12263f"/>
          </g>
        </g>
        <g id="Grupo_91290" data-name="Grupo 91290" transform="translate(55.694 115.909)">
          <g id="Grupo_91289" data-name="Grupo 91289">
            <path id="Trazado_103766" data-name="Trazado 103766" d="M108.466,127.555H78.839a4.017,4.017,0,0,1-4.013-4.013V95.391a4.017,4.017,0,0,1,4.013-4.013h29.627a4.017,4.017,0,0,1,4.013,4.013v28.151A4.017,4.017,0,0,1,108.466,127.555ZM78.839,95.07a.321.321,0,0,0-.321.321v28.151a.322.322,0,0,0,.321.321h29.627a.321.321,0,0,0,.321-.321V95.392a.322.322,0,0,0-.321-.321Z" transform="translate(-74.827 -91.378)" fill="#12263f"/>
          </g>
        </g>
        <g id="Grupo_91292" data-name="Grupo 91292" transform="translate(16.151 73.09)">
          <g id="Grupo_91291" data-name="Grupo 91291">
            <path id="Trazado_103767" data-name="Trazado 103767" d="M77.292,93.8H47.665a4.017,4.017,0,0,1-4.013-4.013V61.633a4.017,4.017,0,0,1,4.013-4.012H77.292A4.017,4.017,0,0,1,81.3,61.634V89.785A4.016,4.016,0,0,1,77.292,93.8ZM47.665,61.313a.321.321,0,0,0-.321.321V89.784a.322.322,0,0,0,.321.322H77.292a.321.321,0,0,0,.321-.321V61.634a.322.322,0,0,0-.321-.321Z" transform="translate(-43.652 -57.621)" fill="#12263f"/>
          </g>
        </g>
        <g id="Grupo_91294" data-name="Grupo 91294" transform="translate(63.729 130.969)">
          <g id="Grupo_91293" data-name="Grupo 91293">
            <path id="Trazado_103768" data-name="Trazado 103768" d="M83.007,124.065a1.845,1.845,0,0,1-1.305-3.15L98.19,104.426a4.012,4.012,0,0,1,5.674,0l6.034,6.035a1.845,1.845,0,0,1-2.61,2.61l-6.035-6.035a.279.279,0,0,0-.454,0L84.31,123.525a1.834,1.834,0,0,1-1.3.54Z" transform="translate(-81.16 -103.251)" fill="#12263f"/>
          </g>
        </g>
        <g id="Grupo_91296" data-name="Grupo 91296" transform="translate(56.107 125.8)">
          <g id="Grupo_91295" data-name="Grupo 91295">
            <path id="Trazado_103769" data-name="Trazado 103769" d="M95.983,113.03a1.84,1.84,0,0,1-1.305-.54l-9.529-9.528a.279.279,0,0,0-.454,0L78.3,109.353a1.845,1.845,0,0,1-2.61-2.61l6.392-6.391a4.01,4.01,0,0,1,5.674,0l9.528,9.528a1.845,1.845,0,0,1-1.3,3.15Z" transform="translate(-75.152 -99.176)" fill="#12263f"/>
          </g>
        </g>
        <g id="Grupo_91298" data-name="Grupo 91298" transform="translate(24.508 88.15)">
          <g id="Grupo_91297" data-name="Grupo 91297">
            <path id="Trazado_103770" data-name="Trazado 103770" d="M52.087,89.984a1.845,1.845,0,0,1-1.305-3.15L66.948,70.667a4.018,4.018,0,0,1,5.674,0L78.657,76.7a1.846,1.846,0,1,1-2.611,2.61l-6.035-6.035a.322.322,0,0,0-.454,0L53.391,89.444a1.838,1.838,0,0,1-1.3.54Z" transform="translate(-50.241 -69.494)" fill="#12263f"/>
          </g>
        </g>
        <g id="Grupo_91300" data-name="Grupo 91300" transform="translate(16.545 82.981)">
          <g id="Grupo_91299" data-name="Grupo 91299">
            <path id="Trazado_103771" data-name="Trazado 103771" d="M64.776,79.235a1.84,1.84,0,0,1-1.305-.54L53.979,69.2a.322.322,0,0,0-.454,0l-6.411,6.411A1.845,1.845,0,0,1,44.5,73l6.411-6.412a4.018,4.018,0,0,1,5.674,0l9.492,9.493a1.846,1.846,0,0,1-1.305,3.151Z" transform="translate(-43.963 -65.419)" fill="#12263f"/>
          </g>
        </g>
      </g>
    </g>
  </g>
</svg>
