<svg xmlns="http://www.w3.org/2000/svg" xmlns:xlink="http://www.w3.org/1999/xlink" width="189" height="189" viewBox="0 0 189 189">
  <defs>
    <clipPath id="clip-path">
      <rect id="Rectángulo_12140" data-name="Rectángulo 12140" width="189" height="189" transform="translate(311 121)" fill="#fff" stroke="#707070" stroke-width="1"/>
    </clipPath>
  </defs>
  <g id="Enmascarar_grupo_48" data-name="Enmascarar grupo 48" transform="translate(-311 -121)" clip-path="url(#clip-path)">
    <g id="usuario_1_" data-name="usuario (1)" transform="translate(311 121)">
      <g id="Grupo_91103" data-name="Grupo 91103" transform="translate(3.691 3.691)">
        <g id="Grupo_91095" data-name="Grupo 91095">
          <path id="Trazado_103644" data-name="Trazado 103644" d="M2.91,88.09A91.055,91.055,0,0,0,5.424,109.4L38.312,98.342a56.445,56.445,0,0,1,15.57-50.088L29.507,23.878A90.524,90.524,0,0,0,2.91,88.09Z" transform="translate(-2.91 2.719)" fill="#d1aee5"/>
          <path id="Trazado_103645" data-name="Trazado 103645" d="M88.09,2.91a90.524,90.524,0,0,0-64.211,26.6L48.254,53.883a56.162,56.162,0,0,1,39.837-16.5V2.91Z" transform="translate(2.719 -2.91)" fill="#c193dc"/>
        </g>
        <g id="Grupo_91097" data-name="Grupo 91097" transform="translate(90.809 0)">
          <g id="Grupo_91096" data-name="Grupo 91096" transform="translate(39.836 26.597)">
            <path id="Trazado_103646" data-name="Trazado 103646" d="M121.475,98.342,154.363,109.4A90.973,90.973,0,0,0,130.28,23.878L105.905,48.254a56.445,56.445,0,0,1,15.57,50.088Z" transform="translate(-105.905 -23.878)" fill="#b8ecbc"/>
          </g>
          <path id="Trazado_103647" data-name="Trazado 103647" d="M74.5,2.91V37.382a56.161,56.161,0,0,1,39.837,16.5l24.375-24.375A90.526,90.526,0,0,0,74.5,2.91Z" transform="translate(-74.5 -2.91)" fill="#d0f2d2"/>
        </g>
        <g id="Grupo_91098" data-name="Grupo 91098" transform="translate(2.514 101.061)">
          <path id="Trazado_103648" data-name="Trazado 103648" d="M4.892,93.64a90.675,90.675,0,0,0,24.083,42.9L53.35,112.166A56.208,56.208,0,0,1,37.78,82.582Z" transform="translate(-4.892 -82.582)" fill="#c193dc"/>
          <path id="Trazado_103649" data-name="Trazado 103649" d="M48.254,105.905,23.878,130.28a90.525,90.525,0,0,0,64.211,26.6V122.406" transform="translate(0.205 -76.321)" fill="#fff7bf"/>
        </g>
        <g id="Grupo_91099" data-name="Grupo 91099" transform="translate(90.809 101.061)">
          <path id="Trazado_103650" data-name="Trazado 103650" d="M154.363,93.64,121.476,82.582a56.206,56.206,0,0,1-15.57,29.584l24.375,24.375A90.673,90.673,0,0,0,154.363,93.64Z" transform="translate(-66.069 -82.582)" fill="#ccf5fc"/>
          <path id="Trazado_103651" data-name="Trazado 103651" d="M74.5,122.406v34.471a90.524,90.524,0,0,0,64.211-26.6l-24.375-24.375" transform="translate(-74.5 -76.321)" fill="#fff2a0"/>
        </g>
        <path id="Trazado_103652" data-name="Trazado 103652" d="M54.2,132.64a56.338,56.338,0,1,1,64.452,0" transform="translate(4.385 4.385)" fill="#faf7f5"/>
        <g id="Grupo_91102" data-name="Grupo 91102" transform="translate(58.583 54.797)">
          <g id="Grupo_91100" data-name="Grupo 91100" transform="translate(7.648)">
            <circle id="Elipse_4082" data-name="Elipse 4082" cx="24.578" cy="24.578" r="24.578" fill="#ffdcd5"/>
          </g>
          <g id="Grupo_91101" data-name="Grupo 91101" transform="translate(0 49.157)">
            <path id="Trazado_103653" data-name="Trazado 103653" d="M113.546,107.584v10.351a56.362,56.362,0,0,1-64.452,0V107.584A22.722,22.722,0,0,1,71.815,84.863H90.826A22.722,22.722,0,0,1,113.546,107.584Z" transform="translate(-49.094 -84.863)" fill="#ff7d97"/>
          </g>
        </g>
      </g>
      <g id="Grupo_91104" data-name="Grupo 91104">
        <path id="Trazado_103654" data-name="Trazado 103654" d="M144.289,59.845a3.689,3.689,0,1,1,3.639-3.088,3.72,3.72,0,0,1-3.639,3.088Z" transform="translate(37.745 14.086)" fill="#12263f"/>
        <path id="Trazado_103655" data-name="Trazado 103655" d="M189,94.5c0-2.661-.112-5.349-.333-7.988a3.691,3.691,0,1,0-7.357.616c.2,2.435.307,4.915.307,7.372a87.8,87.8,0,0,1-1.56,16.5l-26.026-8.75q.269-2.091.393-4.206.1-1.762.1-3.539,0-1.638-.087-3.254a59.524,59.524,0,0,0-14.964-36.5l19.179-19.178A87.054,87.054,0,0,1,172.74,56.14a3.691,3.691,0,0,0,6.626-3.255,94.519,94.519,0,1,0-18.044,108.437l.008-.008A94.2,94.2,0,0,0,189,94.5ZM98.191,7.459a86.416,86.416,0,0,1,55.246,22.883L134.258,49.522A59.523,59.523,0,0,0,98.191,34.583ZM54.744,139.477a60.144,60.144,0,0,0,5.392,4.248l.024.017a59.574,59.574,0,0,0,30.649,10.676v27.123a86.417,86.417,0,0,1-55.246-22.883Zm39.828,7.67h-.144a52.3,52.3,0,0,1-28.463-8.4v-8.386a19.051,19.051,0,0,1,19.029-19.029h19.011a19.051,19.051,0,0,1,19.029,19.029v8.385a52.294,52.294,0,0,1-28.463,8.4ZM94.5,103.953a20.887,20.887,0,1,1,20.887-20.887A20.91,20.91,0,0,1,94.5,103.953Zm17.557,1.256a28.27,28.27,0,1,0-35.113,0,26.46,26.46,0,0,0-18.361,25.158v2.625A52.733,52.733,0,0,1,41.938,97.5q-.084-1.5-.085-3c0-.975.1-3.291.105-3.361l0-.036A52.727,52.727,0,0,1,91.1,41.962l.038,0c.07,0,2.385-.1,3.36-.1s3.29.1,3.36.1l.038,0A52.727,52.727,0,0,1,147.038,91.1c0,.012.107,2.422.107,3.4q0,1.5-.085,3a52.733,52.733,0,0,1-16.644,35.495v-2.625a26.458,26.458,0,0,0-18.36-25.158ZM90.809,34.582A59.524,59.524,0,0,0,54.742,49.521L35.563,30.343A86.417,86.417,0,0,1,90.809,7.459Zm-60.466.981L49.522,54.742a59.524,59.524,0,0,0-14.964,36.5q-.087,1.616-.087,3.254,0,1.777.1,3.539.123,2.111.393,4.206L8.942,111A87.833,87.833,0,0,1,7.383,94.5a86.49,86.49,0,0,1,22.96-58.937Zm6.033,74a59.59,59.59,0,0,0,13.146,24.7L30.343,153.436a86.952,86.952,0,0,1-19.7-35.225Zm61.816,44.858a59.575,59.575,0,0,0,30.649-10.676l.024-.017a60.018,60.018,0,0,0,5.392-4.248l19.181,19.181a86.419,86.419,0,0,1-55.246,22.883V154.418Zm60.465-.982-19.179-19.179a59.586,59.586,0,0,0,13.146-24.7l25.728,8.65A86.95,86.95,0,0,1,158.657,153.436Z" transform="translate(0)" fill="#12263f"/>
      </g>
    </g>
  </g>
</svg>
