<svg xmlns="http://www.w3.org/2000/svg" xmlns:xlink="http://www.w3.org/1999/xlink" width="189" height="189" viewBox="0 0 189 189">
  <defs>
    <clipPath id="clip-path">
      <rect id="Rectángulo_12146" data-name="Rectángulo 12146" width="189" height="189" transform="translate(311 993)" fill="#fff" stroke="#707070" stroke-width="1"/>
    </clipPath>
  </defs>
  <g id="Enmascarar_grupo_51" data-name="Enmascarar grupo 51" transform="translate(-311 -993)" clip-path="url(#clip-path)">
    <g id="Layer_46" transform="translate(311 993)">
      <g id="Grupo_91222" data-name="Grupo 91222">
        <g id="Grupo_91109" data-name="Grupo 91109" transform="translate(103.122 78.269)">
          <g id="Grupo_91108" data-name="Grupo 91108">
            <path id="Trazado_103680" data-name="Trazado 103680" d="M114.691,61.7v73.847a3.259,3.259,0,0,1-3.259,3.259H81.3v28.521a3.259,3.259,0,0,0,3.259,3.259h77.514a3.259,3.259,0,0,0,3.259-3.259V61.7Z" transform="translate(-81.298 -61.704)" fill="#edf4fc"/>
          </g>
        </g>
        <g id="Grupo_91111" data-name="Grupo 91111" transform="translate(136.516 65.404)">
          <g id="Grupo_91110" data-name="Grupo 91110">
            <path id="Trazado_103681" data-name="Trazado 103681" d="M155,51.562H107.624V64.427h50.638V54.821A3.259,3.259,0,0,0,155,51.562Z" transform="translate(-107.624 -51.562)" fill="#5290db"/>
          </g>
        </g>
        <g id="Grupo_91113" data-name="Grupo 91113" transform="translate(111.178 162.053)">
          <g id="Grupo_91112" data-name="Grupo 91112">
            <path id="Trazado_103682" data-name="Trazado 103682" d="M153.667,127.756H89.551a1.9,1.9,0,0,0-1.9,1.9v13.174a1.9,1.9,0,0,0,1.9,1.9h64.115a1.9,1.9,0,0,0,1.9-1.9V129.659A1.9,1.9,0,0,0,153.667,127.756Z" transform="translate(-87.648 -127.756)" fill="#9be5f9"/>
          </g>
        </g>
        <g id="Grupo_91115" data-name="Grupo 91115" transform="translate(135.558 137.444)">
          <g id="Grupo_91114" data-name="Grupo 91114">
            <path id="Trazado_103683" data-name="Trazado 103683" d="M148.507,108.355h-40.68v14.673a3.246,3.246,0,0,1-.958,2.307h41.638a1.9,1.9,0,0,0,1.9-1.9V110.258A1.9,1.9,0,0,0,148.507,108.355Z" transform="translate(-106.869 -108.355)" fill="#9be5f9"/>
          </g>
        </g>
        <g id="Grupo_91117" data-name="Grupo 91117" transform="translate(136.516 112.834)">
          <g id="Grupo_91116" data-name="Grupo 91116">
            <path id="Trazado_103684" data-name="Trazado 103684" d="M148.3,88.954h-40.68v16.98H148.3a1.9,1.9,0,0,0,1.9-1.9V90.857A1.9,1.9,0,0,0,148.3,88.954Z" transform="translate(-107.624 -88.954)" fill="#9be5f9"/>
          </g>
        </g>
        <g id="Grupo_91119" data-name="Grupo 91119" transform="translate(136.516 88.225)">
          <g id="Grupo_91118" data-name="Grupo 91118">
            <path id="Trazado_103685" data-name="Trazado 103685" d="M148.3,69.553h-40.68v16.98H148.3a1.9,1.9,0,0,0,1.9-1.9V71.456a1.9,1.9,0,0,0-1.9-1.9Z" transform="translate(-107.624 -69.553)" fill="#9be5f9"/>
          </g>
        </g>
        <g id="Grupo_91121" data-name="Grupo 91121" transform="translate(52.484 46.49)">
          <g id="Grupo_91120" data-name="Grupo 91120">
            <path id="Trazado_103686" data-name="Trazado 103686" d="M74.77,36.651V110.5a3.259,3.259,0,0,1-3.259,3.259H41.376v28.521a3.259,3.259,0,0,0,3.259,3.259h77.514a3.259,3.259,0,0,0,3.259-3.259V36.651Z" transform="translate(-41.376 -36.651)" fill="#edf4fc"/>
          </g>
        </g>
        <g id="Grupo_91123" data-name="Grupo 91123" transform="translate(111.177 162.053)">
          <g id="Grupo_91122" data-name="Grupo 91122">
            <path id="Trazado_103687" data-name="Trazado 103687" d="M104.562,127.756H89.551a1.9,1.9,0,0,0-1.9,1.9v13.174a1.9,1.9,0,0,0,1.9,1.9h15.011Z" transform="translate(-87.648 -127.756)" fill="#70d6f9"/>
          </g>
        </g>
        <g id="Grupo_91125" data-name="Grupo 91125" transform="translate(1.846 14.71)">
          <g id="Grupo_91124" data-name="Grupo 91124">
            <path id="Trazado_103688" data-name="Trazado 103688" d="M1.455,11.6V117.224a3.259,3.259,0,0,0,3.259,3.259H82.228a3.259,3.259,0,0,0,3.259-3.259V11.6Z" transform="translate(-1.455 -11.597)" fill="#fcdd86"/>
          </g>
        </g>
        <g id="Grupo_91127" data-name="Grupo 91127" transform="translate(85.878 33.625)">
          <g id="Grupo_91126" data-name="Grupo 91126">
            <path id="Trazado_103689" data-name="Trazado 103689" d="M115.082,26.509H67.7V39.373h50.638V29.767a3.259,3.259,0,0,0-3.259-3.259Z" transform="translate(-67.703 -26.509)" fill="#5290db"/>
          </g>
        </g>
        <g id="Grupo_91129" data-name="Grupo 91129" transform="translate(63.861 123.551)">
          <g id="Grupo_91128" data-name="Grupo 91128">
            <path id="Trazado_103690" data-name="Trazado 103690" d="M51.946,111.554H67.94a1.6,1.6,0,0,0,1.6-1.6V97.4a3.176,3.176,0,0,1-.438.044H50.346v12.506a1.6,1.6,0,0,0,1.6,1.6Z" transform="translate(-50.346 -97.403)" fill="#fc657e"/>
          </g>
        </g>
        <g id="Grupo_91131" data-name="Grupo 91131" transform="translate(10.53 52.332)">
          <g id="Grupo_91130" data-name="Grupo 91130">
            <path id="Trazado_103691" data-name="Trazado 103691" d="M10.792,52.995H72.474A2.491,2.491,0,0,0,74.965,50.5V43.748a2.491,2.491,0,0,0-2.491-2.491H10.792A2.491,2.491,0,0,0,8.3,43.748V50.5a2.491,2.491,0,0,0,2.491,2.491Z" transform="translate(-8.302 -41.257)" fill="#edf4fc"/>
          </g>
        </g>
        <g id="Grupo_91133" data-name="Grupo 91133" transform="translate(10.53 71.528)">
          <g id="Grupo_91132" data-name="Grupo 91132">
            <path id="Trazado_103692" data-name="Trazado 103692" d="M72.474,56.39H10.792A2.491,2.491,0,0,0,8.3,58.88v6.756a2.491,2.491,0,0,0,2.491,2.491H72.474a2.491,2.491,0,0,0,2.491-2.491V58.88A2.491,2.491,0,0,0,72.474,56.39Z" transform="translate(-8.302 -56.39)" fill="#edf4fc"/>
          </g>
        </g>
        <g id="Grupo_91135" data-name="Grupo 91135" transform="translate(32.138 91.609)">
          <g id="Grupo_91134" data-name="Grupo 91134">
            <path id="Trazado_103693" data-name="Trazado 103693" d="M43.537,72.221H30.583a5.247,5.247,0,1,0,0,10.494H43.537a5.247,5.247,0,1,0,0-10.494Z" transform="translate(-25.336 -72.221)" fill="#87d147"/>
          </g>
        </g>
        <g id="Grupo_91137" data-name="Grupo 91137" transform="translate(10.53 71.528)">
          <g id="Grupo_91136" data-name="Grupo 91136">
            <path id="Trazado_103694" data-name="Trazado 103694" d="M21.766,56.39H10.792A2.491,2.491,0,0,0,8.3,58.88v6.756a2.491,2.491,0,0,0,2.491,2.491H21.766Z" transform="translate(-8.302 -56.39)" fill="#9be5f9"/>
          </g>
        </g>
        <g id="Grupo_91139" data-name="Grupo 91139" transform="translate(10.53 52.332)">
          <g id="Grupo_91138" data-name="Grupo 91138">
            <path id="Trazado_103695" data-name="Trazado 103695" d="M21.766,41.257H10.792A2.491,2.491,0,0,0,8.3,43.748V50.5a2.491,2.491,0,0,0,2.491,2.491H21.766Z" transform="translate(-8.302 -41.257)" fill="#9be5f9"/>
          </g>
        </g>
        <g id="Grupo_91141" data-name="Grupo 91141" transform="translate(1.846 1.846)">
          <g id="Grupo_91140" data-name="Grupo 91140">
            <path id="Trazado_103696" data-name="Trazado 103696" d="M82.228,1.455H4.714A3.259,3.259,0,0,0,1.455,4.714V14.32H85.487V4.714a3.259,3.259,0,0,0-3.259-3.259Z" transform="translate(-1.455 -1.455)" fill="#5290db"/>
          </g>
        </g>
        <g id="Grupo_91143" data-name="Grupo 91143" transform="translate(1.846 1.846)">
          <g id="Grupo_91142" data-name="Grupo 91142">
            <path id="Trazado_103697" data-name="Trazado 103697" d="M15.239,1.455H4.714A3.259,3.259,0,0,0,1.455,4.714V14.32H15.239Z" transform="translate(-1.455 -1.455)" fill="#fc657e"/>
          </g>
        </g>
        <g id="Grupo_91155" data-name="Grupo 91155" transform="translate(101.277 76.423)">
          <g id="Grupo_91154" data-name="Grupo 91154">
            <path id="Trazado_103701" data-name="Trazado 103701" d="M162.461,172.826H84.947a5.11,5.11,0,0,1-5.1-5.1v-28a1.846,1.846,0,0,1,3.691,0v28a1.415,1.415,0,0,0,1.413,1.413h77.514a1.415,1.415,0,0,0,1.413-1.413V62.095a1.846,1.846,0,1,1,3.691,0V167.721A5.111,5.111,0,0,1,162.461,172.826Z" transform="translate(-79.842 -60.249)" fill="#12263f"/>
          </g>
        </g>
        <g id="Grupo_91157" data-name="Grupo 91157" transform="translate(22.36 6.432)">
          <g id="Grupo_91156" data-name="Grupo 91156">
            <path id="Trazado_103702" data-name="Trazado 103702" d="M59.4,8.762H19.473a1.846,1.846,0,1,1,0-3.691H59.4a1.846,1.846,0,1,1,0,3.691Z" transform="translate(-17.627 -5.071)" fill="#12263f"/>
          </g>
        </g>
        <g id="Grupo_91159" data-name="Grupo 91159" transform="translate(70.19 6.432)">
          <g id="Grupo_91158" data-name="Grupo 91158">
            <path id="Trazado_103703" data-name="Trazado 103703" d="M63.849,8.762H57.181a1.846,1.846,0,1,1,0-3.691h6.668a1.846,1.846,0,1,1,0,3.691Z" transform="translate(-55.335 -5.071)" fill="#12263f"/>
          </g>
        </g>
        <g id="Grupo_91161" data-name="Grupo 91161" transform="translate(84.81 38.211)">
          <g id="Grupo_91160" data-name="Grupo 91160">
            <path id="Trazado_103704" data-name="Trazado 103704" d="M96.82,33.816H68.707a1.846,1.846,0,0,1,0-3.691H96.82a1.846,1.846,0,0,1,0,3.691Z" transform="translate(-66.861 -30.124)" fill="#12263f"/>
          </g>
        </g>
        <g id="Grupo_91163" data-name="Grupo 91163" transform="translate(120.828 38.211)">
          <g id="Grupo_91162" data-name="Grupo 91162">
            <path id="Trazado_103705" data-name="Trazado 103705" d="M103.77,33.816H97.1a1.846,1.846,0,0,1,0-3.691h6.668a1.846,1.846,0,0,1,0,3.691Z" transform="translate(-95.256 -30.124)" fill="#12263f"/>
          </g>
        </g>
        <g id="Grupo_91165" data-name="Grupo 91165" transform="translate(135.449 69.991)">
          <g id="Grupo_91164" data-name="Grupo 91164">
            <path id="Trazado_103706" data-name="Trazado 103706" d="M136.74,58.869H108.628a1.846,1.846,0,0,1,0-3.691H136.74a1.846,1.846,0,0,1,0,3.691Z" transform="translate(-106.782 -55.178)" fill="#12263f"/>
          </g>
        </g>
        <g id="Grupo_91167" data-name="Grupo 91167" transform="translate(171.466 69.991)">
          <g id="Grupo_91166" data-name="Grupo 91166">
            <path id="Trazado_103707" data-name="Trazado 103707" d="M143.691,58.869h-6.668a1.846,1.846,0,0,1,0-3.691h6.668a1.846,1.846,0,0,1,0,3.691Z" transform="translate(-135.177 -55.178)" fill="#12263f"/>
          </g>
        </g>
        <g id="Grupo_91169" data-name="Grupo 91169" transform="translate(91.638 62.233)">
          <g id="Grupo_91168" data-name="Grupo 91168">
            <path id="Trazado_103708" data-name="Trazado 103708" d="M107.407,52.754H74.089a1.846,1.846,0,0,1,0-3.691h33.318a1.846,1.846,0,1,1,0,3.691Z" transform="translate(-72.243 -49.062)" fill="#12263f"/>
          </g>
        </g>
        <g id="Grupo_91171" data-name="Grupo 91171" transform="translate(91.638 69.872)">
          <g id="Grupo_91170" data-name="Grupo 91170">
            <path id="Trazado_103709" data-name="Trazado 103709" d="M107.407,58.776H74.089a1.846,1.846,0,1,1,0-3.691h33.318a1.846,1.846,0,1,1,0,3.691Z" transform="translate(-72.243 -55.085)" fill="#12263f"/>
          </g>
        </g>
        <g id="Grupo_91173" data-name="Grupo 91173" transform="translate(91.638 77.511)">
          <g id="Grupo_91172" data-name="Grupo 91172">
            <path id="Trazado_103710" data-name="Trazado 103710" d="M107.407,64.8H74.089a1.846,1.846,0,1,1,0-3.691h33.318a1.846,1.846,0,1,1,0,3.691Z" transform="translate(-72.243 -61.106)" fill="#12263f"/>
          </g>
        </g>
        <g id="Grupo_91175" data-name="Grupo 91175" transform="translate(91.638 91.026)">
          <g id="Grupo_91174" data-name="Grupo 91174">
            <path id="Trazado_103711" data-name="Trazado 103711" d="M107.407,75.453H74.089a1.846,1.846,0,0,1,0-3.691h33.318a1.846,1.846,0,1,1,0,3.691Z" transform="translate(-72.243 -71.762)" fill="#12263f"/>
          </g>
        </g>
        <g id="Grupo_91177" data-name="Grupo 91177" transform="translate(91.638 98.665)">
          <g id="Grupo_91176" data-name="Grupo 91176">
            <path id="Trazado_103712" data-name="Trazado 103712" d="M107.407,81.475H74.089a1.846,1.846,0,0,1,0-3.691h33.318a1.846,1.846,0,1,1,0,3.691Z" transform="translate(-72.243 -77.784)" fill="#12263f"/>
          </g>
        </g>
        <g id="Grupo_91179" data-name="Grupo 91179" transform="translate(91.638 106.304)">
          <g id="Grupo_91178" data-name="Grupo 91178">
            <path id="Trazado_103713" data-name="Trazado 103713" d="M107.407,87.5H74.089a1.846,1.846,0,0,1,0-3.691h33.318a1.846,1.846,0,1,1,0,3.691Z" transform="translate(-72.243 -83.806)" fill="#12263f"/>
          </g>
        </g>
        <g id="Grupo_91181" data-name="Grupo 91181" transform="translate(91.638 118.343)">
          <g id="Grupo_91180" data-name="Grupo 91180">
            <path id="Trazado_103714" data-name="Trazado 103714" d="M107.407,96.988H74.089a1.846,1.846,0,0,1,0-3.691h33.318a1.846,1.846,0,1,1,0,3.691Z" transform="translate(-72.243 -93.297)" fill="#12263f"/>
          </g>
        </g>
        <g id="Grupo_91183" data-name="Grupo 91183" transform="translate(91.638 125.982)">
          <g id="Grupo_91182" data-name="Grupo 91182">
            <path id="Trazado_103715" data-name="Trazado 103715" d="M107.407,103.01H74.089a1.846,1.846,0,0,1,0-3.691h33.318a1.846,1.846,0,1,1,0,3.691Z" transform="translate(-72.243 -99.319)" fill="#12263f"/>
          </g>
        </g>
        <g id="Grupo_91185" data-name="Grupo 91185" transform="translate(91.638 133.62)">
          <g id="Grupo_91184" data-name="Grupo 91184">
            <path id="Trazado_103716" data-name="Trazado 103716" d="M107.407,109.032H74.089a1.846,1.846,0,0,1,0-3.691h33.318a1.846,1.846,0,0,1,0,3.691Z" transform="translate(-72.243 -105.341)" fill="#12263f"/>
          </g>
        </g>
        <g id="Grupo_91187" data-name="Grupo 91187" transform="translate(31.116 34.915)">
          <g id="Grupo_91186" data-name="Grupo 91186">
            <path id="Trazado_103717" data-name="Trazado 103717" d="M48.177,31.217h-21.8a1.846,1.846,0,1,1,0-3.691h21.8a1.846,1.846,0,1,1,0,3.691Z" transform="translate(-24.53 -27.525)" fill="#12263f"/>
          </g>
        </g>
        <g id="Grupo_91189" data-name="Grupo 91189" transform="translate(135.128 63.559)">
          <g id="Grupo_91188" data-name="Grupo 91188">
            <path id="Trazado_103718" data-name="Trazado 103718" d="M158.556,66.663h-50.18a1.846,1.846,0,1,1,0-3.691H156.71v-7.76A1.415,1.415,0,0,0,155.3,53.8H108.514a1.846,1.846,0,1,1,0-3.691H155.3a5.11,5.11,0,0,1,5.1,5.1v9.606A1.845,1.845,0,0,1,158.556,66.663Z" transform="translate(-106.53 -50.107)" fill="#12263f"/>
          </g>
        </g>
        <g id="Grupo_91191" data-name="Grupo 91191" transform="translate(109.332 160.207)">
          <g id="Grupo_91190" data-name="Grupo 91190">
            <path id="Trazado_103719" data-name="Trazado 103719" d="M154.057,146.973H89.942a3.753,3.753,0,0,1-3.749-3.749V130.05a3.753,3.753,0,0,1,3.749-3.749h64.115a3.753,3.753,0,0,1,3.749,3.749v13.174A3.754,3.754,0,0,1,154.057,146.973Zm-64.116-16.98a.058.058,0,0,0-.058.058v13.174a.058.058,0,0,0,.058.058h64.115a.058.058,0,0,0,.058-.058V130.05a.058.058,0,0,0-.058-.058Z" transform="translate(-86.193 -126.301)" fill="#12263f"/>
          </g>
        </g>
        <g id="Grupo_91193" data-name="Grupo 91193" transform="translate(133.94 135.598)">
          <g id="Grupo_91192" data-name="Grupo 91192">
            <path id="Trazado_103720" data-name="Trazado 103720" d="M148.849,127.572h-41.41a1.846,1.846,0,0,1,0-3.691h41.41a.058.058,0,0,0,.058-.058V110.649a.058.058,0,0,0-.058-.058H108.82a1.846,1.846,0,0,1,0-3.691h40.03a3.753,3.753,0,0,1,3.749,3.749v13.174A3.754,3.754,0,0,1,148.849,127.572Z" transform="translate(-105.593 -106.9)" fill="#12263f"/>
          </g>
        </g>
        <g id="Grupo_91195" data-name="Grupo 91195" transform="translate(135.29 110.988)">
          <g id="Grupo_91194" data-name="Grupo 91194">
            <path id="Trazado_103721" data-name="Trazado 103721" d="M148.564,108.17H108.642a1.846,1.846,0,0,1,0-3.691h39.922a.058.058,0,0,0,.058-.058V91.247a.058.058,0,0,0-.058-.058H108.5a1.846,1.846,0,0,1,0-3.691h40.061a3.753,3.753,0,0,1,3.749,3.749v13.174A3.753,3.753,0,0,1,148.564,108.17Z" transform="translate(-106.657 -87.499)" fill="#12263f"/>
          </g>
        </g>
        <g id="Grupo_91197" data-name="Grupo 91197" transform="translate(135.244 86.379)">
          <g id="Grupo_91196" data-name="Grupo 91196">
            <path id="Trazado_103722" data-name="Trazado 103722" d="M148.573,88.77H108.467a1.846,1.846,0,1,1,0-3.691h40.106a.058.058,0,0,0,.058-.058V71.847a.058.058,0,0,0-.058-.058H108.482a1.846,1.846,0,0,1,0-3.691h40.092a3.753,3.753,0,0,1,3.749,3.749V85.021A3.754,3.754,0,0,1,148.573,88.77Z" transform="translate(-106.621 -68.098)" fill="#12263f"/>
          </g>
        </g>
        <g id="Grupo_91199" data-name="Grupo 91199" transform="translate(50.638 44.644)">
          <g id="Grupo_91198" data-name="Grupo 91198">
            <path id="Trazado_103723" data-name="Trazado 103723" d="M122.541,147.772H45.025a5.11,5.11,0,0,1-5.1-5.1V114.952a1.846,1.846,0,0,1,3.691,0v27.716a1.415,1.415,0,0,0,1.413,1.413H122.54a1.415,1.415,0,0,0,1.413-1.413V37.041a1.846,1.846,0,0,1,3.691,0V142.668A5.109,5.109,0,0,1,122.541,147.772Z" transform="translate(-39.921 -35.195)" fill="#12263f"/>
          </g>
        </g>
        <g id="Grupo_91201" data-name="Grupo 91201" transform="translate(126.246 160.668)">
          <g id="Grupo_91200" data-name="Grupo 91200">
            <path id="Trazado_103724" data-name="Trazado 103724" d="M101.373,146.321a1.845,1.845,0,0,1-1.846-1.846V128.51a1.846,1.846,0,0,1,3.691,0v15.965A1.845,1.845,0,0,1,101.373,146.321Z" transform="translate(-99.527 -126.665)" fill="#12263f"/>
          </g>
        </g>
        <g id="Grupo_91203" data-name="Grupo 91203" transform="translate(0 12.865)">
          <g id="Grupo_91202" data-name="Grupo 91202">
            <path id="Trazado_103725" data-name="Trazado 103725" d="M82.619,122.719H5.1a5.11,5.11,0,0,1-5.1-5.1V11.988a1.846,1.846,0,0,1,3.691,0V117.614A1.415,1.415,0,0,0,5.1,119.027H82.619a1.415,1.415,0,0,0,1.413-1.413V11.988a1.846,1.846,0,1,1,3.691,0V117.614A5.11,5.11,0,0,1,82.619,122.719Z" transform="translate(0 -10.142)" fill="#12263f"/>
          </g>
        </g>
        <g id="Grupo_91205" data-name="Grupo 91205" transform="translate(84.502 31.779)">
          <g id="Grupo_91204" data-name="Grupo 91204">
            <path id="Trazado_103726" data-name="Trazado 103726" d="M118.632,41.609H68.495a1.846,1.846,0,0,1,0-3.691h48.292v-7.76a1.415,1.415,0,0,0-1.413-1.413H68.464a1.846,1.846,0,0,1,0-3.691h46.91a5.11,5.11,0,0,1,5.1,5.1v9.606A1.845,1.845,0,0,1,118.632,41.609Z" transform="translate(-66.618 -25.054)" fill="#12263f"/>
          </g>
        </g>
        <g id="Grupo_91207" data-name="Grupo 91207" transform="translate(62.016 122.117)">
          <g id="Grupo_91206" data-name="Grupo 91206">
            <path id="Trazado_103727" data-name="Trazado 103727" d="M68.332,113.7h-16a3.449,3.449,0,0,1-3.446-3.446V98.186a1.846,1.846,0,0,1,3.691,0v11.825h15.5V98.118a1.846,1.846,0,0,1,3.691,0v12.14A3.45,3.45,0,0,1,68.332,113.7Z" transform="translate(-48.891 -96.272)" fill="#12263f"/>
          </g>
        </g>
        <g id="Grupo_91209" data-name="Grupo 91209" transform="translate(8.684 50.487)">
          <g id="Grupo_91208" data-name="Grupo 91208">
            <path id="Trazado_103728" data-name="Trazado 103728" d="M72.864,55.231H11.183a4.342,4.342,0,0,1-4.337-4.337V44.138A4.342,4.342,0,0,1,11.183,39.8H72.864A4.342,4.342,0,0,1,77.2,44.138v6.756A4.342,4.342,0,0,1,72.864,55.231ZM11.183,43.493a.646.646,0,0,0-.645.645v6.756a.646.646,0,0,0,.645.645H72.864a.646.646,0,0,0,.645-.645V44.138a.646.646,0,0,0-.645-.645Z" transform="translate(-6.846 -39.802)" fill="#12263f"/>
          </g>
        </g>
        <g id="Grupo_91211" data-name="Grupo 91211" transform="translate(8.684 69.682)">
          <g id="Grupo_91210" data-name="Grupo 91210">
            <path id="Trazado_103729" data-name="Trazado 103729" d="M72.864,70.364H11.183a4.342,4.342,0,0,1-4.337-4.337V59.271a4.342,4.342,0,0,1,4.337-4.337H72.864A4.342,4.342,0,0,1,77.2,59.271v6.756A4.342,4.342,0,0,1,72.864,70.364ZM11.183,58.626a.646.646,0,0,0-.645.645v6.756a.646.646,0,0,0,.645.645H72.864a.646.646,0,0,0,.645-.645V59.271a.646.646,0,0,0-.645-.645Z" transform="translate(-6.846 -54.934)" fill="#12263f"/>
          </g>
        </g>
        <g id="Grupo_91213" data-name="Grupo 91213" transform="translate(30.292 89.764)">
          <g id="Grupo_91212" data-name="Grupo 91212">
            <path id="Trazado_103730" data-name="Trazado 103730" d="M30.974,84.952a7.093,7.093,0,0,1,0-14.186H43.927a7.093,7.093,0,1,1,0,14.185Zm0-10.5a3.4,3.4,0,0,0,0,6.8H43.927a3.4,3.4,0,1,0,0-6.8H30.974Z" transform="translate(-23.881 -70.766)" fill="#12263f"/>
          </g>
        </g>
        <g id="Grupo_91215" data-name="Grupo 91215" transform="translate(22.148 70.26)">
          <g id="Grupo_91214" data-name="Grupo 91214">
            <path id="Trazado_103731" data-name="Trazado 103731" d="M19.307,69.54a1.845,1.845,0,0,1-1.846-1.846V57.236a1.846,1.846,0,0,1,3.691,0V67.694A1.845,1.845,0,0,1,19.307,69.54Z" transform="translate(-17.461 -55.39)" fill="#12263f"/>
          </g>
        </g>
        <g id="Grupo_91217" data-name="Grupo 91217" transform="translate(22.148 50.91)">
          <g id="Grupo_91216" data-name="Grupo 91216">
            <path id="Trazado_103732" data-name="Trazado 103732" d="M19.307,54.348A1.845,1.845,0,0,1,17.461,52.5V41.981a1.846,1.846,0,0,1,3.691,0V52.5A1.845,1.845,0,0,1,19.307,54.348Z" transform="translate(-17.461 -40.136)" fill="#12263f"/>
          </g>
        </g>
        <g id="Grupo_91219" data-name="Grupo 91219">
          <g id="Grupo_91218" data-name="Grupo 91218">
            <path id="Trazado_103733" data-name="Trazado 103733" d="M85.878,16.556H1.846A1.845,1.845,0,0,1,0,14.71V5.1A5.111,5.111,0,0,1,5.1,0H82.619a5.11,5.11,0,0,1,5.1,5.1V14.71A1.845,1.845,0,0,1,85.878,16.556ZM3.691,12.865h80.34V5.1a1.415,1.415,0,0,0-1.413-1.413H5.1A1.415,1.415,0,0,0,3.691,5.1Z" transform="translate(0 0)" fill="#12263f"/>
          </g>
        </g>
        <g id="Grupo_91221" data-name="Grupo 91221" transform="translate(13.783 0.277)">
          <g id="Grupo_91220" data-name="Grupo 91220">
            <path id="Trazado_103734" data-name="Trazado 103734" d="M12.712,16.091a1.845,1.845,0,0,1-1.846-1.846V2.064a1.846,1.846,0,1,1,3.691,0V14.246A1.846,1.846,0,0,1,12.712,16.091Z" transform="translate(-10.866 -0.218)"/>
          </g>
        </g>
      </g>
    </g>
  </g>
</svg>
