<?xml version="1.0" encoding="UTF-8" standalone="no"?><!DOCTYPE svg PUBLIC "-//W3C//DTD SVG 1.1//EN" "http://www.w3.org/Graphics/SVG/1.1/DTD/svg11.dtd"><svg width="100%" height="100%" viewBox="0 0 399 203" version="1.1" xmlns="http://www.w3.org/2000/svg" xmlns:xlink="http://www.w3.org/1999/xlink" xml:space="preserve" xmlns:serif="http://www.serif.com/" style="fill-rule:evenodd;clip-rule:evenodd;stroke-linejoin:round;stroke-miterlimit:2;"><g id="Grupo_91310"><g id="Grupo_90718"><g id="Grupo_90705"><path id="Trazado_103211" d="M398.84,28.487l-0,145.633c-0.016,14.555 -11.988,26.527 -26.543,26.543l-345.754,-0c-14.555,-0.016 -26.527,-11.988 -26.543,-26.543l-0,-145.633c0.017,-14.555 11.988,-26.526 26.543,-26.543l345.753,-0c14.555,0.016 26.527,11.988 26.544,26.543Zm-397.969,145.633c0.014,14.079 11.593,25.66 25.672,25.675l345.753,-0c14.077,-0.015 25.656,-11.594 25.672,-25.671l-0,-145.637c-0.015,-14.077 -11.595,-25.657 -25.672,-25.672l-345.753,-0c-14.077,0.015 -25.657,11.595 -25.672,25.672l-0,145.633Z" style="fill:#080807;fill-rule:nonzero;"/></g><g id="Grupo_90706"><path id="Trazado_103212" d="M396.604,28.526l-0,145.559c-0.017,13.347 -10.996,24.325 -24.343,24.341l-345.679,-0c-13.348,-0.015 -24.328,-10.995 -24.343,-24.343l-0,-145.557c0.013,-13.35 10.993,-24.331 24.343,-24.346l345.679,-0c13.35,0.015 24.329,10.996 24.343,24.346Zm-393.497,145.559c0.015,12.872 10.603,23.458 23.475,23.472l345.679,-0c12.871,-0.015 23.458,-10.601 23.473,-23.472l-0,-145.559c-0.015,-12.871 -10.602,-23.457 -23.473,-23.472l-345.679,-0c-12.872,0.014 -23.46,10.6 -23.475,23.472l-0,145.559Z" style="fill:#080807;fill-rule:nonzero;"/></g><g id="Grupo_90707"><path id="Trazado_103213" d="M389.961,28.826l-0,145.317c-0.108,10.012 -8.421,18.168 -18.433,18.085l-343.955,-0c-10.012,0.083 -18.325,-8.073 -18.433,-18.085l-0,-27.3c0.002,-2.103 1.732,-3.834 3.835,-3.836c5.108,-0 8.225,-4.155 8.225,-9.264l-0,-58.039c-0,-5.108 -3.117,-9.265 -8.225,-9.265c-2.103,-0.002 -3.832,-1.731 -3.835,-3.834l-0,-33.783c0.111,-10.009 8.423,-18.162 18.433,-18.079l343.959,-0c10.01,-0.081 18.32,8.074 18.429,18.083Zm-379.95,145.317c0.107,9.534 8.027,17.298 17.562,17.214l343.959,-0c9.535,0.084 17.455,-7.68 17.562,-17.214l-0,-145.317c-0.107,-9.534 -8.027,-17.298 -17.562,-17.214l-343.959,-0c-9.534,-0.083 -17.454,7.68 -17.562,17.214l-0,33.783c0.002,1.625 1.339,2.962 2.964,2.963c5.588,-0 9.1,4.547 9.1,10.136l-0,58.035c-0,5.589 -3.508,10.136 -9.1,10.136c-1.625,0.002 -2.962,1.339 -2.964,2.964l-0,27.3Z" style="fill:#080807;fill-rule:nonzero;"/></g><g id="Grupo_90708"><path id="Trazado_103214" d="M73.122,199.792l-0,1.628c-0.001,0.638 -0.526,1.162 -1.164,1.163l-13.571,-0c-0.638,-0.001 -1.162,-0.525 -1.163,-1.163l-0,-1.628l15.898,-0Zm-15.027,1.628c-0,0.16 0.132,0.292 0.292,0.292l13.571,-0c0.16,0 0.292,-0.132 0.293,-0.292l-0,-0.757l-14.156,-0l-0,0.757Z" style="fill:#080807;fill-rule:nonzero;"/></g><g id="Grupo_90709"><path id="Trazado_103215" d="M127.721,199.792l-0,1.628c-0.001,0.638 -0.526,1.162 -1.164,1.163l-27.957,-0c-0.638,-0.001 -1.162,-0.525 -1.163,-1.163l-0,-1.628l30.284,-0Zm-29.421,1.628c-0,0.16 0.132,0.292 0.292,0.292l27.962,-0c0,0 0.001,0 0.001,0c0.16,0 0.292,-0.132 0.292,-0.292l-0,-0.757l-28.547,-0l-0,0.757Z" style="fill:#080807;fill-rule:nonzero;"/></g><g id="Grupo_90710"><path id="Trazado_103216" d="M160.363,1.148l-0,1.667l-58.1,-0l-0,-1.667c0.001,-0.629 0.517,-1.146 1.146,-1.147l55.812,-0c0.627,0.003 1.141,0.52 1.142,1.147Zm-0.871,0.8l-0,-0.8c0,-0.151 -0.124,-0.275 -0.275,-0.276l-55.812,-0c-0.151,0.001 -0.275,0.125 -0.275,0.276l-0,0.8l56.362,-0Z" style="fill:#080807;fill-rule:nonzero;"/></g><g id="Grupo_90711"><path id="Trazado_103217" d="M164.856,199.792l-0,1.628c-0.001,0.638 -0.525,1.162 -1.163,1.163l-27.961,-0c-0.638,-0.001 -1.163,-0.525 -1.164,-1.163l-0,-1.628l30.288,-0Zm-29.417,1.628c0.001,0.16 0.133,0.292 0.293,0.292l27.962,-0c0.16,-0 0.292,-0.132 0.292,-0.292l-0,-0.757l-28.547,-0l-0,0.757Z" style="fill:#080807;fill-rule:nonzero;"/></g><g id="Grupo_90712"><path id="Trazado_103218" d="M15.273,93.739l-0,22.723c-0,1.334 -1.098,2.432 -2.432,2.432c-1.334,-0 -2.432,-1.098 -2.432,-2.432l-0,-22.723c-0,-1.334 1.098,-2.432 2.432,-2.432c1.334,-0 2.432,1.098 2.432,2.432Zm-3.992,22.723c0.021,0.841 0.719,1.521 1.56,1.521c0.842,0 1.54,-0.68 1.561,-1.521l-0,-22.723c-0.021,-0.841 -0.719,-1.521 -1.561,-1.521c-0.841,-0 -1.539,0.68 -1.56,1.521l-0,22.723Z" style="fill:#080807;fill-rule:nonzero;"/></g><g id="Grupo_90713"><path id="Trazado_103219" d="M16.544,127.106c-0,2.03 -1.67,3.7 -3.7,3.7c-2.03,-0 -3.7,-1.67 -3.7,-3.7c-0,-2.03 1.67,-3.7 3.7,-3.7c2.029,0.003 3.697,1.671 3.7,3.7Zm-6.533,-0c-0,1.553 1.278,2.831 2.831,2.831c1.553,-0 2.831,-1.278 2.831,-2.831c-0,-1.553 -1.278,-2.831 -2.831,-2.831c-1.552,0.002 -2.829,1.279 -2.831,2.831Z" style="fill:#080807;fill-rule:nonzero;"/></g><g id="Grupo_90714"><path id="Trazado_103220" d="M16.544,83.125c-0,2.03 -1.67,3.7 -3.7,3.7c-2.03,-0 -3.7,-1.67 -3.7,-3.7c-0,-2.03 1.67,-3.7 3.7,-3.7c2.029,0.003 3.697,1.671 3.7,3.7Zm-6.533,-0c-0,1.553 1.278,2.831 2.831,2.831c1.553,-0 2.831,-1.278 2.831,-2.831c-0,-1.553 -1.278,-2.831 -2.831,-2.831c-1.552,0.002 -2.829,1.279 -2.831,2.831Z" style="fill:#080807;fill-rule:nonzero;"/></g><g id="Grupo_90715"><path id="Trazado_103221" d="M15.752,74.502c-0,1.596 -1.314,2.91 -2.91,2.91c-1.596,-0 -2.91,-1.314 -2.91,-2.91c-0,-1.596 1.314,-2.91 2.91,-2.91c1.596,0.002 2.908,1.314 2.91,2.91Zm-4.949,-0c-0,1.119 0.92,2.039 2.039,2.039c1.119,-0 2.039,-0.92 2.039,-2.039c-0,-1.119 -0.92,-2.039 -2.039,-2.039c-1.118,0.001 -2.038,0.921 -2.039,2.039Z" style="fill:#080807;fill-rule:nonzero;"/></g><g id="Grupo_90716"><path id="Trazado_103222" d="M15.752,135.787c-0,1.596 -1.314,2.91 -2.91,2.91c-1.596,-0 -2.91,-1.314 -2.91,-2.91c-0,-1.596 1.314,-2.91 2.91,-2.91c1.596,0.002 2.908,1.314 2.91,2.91Zm-4.949,-0c-0,1.119 0.92,2.039 2.039,2.039c1.119,-0 2.039,-0.92 2.039,-2.039c-0,-1.119 -0.92,-2.039 -2.039,-2.039c-1.118,0.001 -2.038,0.921 -2.039,2.039Z" style="fill:#080807;fill-rule:nonzero;"/></g></g><g id="Grupo_91306"><path id="Trazado_104389" d="M107.606,132.141l-33.351,0l-5.824,18.859l-26,0l37.025,-100.953l22.88,0l37.303,100.953l-26.139,0l-5.894,-18.859Zm-27.526,-18.79l21.7,0l-10.88,-35.015l-10.82,35.015Z" style="fill:#4dd0e1;fill-rule:nonzero;"/><g id="Grupo_91305"><path id="Trazado_104386" d="M187.042,47.906l-7.042,0l0,19.094l-5.656,0l0,-19.094l-6.913,0l0,-4.367l19.61,0l0.001,4.367Zm8.411,19.094l-5.64,0l-0,-23.461l5.64,0l0,23.461Zm9.587,-7.96l0,7.96l-5.656,0l0,-23.461l9.362,0c1.641,-0.032 3.269,0.306 4.761,0.991c1.321,0.608 2.435,1.588 3.207,2.82c0.766,1.247 1.16,2.687 1.137,4.15c0.08,2.11 -0.83,4.141 -2.457,5.487c-1.932,1.464 -4.324,2.192 -6.744,2.053l-3.61,0Zm0,-4.367l3.706,0c0.91,0.063 1.81,-0.232 2.506,-0.822c0.602,-0.617 0.915,-1.46 0.862,-2.32c0.048,-0.956 -0.269,-1.895 -0.886,-2.626c-0.621,-0.669 -1.505,-1.034 -2.417,-1l-3.771,0l0,6.768Zm35.691,1.08c0.041,2.095 -0.394,4.173 -1.273,6.075c-0.778,1.684 -2.036,3.101 -3.617,4.072c-1.613,0.963 -3.463,1.455 -5.341,1.422c-1.865,0.035 -3.704,-0.442 -5.317,-1.378c-1.563,-0.936 -2.82,-2.306 -3.618,-3.944c-0.894,-1.83 -1.361,-3.839 -1.365,-5.876l0,-1.324c-0.043,-2.097 0.39,-4.177 1.265,-6.083c0.779,-1.685 2.041,-3.101 3.625,-4.069c1.623,-0.969 3.484,-1.466 5.374,-1.434c1.87,-0.032 3.711,0.46 5.317,1.418c1.576,0.965 2.839,2.368 3.634,4.036c0.893,1.872 1.342,3.926 1.313,6l0.003,1.085Zm-5.752,-0.983c0.115,-1.844 -0.289,-3.684 -1.168,-5.309c-0.701,-1.166 -1.984,-1.861 -3.344,-1.813c-2.836,-0 -4.336,2.127 -4.5,6.381l-0.016,1.724c-0.106,1.838 0.289,3.67 1.144,5.3c0.7,1.2 2.012,1.915 3.4,1.853c1.348,0.041 2.616,-0.659 3.3,-1.821c0.868,-1.603 1.275,-3.416 1.176,-5.237l0.008,-1.078Zm27.876,9.33c-1.058,1.085 -2.371,1.888 -3.819,2.336c-1.773,0.607 -3.637,0.906 -5.511,0.886c-2.739,0.129 -5.411,-0.896 -7.363,-2.822c-1.942,-2.146 -2.997,-4.953 -2.949,-7.847l-0.016,-2.03c-0.047,-2.083 0.372,-4.15 1.225,-6.051c0.746,-1.645 1.964,-3.03 3.5,-3.98c1.594,-0.949 3.423,-1.431 5.278,-1.392c2.434,-0.151 4.845,0.56 6.808,2.006c1.714,1.53 2.736,3.692 2.831,5.987l-5.446,0c-0.074,-1.053 -0.519,-2.046 -1.257,-2.8c-0.779,-0.604 -1.752,-0.903 -2.736,-0.842c-1.34,-0.042 -2.601,0.648 -3.287,1.8c-0.865,1.575 -1.273,3.361 -1.176,5.156l0,1.418c-0.124,1.838 0.293,3.673 1.2,5.277c0.861,1.208 2.295,1.881 3.775,1.77c1.18,0.093 2.353,-0.257 3.288,-0.983l0,-3.642l-3.932,0l0,-3.883l9.587,0l0,9.636Zm12,-5.4l-3.055,0l0,8.3l-5.658,0l0,-23.461l9.233,0c2.321,-0.137 4.622,0.516 6.525,1.851c1.581,1.261 2.459,3.211 2.353,5.231c0.054,1.418 -0.289,2.823 -0.991,4.056c-0.755,1.154 -1.833,2.062 -3.1,2.608l4.9,9.473l0,0.242l-6.062,0l-4.145,-8.3Zm-3.055,-4.349l3.577,0c0.89,0.066 1.769,-0.243 2.423,-0.851c0.574,-0.65 0.866,-1.502 0.814,-2.367c0.05,-0.871 -0.245,-1.728 -0.822,-2.383c-0.648,-0.614 -1.526,-0.928 -2.417,-0.864l-3.575,-0l0,6.465Zm29.2,8.266l-7.75,0l-1.359,4.383l-6.042,0l8.6,-23.461l5.317,0l8.673,23.461l-6.074,0l-1.365,-4.383Zm-6.4,-4.367l5.043,0l-2.53,-8.137l-2.513,8.137Zm37.155,-21l5.736,0l-4.479,5.06l-4.431,-0.008l3.174,-5.052Zm-6.83,20.4l-9.125,-0l0,9.35l-5.653,0l0,-23.461l15.695,0l0,4.367l-10.042,0l0,5.4l9.12,0l0.005,4.344Zm9.296,9.35l-5.64,0l0,-23.461l5.64,0l0,23.461Zm17.547,-4.383l-7.75,0l-1.354,4.383l-6.042,0l8.6,-23.461l5.317,0l8.673,23.461l-6.074,0l-1.37,-4.383Zm-6.4,-4.367l5.043,0l-2.53,-8.137l-2.513,8.137Z" style="fill:#12263f;fill-rule:nonzero;"/><path id="Trazado_104387" d="M189.169,92.069l-7.541,0l-0,20.931l-3.078,0l0,-20.931l-7.525,0l-0,-2.53l18.144,0l-0,2.53Zm6.8,20.931l-3.094,0l-0,-23.461l3.094,0l-0,23.461Zm8.75,-9.185l-0,9.185l-3.094,0l-0,-23.461l8.653,0c2.186,-0.13 4.342,0.571 6.034,1.961c1.46,1.324 2.261,3.23 2.183,5.2c0.124,1.988 -0.662,3.929 -2.135,5.27c-1.747,1.335 -3.921,1.991 -6.115,1.845l-5.526,0Zm0,-2.53l5.559,0c1.367,0.092 2.721,-0.325 3.8,-1.17c0.92,-0.874 1.405,-2.114 1.322,-3.381c0.057,-1.255 -0.424,-2.477 -1.321,-3.357c-0.996,-0.883 -2.294,-1.351 -3.625,-1.307l-5.736,0l0.001,9.215Zm35.771,0.741c0.046,2.066 -0.349,4.118 -1.16,6.018c-0.682,1.605 -1.826,2.971 -3.287,3.924c-1.488,0.922 -3.213,1.393 -4.963,1.354c-1.735,0.031 -3.443,-0.442 -4.915,-1.362c-1.461,-0.945 -2.617,-2.294 -3.327,-3.883c-0.823,-1.836 -1.238,-3.829 -1.217,-5.841l0,-1.692c-0.04,-2.054 0.362,-4.093 1.179,-5.978c0.694,-1.622 1.851,-3.004 3.327,-3.972c1.471,-0.929 3.183,-1.408 4.923,-1.378c1.753,-0.035 3.48,0.439 4.971,1.362c1.474,0.955 2.628,2.33 3.311,3.948c0.809,1.901 1.204,3.953 1.16,6.018l-0.002,1.482Zm-3.078,-1.515c0.145,-2.259 -0.443,-4.506 -1.676,-6.405c-1.093,-1.476 -2.854,-2.314 -4.689,-2.232c-1.812,-0.068 -3.544,0.769 -4.616,2.232c-1.223,1.827 -1.83,3.998 -1.731,6.194l-0,1.724c-0.127,2.246 0.469,4.474 1.7,6.357c1.068,1.511 2.831,2.385 4.68,2.319c1.812,0.086 3.554,-0.735 4.64,-2.188c1.212,-1.855 1.804,-4.047 1.692,-6.26l-0,-1.741Zm25.04,9.41c-0.828,1.165 -1.988,2.055 -3.327,2.555c-1.589,0.593 -3.275,0.88 -4.971,0.846c-1.789,0.033 -3.553,-0.433 -5.092,-1.345c-1.496,-0.912 -2.692,-2.243 -3.44,-3.827c-0.843,-1.798 -1.27,-3.764 -1.249,-5.75l-0,-2.046c-0,-3.533 0.824,-6.273 2.473,-8.218c1.745,-1.988 4.313,-3.066 6.954,-2.919c2.132,-0.104 4.232,0.563 5.914,1.877c1.553,1.365 2.531,3.268 2.738,5.325l-3.094,-0c-0.58,-3.115 -2.428,-4.673 -5.543,-4.673c-1.838,-0.111 -3.612,0.712 -4.715,2.186c-1.188,1.888 -1.755,4.103 -1.619,6.33l-0,1.919c-0.12,2.236 0.514,4.448 1.8,6.281c1.149,1.528 2.978,2.4 4.889,2.33c1.028,0.017 2.054,-0.113 3.045,-0.386c0.825,-0.231 1.572,-0.682 2.16,-1.306l-0,-5.252l-5.43,-0l-0,-2.53l8.507,-0l-0,8.603Zm13.761,-6.412l-5.513,-0l-0,9.491l-3.108,-0l-0,-23.461l7.767,-0c2.182,-0.145 4.346,0.494 6.1,1.8c1.48,1.332 2.268,3.274 2.134,5.261c0.029,1.367 -0.386,2.708 -1.184,3.819c-0.835,1.119 -1.984,1.966 -3.3,2.433l5.515,9.955l-0,0.193l-3.324,0l-5.087,-9.491Zm-5.513,-2.53l4.753,0c1.328,0.07 2.635,-0.356 3.666,-1.195c0.913,-0.806 1.414,-1.983 1.362,-3.2c0.08,-1.25 -0.396,-2.474 -1.3,-3.341c-1.061,-0.841 -2.395,-1.26 -3.746,-1.178l-4.735,-0l-0,8.914Zm30.18,5.881l-9.827,-0l-2.207,6.14l-3.19,-0l8.959,-23.461l2.707,-0l8.978,23.461l-3.178,-0l-2.242,-6.14Zm-8.895,-2.53l7.976,-0l-4,-10.973l-3.976,10.973Zm38.779,-21.043l3.609,0l-4.319,4.737l-2.4,-0.008l3.11,-4.729Zm-8.364,19.352l-9.852,-0l-0,10.361l-3.093,-0l-0,-23.461l14.534,-0l-0,2.53l-11.441,-0l-0,8.041l9.845,-0l0.007,2.529Zm8.614,10.361l-3.094,-0l-0,-23.461l3.094,-0l-0,23.461Zm18.9,-6.139l-9.828,-0l-2.208,6.139l-3.19,-0l8.959,-23.461l2.707,-0l8.975,23.461l-3.174,-0l-2.241,-6.139Zm-8.895,-2.53l7.981,-0l-4,-10.973l-3.981,10.973Z" style="fill:#12263f;fill-rule:nonzero;"/><path id="Trazado_104388" d="M191.272,138.037l-7.734,0l-3.138,20.963l-3.174,0l3.142,-20.963l-7.638,0l0.371,-2.5l18.546,0l-0.375,2.5Zm3.706,20.963l-3.19,0l3.512,-23.461l3.19,0l-3.512,23.461Zm10.393,-9.41l-1.402,9.41l-3.174,0l3.513,-23.461l8.975,0c2.015,-0.145 4.001,0.563 5.47,1.95c1.26,1.364 1.786,3.257 1.41,5.076c-0.241,2.027 -1.261,3.883 -2.844,5.172c-1.769,1.304 -3.936,1.959 -6.131,1.853l-5.817,0Zm0.371,-2.481l5.817,0c1.356,0.06 2.684,-0.406 3.706,-1.3c0.929,-0.835 1.533,-1.972 1.707,-3.209c0.237,-1.143 -0.011,-2.334 -0.685,-3.287c-0.859,-0.936 -2.113,-1.409 -3.376,-1.273l-5.8,0l-1.369,9.069Zm35.4,2.256c-0.353,2.775 -1.68,5.336 -3.742,7.226c-2.005,1.821 -4.636,2.805 -7.344,2.747c-2.401,0.112 -4.71,-0.957 -6.179,-2.86c-1.509,-2.04 -2.08,-4.628 -1.571,-7.114l0.628,-4.173c0.33,-2.757 1.612,-5.314 3.625,-7.227c1.919,-1.82 4.479,-2.813 7.123,-2.764c2.467,-0.114 4.847,0.955 6.4,2.876c1.571,2.011 2.189,4.611 1.692,7.114l-0.632,4.175Zm-2.542,-4.206c0.396,-1.834 0.061,-3.752 -0.935,-5.342c-1.02,-1.374 -2.677,-2.132 -4.383,-2.006c-1.784,0.005 -3.486,0.764 -4.682,2.089c-1.372,1.441 -2.246,3.286 -2.49,5.261l-0.628,4.206c-0.414,1.829 -0.121,3.748 0.818,5.371c0.925,1.355 2.504,2.12 4.141,2.006c1.859,0.013 3.643,-0.739 4.931,-2.079c1.421,-1.435 2.332,-3.298 2.594,-5.3l0.634,-4.206Zm23.006,10.683c-0.901,1.03 -2.018,1.85 -3.271,2.4c-1.735,0.782 -3.625,1.158 -5.527,1.1c-2.385,0.098 -4.689,-0.904 -6.244,-2.715c-1.585,-1.935 -2.205,-4.491 -1.684,-6.937l0.725,-4.834c0.31,-2.704 1.588,-5.207 3.595,-7.045c1.925,-1.729 4.437,-2.663 7.024,-2.611c2.14,-0.136 4.243,0.63 5.793,2.112c1.357,1.396 1.918,3.389 1.491,5.288l-0.048,0.1l-3.046,0c0.265,-1.265 -0.046,-2.585 -0.846,-3.6c-0.966,-1.008 -2.34,-1.524 -3.73,-1.4c-1.743,0.01 -3.405,0.747 -4.584,2.03c-1.351,1.384 -2.213,3.172 -2.454,5.09l-0.725,4.866c-0.403,1.788 -0.065,3.665 0.935,5.2c0.967,1.317 2.537,2.06 4.169,1.971c1.14,0.031 2.275,-0.158 3.343,-0.557c0.76,-0.276 1.454,-0.707 2.039,-1.264l0.79,-5.285l-5.318,0l0.367,-2.481l8.5,0l-1.294,8.572Zm9.7,-7.009l-1.514,10.167l-3.175,0l3.513,-23.445l8.024,0c2.471,0 4.321,0.575 5.551,1.724c1.277,1.302 1.793,3.175 1.362,4.947c-0.157,1.188 -0.655,2.304 -1.434,3.215c-0.847,0.933 -1.909,1.644 -3.094,2.071c1.068,0.326 1.957,1.074 2.461,2.07c0.468,1.083 0.602,2.28 0.387,3.44l-0.338,2.208c-0.113,0.657 -0.13,1.327 -0.049,1.989c0.06,0.52 0.283,1.008 0.636,1.394l-0.067,0.387l-3.269,0c-0.393,-0.437 -0.596,-1.013 -0.564,-1.6c-0.008,-0.736 0.039,-1.471 0.143,-2.2l0.321,-2.146c0.247,-1.076 0.015,-2.208 -0.636,-3.1c-0.713,-0.787 -1.753,-1.201 -2.812,-1.12l-5.446,-0.001Zm0.371,-2.5l4.544,0c1.398,0.091 2.788,-0.271 3.964,-1.033c0.963,-0.761 1.579,-1.88 1.708,-3.1c0.27,-1.08 0.022,-2.227 -0.669,-3.1c-0.953,-0.808 -2.198,-1.19 -3.44,-1.055l-4.85,0l-1.257,8.288Zm28.972,6.625l-8.849,0l-2.995,6.042l-3.238,0l11.972,-23.461l2.723,0l4.769,23.461l-3.238,0l-1.144,-6.042Zm-7.525,-2.658l7.009,0l-1.9,-10.071l-0.1,-0.016l-5.009,10.087Zm40.486,-21.319l3.69,0l0.032,0.1l-4.931,4.189l-2.275,0l-0.032,-0.081l3.516,-4.208Zm-10.499,19.642l-9.911,0l-1.546,10.377l-3.174,0l3.513,-23.461l14.707,0l-0.371,2.5l-11.529,0l-1.225,8.089l9.91,0l-0.374,2.495Zm7.089,10.377l-3.19,0l3.513,-23.461l3.19,0l-3.513,23.461Zm19.143,-6.042l-8.843,0l-3,6.042l-3.239,0l11.972,-23.461l2.723,0l4.77,23.461l-3.239,0l-1.144,-6.042Zm-7.525,-2.658l7.009,0l-1.9,-10.071l-0.1,-0.016l-5.009,10.087Z" style="fill:#12263f;fill-rule:nonzero;"/></g></g></g></svg>