<svg id="ux" xmlns="http://www.w3.org/2000/svg" width="111.411" height="113.999" viewBox="0 0 111.411 113.999">
  <path id="Trazado_103516" data-name="Trazado 103516" d="M111.379,76.967H6.24A2.239,2.239,0,0,1,4,74.727V6.24A2.239,2.239,0,0,1,6.24,4H111.379a2.24,2.24,0,0,1,2.24,2.24V74.727A2.24,2.24,0,0,1,111.379,76.967Zm0,0" transform="translate(-3.104 -3.104)" fill="#d8d6d7"/>
  <path id="Trazado_103517" data-name="Trazado 103517" d="M127.972,32.24V89.083a2.241,2.241,0,0,1-2.24,2.24H32.24A2.241,2.241,0,0,1,30,89.083V32.24A2.241,2.241,0,0,1,32.24,30h93.493A2.241,2.241,0,0,1,127.972,32.24Zm0,0" transform="translate(-23.281 -23.281)" fill="#56c1b3"/>
  <path id="Trazado_103518" data-name="Trazado 103518" d="M161.73,32.24V89.083a2.241,2.241,0,0,1-2.24,2.24H75.74a2.24,2.24,0,0,1-2.24-2.24V32.24A2.239,2.239,0,0,1,75.74,30h83.75A2.24,2.24,0,0,1,161.73,32.24Zm0,0" transform="translate(-57.038 -23.281)" fill="#7befe4"/>
  <path id="Trazado_103519" data-name="Trazado 103519" d="M221.059,329.8h12.39v29.532h-12.39Zm0,0" transform="translate(-171.549 -255.937)" fill="#d8d6d7"/>
  <path id="Trazado_103520" data-name="Trazado 103520" d="M254.9,329.8h4.811v29.532H254.9Zm0,0" transform="translate(-197.809 -255.937)" fill="#fff"/>
  <path id="Trazado_103521" data-name="Trazado 103521" d="M178.419,463.9v5.227a2.241,2.241,0,0,1-2.24,2.24H123.619a2.241,2.241,0,0,1-2.24-2.24V463.9a2.241,2.241,0,0,1,2.24-2.24h52.561A2.241,2.241,0,0,1,178.419,463.9Zm0,0" transform="translate(-94.194 -358.264)" fill="#d8d6d7"/>
  <path id="Trazado_103522" data-name="Trazado 103522" d="M203.252,463.9v5.227a2.241,2.241,0,0,1-2.24,2.24H155.619a2.241,2.241,0,0,1-2.24-2.24V463.9a2.241,2.241,0,0,1,2.24-2.24h45.394A2.241,2.241,0,0,1,203.252,463.9Zm0,0" transform="translate(-119.027 -358.264)" fill="#fff"/>
  <path id="Trazado_103523" data-name="Trazado 103523" d="M112.2,103.376H57.436a2.24,2.24,0,0,1-2.24-2.24V54.076a2.239,2.239,0,0,1,2.24-2.24H112.2a2.239,2.239,0,0,1,2.24,2.24v47.061A2.24,2.24,0,0,1,112.2,103.376Zm0,0" transform="translate(-42.834 -40.226)" fill="#f85252"/>
  <path id="Trazado_103524" data-name="Trazado 103524" d="M114.443,60.275V101.14a2.241,2.241,0,0,1-2.24,2.24H57.439a2.241,2.241,0,0,1-2.24-2.24V54.08a2.241,2.241,0,0,1,2.24-2.24h13.34l6.118,7.6a2.237,2.237,0,0,0,1.743.833Zm0,0" transform="translate(-42.836 -40.23)" fill="#d8d6d7"/>
  <path id="Trazado_103525" data-name="Trazado 103525" d="M128.645,60.275V101.14a2.241,2.241,0,0,1-2.24,2.24H73.5V51.84H84.981l6.118,7.6a2.237,2.237,0,0,0,1.743.833Zm0,0" transform="translate(-57.038 -40.23)" fill="#fff"/>
  <path id="Trazado_103526" data-name="Trazado 103526" d="M125.222,131.912H82.275a2.241,2.241,0,0,1-2.24-2.24v-7.585a2.24,2.24,0,0,1,2.24-2.24h42.947a2.239,2.239,0,0,1,2.24,2.24v7.585A2.24,2.24,0,0,1,125.222,131.912Zm0,0" transform="translate(-62.11 -93.006)" fill="#f85252"/>
  <path id="Trazado_103527" data-name="Trazado 103527" d="M99.912,203.74H82.275a2.24,2.24,0,0,1-2.24-2.24v-10.17a2.24,2.24,0,0,1,2.24-2.24H99.913a2.24,2.24,0,0,1,2.24,2.24V201.5A2.241,2.241,0,0,1,99.912,203.74Zm0,0" transform="translate(-62.11 -146.74)" fill="#40c4df"/>
  <path id="Trazado_103528" data-name="Trazado 103528" d="M216.409,194.564h-16.63a2.239,2.239,0,0,1-2.24-2.24v-.995a2.239,2.239,0,0,1,2.24-2.24h16.63a2.239,2.239,0,0,1,2.24,2.24v.995A2.239,2.239,0,0,1,216.409,194.564Zm0,0" transform="translate(-153.297 -146.74)" fill="#40c4df"/>
  <path id="Trazado_103529" data-name="Trazado 103529" d="M216.409,235.533h-16.63a2.239,2.239,0,0,1-2.24-2.24V232.3a2.239,2.239,0,0,1,2.24-2.24h16.63a2.239,2.239,0,0,1,2.24,2.24v.995A2.239,2.239,0,0,1,216.409,235.533Zm0,0" transform="translate(-153.297 -178.533)" fill="#40c4df"/>
  <path id="Trazado_103530" data-name="Trazado 103530" d="M377.5,239.959v51.4a4.478,4.478,0,0,1-4.479,4.479h-24.5a4.478,4.478,0,0,1-4.479-4.479v-51.4a4.478,4.478,0,0,1,4.479-4.479h24.5A4.478,4.478,0,0,1,377.5,239.959Zm0,0" transform="translate(-266.986 -182.74)" fill="#1c868e"/>
  <path id="Trazado_103531" data-name="Trazado 103531" d="M398.841,239.959v51.4a4.478,4.478,0,0,1-4.479,4.479H376.018a4.478,4.478,0,0,1-4.479-4.479v-51.4a4.478,4.478,0,0,1,4.479-4.479h18.343A4.478,4.478,0,0,1,398.841,239.959Zm0,0" transform="translate(-288.326 -182.74)" fill="#40c4df"/>
  <path id="Trazado_103532" data-name="Trazado 103532" d="M344.039,281.238H377.5V321.1H344.039Zm0,0" transform="translate(-266.986 -218.25)" fill="#d8d6d7"/>
  <path id="Trazado_103533" data-name="Trazado 103533" d="M371.539,281.238h27.3V321.1h-27.3Zm0,0" transform="translate(-288.327 -218.25)" fill="#fff"/>
  <path id="Trazado_103534" data-name="Trazado 103534" d="M386.592,302.818v8.063a2.24,2.24,0,0,1-2.24,2.24H362.74a2.237,2.237,0,0,1-2.24-2.24v-8.063a2.238,2.238,0,0,1,2.24-2.24h21.613A2.241,2.241,0,0,1,386.592,302.818Zm0,0" transform="translate(-279.76 -233.259)" fill="#d73735"/>
  <path id="Trazado_103535" data-name="Trazado 103535" d="M395.159,302.818v8.063a2.24,2.24,0,0,1-2.24,2.24h-21.38V300.578h21.38A2.241,2.241,0,0,1,395.159,302.818Zm0,0" transform="translate(-288.327 -233.259)" fill="#f85252"/>
  <path id="Trazado_103536" data-name="Trazado 103536" d="M373.1,374.818v10.6a2.239,2.239,0,0,1-2.24,2.24h-8.116a2.237,2.237,0,0,1-2.24-2.24v-10.6a2.238,2.238,0,0,1,2.24-2.24h8.116A2.24,2.24,0,0,1,373.1,374.818Zm0,0" transform="translate(-279.76 -289.133)" fill="#1c868e"/>
  <path id="Trazado_103537" data-name="Trazado 103537" d="M381.662,374.818v10.6a2.239,2.239,0,0,1-2.24,2.24h-7.883V372.578h7.883A2.24,2.24,0,0,1,381.662,374.818Zm0,0" transform="translate(-288.326 -289.133)" fill="#40c4df"/>
  <path id="Trazado_103538" data-name="Trazado 103538" d="M440.927,378.546h-5.282a2.24,2.24,0,0,1-2.24-2.24v-1.493a2.24,2.24,0,0,1,2.24-2.24h5.282a2.239,2.239,0,0,1,2.24,2.24v1.493A2.24,2.24,0,0,1,440.927,378.546Zm0,0" transform="translate(-336.337 -289.13)" fill="#40c4df"/>
  <path id="Trazado_103539" data-name="Trazado 103539" d="M440.927,419.211h-5.282a2.239,2.239,0,0,1-2.24-2.24v-1.493a2.24,2.24,0,0,1,2.24-2.24h5.282a2.24,2.24,0,0,1,2.24,2.24v1.493A2.239,2.239,0,0,1,440.927,419.211Zm0,0" transform="translate(-336.337 -320.686)" fill="#40c4df"/>
  <path id="Trazado_103540" data-name="Trazado 103540" d="M389.629,253.418a1.68,1.68,0,1,1-1.68-1.68A1.68,1.68,0,0,1,389.629,253.418Zm0,0" transform="translate(-299.758 -195.357)" fill="#fff"/>
  <path id="Trazado_103541" data-name="Trazado 103541" d="M407.973,475.6a2.24,2.24,0,0,1-2.24,2.24h-4.255a2.24,2.24,0,0,1,0-4.479h4.255A2.24,2.24,0,0,1,407.973,475.6Zm0,0" transform="translate(-309.822 -367.342)" fill="#d8d6d7"/>
  <path id="Trazado_103542" data-name="Trazado 103542" d="M416,475.6a2.24,2.24,0,0,1-2.24,2.24h-1.94a2.24,2.24,0,0,1,0-4.479h1.94A2.24,2.24,0,0,1,416,475.6Zm0,0" transform="translate(-317.846 -367.342)" fill="#fff"/>
  <path id="Trazado_103543" data-name="Trazado 103543" d="M266.211,65.268a1.654,1.654,0,1,1-1.654-1.654A1.655,1.655,0,0,1,266.211,65.268Zm0,0" transform="translate(-204.021 -49.366)" fill="#fff"/>
  <path id="Trazado_103544" data-name="Trazado 103544" d="M293.242,65.268a1.654,1.654,0,1,1-1.654-1.654A1.655,1.655,0,0,1,293.242,65.268Zm0,0" transform="translate(-224.998 -49.366)" fill="#fff"/>
  <g id="Grupo_90995" data-name="Grupo 90995">
    <path id="Trazado_103545" data-name="Trazado 103545" d="M108.275,0H3.136A3.139,3.139,0,0,0,0,3.136V71.625A3.139,3.139,0,0,0,3.136,74.76H48.614V102.5H29.425a3.139,3.139,0,0,0-3.136,3.136v5.227A3.139,3.139,0,0,0,29.425,114h76.611a5.38,5.38,0,0,0,5.375-5.375V3.136A3.139,3.139,0,0,0,108.275,0ZM1.792,71.625V3.136A1.348,1.348,0,0,1,3.136,1.792H108.275a1.348,1.348,0,0,1,1.344,1.344V53.219a5.473,5.473,0,0,0-4.031-1.375V8.959a3.139,3.139,0,0,0-3.136-3.136H8.959A3.139,3.139,0,0,0,5.823,8.959V65.8a3.139,3.139,0,0,0,3.136,3.136h67.2v4.031H3.136a1.348,1.348,0,0,1-1.344-1.344Zm107.827,30.334H77.949V63.884h31.669ZM62.8,102.5V74.761H76.157V102.5Zm41-50.657H81.533a5.379,5.379,0,0,0-5.375,5.375v9.926H8.959A1.348,1.348,0,0,1,7.615,65.8V8.959A1.348,1.348,0,0,1,8.959,7.615h93.493A1.348,1.348,0,0,1,103.8,8.959ZM77.949,62.092V57.219a3.588,3.588,0,0,1,3.583-3.583h24.5a3.588,3.588,0,0,1,3.583,3.583v4.873H77.949ZM50.406,74.76H61V102.5h-10.6ZM29.425,112.207a1.348,1.348,0,0,1-1.344-1.344v-5.227a1.345,1.345,0,0,1,1.344-1.344H76.157v4.331a5.338,5.338,0,0,0,1.375,3.583Zm76.611,0h-24.5a3.588,3.588,0,0,1-3.583-3.583V103.75h31.669v4.874A3.588,3.588,0,0,1,106.035,112.207Zm0,0" fill="#12263f"/>
    <path id="Trazado_103546" data-name="Trazado 103546" d="M109.1,47.84H54.335A3.139,3.139,0,0,0,51.2,50.975v47.06a3.139,3.139,0,0,0,3.136,3.136H109.1a3.139,3.139,0,0,0,3.136-3.136V50.975A3.139,3.139,0,0,0,109.1,47.84Zm0,1.792a1.345,1.345,0,0,1,1.344,1.344v5.3H75.535a1.331,1.331,0,0,1-1.044-.5l-4.949-6.146Zm1.344,48.4a1.348,1.348,0,0,1-1.344,1.344H54.335a1.345,1.345,0,0,1-1.344-1.344V50.975a1.342,1.342,0,0,1,1.344-1.344h12.91l5.85,7.266a3.113,3.113,0,0,0,2.441,1.169h34.907Zm0,0" transform="translate(-39.732 -37.125)" fill="#12263f"/>
    <path id="Trazado_103547" data-name="Trazado 103547" d="M76.039,118.976v7.588a3.139,3.139,0,0,0,3.136,3.136h42.948a3.139,3.139,0,0,0,3.136-3.136v-7.588a3.139,3.139,0,0,0-3.136-3.136H79.175A3.139,3.139,0,0,0,76.039,118.976Zm47.428,0v7.588a1.348,1.348,0,0,1-1.344,1.344H79.175a1.345,1.345,0,0,1-1.344-1.344v-7.588a1.345,1.345,0,0,1,1.344-1.344h42.948A1.348,1.348,0,0,1,123.467,118.976Zm0,0" transform="translate(-59.009 -89.896)" fill="#12263f"/>
    <path id="Trazado_103548" data-name="Trazado 103548" d="M96.81,185.078H79.174a3.142,3.142,0,0,0-3.136,3.136v10.173a3.139,3.139,0,0,0,3.136,3.136H96.81a3.139,3.139,0,0,0,3.136-3.136V188.214A3.142,3.142,0,0,0,96.81,185.078Zm1.344,13.309a1.345,1.345,0,0,1-1.344,1.344H79.174a1.345,1.345,0,0,1-1.344-1.344V188.214a1.345,1.345,0,0,1,1.344-1.344H96.81a1.345,1.345,0,0,1,1.344,1.344Zm0,0" transform="translate(-59.009 -143.627)" fill="#12263f"/>
    <path id="Trazado_103549" data-name="Trazado 103549" d="M213.307,185.078H196.675a3.142,3.142,0,0,0-3.136,3.136v1a3.139,3.139,0,0,0,3.136,3.136h16.632a3.139,3.139,0,0,0,3.136-3.136v-1A3.142,3.142,0,0,0,213.307,185.078Zm1.344,4.135a1.348,1.348,0,0,1-1.344,1.344H196.675a1.345,1.345,0,0,1-1.344-1.344v-1a1.345,1.345,0,0,1,1.344-1.344h16.632a1.348,1.348,0,0,1,1.344,1.344Zm0,0" transform="translate(-150.193 -143.627)" fill="#12263f"/>
    <path id="Trazado_103550" data-name="Trazado 103550" d="M213.307,226.059H196.675a3.139,3.139,0,0,0-3.136,3.136v.995a3.139,3.139,0,0,0,3.136,3.136h16.632a3.139,3.139,0,0,0,3.136-3.136v-.995A3.139,3.139,0,0,0,213.307,226.059Zm1.344,4.13a1.348,1.348,0,0,1-1.344,1.344H196.675a1.345,1.345,0,0,1-1.344-1.344v-.995a1.342,1.342,0,0,1,1.344-1.344h16.632a1.345,1.345,0,0,1,1.344,1.344Zm0,0" transform="translate(-150.193 -175.429)" fill="#12263f"/>
    <path id="Trazado_103551" data-name="Trazado 103551" d="M76.931,73.292h8.286a.9.9,0,0,0,0-1.792H76.931a.9.9,0,0,0,0,1.792Zm0,0" transform="translate(-59.006 -55.486)" fill="#12263f"/>
    <path id="Trazado_103552" data-name="Trazado 103552" d="M381.248,296.578H359.636a3.138,3.138,0,0,0-3.136,3.136v8.063a3.139,3.139,0,0,0,3.136,3.136h21.613a3.139,3.139,0,0,0,3.136-3.136v-8.063A3.139,3.139,0,0,0,381.248,296.578Zm1.344,11.2a1.348,1.348,0,0,1-1.344,1.344H359.636a1.345,1.345,0,0,1-1.344-1.344v-8.063a1.341,1.341,0,0,1,1.344-1.344h21.613a1.345,1.345,0,0,1,1.344,1.344Zm0,0" transform="translate(-276.656 -230.154)" fill="#12263f"/>
    <path id="Trazado_103553" data-name="Trazado 103553" d="M367.751,368.578h-8.116a3.139,3.139,0,0,0-3.136,3.136v10.6a3.139,3.139,0,0,0,3.136,3.136h8.116a3.138,3.138,0,0,0,3.136-3.136v-10.6A3.139,3.139,0,0,0,367.751,368.578Zm1.344,13.734a1.345,1.345,0,0,1-1.344,1.344h-8.116a1.342,1.342,0,0,1-1.344-1.344v-10.6a1.342,1.342,0,0,1,1.344-1.344h8.116a1.345,1.345,0,0,1,1.344,1.344Zm0,0" transform="translate(-276.656 -286.029)" fill="#12263f"/>
    <path id="Trazado_103554" data-name="Trazado 103554" d="M437.82,368.578h-5.286a3.139,3.139,0,0,0-3.136,3.136v1.492a3.139,3.139,0,0,0,3.136,3.136h5.286a3.139,3.139,0,0,0,3.136-3.136v-1.492A3.139,3.139,0,0,0,437.82,368.578Zm1.344,4.627a1.348,1.348,0,0,1-1.344,1.344h-5.286a1.348,1.348,0,0,1-1.344-1.344v-1.492a1.346,1.346,0,0,1,1.344-1.344h5.286a1.345,1.345,0,0,1,1.344,1.344Zm0,0" transform="translate(-333.227 -286.029)" fill="#12263f"/>
    <path id="Trazado_103555" data-name="Trazado 103555" d="M437.82,409.238h-5.286a3.139,3.139,0,0,0-3.136,3.136v1.492A3.139,3.139,0,0,0,432.534,417h5.286a3.139,3.139,0,0,0,3.136-3.136v-1.492A3.139,3.139,0,0,0,437.82,409.238Zm1.344,4.627a1.345,1.345,0,0,1-1.344,1.344h-5.286a1.345,1.345,0,0,1-1.344-1.344v-1.492a1.349,1.349,0,0,1,1.344-1.344h5.286a1.348,1.348,0,0,1,1.344,1.344Zm0,0" transform="translate(-333.227 -317.582)" fill="#12263f"/>
    <path id="Trazado_103556" data-name="Trazado 103556" d="M420.688,255.238h-7.913a.9.9,0,1,0,0,1.792h7.913a.9.9,0,1,0,0-1.792Zm0,0" transform="translate(-319.632 -198.073)" fill="#12263f"/>
    <path id="Trazado_103557" data-name="Trazado 103557" d="M384.838,247.738a2.576,2.576,0,1,0,2.576,2.576A2.579,2.579,0,0,0,384.838,247.738Zm0,3.359a.784.784,0,1,1,.784-.784A.787.787,0,0,1,384.838,251.1Zm0,0" transform="translate(-296.648 -192.253)" fill="#12263f"/>
    <path id="Trazado_103558" data-name="Trazado 103558" d="M402.629,469.359h-4.255a3.136,3.136,0,0,0,0,6.271h4.255a3.136,3.136,0,0,0,0-6.271Zm0,4.479h-4.255a1.344,1.344,0,1,1,0-2.688h4.255a1.344,1.344,0,1,1,0,2.688Zm0,0" transform="translate(-306.718 -364.238)" fill="#12263f"/>
    <path id="Trazado_103559" data-name="Trazado 103559" d="M369.533,115.323l-2.869,2.869v-9.961a5.037,5.037,0,0,0-5.032-5.031h-9.351l2.87-2.87a.9.9,0,1,0-1.267-1.267l-4.4,4.4a.9.9,0,0,0,0,1.269l4.4,4.4a.9.9,0,1,0,1.267-1.266l-2.869-2.87h9.351a3.244,3.244,0,0,1,3.24,3.24v9.962L362,115.324a.9.9,0,1,0-1.267,1.267l4.4,4.4a.9.9,0,0,0,1.268,0l4.4-4.4a.9.9,0,0,0-1.268-1.268Zm0,0" transform="translate(-271.009 -76.673)" fill="#12263f"/>
    <path id="Trazado_103560" data-name="Trazado 103560" d="M261.448,64.718A2.548,2.548,0,1,0,258.9,62.17,2.554,2.554,0,0,0,261.448,64.718Zm0-3.305a.757.757,0,1,1-.758.757A.76.76,0,0,1,261.448,61.413Zm0,0" transform="translate(-200.914 -46.268)" fill="#12263f"/>
    <path id="Trazado_103561" data-name="Trazado 103561" d="M288.49,64.718a2.548,2.548,0,1,0-2.548-2.548A2.549,2.549,0,0,0,288.49,64.718Zm0-3.305a.757.757,0,1,1-.757.757A.759.759,0,0,1,288.49,61.413Zm0,0" transform="translate(-221.9 -46.268)" fill="#12263f"/>
  </g>
</svg>
