<svg xmlns="http://www.w3.org/2000/svg" width="144" height="144" viewBox="0 0 144 144">
  <g id="Grupo_91596" data-name="Grupo 91596" transform="translate(-728 -5491)">
    <circle id="Elipse_4056" data-name="Elipse 4056" cx="72" cy="72" r="72" transform="translate(728 5491)" fill="#ffc000"/>
    <g id="telefono-inteligente_2_" data-name="telefono-inteligente (2)" transform="translate(753 5521)">
      <path id="Trazado_103225" data-name="Trazado 103225" d="M59.366,0H19.9A6.911,6.911,0,0,0,13,6.9V87.1A6.911,6.911,0,0,0,19.9,94H59.364a6.911,6.911,0,0,0,6.9-6.9V6.9A6.911,6.911,0,0,0,59.366,0ZM16.133,12.533h47V72.067h-47Zm3.768-9.4H59.364A3.773,3.773,0,0,1,63.133,6.9V9.4h-47V6.9A3.772,3.772,0,0,1,19.9,3.133ZM59.366,90.867H19.9A3.772,3.772,0,0,1,16.133,87.1V75.2h47V87.1A3.772,3.772,0,0,1,59.366,90.867Z" transform="translate(7.366)" fill="#12263f"/>
      <path id="Trazado_103226" data-name="Trazado 103226" d="M32.267,49a6.267,6.267,0,1,0,6.267,6.267A6.273,6.273,0,0,0,32.267,49Zm0,9.4A3.133,3.133,0,1,1,35.4,55.267,3.136,3.136,0,0,1,32.267,58.4Z" transform="translate(14.733 27.767)" fill="#12263f"/>
      <path id="Trazado_103227" data-name="Trazado 103227" d="M26.567,6.133h6.267a1.567,1.567,0,0,0,0-3.133H26.567a1.567,1.567,0,1,0,0,3.133Z" transform="translate(14.166 1.7)" fill="#12263f"/>
      <path id="Trazado_103228" data-name="Trazado 103228" d="M33.567,6.133h1.567a1.567,1.567,0,0,0,0-3.133H33.567a1.567,1.567,0,0,0,0,3.133Z" transform="translate(18.133 1.7)" fill="#12263f"/>
      <path id="Trazado_103229" data-name="Trazado 103229" d="M57.579,4.735A1.566,1.566,0,0,0,55.364,6.95a15.031,15.031,0,0,1,0,21.231A1.566,1.566,0,1,0,57.579,30.4,18.166,18.166,0,0,0,57.579,4.735Z" transform="translate(31.112 2.423)" fill="#12263f"/>
      <path id="Trazado_103230" data-name="Trazado 103230" d="M53.368,7.011a1.566,1.566,0,0,0-2.215,2.215,10.29,10.29,0,0,1,0,14.534,1.566,1.566,0,1,0,2.215,2.215,13.421,13.421,0,0,0,0-18.964Z" transform="translate(28.726 3.713)" fill="#12263f"/>
      <path id="Trazado_103231" data-name="Trazado 103231" d="M7.523,6.95A1.566,1.566,0,0,0,5.307,4.735a18.166,18.166,0,0,0,0,25.662,1.566,1.566,0,0,0,2.215-2.215A15.028,15.028,0,0,1,7.523,6.95Z" transform="translate(0 2.423)" fill="#12263f"/>
      <path id="Trazado_103232" data-name="Trazado 103232" d="M11.233,6.735a1.565,1.565,0,0,0-2.215,0,13.421,13.421,0,0,0,0,18.965,1.566,1.566,0,0,0,2.215-2.215,10.29,10.29,0,0,1,0-14.534A1.568,1.568,0,0,0,11.233,6.735Z" transform="translate(2.887 3.556)" fill="#12263f"/>
    </g>
  </g>
</svg>
