<svg xmlns="http://www.w3.org/2000/svg" width="398.84" height="202.583" viewBox="0 0 398.84 202.583">
  <g id="Grupo_91310" data-name="Grupo 91310" transform="translate(-180 -3517)">
    <g id="Grupo_90718" data-name="Grupo 90718" transform="translate(121.213 3887.711) rotate(-90)">
      <g id="Grupo_90705" data-name="Grupo 90705" transform="translate(170.048 58.787)">
        <path id="Trazado_103211" data-name="Trazado 103211" d="M342.508,457.627H196.875a26.573,26.573,0,0,1-26.543-26.543V85.33a26.573,26.573,0,0,1,26.543-26.543H342.508A26.574,26.574,0,0,1,369.051,85.33V431.083A26.574,26.574,0,0,1,342.508,457.627ZM196.875,59.658A25.7,25.7,0,0,0,171.2,85.33V431.083a25.7,25.7,0,0,0,25.671,25.672H342.508a25.7,25.7,0,0,0,25.672-25.672V85.33a25.7,25.7,0,0,0-25.672-25.672Z" transform="translate(-170.332 -58.787)" fill="#080807"/>
      </g>
      <g id="Grupo_90706" data-name="Grupo 90706" transform="translate(172.283 61.023)">
        <path id="Trazado_103212" data-name="Trazado 103212" d="M342.8,455.722H197.241A24.372,24.372,0,0,1,172.9,431.379V85.7a24.371,24.371,0,0,1,24.343-24.343H342.8A24.37,24.37,0,0,1,367.146,85.7V431.379A24.371,24.371,0,0,1,342.8,455.722ZM197.241,62.225A23.5,23.5,0,0,0,173.769,85.7V431.379a23.5,23.5,0,0,0,23.472,23.473H342.8a23.5,23.5,0,0,0,23.472-23.473V85.7A23.5,23.5,0,0,0,342.8,62.225Z" transform="translate(-172.898 -61.354)" fill="#080807"/>
      </g>
      <g id="Grupo_90707" data-name="Grupo 90707" transform="translate(178.484 67.927)">
        <path id="Trazado_103213" data-name="Trazado 103213" d="M343.417,450.1H198.1a18.282,18.282,0,0,1-18.085-18.433V87.712A18.282,18.282,0,0,1,198.1,69.279h27.3a3.839,3.839,0,0,1,3.836,3.835c0,5.108,4.155,8.225,9.264,8.225h58.039c5.108,0,9.265-3.117,9.265-8.225a3.839,3.839,0,0,1,3.834-3.835h33.783A18.283,18.283,0,0,1,361.5,87.712V431.671A18.283,18.283,0,0,1,343.417,450.1ZM198.1,70.15a17.41,17.41,0,0,0-17.214,17.562V431.671A17.41,17.41,0,0,0,198.1,449.233H343.417a17.41,17.41,0,0,0,17.214-17.562V87.712A17.411,17.411,0,0,0,343.417,70.15H309.634a2.966,2.966,0,0,0-2.963,2.964c0,5.588-4.547,9.1-10.136,9.1H238.5c-5.589,0-10.136-3.508-10.136-9.1A2.968,2.968,0,0,0,225.4,70.15Z" transform="translate(-180.016 -69.279)" fill="#080807"/>
      </g>
      <g id="Grupo_90708" data-name="Grupo 90708" transform="translate(168.128 116.011)">
        <path id="Trazado_103214" data-name="Trazado 103214" d="M170.919,140.374h-1.628a1.165,1.165,0,0,1-1.163-1.164V125.639a1.164,1.164,0,0,1,1.163-1.163h1.628Zm-1.628-15.027a.292.292,0,0,0-.292.292V139.21a.293.293,0,0,0,.292.293h.757V125.347Z" transform="translate(-168.128 -124.476)" fill="#080807"/>
      </g>
      <g id="Grupo_90709" data-name="Grupo 90709" transform="translate(168.128 156.22)">
        <path id="Trazado_103215" data-name="Trazado 103215" d="M170.919,200.921h-1.628a1.165,1.165,0,0,1-1.163-1.164V171.8a1.164,1.164,0,0,1,1.163-1.163h1.628ZM169.291,171.5a.292.292,0,0,0-.292.292v27.962a.292.292,0,0,0,.292.293h.757V171.5Z" transform="translate(-168.128 -170.633)" fill="#080807"/>
      </g>
      <g id="Grupo_90710" data-name="Grupo 90710" transform="translate(367.896 161.046)">
        <path id="Trazado_103216" data-name="Trazado 103216" d="M399.115,234.277h-1.667v-58.1h1.667a1.148,1.148,0,0,1,1.147,1.146v55.812A1.148,1.148,0,0,1,399.115,234.277Zm-.8-.871h.8a.276.276,0,0,0,.276-.275V177.319a.276.276,0,0,0-.276-.275h-.8Z" transform="translate(-397.448 -176.173)" fill="#080807"/>
      </g>
      <g id="Grupo_90711" data-name="Grupo 90711" transform="translate(168.128 193.355)">
        <path id="Trazado_103217" data-name="Trazado 103217" d="M170.919,243.55h-1.628a1.164,1.164,0,0,1-1.163-1.163V214.426a1.165,1.165,0,0,1,1.163-1.164h1.628Zm-1.628-29.417a.293.293,0,0,0-.292.293v27.962a.292.292,0,0,0,.292.292h.757V214.133Z" transform="translate(-168.128 -213.262)" fill="#080807"/>
      </g>
      <g id="Grupo_90712" data-name="Grupo 90712" transform="translate(251.818 69.197)">
        <path id="Trazado_103218" data-name="Trazado 103218" d="M289.352,75.6H266.629a2.432,2.432,0,0,1,0-4.864h22.723a2.432,2.432,0,0,1,0,4.864Zm-22.723-3.992a1.561,1.561,0,0,0,0,3.121h22.723a1.561,1.561,0,0,0,0-3.121Z" transform="translate(-264.198 -70.737)" fill="#080807"/>
      </g>
      <g id="Grupo_90713" data-name="Grupo 90713" transform="translate(239.904 67.927)">
        <path id="Trazado_103219" data-name="Trazado 103219" d="M254.223,76.683a3.7,3.7,0,1,1,3.7-3.7A3.706,3.706,0,0,1,254.223,76.683Zm0-6.533a2.831,2.831,0,1,0,2.831,2.831A2.834,2.834,0,0,0,254.223,70.15Z" transform="translate(-250.522 -69.279)" fill="#080807"/>
      </g>
      <g id="Grupo_90714" data-name="Grupo 90714" transform="translate(283.884 67.927)">
        <path id="Trazado_103220" data-name="Trazado 103220" d="M304.71,76.683a3.7,3.7,0,1,1,3.7-3.7A3.706,3.706,0,0,1,304.71,76.683Zm0-6.533a2.831,2.831,0,1,0,2.831,2.831A2.834,2.834,0,0,0,304.71,70.15Z" transform="translate(-301.008 -69.279)" fill="#080807"/>
      </g>
      <g id="Grupo_90715" data-name="Grupo 90715" transform="translate(293.299 68.719)">
        <path id="Trazado_103221" data-name="Trazado 103221" d="M314.726,76.008a2.91,2.91,0,1,1,2.91-2.91A2.913,2.913,0,0,1,314.726,76.008Zm0-4.949a2.039,2.039,0,1,0,2.039,2.039A2.041,2.041,0,0,0,314.726,71.059Z" transform="translate(-311.816 -70.188)" fill="#080807"/>
      </g>
      <g id="Grupo_90716" data-name="Grupo 90716" transform="translate(232.014 68.719)">
        <path id="Trazado_103222" data-name="Trazado 103222" d="M244.375,76.008a2.91,2.91,0,1,1,2.91-2.91A2.913,2.913,0,0,1,244.375,76.008Zm0-4.949a2.039,2.039,0,1,0,2.039,2.039A2.041,2.041,0,0,0,244.375,71.059Z" transform="translate(-241.465 -70.188)" fill="#080807"/>
      </g>
    </g>
    <g id="Grupo_91306" data-name="Grupo 91306">
      <path id="Trazado_104389" data-name="Trazado 104389" d="M16.606-18.859H-16.745L-22.569,0h-26l37.025-100.953H11.336L48.639,0H22.5ZM-10.92-37.649h21.7L-.1-72.664Z" transform="translate(271 3668)" fill="#4dd0e1"/>
      <g id="Grupo_91305" data-name="Grupo 91305" transform="translate(124)">
        <path id="Trazado_104386" data-name="Trazado 104386" d="M-75.958-19.094H-83V0h-5.656V-19.094h-6.913v-4.367h19.61ZM-67.547,0h-5.64V-23.461h5.64Zm9.587-7.96V0h-5.656V-23.461h9.362a10.9,10.9,0,0,1,4.761.991,7.468,7.468,0,0,1,3.207,2.82A7.7,7.7,0,0,1-45.149-15.5a6.789,6.789,0,0,1-2.457,5.487A10.2,10.2,0,0,1-54.35-7.96Zm0-4.367h3.706a3.5,3.5,0,0,0,2.506-.822,3.053,3.053,0,0,0,.862-2.32,3.774,3.774,0,0,0-.886-2.626,3.138,3.138,0,0,0-2.417-1h-3.771Zm35.691,1.08a13.835,13.835,0,0,1-1.273,6.075A9.408,9.408,0,0,1-27.159-1.1,10.073,10.073,0,0,1-32.5.322a10.215,10.215,0,0,1-5.317-1.378A9.392,9.392,0,0,1-41.435-5,13.437,13.437,0,0,1-42.8-10.876V-12.2a13.9,13.9,0,0,1,1.265-6.083,9.385,9.385,0,0,1,3.625-4.069,10.143,10.143,0,0,1,5.374-1.434,10.044,10.044,0,0,1,5.317,1.418,9.554,9.554,0,0,1,3.634,4.036,13.5,13.5,0,0,1,1.313,6Zm-5.752-.983a9.866,9.866,0,0,0-1.168-5.309,3.747,3.747,0,0,0-3.344-1.813q-4.254,0-4.5,6.381l-.016,1.724a10.147,10.147,0,0,0,1.144,5.3,3.742,3.742,0,0,0,3.4,1.853,3.7,3.7,0,0,0,3.3-1.821,9.87,9.87,0,0,0,1.176-5.237ZM-.145-2.9A9.094,9.094,0,0,1-3.964-.564,16.471,16.471,0,0,1-9.475.322,9.826,9.826,0,0,1-16.838-2.5a11.414,11.414,0,0,1-2.949-7.847l-.016-2.03a14,14,0,0,1,1.225-6.051,9.094,9.094,0,0,1,3.5-3.98A9.913,9.913,0,0,1-9.8-23.8a10.393,10.393,0,0,1,6.808,2.006A8.5,8.5,0,0,1-.161-15.807H-5.607a4.448,4.448,0,0,0-1.257-2.8A4.055,4.055,0,0,0-9.6-19.449a3.69,3.69,0,0,0-3.287,1.8,9.636,9.636,0,0,0-1.176,5.156v1.418a9.433,9.433,0,0,0,1.2,5.277A4.246,4.246,0,0,0-9.088-4.028,4.752,4.752,0,0,0-5.8-5.011V-8.653H-9.732v-3.883H-.145Zm12-5.4H8.8V0H3.142V-23.461h9.233A10.305,10.305,0,0,1,18.9-21.61a6.272,6.272,0,0,1,2.353,5.231,7.617,7.617,0,0,1-.991,4.056,7.034,7.034,0,0,1-3.1,2.608l4.9,9.473V0H16ZM8.8-12.649h3.577A3.211,3.211,0,0,0,14.8-13.5a3.278,3.278,0,0,0,.814-2.367,3.317,3.317,0,0,0-.822-2.383,3.181,3.181,0,0,0-2.417-.864H8.8ZM38-4.383h-7.75L28.891,0H22.849l8.6-23.461h5.317L45.439,0H39.365ZM31.6-8.75h5.043l-2.53-8.137Zm3.255-21h5.736l-4.479,5.06-4.431-.008Zm27.07,20.4H52.8V0H47.147V-23.461H62.842v4.367H52.8v5.4h9.12ZM71.221,0h-5.64V-23.461h5.64ZM88.768-4.383h-7.75L79.664,0H73.622l8.6-23.461h5.317L96.212,0H90.138Zm-6.4-4.367h5.043l-2.53-8.137Z" transform="translate(319 3584)" fill="#12263f"/>
        <path id="Trazado_104387" data-name="Trazado 104387" d="M-73.831-20.931h-7.541V0H-84.45V-20.931h-7.525v-2.53h18.144ZM-67.031,0h-3.094V-23.461h3.094Zm8.75-9.185V0h-3.094V-23.461h8.653A8.693,8.693,0,0,1-46.688-21.5a6.665,6.665,0,0,1,2.183,5.2A6.576,6.576,0,0,1-46.64-11.03a9.082,9.082,0,0,1-6.115,1.845Zm0-2.53h5.559a5.558,5.558,0,0,0,3.8-1.17A4.279,4.279,0,0,0-47.6-16.266a4.421,4.421,0,0,0-1.321-3.357,5.207,5.207,0,0,0-3.625-1.307h-5.736Zm35.771.741a14.513,14.513,0,0,1-1.16,6.018,8.788,8.788,0,0,1-3.287,3.924A9.044,9.044,0,0,1-31.92.322a8.967,8.967,0,0,1-4.915-1.362,9,9,0,0,1-3.327-3.883,13.925,13.925,0,0,1-1.217-5.841v-1.692A14.341,14.341,0,0,1-40.2-18.434a8.966,8.966,0,0,1,3.327-3.972,8.928,8.928,0,0,1,4.923-1.378,9.1,9.1,0,0,1,4.971,1.362,8.771,8.771,0,0,1,3.311,3.948,14.583,14.583,0,0,1,1.16,6.018Zm-3.078-1.515a10.519,10.519,0,0,0-1.676-6.405,5.527,5.527,0,0,0-4.689-2.232,5.468,5.468,0,0,0-4.616,2.232A10.3,10.3,0,0,0-38.3-12.7v1.724a10.534,10.534,0,0,0,1.7,6.357A5.491,5.491,0,0,0-31.92-2.3,5.469,5.469,0,0,0-27.28-4.488a10.475,10.475,0,0,0,1.692-6.26Zm25.04,9.41A7.147,7.147,0,0,1-3.875-.524,13.44,13.44,0,0,1-8.846.322a9.64,9.64,0,0,1-5.092-1.345,8.964,8.964,0,0,1-3.44-3.827A13.217,13.217,0,0,1-18.627-10.6v-2.046q0-5.3,2.473-8.218A8.618,8.618,0,0,1-9.2-23.783a8.9,8.9,0,0,1,5.914,1.877A8.178,8.178,0,0,1-.548-16.581H-3.642q-.87-4.673-5.543-4.673A5.477,5.477,0,0,0-13.9-19.068a10.669,10.669,0,0,0-1.619,6.33v1.919a10,10,0,0,0,1.8,6.281A5.85,5.85,0,0,0-8.83-2.208a10.784,10.784,0,0,0,3.045-.386A4.71,4.71,0,0,0-3.625-3.9V-9.152h-5.43v-2.53H-.548ZM13.213-9.491H7.7V0H4.592V-23.461h7.767a9.193,9.193,0,0,1,6.1,1.8A6.493,6.493,0,0,1,20.593-16.4a6.316,6.316,0,0,1-1.184,3.819,7.07,7.07,0,0,1-3.3,2.433L21.624-.193V0H18.3ZM7.7-12.021h4.753a5.361,5.361,0,0,0,3.666-1.195,4.039,4.039,0,0,0,1.362-3.2,4.254,4.254,0,0,0-1.3-3.341,5.493,5.493,0,0,0-3.746-1.178H7.7Zm30.18,5.881H28.053L25.846,0h-3.19l8.959-23.461h2.707L43.3,0H40.122Zm-8.895-2.53h7.976l-4-10.973ZM34.5-29.713h3.609L33.79-24.976l-2.4-.008Zm24.9,19.352H49.548V0H46.455V-23.461H60.989v2.53H49.548v8.041h9.845ZM68.014,0H64.92V-23.461h3.094Zm18.9-6.139H77.086L74.878,0h-3.19l8.959-23.461h2.707L92.329,0H89.155Zm-8.895-2.53H86L82-19.642Z" transform="translate(319 3630)" fill="#12263f"/>
        <path id="Trazado_104388" data-name="Trazado 104388" d="M-71.728-20.963h-7.734L-82.6,0h-3.174l3.142-20.963h-7.638l.371-2.5h18.546ZM-68.022,0h-3.19L-67.7-23.461h3.19Zm10.393-9.41L-59.031,0h-3.174l3.513-23.461h8.975a7.215,7.215,0,0,1,5.47,1.95,5.763,5.763,0,0,1,1.41,5.076,7.869,7.869,0,0,1-2.844,5.172A9.556,9.556,0,0,1-51.812-9.41Zm.371-2.481h5.817a5.276,5.276,0,0,0,3.706-1.3A5.308,5.308,0,0,0-46.028-16.4a4.213,4.213,0,0,0-.685-3.287,4,4,0,0,0-3.376-1.273h-5.8Zm35.4,2.256A11.824,11.824,0,0,1-25.6-2.409,10.585,10.585,0,0,1-32.944.338a7.373,7.373,0,0,1-6.179-2.86,8.945,8.945,0,0,1-1.571-7.114l.628-4.173a11.926,11.926,0,0,1,3.625-7.227A10.078,10.078,0,0,1-29.318-23.8a7.769,7.769,0,0,1,6.4,2.876,8.781,8.781,0,0,1,1.692,7.114ZM-24.4-13.841a7.2,7.2,0,0,0-.935-5.342,5,5,0,0,0-4.383-2.006A6.333,6.333,0,0,0-34.4-19.1a9.282,9.282,0,0,0-2.49,5.261l-.628,4.206A7.442,7.442,0,0,0-36.7-4.262a4.627,4.627,0,0,0,4.141,2.006,6.772,6.772,0,0,0,4.931-2.079,9.233,9.233,0,0,0,2.594-5.3ZM-1.394-3.158a9.323,9.323,0,0,1-3.271,2.4,12.513,12.513,0,0,1-5.527,1.1,7.808,7.808,0,0,1-6.244-2.715,8.238,8.238,0,0,1-1.684-6.937l.725-4.834A11.3,11.3,0,0,1-13.8-21.189,10.206,10.206,0,0,1-6.776-23.8,7.679,7.679,0,0,1-.983-21.688,5.771,5.771,0,0,1,.508-16.4l-.048.1H-2.586a4.37,4.37,0,0,0-.846-3.6A4.6,4.6,0,0,0-7.162-21.3a6.276,6.276,0,0,0-4.584,2.03A8.873,8.873,0,0,0-14.2-14.18l-.725,4.866a6.79,6.79,0,0,0,.935,5.2A4.844,4.844,0,0,0-9.821-2.143,8.865,8.865,0,0,0-6.478-2.7,5.857,5.857,0,0,0-4.439-3.964l.79-5.285H-8.967L-8.6-11.73H-.1Zm9.7-7.009L6.792,0H3.617L7.13-23.445h8.024q3.706,0,5.551,1.724a5.283,5.283,0,0,1,1.362,4.947,6.2,6.2,0,0,1-1.434,3.215,7.71,7.71,0,0,1-3.094,2.071A4.1,4.1,0,0,1,20-9.418a5.94,5.94,0,0,1,.387,3.44l-.338,2.208A6.84,6.84,0,0,0,20-1.781a2.488,2.488,0,0,0,.636,1.394L20.569,0H17.3a2.212,2.212,0,0,1-.564-1.6A14.449,14.449,0,0,1,16.879-3.8L17.2-5.946a3.813,3.813,0,0,0-.636-3.1,3.439,3.439,0,0,0-2.812-1.12Zm.371-2.5h4.544A6.512,6.512,0,0,0,17.185-13.7a4.565,4.565,0,0,0,1.708-3.1,3.591,3.591,0,0,0-.669-3.1,4.559,4.559,0,0,0-3.44-1.055H9.934ZM37.649-6.042H28.8L25.805,0H22.567L34.539-23.461h2.723L42.031,0H38.793ZM30.124-8.7h7.009l-1.9-10.071-.1-.016ZM38.2-30.019h3.69l.032.1-4.931,4.189H34.716l-.032-.081ZM60.111-10.377H50.2L48.654,0H45.48l3.513-23.461H63.7l-.371,2.5H51.8l-1.225,8.089h9.91ZM67.2,0H64.01l3.513-23.461h3.19ZM86.343-6.042H77.5L74.5,0H71.261L83.233-23.461h2.723L90.726,0H87.487ZM78.818-8.7h7.009l-1.9-10.071-.1-.016Z" transform="translate(319 3676)" fill="#12263f"/>
      </g>
    </g>
  </g>
</svg>
