<svg xmlns="http://www.w3.org/2000/svg" width="398.84" height="202.583" viewBox="0 0 398.84 202.583">
  <g id="Grupo_91594" data-name="Grupo 91594" transform="translate(-180 -3801)">
    <g id="Grupo_91309" data-name="Grupo 91309">
      <g id="Grupo_90719" data-name="Grupo 90719" transform="translate(121.213 4171.71) rotate(-90)">
        <g id="Grupo_90705" data-name="Grupo 90705" transform="translate(170.048 58.787)">
          <path id="Trazado_103211" data-name="Trazado 103211" d="M342.508,457.627H196.875a26.573,26.573,0,0,1-26.543-26.543V85.33a26.573,26.573,0,0,1,26.543-26.543H342.508A26.574,26.574,0,0,1,369.051,85.33V431.083A26.574,26.574,0,0,1,342.508,457.627ZM196.875,59.658A25.7,25.7,0,0,0,171.2,85.33V431.083a25.7,25.7,0,0,0,25.671,25.672H342.508a25.7,25.7,0,0,0,25.672-25.672V85.33a25.7,25.7,0,0,0-25.672-25.672Z" transform="translate(-170.332 -58.787)" fill="#080807"/>
        </g>
        <g id="Grupo_90706" data-name="Grupo 90706" transform="translate(172.283 61.023)">
          <path id="Trazado_103212" data-name="Trazado 103212" d="M342.8,455.722H197.241A24.372,24.372,0,0,1,172.9,431.379V85.7a24.371,24.371,0,0,1,24.343-24.343H342.8A24.37,24.37,0,0,1,367.146,85.7V431.379A24.371,24.371,0,0,1,342.8,455.722ZM197.241,62.225A23.5,23.5,0,0,0,173.769,85.7V431.379a23.5,23.5,0,0,0,23.472,23.473H342.8a23.5,23.5,0,0,0,23.472-23.473V85.7A23.5,23.5,0,0,0,342.8,62.225Z" transform="translate(-172.898 -61.354)" fill="#080807"/>
        </g>
        <g id="Grupo_90707" data-name="Grupo 90707" transform="translate(178.484 67.927)">
          <path id="Trazado_103213" data-name="Trazado 103213" d="M343.417,450.1H198.1a18.282,18.282,0,0,1-18.085-18.433V87.712A18.282,18.282,0,0,1,198.1,69.279h27.3a3.839,3.839,0,0,1,3.836,3.835c0,5.108,4.155,8.225,9.264,8.225h58.039c5.108,0,9.265-3.117,9.265-8.225a3.839,3.839,0,0,1,3.834-3.835h33.783A18.283,18.283,0,0,1,361.5,87.712V431.671A18.283,18.283,0,0,1,343.417,450.1ZM198.1,70.15a17.41,17.41,0,0,0-17.214,17.562V431.671A17.41,17.41,0,0,0,198.1,449.233H343.417a17.41,17.41,0,0,0,17.214-17.562V87.712A17.411,17.411,0,0,0,343.417,70.15H309.634a2.966,2.966,0,0,0-2.963,2.964c0,5.588-4.547,9.1-10.136,9.1H238.5c-5.589,0-10.136-3.508-10.136-9.1A2.968,2.968,0,0,0,225.4,70.15Z" transform="translate(-180.016 -69.279)" fill="#080807"/>
        </g>
        <g id="Grupo_90708" data-name="Grupo 90708" transform="translate(168.128 116.011)">
          <path id="Trazado_103214" data-name="Trazado 103214" d="M170.919,140.374h-1.628a1.165,1.165,0,0,1-1.163-1.164V125.639a1.164,1.164,0,0,1,1.163-1.163h1.628Zm-1.628-15.027a.292.292,0,0,0-.292.292V139.21a.293.293,0,0,0,.292.293h.757V125.347Z" transform="translate(-168.128 -124.476)" fill="#080807"/>
        </g>
        <g id="Grupo_90709" data-name="Grupo 90709" transform="translate(168.128 156.22)">
          <path id="Trazado_103215" data-name="Trazado 103215" d="M170.919,200.921h-1.628a1.165,1.165,0,0,1-1.163-1.164V171.8a1.164,1.164,0,0,1,1.163-1.163h1.628ZM169.291,171.5a.292.292,0,0,0-.292.292v27.962a.292.292,0,0,0,.292.293h.757V171.5Z" transform="translate(-168.128 -170.633)" fill="#080807"/>
        </g>
        <g id="Grupo_90710" data-name="Grupo 90710" transform="translate(367.896 161.046)">
          <path id="Trazado_103216" data-name="Trazado 103216" d="M399.115,234.277h-1.667v-58.1h1.667a1.148,1.148,0,0,1,1.147,1.146v55.812A1.148,1.148,0,0,1,399.115,234.277Zm-.8-.871h.8a.276.276,0,0,0,.276-.275V177.319a.276.276,0,0,0-.276-.275h-.8Z" transform="translate(-397.448 -176.173)" fill="#080807"/>
        </g>
        <g id="Grupo_90711" data-name="Grupo 90711" transform="translate(168.128 193.355)">
          <path id="Trazado_103217" data-name="Trazado 103217" d="M170.919,243.55h-1.628a1.164,1.164,0,0,1-1.163-1.163V214.426a1.165,1.165,0,0,1,1.163-1.164h1.628Zm-1.628-29.417a.293.293,0,0,0-.292.293v27.962a.292.292,0,0,0,.292.292h.757V214.133Z" transform="translate(-168.128 -213.262)" fill="#080807"/>
        </g>
        <g id="Grupo_90712" data-name="Grupo 90712" transform="translate(251.818 69.197)">
          <path id="Trazado_103218" data-name="Trazado 103218" d="M289.352,75.6H266.629a2.432,2.432,0,0,1,0-4.864h22.723a2.432,2.432,0,0,1,0,4.864Zm-22.723-3.992a1.561,1.561,0,0,0,0,3.121h22.723a1.561,1.561,0,0,0,0-3.121Z" transform="translate(-264.198 -70.737)" fill="#080807"/>
        </g>
        <g id="Grupo_90713" data-name="Grupo 90713" transform="translate(239.904 67.927)">
          <path id="Trazado_103219" data-name="Trazado 103219" d="M254.223,76.683a3.7,3.7,0,1,1,3.7-3.7A3.706,3.706,0,0,1,254.223,76.683Zm0-6.533a2.831,2.831,0,1,0,2.831,2.831A2.834,2.834,0,0,0,254.223,70.15Z" transform="translate(-250.522 -69.279)" fill="#080807"/>
        </g>
        <g id="Grupo_90714" data-name="Grupo 90714" transform="translate(283.884 67.927)">
          <path id="Trazado_103220" data-name="Trazado 103220" d="M304.71,76.683a3.7,3.7,0,1,1,3.7-3.7A3.706,3.706,0,0,1,304.71,76.683Zm0-6.533a2.831,2.831,0,1,0,2.831,2.831A2.834,2.834,0,0,0,304.71,70.15Z" transform="translate(-301.008 -69.279)" fill="#080807"/>
        </g>
        <g id="Grupo_90715" data-name="Grupo 90715" transform="translate(293.299 68.719)">
          <path id="Trazado_103221" data-name="Trazado 103221" d="M314.726,76.008a2.91,2.91,0,1,1,2.91-2.91A2.913,2.913,0,0,1,314.726,76.008Zm0-4.949a2.039,2.039,0,1,0,2.039,2.039A2.041,2.041,0,0,0,314.726,71.059Z" transform="translate(-311.816 -70.188)" fill="#080807"/>
        </g>
        <g id="Grupo_90716" data-name="Grupo 90716" transform="translate(232.014 68.719)">
          <path id="Trazado_103222" data-name="Trazado 103222" d="M244.375,76.008a2.91,2.91,0,1,1,2.91-2.91A2.913,2.913,0,0,1,244.375,76.008Zm0-4.949a2.039,2.039,0,1,0,2.039,2.039A2.041,2.041,0,0,0,244.375,71.059Z" transform="translate(-241.465 -70.188)" fill="#080807"/>
        </g>
      </g>
      <path id="Trazado_104390" data-name="Trazado 104390" d="M16.606-18.859H-16.745L-22.569,0h-26l37.025-100.953H11.336L48.639,0H22.5ZM-10.92-37.649h21.7L-.1-72.664Z" transform="translate(329 3952)" fill="#ffa726"/>
      <path id="Trazado_104391" data-name="Trazado 104391" d="M11.128,0A26.383,26.383,0,0,1,8.91-6.726Q2.461,1.387-9.118,1.387A26.618,26.618,0,0,1-27.145-5.027a20.414,20.414,0,0,1-7.419-16.121q0-12.2,9.014-18.443T.659-45.831H7.87V-49.8q0-10.381-8.944-10.381-8.32,0-8.32,8.222H-32.761q0-10.873,9.256-17.66T.1-76.408q14.353,0,22.673,7T31.305-50.2v33.212q.139,10.331,3.189,15.809V0ZM-3.5-15.254a13.034,13.034,0,0,0,7.246-1.872A11.733,11.733,0,0,0,7.87-21.355v-12H1.075q-12.2,0-12.2,10.955A6.689,6.689,0,0,0-8.979-17.23,7.778,7.778,0,0,0-3.5-15.254Z" transform="translate(437 3952)" fill="#ffa726"/>
    </g>
  </g>
</svg>
