<svg xmlns="http://www.w3.org/2000/svg" width="398.84" height="202.583" viewBox="0 0 398.84 202.583">
  <g id="Grupo_91308" data-name="Grupo 91308" transform="translate(-180 -4086)">
    <g id="Grupo_90720" data-name="Grupo 90720" transform="translate(121.213 4456.71) rotate(-90)">
      <g id="Grupo_90705" data-name="Grupo 90705" transform="translate(170.048 58.787)">
        <path id="Trazado_103211" data-name="Trazado 103211" d="M342.508,457.627H196.875a26.573,26.573,0,0,1-26.543-26.543V85.33a26.573,26.573,0,0,1,26.543-26.543H342.508A26.574,26.574,0,0,1,369.051,85.33V431.083A26.574,26.574,0,0,1,342.508,457.627ZM196.875,59.658A25.7,25.7,0,0,0,171.2,85.33V431.083a25.7,25.7,0,0,0,25.671,25.672H342.508a25.7,25.7,0,0,0,25.672-25.672V85.33a25.7,25.7,0,0,0-25.672-25.672Z" transform="translate(-170.332 -58.787)" fill="#080807"/>
      </g>
      <g id="Grupo_90706" data-name="Grupo 90706" transform="translate(172.283 61.023)">
        <path id="Trazado_103212" data-name="Trazado 103212" d="M342.8,455.722H197.241A24.372,24.372,0,0,1,172.9,431.379V85.7a24.371,24.371,0,0,1,24.343-24.343H342.8A24.37,24.37,0,0,1,367.146,85.7V431.379A24.371,24.371,0,0,1,342.8,455.722ZM197.241,62.225A23.5,23.5,0,0,0,173.769,85.7V431.379a23.5,23.5,0,0,0,23.472,23.473H342.8a23.5,23.5,0,0,0,23.472-23.473V85.7A23.5,23.5,0,0,0,342.8,62.225Z" transform="translate(-172.898 -61.354)" fill="#080807"/>
      </g>
      <g id="Grupo_90707" data-name="Grupo 90707" transform="translate(178.484 67.927)">
        <path id="Trazado_103213" data-name="Trazado 103213" d="M343.417,450.1H198.1a18.282,18.282,0,0,1-18.085-18.433V87.712A18.282,18.282,0,0,1,198.1,69.279h27.3a3.839,3.839,0,0,1,3.836,3.835c0,5.108,4.155,8.225,9.264,8.225h58.039c5.108,0,9.265-3.117,9.265-8.225a3.839,3.839,0,0,1,3.834-3.835h33.783A18.283,18.283,0,0,1,361.5,87.712V431.671A18.283,18.283,0,0,1,343.417,450.1ZM198.1,70.15a17.41,17.41,0,0,0-17.214,17.562V431.671A17.41,17.41,0,0,0,198.1,449.233H343.417a17.41,17.41,0,0,0,17.214-17.562V87.712A17.411,17.411,0,0,0,343.417,70.15H309.634a2.966,2.966,0,0,0-2.963,2.964c0,5.588-4.547,9.1-10.136,9.1H238.5c-5.589,0-10.136-3.508-10.136-9.1A2.968,2.968,0,0,0,225.4,70.15Z" transform="translate(-180.016 -69.279)" fill="#080807"/>
      </g>
      <g id="Grupo_90708" data-name="Grupo 90708" transform="translate(168.128 116.011)">
        <path id="Trazado_103214" data-name="Trazado 103214" d="M170.919,140.374h-1.628a1.165,1.165,0,0,1-1.163-1.164V125.639a1.164,1.164,0,0,1,1.163-1.163h1.628Zm-1.628-15.027a.292.292,0,0,0-.292.292V139.21a.293.293,0,0,0,.292.293h.757V125.347Z" transform="translate(-168.128 -124.476)" fill="#080807"/>
      </g>
      <g id="Grupo_90709" data-name="Grupo 90709" transform="translate(168.128 156.22)">
        <path id="Trazado_103215" data-name="Trazado 103215" d="M170.919,200.921h-1.628a1.165,1.165,0,0,1-1.163-1.164V171.8a1.164,1.164,0,0,1,1.163-1.163h1.628ZM169.291,171.5a.292.292,0,0,0-.292.292v27.962a.292.292,0,0,0,.292.293h.757V171.5Z" transform="translate(-168.128 -170.633)" fill="#080807"/>
      </g>
      <g id="Grupo_90710" data-name="Grupo 90710" transform="translate(367.896 161.046)">
        <path id="Trazado_103216" data-name="Trazado 103216" d="M399.115,234.277h-1.667v-58.1h1.667a1.148,1.148,0,0,1,1.147,1.146v55.812A1.148,1.148,0,0,1,399.115,234.277Zm-.8-.871h.8a.276.276,0,0,0,.276-.275V177.319a.276.276,0,0,0-.276-.275h-.8Z" transform="translate(-397.448 -176.173)" fill="#080807"/>
      </g>
      <g id="Grupo_90711" data-name="Grupo 90711" transform="translate(168.128 193.355)">
        <path id="Trazado_103217" data-name="Trazado 103217" d="M170.919,243.55h-1.628a1.164,1.164,0,0,1-1.163-1.163V214.426a1.165,1.165,0,0,1,1.163-1.164h1.628Zm-1.628-29.417a.293.293,0,0,0-.292.293v27.962a.292.292,0,0,0,.292.292h.757V214.133Z" transform="translate(-168.128 -213.262)" fill="#080807"/>
      </g>
      <g id="Grupo_90712" data-name="Grupo 90712" transform="translate(251.818 69.197)">
        <path id="Trazado_103218" data-name="Trazado 103218" d="M289.352,75.6H266.629a2.432,2.432,0,0,1,0-4.864h22.723a2.432,2.432,0,0,1,0,4.864Zm-22.723-3.992a1.561,1.561,0,0,0,0,3.121h22.723a1.561,1.561,0,0,0,0-3.121Z" transform="translate(-264.198 -70.737)" fill="#080807"/>
      </g>
      <g id="Grupo_90713" data-name="Grupo 90713" transform="translate(239.904 67.927)">
        <path id="Trazado_103219" data-name="Trazado 103219" d="M254.223,76.683a3.7,3.7,0,1,1,3.7-3.7A3.706,3.706,0,0,1,254.223,76.683Zm0-6.533a2.831,2.831,0,1,0,2.831,2.831A2.834,2.834,0,0,0,254.223,70.15Z" transform="translate(-250.522 -69.279)" fill="#080807"/>
      </g>
      <g id="Grupo_90714" data-name="Grupo 90714" transform="translate(283.884 67.927)">
        <path id="Trazado_103220" data-name="Trazado 103220" d="M304.71,76.683a3.7,3.7,0,1,1,3.7-3.7A3.706,3.706,0,0,1,304.71,76.683Zm0-6.533a2.831,2.831,0,1,0,2.831,2.831A2.834,2.834,0,0,0,304.71,70.15Z" transform="translate(-301.008 -69.279)" fill="#080807"/>
      </g>
      <g id="Grupo_90715" data-name="Grupo 90715" transform="translate(293.299 68.719)">
        <path id="Trazado_103221" data-name="Trazado 103221" d="M314.726,76.008a2.91,2.91,0,1,1,2.91-2.91A2.913,2.913,0,0,1,314.726,76.008Zm0-4.949a2.039,2.039,0,1,0,2.039,2.039A2.041,2.041,0,0,0,314.726,71.059Z" transform="translate(-311.816 -70.188)" fill="#080807"/>
      </g>
      <g id="Grupo_90716" data-name="Grupo 90716" transform="translate(232.014 68.719)">
        <path id="Trazado_103222" data-name="Trazado 103222" d="M244.375,76.008a2.91,2.91,0,1,1,2.91-2.91A2.913,2.913,0,0,1,244.375,76.008Zm0-4.949a2.039,2.039,0,1,0,2.039,2.039A2.041,2.041,0,0,0,244.375,71.059Z" transform="translate(-241.465 -70.188)" fill="#080807"/>
      </g>
    </g>
    <g id="Grupo_91307" data-name="Grupo 91307">
      <g id="Rectángulo_12470" data-name="Rectángulo 12470" transform="translate(212 4102)" fill="#f3f9ff" stroke="#f6f6f6" stroke-width="1">
        <rect width="346" height="170" rx="10" stroke="none"/>
        <rect x="0.5" y="0.5" width="345" height="169" rx="9.5" fill="none"/>
      </g>
      <path id="Trazado_104397" data-name="Trazado 104397" d="M-3.289,0H-4.742V-9.633l-2.914,1.07V-9.875l4.141-1.555h.227ZM5.7,0H4.242V-9.633L1.328-8.562V-9.875L5.469-11.43H5.7Z" transform="translate(266 4146)" fill="#12263f"/>
      <path id="Trazado_104398" data-name="Trazado 104398" d="M-3.289,0H-4.742V-9.633l-2.914,1.07V-9.875l4.141-1.555h.227ZM8.078-4.852a6.61,6.61,0,0,1-.867,3.773A3.084,3.084,0,0,1,4.5.156,3.107,3.107,0,0,1,1.8-1.051,6.274,6.274,0,0,1,.9-4.656v-1.93a6.463,6.463,0,0,1,.867-3.727,3.108,3.108,0,0,1,2.719-1.219,3.136,3.136,0,0,1,2.7,1.176,6.237,6.237,0,0,1,.891,3.629ZM6.633-6.828A5.3,5.3,0,0,0,6.117-9.5a1.775,1.775,0,0,0-1.633-.84,1.751,1.751,0,0,0-1.617.836,5.171,5.171,0,0,0-.523,2.57v2.313A5.381,5.381,0,0,0,2.879-1.9,1.771,1.771,0,0,0,4.5-1.023a1.747,1.747,0,0,0,1.59-.828,5.186,5.186,0,0,0,.543-2.609Z" transform="translate(266 4175)" fill="#12263f"/>
      <path id="Trazado_104403" data-name="Trazado 104403" d="M1.992-5A3.536,3.536,0,0,1,.91-4.133,2.936,2.936,0,0,1-.469-3.8a3.031,3.031,0,0,1-1.715-.484A3.149,3.149,0,0,1-3.312-5.652a4.648,4.648,0,0,1-.4-1.941,4.735,4.735,0,0,1,.434-2.055,3.185,3.185,0,0,1,1.23-1.4,3.509,3.509,0,0,1,1.859-.484,3.177,3.177,0,0,1,2.66,1.262,5.5,5.5,0,0,1,.973,3.441v.422q0,3.32-1.312,4.848A5.043,5.043,0,0,1-1.828.008h-.281V-1.219h.3A3.979,3.979,0,0,0,.945-2.15,4,4,0,0,0,1.992-5ZM-.234-5a2.232,2.232,0,0,0,1.34-.445A2.625,2.625,0,0,0,2-6.547v-.578a3.977,3.977,0,0,0-.617-2.312A1.842,1.842,0,0,0-.18-10.328a1.856,1.856,0,0,0-1.531.73,3.013,3.013,0,0,0-.578,1.926A3.136,3.136,0,0,0-1.73-5.754,1.769,1.769,0,0,0-.234-5Z" transform="translate(266 4204)" fill="#12263f"/>
      <path id="Trazado_104404" data-name="Trazado 104404" d="M3.352-8.406A2.641,2.641,0,0,1,2.9-6.891,3.057,3.057,0,0,1,1.688-5.852,3.26,3.26,0,0,1,3.1-4.734a2.811,2.811,0,0,1,.52,1.664,2.972,2.972,0,0,1-1,2.352A3.827,3.827,0,0,1,0,.156,3.81,3.81,0,0,1-2.629-.723,2.986,2.986,0,0,1-3.617-3.07a2.9,2.9,0,0,1,.5-1.664A3.136,3.136,0,0,1-1.719-5.859,2.981,2.981,0,0,1-2.914-6.9a2.679,2.679,0,0,1-.437-1.508,2.94,2.94,0,0,1,.922-2.281A3.458,3.458,0,0,1,0-11.531a3.461,3.461,0,0,1,2.426.844A2.934,2.934,0,0,1,3.352-8.406ZM2.172-3.1a2.1,2.1,0,0,0-.605-1.555,2.147,2.147,0,0,0-1.582-.6,2.11,2.11,0,0,0-1.566.594A2.12,2.12,0,0,0-2.172-3.1,2.019,2.019,0,0,0-1.6-1.578,2.2,2.2,0,0,0,0-1.023a2.2,2.2,0,0,0,1.594-.559A2.014,2.014,0,0,0,2.172-3.1ZM0-10.344a1.865,1.865,0,0,0-1.379.527,1.937,1.937,0,0,0-.527,1.434,1.928,1.928,0,0,0,.52,1.4A1.844,1.844,0,0,0,0-6.445,1.844,1.844,0,0,0,1.387-6.98a1.928,1.928,0,0,0,.52-1.4A1.929,1.929,0,0,0,1.367-9.8,1.839,1.839,0,0,0,0-10.344Z" transform="translate(266 4233)" fill="#12263f"/>
      <path id="Trazado_104409" data-name="Trazado 104409" d="M3.8-10.562-.914,0H-2.43l4.7-10.187H-3.891v-1.187H3.8Z" transform="translate(266 4262)" fill="#12263f"/>
      <path id="Trazado_104396" data-name="Trazado 104396" d="M-3.289,0H-4.742V-9.633l-2.914,1.07V-9.875l4.141-1.555h.227Zm4.9-5.7.578-5.672H8.016v1.336h-4.6l-.344,3.1a3.671,3.671,0,0,1,1.9-.492A3.138,3.138,0,0,1,7.438-6.4a4.026,4.026,0,0,1,.914,2.777A3.886,3.886,0,0,1,7.4-.855,3.46,3.46,0,0,1,4.75.156,3.6,3.6,0,0,1,2.289-.68,3.337,3.337,0,0,1,1.2-2.992H2.57a2.3,2.3,0,0,0,.7,1.473,2.162,2.162,0,0,0,1.484.5,1.95,1.95,0,0,0,1.582-.687,2.874,2.874,0,0,0,.574-1.9,2.638,2.638,0,0,0-.621-1.832,2.113,2.113,0,0,0-1.652-.691,2.383,2.383,0,0,0-1.484.414l-.383.313Z" transform="translate(379 4146)" fill="#12263f"/>
      <path id="Trazado_104399" data-name="Trazado 104399" d="M-3.289,0H-4.742V-9.633l-2.914,1.07V-9.875l4.141-1.555h.227ZM3.047-6.391H4.133A2.387,2.387,0,0,0,5.742-6.93a1.8,1.8,0,0,0,.586-1.414,1.764,1.764,0,0,0-1.992-2,2.072,2.072,0,0,0-1.5.535,1.873,1.873,0,0,0-.559,1.418H.836a2.9,2.9,0,0,1,.988-2.246,3.6,3.6,0,0,1,2.512-.895,3.558,3.558,0,0,1,2.523.852,3.076,3.076,0,0,1,.914,2.367,2.5,2.5,0,0,1-.48,1.438A2.9,2.9,0,0,1,5.984-5.836a2.8,2.8,0,0,1,1.449.984,2.734,2.734,0,0,1,.512,1.68,3.1,3.1,0,0,1-1,2.43,3.745,3.745,0,0,1-2.6.9A3.844,3.844,0,0,1,1.738-.711,2.877,2.877,0,0,1,.734-3H2.188a1.859,1.859,0,0,0,.586,1.438,2.229,2.229,0,0,0,1.57.539,2.187,2.187,0,0,0,1.6-.547A2.108,2.108,0,0,0,6.5-3.141a1.912,1.912,0,0,0-.609-1.523,2.655,2.655,0,0,0-1.758-.547H3.047Z" transform="translate(379 4175)" fill="#12263f"/>
      <path id="Trazado_104402" data-name="Trazado 104402" d="M-3.289,0H-4.742V-9.633l-2.914,1.07V-9.875l4.141-1.555h.227ZM8.4,0H.945V-1.039L4.883-5.414A9.354,9.354,0,0,0,6.09-7.027a2.693,2.693,0,0,0,.332-1.285,2.041,2.041,0,0,0-.539-1.461,1.885,1.885,0,0,0-1.437-.57A2.232,2.232,0,0,0,2.77-9.73a2.343,2.343,0,0,0-.6,1.707H.727a3.355,3.355,0,0,1,1.012-2.539,3.751,3.751,0,0,1,2.707-.969,3.6,3.6,0,0,1,2.508.832,2.838,2.838,0,0,1,.922,2.215q0,1.68-2.141,4L2.688-1.18H8.4Z" transform="translate(379 4204)" fill="#12263f"/>
      <path id="Trazado_104405" data-name="Trazado 104405" d="M-3.289,0H-4.742V-9.633l-2.914,1.07V-9.875l4.141-1.555h.227ZM5.7,0H4.242V-9.633L1.328-8.562V-9.875L5.469-11.43H5.7Z" transform="translate(379 4233)" fill="#12263f"/>
      <path id="Trazado_104408" data-name="Trazado 104408" d="M1.992-5A3.536,3.536,0,0,1,.91-4.133,2.936,2.936,0,0,1-.469-3.8a3.031,3.031,0,0,1-1.715-.484A3.149,3.149,0,0,1-3.312-5.652a4.648,4.648,0,0,1-.4-1.941,4.735,4.735,0,0,1,.434-2.055,3.185,3.185,0,0,1,1.23-1.4,3.509,3.509,0,0,1,1.859-.484,3.177,3.177,0,0,1,2.66,1.262,5.5,5.5,0,0,1,.973,3.441v.422q0,3.32-1.312,4.848A5.043,5.043,0,0,1-1.828.008h-.281V-1.219h.3A3.979,3.979,0,0,0,.945-2.15,4,4,0,0,0,1.992-5ZM-.234-5a2.232,2.232,0,0,0,1.34-.445A2.625,2.625,0,0,0,2-6.547v-.578a3.977,3.977,0,0,0-.617-2.312A1.842,1.842,0,0,0-.18-10.328a1.856,1.856,0,0,0-1.531.73,3.013,3.013,0,0,0-.578,1.926A3.136,3.136,0,0,0-1.73-5.754,1.769,1.769,0,0,0-.234-5Z" transform="translate(379 4262)" fill="#12263f"/>
      <path id="Trazado_104395" data-name="Trazado 104395" d="M-25.08-7.82l2.557,6.381,2.557-6.381h1.337V0h-1.031V-3.045l.1-3.287L-22.132,0h-.79l-2.562-6.316.1,3.271V0h-1.031V-7.82Zm11.7,7.246a2.111,2.111,0,0,1-1.7.682,1.807,1.807,0,0,1-1.415-.54,2.336,2.336,0,0,1-.491-1.6V-5.812h.994v3.754q0,1.321,1.074,1.321A1.487,1.487,0,0,0-13.4-1.584V-5.812h.994V0h-.945ZM-8.092-4.92a2.978,2.978,0,0,0-.489-.038,1.309,1.309,0,0,0-1.327.833V0H-10.9V-5.812h.967l.016.671a1.547,1.547,0,0,1,1.386-.779,1.015,1.015,0,0,1,.44.075ZM-4.949-.7a1.431,1.431,0,0,0,.929-.322,1.134,1.134,0,0,0,.44-.806h.94a1.8,1.8,0,0,1-.344.951,2.264,2.264,0,0,1-.846.72,2.441,2.441,0,0,1-1.12.269A2.394,2.394,0,0,1-6.837-.685a3.155,3.155,0,0,1-.7-2.167v-.167a3.5,3.5,0,0,1,.312-1.509,2.373,2.373,0,0,1,.894-1.026,2.54,2.54,0,0,1,1.378-.365,2.331,2.331,0,0,1,1.625.585,2.092,2.092,0,0,1,.69,1.52h-.94a1.369,1.369,0,0,0-.427-.927A1.328,1.328,0,0,0-4.955-5.1a1.391,1.391,0,0,0-1.174.545,2.56,2.56,0,0,0-.416,1.576v.188a2.509,2.509,0,0,0,.414,1.547A1.4,1.4,0,0,0-4.949-.7ZM-.443,0h-.994V-5.812h.994ZM-1.517-7.353a.593.593,0,0,1,.148-.408.555.555,0,0,1,.438-.167.563.563,0,0,1,.44.167.587.587,0,0,1,.15.408.568.568,0,0,1-.15.4.573.573,0,0,1-.44.161A.565.565,0,0,1-1.37-6.95.573.573,0,0,1-1.517-7.353ZM3.558.107A2.539,2.539,0,0,1,1.635-.669,2.881,2.881,0,0,1,.894-2.745v-.183a3.487,3.487,0,0,1,.33-1.544,2.577,2.577,0,0,1,.924-1.063,2.323,2.323,0,0,1,1.286-.384A2.177,2.177,0,0,1,5.2-5.172a3.232,3.232,0,0,1,.628,2.138v.414H1.888a2.066,2.066,0,0,0,.5,1.388A1.579,1.579,0,0,0,3.612-.7,1.731,1.731,0,0,0,4.5-.918a2.24,2.24,0,0,0,.639-.569l.607.473A2.44,2.44,0,0,1,3.558.107ZM3.435-5.1a1.325,1.325,0,0,0-1.01.438,2.128,2.128,0,0,0-.5,1.227H4.831v-.075a1.893,1.893,0,0,0-.408-1.174A1.248,1.248,0,0,0,3.435-5.1ZM8.054,0H7.06V-8.25h.994Zm5.178,0a2.087,2.087,0,0,1-.14-.612,2.217,2.217,0,0,1-1.654.72,2.051,2.051,0,0,1-1.41-.486,1.573,1.573,0,0,1-.551-1.233,1.643,1.643,0,0,1,.69-1.41,3.254,3.254,0,0,1,1.942-.5h.967V-3.98a1.116,1.116,0,0,0-.312-.83,1.252,1.252,0,0,0-.918-.309,1.449,1.449,0,0,0-.892.269.791.791,0,0,0-.36.65h-1A1.371,1.371,0,0,1,9.9-5.041a2.108,2.108,0,0,1,.838-.642,2.819,2.819,0,0,1,1.163-.236,2.3,2.3,0,0,1,1.574.5,1.812,1.812,0,0,1,.591,1.383v2.675a3.27,3.27,0,0,0,.2,1.273V0ZM11.583-.757A1.746,1.746,0,0,0,12.469-1a1.462,1.462,0,0,0,.607-.628V-2.82H12.3q-1.826,0-1.826,1.069a.9.9,0,0,0,.312.73A1.2,1.2,0,0,0,11.583-.757Zm3.808-2.2a3.416,3.416,0,0,1,.628-2.162,2.01,2.01,0,0,1,1.665-.8,2,2,0,0,1,1.66.752l.048-.645H20.3V-.14a2.364,2.364,0,0,1-.669,1.778,2.468,2.468,0,0,1-1.8.65A2.989,2.989,0,0,1,16.6,2.02a2.117,2.117,0,0,1-.918-.736l.516-.6a1.943,1.943,0,0,0,1.563.79A1.522,1.522,0,0,0,18.9,1.069,1.56,1.56,0,0,0,19.3-.081v-.5a2.042,2.042,0,0,1-1.627.688,1.985,1.985,0,0,1-1.652-.822A3.591,3.591,0,0,1,15.391-2.954Zm1,.113a2.606,2.606,0,0,0,.4,1.544,1.309,1.309,0,0,0,1.128.561A1.456,1.456,0,0,0,19.3-1.59V-4.243a1.473,1.473,0,0,0-1.37-.833,1.321,1.321,0,0,0-1.133.564A2.838,2.838,0,0,0,16.39-2.841Zm5.146-.118A3.433,3.433,0,0,1,21.871-4.5a2.5,2.5,0,0,1,.935-1.053,2.544,2.544,0,0,1,1.367-.371,2.451,2.451,0,0,1,1.92.822,3.162,3.162,0,0,1,.733,2.186v.07A3.462,3.462,0,0,1,26.5-1.319a2.467,2.467,0,0,1-.929,1.05,2.573,2.573,0,0,1-1.388.376,2.445,2.445,0,0,1-1.915-.822,3.146,3.146,0,0,1-.733-2.175Zm1,.118a2.486,2.486,0,0,0,.448,1.552,1.435,1.435,0,0,0,1.2.585,1.427,1.427,0,0,0,1.2-.594,2.719,2.719,0,0,0,.446-1.662,2.482,2.482,0,0,0-.454-1.55A1.443,1.443,0,0,0,24.173-5.1a1.427,1.427,0,0,0-1.187.585A2.7,2.7,0,0,0,22.534-2.841Z" transform="translate(503 4144)" fill="#12263f"/>
      <path id="Trazado_104400" data-name="Trazado 104400" d="M-22.8-7.109l2.324,5.8,2.324-5.8h1.216V0h-.937V-2.769l.088-2.988L-20.12,0h-.718l-2.329-5.742.093,2.974V0h-.937V-7.109Zm10.64,6.587A1.919,1.919,0,0,1-13.708.1,1.642,1.642,0,0,1-15-.393a2.124,2.124,0,0,1-.447-1.453V-5.283h.9V-1.87q0,1.2.977,1.2a1.352,1.352,0,0,0,1.377-.771V-5.283h.9V0h-.859Zm4.8-3.95A2.707,2.707,0,0,0-7.8-4.507a1.19,1.19,0,0,0-1.206.757V0h-.9V-5.283h.879l.015.61a1.407,1.407,0,0,1,1.26-.708.923.923,0,0,1,.4.068ZM-4.5-.64a1.3,1.3,0,0,0,.845-.293,1.031,1.031,0,0,0,.4-.732H-2.4A1.638,1.638,0,0,1-2.712-.8a2.058,2.058,0,0,1-.769.654A2.219,2.219,0,0,1-4.5.1a2.176,2.176,0,0,1-1.716-.72,2.869,2.869,0,0,1-.637-1.97v-.151A3.181,3.181,0,0,1-6.57-4.116a2.157,2.157,0,0,1,.813-.933A2.309,2.309,0,0,1-4.5-5.381a2.119,2.119,0,0,1,1.477.532A1.9,1.9,0,0,1-2.4-3.467h-.854a1.245,1.245,0,0,0-.388-.842,1.208,1.208,0,0,0-.862-.33,1.264,1.264,0,0,0-1.067.5A2.328,2.328,0,0,0-5.95-2.71v.171a2.281,2.281,0,0,0,.376,1.406A1.27,1.27,0,0,0-4.5-.64ZM-.4,0h-.9V-5.283h.9Zm-.977-6.685a.539.539,0,0,1,.134-.371.5.5,0,0,1,.4-.151.512.512,0,0,1,.4.151.534.534,0,0,1,.137.371.516.516,0,0,1-.137.366.521.521,0,0,1-.4.146.513.513,0,0,1-.4-.146A.521.521,0,0,1-1.379-6.685ZM3.235.1A2.308,2.308,0,0,1,1.487-.608,2.619,2.619,0,0,1,.813-2.5v-.166a3.17,3.17,0,0,1,.3-1.4,2.343,2.343,0,0,1,.84-.967,2.112,2.112,0,0,1,1.169-.349,1.979,1.979,0,0,1,1.6.679A2.939,2.939,0,0,1,5.3-2.759v.376H1.716a1.878,1.878,0,0,0,.457,1.262A1.435,1.435,0,0,0,3.284-.64a1.573,1.573,0,0,0,.811-.2,2.037,2.037,0,0,0,.581-.518l.552.43A2.219,2.219,0,0,1,3.235.1ZM3.123-4.639a1.2,1.2,0,0,0-.918.4,1.934,1.934,0,0,0-.459,1.116H4.392v-.068A1.721,1.721,0,0,0,4.021-4.26,1.134,1.134,0,0,0,3.123-4.639ZM7.322,0h-.9V-7.5h.9Zm4.707,0A1.9,1.9,0,0,1,11.9-.557,2.015,2.015,0,0,1,10.4.1,1.865,1.865,0,0,1,9.116-.344a1.43,1.43,0,0,1-.5-1.121,1.494,1.494,0,0,1,.627-1.282A2.958,2.958,0,0,1,11.008-3.2h.879v-.415a1.015,1.015,0,0,0-.283-.754,1.138,1.138,0,0,0-.835-.281,1.317,1.317,0,0,0-.811.244.719.719,0,0,0-.327.591H8.723A1.247,1.247,0,0,1,9-4.583a1.916,1.916,0,0,1,.762-.583,2.563,2.563,0,0,1,1.057-.215,2.089,2.089,0,0,1,1.431.457,1.647,1.647,0,0,1,.537,1.257v2.432a2.973,2.973,0,0,0,.186,1.157V0Zm-1.5-.688a1.588,1.588,0,0,0,.806-.22,1.329,1.329,0,0,0,.552-.571V-2.563h-.708q-1.66,0-1.66.972A.822.822,0,0,0,9.8-.928,1.089,1.089,0,0,0,10.53-.688Zm3.462-2a3.105,3.105,0,0,1,.571-1.965,1.827,1.827,0,0,1,1.514-.73,1.817,1.817,0,0,1,1.509.684l.044-.586h.825V-.127a2.149,2.149,0,0,1-.608,1.616,2.243,2.243,0,0,1-1.633.591A2.717,2.717,0,0,1,15.1,1.836a1.925,1.925,0,0,1-.835-.669l.469-.542a1.766,1.766,0,0,0,1.421.718A1.384,1.384,0,0,0,17.178.972a1.418,1.418,0,0,0,.369-1.045V-.527A1.857,1.857,0,0,1,16.067.1a1.8,1.8,0,0,1-1.5-.747A3.265,3.265,0,0,1,13.992-2.686Zm.908.1a2.369,2.369,0,0,0,.366,1.4,1.19,1.19,0,0,0,1.025.51,1.323,1.323,0,0,0,1.255-.776V-3.857A1.339,1.339,0,0,0,16.3-4.614a1.2,1.2,0,0,0-1.03.513A2.58,2.58,0,0,0,14.9-2.583Zm4.678-.107a3.121,3.121,0,0,1,.305-1.4,2.277,2.277,0,0,1,.85-.957,2.313,2.313,0,0,1,1.243-.337,2.228,2.228,0,0,1,1.746.747,2.874,2.874,0,0,1,.667,1.987v.063a3.148,3.148,0,0,1-.3,1.384,2.243,2.243,0,0,1-.845.955A2.339,2.339,0,0,1,21.985.1a2.222,2.222,0,0,1-1.741-.747,2.86,2.86,0,0,1-.667-1.978Zm.908.107a2.26,2.26,0,0,0,.408,1.411,1.3,1.3,0,0,0,1.091.532,1.3,1.3,0,0,0,1.094-.54,2.472,2.472,0,0,0,.405-1.511A2.256,2.256,0,0,0,23.071-4.1a1.312,1.312,0,0,0-1.1-.54,1.3,1.3,0,0,0-1.079.532A2.453,2.453,0,0,0,20.486-2.583Z" transform="translate(503 4173)" fill="#12263f"/>
      <path id="Trazado_104401" data-name="Trazado 104401" d="M-20.52-6.4l2.092,5.221L-16.337-6.4h1.094V0h-.844V-2.492l.079-2.689L-18.108,0h-.646l-2.1-5.168.083,2.676V0h-.844V-6.4ZM-10.945-.47a1.727,1.727,0,0,1-1.393.558A1.478,1.478,0,0,1-13.5-.354a1.912,1.912,0,0,1-.4-1.307V-4.755h.813v3.072q0,1.081.879,1.081A1.217,1.217,0,0,0-10.967-1.3V-4.755h.813V0h-.773ZM-6.62-4.025a2.436,2.436,0,0,0-.4-.031,1.071,1.071,0,0,0-1.085.681V0h-.813V-4.755h.791l.013.549a1.266,1.266,0,0,1,1.134-.637.831.831,0,0,1,.36.062ZM-4.05-.576a1.171,1.171,0,0,0,.76-.264.928.928,0,0,0,.36-.659h.769a1.474,1.474,0,0,1-.281.778,1.852,1.852,0,0,1-.692.589,2,2,0,0,1-.916.22A1.959,1.959,0,0,1-5.594-.56a2.582,2.582,0,0,1-.573-1.773V-2.47A2.863,2.863,0,0,1-5.913-3.7a1.941,1.941,0,0,1,.732-.839,2.078,2.078,0,0,1,1.127-.3,1.907,1.907,0,0,1,1.329.479A1.712,1.712,0,0,1-2.16-3.12h-.769a1.12,1.12,0,0,0-.349-.758,1.087,1.087,0,0,0-.776-.3,1.138,1.138,0,0,0-.96.446,2.1,2.1,0,0,0-.341,1.29v.154A2.053,2.053,0,0,0-5.016-1.02,1.143,1.143,0,0,0-4.05-.576ZM-.363,0h-.813V-4.755h.813Zm-.879-6.016a.485.485,0,0,1,.121-.334.454.454,0,0,1,.358-.136A.461.461,0,0,1-.4-6.35a.48.48,0,0,1,.123.334.464.464,0,0,1-.123.33.469.469,0,0,1-.36.132.462.462,0,0,1-.358-.132A.469.469,0,0,1-1.241-6.016ZM2.911.088A2.078,2.078,0,0,1,1.338-.547a2.357,2.357,0,0,1-.606-1.7V-2.4A2.853,2.853,0,0,1,1-3.658a2.108,2.108,0,0,1,.756-.87A1.9,1.9,0,0,1,2.81-4.843a1.781,1.781,0,0,1,1.441.611,2.645,2.645,0,0,1,.514,1.749v.338H1.545a1.69,1.69,0,0,0,.411,1.136,1.292,1.292,0,0,0,1,.433,1.416,1.416,0,0,0,.729-.176,1.833,1.833,0,0,0,.523-.466l.5.387A2,2,0,0,1,2.911.088Zm-.1-4.263a1.084,1.084,0,0,0-.826.358,1.741,1.741,0,0,0-.413,1H3.953v-.062a1.548,1.548,0,0,0-.334-.96A1.021,1.021,0,0,0,2.81-4.175ZM6.59,0H5.777V-6.75H6.59Zm4.236,0a1.708,1.708,0,0,1-.114-.5A1.814,1.814,0,0,1,9.358.088,1.678,1.678,0,0,1,8.2-.31a1.287,1.287,0,0,1-.45-1.009,1.344,1.344,0,0,1,.565-1.154,2.662,2.662,0,0,1,1.589-.411H10.7v-.374a.913.913,0,0,0-.255-.679,1.024,1.024,0,0,0-.751-.253,1.185,1.185,0,0,0-.729.22.647.647,0,0,0-.294.532H7.851A1.122,1.122,0,0,1,8.1-4.124a1.725,1.725,0,0,1,.686-.525,2.306,2.306,0,0,1,.951-.193,1.88,1.88,0,0,1,1.288.411A1.482,1.482,0,0,1,11.511-3.3v2.188A2.676,2.676,0,0,0,11.678-.07V0ZM9.477-.62a1.429,1.429,0,0,0,.725-.2,1.2,1.2,0,0,0,.5-.514v-.976h-.637q-1.494,0-1.494.875a.74.74,0,0,0,.255.6A.98.98,0,0,0,9.477-.62Zm3.116-1.8a2.8,2.8,0,0,1,.514-1.769,1.644,1.644,0,0,1,1.362-.657,1.636,1.636,0,0,1,1.358.615l.04-.527h.743V-.114a1.934,1.934,0,0,1-.547,1.455,2.019,2.019,0,0,1-1.47.532,2.446,2.446,0,0,1-1.006-.22,1.732,1.732,0,0,1-.751-.6l.422-.488a1.59,1.59,0,0,0,1.279.646A1.246,1.246,0,0,0,15.46.875a1.277,1.277,0,0,0,.332-.94V-.475A1.671,1.671,0,0,1,14.46.088a1.624,1.624,0,0,1-1.351-.672A2.938,2.938,0,0,1,12.593-2.417Zm.817.092a2.132,2.132,0,0,0,.33,1.263,1.071,1.071,0,0,0,.923.459,1.191,1.191,0,0,0,1.129-.7V-3.472a1.2,1.2,0,0,0-1.121-.681,1.081,1.081,0,0,0-.927.461A2.322,2.322,0,0,0,13.41-2.325Zm4.21-.1a2.808,2.808,0,0,1,.275-1.257,2.049,2.049,0,0,1,.765-.861,2.081,2.081,0,0,1,1.118-.3,2.005,2.005,0,0,1,1.571.672,2.587,2.587,0,0,1,.6,1.789v.057a2.833,2.833,0,0,1-.266,1.246,2.019,2.019,0,0,1-.76.859,2.105,2.105,0,0,1-1.136.308A2,2,0,0,1,18.22-.584a2.574,2.574,0,0,1-.6-1.78Zm.817.1a2.034,2.034,0,0,0,.367,1.27,1.174,1.174,0,0,0,.982.479,1.167,1.167,0,0,0,.984-.486,2.224,2.224,0,0,0,.365-1.36,2.031,2.031,0,0,0-.371-1.268,1.181,1.181,0,0,0-.987-.486,1.167,1.167,0,0,0-.971.479A2.208,2.208,0,0,0,18.437-2.325Z" transform="translate(503 4202)" fill="#12263f"/>
      <path id="Trazado_104406" data-name="Trazado 104406" d="M-18.24-5.687l1.859,4.641,1.859-4.641h.973V0h-.75V-2.215l.07-2.391L-16.1,0h-.574l-1.863-4.594.074,2.379V0h-.75V-5.687Zm8.512,5.27a1.535,1.535,0,0,1-1.238.5A1.314,1.314,0,0,1-12-.314a1.7,1.7,0,0,1-.357-1.162v-2.75h.723V-1.5q0,.961.781.961a1.082,1.082,0,0,0,1.1-.617V-4.227h.723V0h-.687Zm3.844-3.16a2.166,2.166,0,0,0-.355-.027A.952.952,0,0,0-7.205-3V0h-.723V-4.227h.7l.012.488A1.125,1.125,0,0,1-6.205-4.3a.738.738,0,0,1,.32.055ZM-3.6-.512a1.041,1.041,0,0,0,.676-.234.825.825,0,0,0,.32-.586h.684a1.31,1.31,0,0,1-.25.691,1.647,1.647,0,0,1-.615.523,1.775,1.775,0,0,1-.814.2A1.741,1.741,0,0,1-4.973-.5a2.3,2.3,0,0,1-.51-1.576V-2.2a2.545,2.545,0,0,1,.227-1.1,1.726,1.726,0,0,1,.65-.746,1.848,1.848,0,0,1,1-.266,1.7,1.7,0,0,1,1.182.426,1.522,1.522,0,0,1,.5,1.105H-2.6a1,1,0,0,0-.311-.674A.966.966,0,0,0-3.6-3.711a1.011,1.011,0,0,0-.854.4,1.862,1.862,0,0,0-.3,1.146v.137a1.825,1.825,0,0,0,.3,1.125A1.016,1.016,0,0,0-3.6-.512ZM-.322,0h-.723V-4.227h.723ZM-1.1-5.348A.431.431,0,0,1-1-5.645a.4.4,0,0,1,.318-.121.41.41,0,0,1,.32.121.427.427,0,0,1,.109.3.413.413,0,0,1-.109.293.417.417,0,0,1-.32.117A.411.411,0,0,1-1-5.055.417.417,0,0,1-1.1-5.348ZM2.588.078a1.847,1.847,0,0,1-1.4-.564A2.1,2.1,0,0,1,.65-2v-.133a2.536,2.536,0,0,1,.24-1.123,1.874,1.874,0,0,1,.672-.773A1.689,1.689,0,0,1,2.5-4.3a1.583,1.583,0,0,1,1.281.543,2.351,2.351,0,0,1,.457,1.555v.3H1.373A1.5,1.5,0,0,0,1.738-.9a1.148,1.148,0,0,0,.889.385,1.259,1.259,0,0,0,.648-.156,1.629,1.629,0,0,0,.465-.414l.441.344A1.775,1.775,0,0,1,2.588.078ZM2.5-3.711a.964.964,0,0,0-.734.318A1.547,1.547,0,0,0,1.4-2.5H3.514v-.055a1.376,1.376,0,0,0-.3-.854A.908.908,0,0,0,2.5-3.711ZM5.857,0H5.135V-6h.723ZM9.623,0a1.518,1.518,0,0,1-.1-.445,1.612,1.612,0,0,1-1.2.523A1.492,1.492,0,0,1,7.293-.275a1.144,1.144,0,0,1-.4-.9,1.2,1.2,0,0,1,.5-1.025,2.367,2.367,0,0,1,1.412-.365h.7v-.332a.812.812,0,0,0-.227-.6.911.911,0,0,0-.668-.225,1.054,1.054,0,0,0-.648.2.576.576,0,0,0-.262.473H6.979A1,1,0,0,1,7.2-3.666a1.533,1.533,0,0,1,.609-.467A2.05,2.05,0,0,1,8.658-4.3,1.671,1.671,0,0,1,9.8-3.939a1.318,1.318,0,0,1,.43,1.006V-.988a2.378,2.378,0,0,0,.148.926V0Zm-1.2-.551a1.27,1.27,0,0,0,.645-.176,1.063,1.063,0,0,0,.441-.457v-.867H8.943q-1.328,0-1.328.777a.658.658,0,0,0,.227.531A.871.871,0,0,0,8.424-.551Zm2.77-1.6a2.484,2.484,0,0,1,.457-1.572A1.462,1.462,0,0,1,12.861-4.3a1.454,1.454,0,0,1,1.207.547l.035-.469h.66V-.1a1.719,1.719,0,0,1-.486,1.293,1.8,1.8,0,0,1-1.307.473,2.174,2.174,0,0,1-.895-.2,1.54,1.54,0,0,1-.668-.535L11.783.5a1.413,1.413,0,0,0,1.137.574,1.107,1.107,0,0,0,.822-.3,1.135,1.135,0,0,0,.295-.836V-.422a1.485,1.485,0,0,1-1.184.5,1.444,1.444,0,0,1-1.2-.6A2.612,2.612,0,0,1,11.193-2.148Zm.727.082a1.9,1.9,0,0,0,.293,1.123.952.952,0,0,0,.82.408,1.059,1.059,0,0,0,1-.621v-1.93a1.071,1.071,0,0,0-1-.605.961.961,0,0,0-.824.41A2.064,2.064,0,0,0,11.92-2.066Zm3.742-.086a2.5,2.5,0,0,1,.244-1.117,1.821,1.821,0,0,1,.68-.766,1.85,1.85,0,0,1,.994-.27,1.782,1.782,0,0,1,1.4.6,2.3,2.3,0,0,1,.533,1.59v.051a2.518,2.518,0,0,1-.236,1.107A1.794,1.794,0,0,1,18.6-.2a1.871,1.871,0,0,1-1.01.273A1.778,1.778,0,0,1,16.2-.52,2.288,2.288,0,0,1,15.662-2.1Zm.727.086a1.808,1.808,0,0,0,.326,1.129,1.044,1.044,0,0,0,.873.426,1.038,1.038,0,0,0,.875-.432,1.977,1.977,0,0,0,.324-1.209,1.805,1.805,0,0,0-.33-1.127,1.049,1.049,0,0,0-.877-.432,1.038,1.038,0,0,0-.863.426A1.963,1.963,0,0,0,16.389-2.066Z" transform="translate(503 4231)" fill="#12263f"/>
      <path id="Trazado_104407" data-name="Trazado 104407" d="M-15.96-4.977l1.627,4.061,1.627-4.061h.851V0h-.656V-1.938l.062-2.092L-14.084,0h-.5l-1.63-4.02.065,2.082V0h-.656V-4.977ZM-8.512-.366A1.343,1.343,0,0,1-9.6.068a1.15,1.15,0,0,1-.9-.344,1.487,1.487,0,0,1-.313-1.017V-3.7h.632v2.389q0,.841.684.841a.947.947,0,0,0,.964-.54V-3.7H-7.9V0h-.6Zm3.363-2.765a1.9,1.9,0,0,0-.311-.024.833.833,0,0,0-.844.53V0h-.632V-3.7h.615l.01.427a.985.985,0,0,1,.882-.5.646.646,0,0,1,.28.048Zm2,2.683a.911.911,0,0,0,.591-.205.721.721,0,0,0,.28-.513h.6a1.147,1.147,0,0,1-.219.6A1.441,1.441,0,0,1-2.437-.1,1.553,1.553,0,0,1-3.15.068a1.523,1.523,0,0,1-1.2-.5A2.008,2.008,0,0,1-4.8-1.815v-.106a2.226,2.226,0,0,1,.2-.96,1.51,1.51,0,0,1,.569-.653,1.617,1.617,0,0,1,.877-.232,1.483,1.483,0,0,1,1.034.373,1.331,1.331,0,0,1,.439.967h-.6a.871.871,0,0,0-.272-.59.845.845,0,0,0-.6-.231A.885.885,0,0,0-3.9-2.9a1.629,1.629,0,0,0-.265,1v.12A1.6,1.6,0,0,0-3.9-.793.889.889,0,0,0-3.15-.448ZM-.282,0H-.914V-3.7h.632ZM-.966-4.679a.377.377,0,0,1,.094-.26.353.353,0,0,1,.279-.106.358.358,0,0,1,.28.106.373.373,0,0,1,.1.26.361.361,0,0,1-.1.256.365.365,0,0,1-.28.1.359.359,0,0,1-.279-.1A.365.365,0,0,1-.966-4.679ZM2.264.068A1.616,1.616,0,0,1,1.041-.426,1.833,1.833,0,0,1,.569-1.747v-.116a2.219,2.219,0,0,1,.21-.983,1.64,1.64,0,0,1,.588-.677,1.478,1.478,0,0,1,.819-.244,1.385,1.385,0,0,1,1.121.475,2.057,2.057,0,0,1,.4,1.36v.263H1.2a1.315,1.315,0,0,0,.32.884A1,1,0,0,0,2.3-.448a1.1,1.1,0,0,0,.567-.137,1.426,1.426,0,0,0,.407-.362l.386.3A1.553,1.553,0,0,1,2.264.068ZM2.186-3.247a.843.843,0,0,0-.643.279,1.354,1.354,0,0,0-.321.781H3.074v-.048a1.2,1.2,0,0,0-.26-.747A.794.794,0,0,0,2.186-3.247ZM5.125,0H4.493V-5.25h.632ZM8.42,0a1.328,1.328,0,0,1-.089-.39A1.411,1.411,0,0,1,7.279.068a1.305,1.305,0,0,1-.9-.309,1,1,0,0,1-.35-.784,1.045,1.045,0,0,1,.439-.9,2.071,2.071,0,0,1,1.236-.32h.615v-.291a.71.71,0,0,0-.2-.528.8.8,0,0,0-.584-.2.922.922,0,0,0-.567.171.5.5,0,0,0-.229.414H6.106a.873.873,0,0,1,.2-.535,1.341,1.341,0,0,1,.533-.408,1.794,1.794,0,0,1,.74-.15,1.462,1.462,0,0,1,1,.32,1.153,1.153,0,0,1,.376.88v1.7a2.081,2.081,0,0,0,.13.81V0ZM7.371-.482a1.111,1.111,0,0,0,.564-.154.93.93,0,0,0,.386-.4v-.759h-.5q-1.162,0-1.162.68a.576.576,0,0,0,.2.465A.762.762,0,0,0,7.371-.482Zm2.423-1.4a2.174,2.174,0,0,1,.4-1.376,1.279,1.279,0,0,1,1.06-.511,1.272,1.272,0,0,1,1.056.479l.031-.41h.578V-.089a1.5,1.5,0,0,1-.426,1.131,1.57,1.57,0,0,1-1.143.414,1.9,1.9,0,0,1-.783-.171A1.347,1.347,0,0,1,9.982.817L10.31.438a1.237,1.237,0,0,0,.995.5.969.969,0,0,0,.719-.26.993.993,0,0,0,.258-.731V-.369a1.3,1.3,0,0,1-1.036.438A1.263,1.263,0,0,1,10.2-.455,2.285,2.285,0,0,1,9.794-1.88Zm.636.072a1.658,1.658,0,0,0,.256.983.833.833,0,0,0,.718.357.926.926,0,0,0,.878-.543V-2.7a.937.937,0,0,0-.872-.53.84.84,0,0,0-.721.359A1.806,1.806,0,0,0,10.43-1.808ZM13.7-1.883a2.184,2.184,0,0,1,.214-.978,1.594,1.594,0,0,1,.595-.67,1.619,1.619,0,0,1,.87-.236,1.56,1.56,0,0,1,1.222.523,2.012,2.012,0,0,1,.467,1.391v.044a2.2,2.2,0,0,1-.207.969,1.57,1.57,0,0,1-.591.668,1.638,1.638,0,0,1-.884.239,1.556,1.556,0,0,1-1.219-.523A2,2,0,0,1,13.7-1.839Zm.636.075a1.582,1.582,0,0,0,.285.988.913.913,0,0,0,.764.373.908.908,0,0,0,.766-.378,1.73,1.73,0,0,0,.284-1.058,1.579,1.579,0,0,0-.289-.986.918.918,0,0,0-.767-.378.908.908,0,0,0-.755.373A1.717,1.717,0,0,0,14.34-1.808Z" transform="translate(503 4260)" fill="#12263f"/>
      <path id="Trazado_104392" data-name="Trazado 104392" d="M3.359-4.008V0H1.016V-11.375H5.453a5.134,5.134,0,0,1,2.254.469A3.454,3.454,0,0,1,9.2-9.574a3.714,3.714,0,0,1,.523,1.965A3.266,3.266,0,0,1,8.582-4.973a4.767,4.767,0,0,1-3.168.965Zm0-1.9H5.453a2.059,2.059,0,0,0,1.418-.437,1.591,1.591,0,0,0,.488-1.25,1.876,1.876,0,0,0-.492-1.352,1.839,1.839,0,0,0-1.359-.531H3.359ZM16.25-.859A2.831,2.831,0,0,1,13.938.156a2.67,2.67,0,0,1-2.074-.781,3.335,3.335,0,0,1-.73-2.289V-8.453h2.258v5.467q0,1.322,1.2,1.322a1.63,1.63,0,0,0,1.578-.8V-8.453h2.266V0H16.313Zm5.969-7.594.07.977a2.951,2.951,0,0,1,2.43-1.133,2.453,2.453,0,0,1,2,.789,3.682,3.682,0,0,1,.672,2.359V0H25.133V-5.419a1.47,1.47,0,0,0-.312-1.045,1.4,1.4,0,0,0-1.039-.325,1.553,1.553,0,0,0-1.43.814V0H20.094V-8.453ZM31.8-10.531v2.078H33.25V-6.8H31.8v4.219a1.007,1.007,0,0,0,.18.672.9.9,0,0,0,.688.2,3.6,3.6,0,0,0,.664-.055V-.047a4.648,4.648,0,0,1-1.367.2,2.156,2.156,0,0,1-2.422-2.4V-6.8H28.313V-8.453h1.234v-2.078ZM33.922-4.3a5.013,5.013,0,0,1,.484-2.242A3.546,3.546,0,0,1,35.8-8.07a4.069,4.069,0,0,1,2.113-.539,3.849,3.849,0,0,1,2.793,1.047,4.2,4.2,0,0,1,1.207,2.844l.016.578A4.418,4.418,0,0,1,40.844-1.02,3.775,3.775,0,0,1,37.93.156a3.793,3.793,0,0,1-2.918-1.172A4.5,4.5,0,0,1,33.922-4.2Zm2.258.16A3.16,3.16,0,0,0,36.633-2.3a1.5,1.5,0,0,0,1.3.638,1.5,1.5,0,0,0,1.281-.63,3.457,3.457,0,0,0,.461-2.015,3.128,3.128,0,0,0-.461-1.831,1.5,1.5,0,0,0-1.3-.649,1.474,1.474,0,0,0-1.281.646A3.516,3.516,0,0,0,36.18-4.144ZM47.9-2.336a.727.727,0,0,0-.41-.652,4.659,4.659,0,0,0-1.316-.426q-3.016-.633-3.016-2.562a2.323,2.323,0,0,1,.934-1.879,3.766,3.766,0,0,1,2.441-.754,4.053,4.053,0,0,1,2.574.758,2.388,2.388,0,0,1,.965,1.969H47.813a1.092,1.092,0,0,0-.312-.8A1.322,1.322,0,0,0,46.523-7a1.351,1.351,0,0,0-.883.258.814.814,0,0,0-.312.656.7.7,0,0,0,.355.605,3.657,3.657,0,0,0,1.2.4A9.8,9.8,0,0,1,48.3-4.7,2.336,2.336,0,0,1,50.094-2.43,2.2,2.2,0,0,1,49.1-.559a4.28,4.28,0,0,1-2.562.715,4.47,4.47,0,0,1-1.887-.379,3.166,3.166,0,0,1-1.293-1.039,2.414,2.414,0,0,1-.469-1.426h2.141a1.179,1.179,0,0,0,.445.922,1.766,1.766,0,0,0,1.109.32,1.635,1.635,0,0,0,.98-.246A.766.766,0,0,0,47.9-2.336Z" transform="translate(240 4123)" fill="#12263f"/>
      <path id="Trazado_104393" data-name="Trazado 104393" d="M3.359-4.008V0H1.016V-11.375H5.453a5.134,5.134,0,0,1,2.254.469A3.454,3.454,0,0,1,9.2-9.574a3.714,3.714,0,0,1,.523,1.965A3.266,3.266,0,0,1,8.582-4.973a4.767,4.767,0,0,1-3.168.965Zm0-1.9H5.453a2.059,2.059,0,0,0,1.418-.437,1.591,1.591,0,0,0,.488-1.25,1.876,1.876,0,0,0-.492-1.352,1.839,1.839,0,0,0-1.359-.531H3.359ZM13.57,0H11.3V-8.453H13.57Zm-2.4-10.641a1.112,1.112,0,0,1,.34-.836,1.277,1.277,0,0,1,.926-.328,1.28,1.28,0,0,1,.922.328,1.105,1.105,0,0,1,.344.836,1.108,1.108,0,0,1-.348.844,1.283,1.283,0,0,1-.918.328A1.283,1.283,0,0,1,11.52-9.8,1.108,1.108,0,0,1,11.172-10.641ZM18.648-5.93,20.07-8.453h2.414L20.078-4.312,22.586,0H20.164L18.656-2.656,17.156,0h-2.43l2.508-4.312-2.4-4.141h2.422ZM27.3.156A4.15,4.15,0,0,1,24.277-.984a4.054,4.054,0,0,1-1.168-3.039v-.219A5.106,5.106,0,0,1,23.6-6.52,3.612,3.612,0,0,1,25-8.066a3.914,3.914,0,0,1,2.059-.543,3.508,3.508,0,0,1,2.73,1.094,4.444,4.444,0,0,1,1,3.1v.922H25.4a2.1,2.1,0,0,0,.66,1.328,2,2,0,0,0,1.395.5,2.437,2.437,0,0,0,2.039-.945L30.6-1.367A3.389,3.389,0,0,1,29.227-.246,4.511,4.511,0,0,1,27.3.156Zm-.258-6.945a1.411,1.411,0,0,0-1.09.455,2.357,2.357,0,0,0-.535,1.3h3.141v-.181a1.681,1.681,0,0,0-.406-1.165A1.456,1.456,0,0,0,27.047-6.789ZM34.445,0H32.18V-12h2.266ZM40.2.156A4.15,4.15,0,0,1,37.168-.984,4.054,4.054,0,0,1,36-4.023v-.219a5.106,5.106,0,0,1,.492-2.277,3.612,3.612,0,0,1,1.395-1.547,3.914,3.914,0,0,1,2.059-.543,3.508,3.508,0,0,1,2.73,1.094,4.444,4.444,0,0,1,1,3.1v.922H38.289a2.1,2.1,0,0,0,.66,1.328,2,2,0,0,0,1.395.5,2.437,2.437,0,0,0,2.039-.945l1.109,1.242A3.389,3.389,0,0,1,42.117-.246,4.511,4.511,0,0,1,40.2.156Zm-.258-6.945a1.411,1.411,0,0,0-1.09.455,2.357,2.357,0,0,0-.535,1.3h3.141v-.181a1.681,1.681,0,0,0-.406-1.165A1.456,1.456,0,0,0,39.938-6.789Zm9.594,4.453a.727.727,0,0,0-.41-.652A4.659,4.659,0,0,0,47.8-3.414q-3.016-.633-3.016-2.562a2.323,2.323,0,0,1,.934-1.879,3.766,3.766,0,0,1,2.441-.754,4.053,4.053,0,0,1,2.574.758A2.388,2.388,0,0,1,51.7-5.883H49.445a1.092,1.092,0,0,0-.312-.8A1.322,1.322,0,0,0,48.156-7a1.351,1.351,0,0,0-.883.258.814.814,0,0,0-.312.656.7.7,0,0,0,.355.605,3.657,3.657,0,0,0,1.2.4,9.8,9.8,0,0,1,1.422.379A2.336,2.336,0,0,1,51.727-2.43a2.2,2.2,0,0,1-.992,1.871,4.28,4.28,0,0,1-2.562.715,4.47,4.47,0,0,1-1.887-.379,3.166,3.166,0,0,1-1.293-1.039,2.414,2.414,0,0,1-.469-1.426h2.141a1.179,1.179,0,0,0,.445.922,1.766,1.766,0,0,0,1.109.32,1.635,1.635,0,0,0,.98-.246A.766.766,0,0,0,49.531-2.336Z" transform="translate(353 4123)" fill="#12263f"/>
      <path id="Trazado_104394" data-name="Trazado 104394" d="M7.859-4.945h-4.5v3.063H8.641V0H1.016V-11.375H8.625v1.9H3.359v2.711h4.5Zm4.4-3.508V.461a3.024,3.024,0,0,1-.742,2.176,2.821,2.821,0,0,1-2.141.777,4.591,4.591,0,0,1-1.117-.133V1.492a4.238,4.238,0,0,0,.711.07q1.023,0,1.023-1.086v-8.93ZM9.813-10.641a1.112,1.112,0,0,1,.34-.836,1.277,1.277,0,0,1,.926-.328,1.277,1.277,0,0,1,.926.328,1.112,1.112,0,0,1,.34.836A1.108,1.108,0,0,1,12-9.8a1.283,1.283,0,0,1-.918.328A1.283,1.283,0,0,1,10.16-9.8,1.108,1.108,0,0,1,9.813-10.641Zm8.1,10.8A4.15,4.15,0,0,1,14.887-.984a4.054,4.054,0,0,1-1.168-3.039v-.219a5.106,5.106,0,0,1,.492-2.277,3.612,3.612,0,0,1,1.395-1.547,3.914,3.914,0,0,1,2.059-.543,3.508,3.508,0,0,1,2.73,1.094,4.444,4.444,0,0,1,1,3.1v.922H16.008a2.1,2.1,0,0,0,.66,1.328,2,2,0,0,0,1.395.5A2.437,2.437,0,0,0,20.1-2.609l1.109,1.242A3.389,3.389,0,0,1,19.836-.246,4.511,4.511,0,0,1,17.914.156Zm-.258-6.945a1.411,1.411,0,0,0-1.09.455,2.357,2.357,0,0,0-.535,1.3h3.141v-.181a1.681,1.681,0,0,0-.406-1.165A1.456,1.456,0,0,0,17.656-6.789Zm7.133-1.664.07.945a2.971,2.971,0,0,1,2.43-1.1A2.255,2.255,0,0,1,29.531-7.32,2.9,2.9,0,0,1,32.07-8.609a2.521,2.521,0,0,1,2.047.8,3.681,3.681,0,0,1,.672,2.41V0H32.523V-5.4a1.616,1.616,0,0,0-.281-1.053,1.245,1.245,0,0,0-.992-.333,1.409,1.409,0,0,0-1.406.971L29.852,0H27.594V-5.4A1.6,1.6,0,0,0,27.3-6.46a1.257,1.257,0,0,0-.984-.329,1.463,1.463,0,0,0-1.391.8V0H22.672V-8.453Zm19.344,4.3a5.07,5.07,0,0,1-.887,3.129A2.843,2.843,0,0,1,40.852.156a2.633,2.633,0,0,1-2.07-.891V3.25H36.523v-11.7h2.094l.078.828a2.654,2.654,0,0,1,2.141-.984,2.862,2.862,0,0,1,2.43,1.156,5.207,5.207,0,0,1,.867,3.188Zm-2.258-.172a3.345,3.345,0,0,0-.418-1.826,1.36,1.36,0,0,0-1.215-.643,1.478,1.478,0,0,0-1.461.815V-2.5a1.5,1.5,0,0,0,1.477.839Q41.875-1.664,41.875-4.321ZM47.914,0H45.648V-12h2.266Zm1.508-4.3a5.013,5.013,0,0,1,.484-2.242A3.546,3.546,0,0,1,51.3-8.07a4.069,4.069,0,0,1,2.113-.539,3.849,3.849,0,0,1,2.793,1.047,4.2,4.2,0,0,1,1.207,2.844l.016.578A4.418,4.418,0,0,1,56.344-1.02,3.775,3.775,0,0,1,53.43.156a3.793,3.793,0,0,1-2.918-1.172A4.5,4.5,0,0,1,49.422-4.2Zm2.258.16A3.16,3.16,0,0,0,52.133-2.3a1.5,1.5,0,0,0,1.3.638,1.5,1.5,0,0,0,1.281-.63,3.457,3.457,0,0,0,.461-2.015,3.128,3.128,0,0,0-.461-1.831,1.5,1.5,0,0,0-1.3-.649,1.474,1.474,0,0,0-1.281.646A3.516,3.516,0,0,0,51.68-4.144ZM63.4-2.336a.727.727,0,0,0-.41-.652,4.659,4.659,0,0,0-1.316-.426q-3.016-.633-3.016-2.562a2.323,2.323,0,0,1,.934-1.879,3.766,3.766,0,0,1,2.441-.754,4.053,4.053,0,0,1,2.574.758,2.388,2.388,0,0,1,.965,1.969H63.313a1.092,1.092,0,0,0-.312-.8A1.322,1.322,0,0,0,62.023-7a1.351,1.351,0,0,0-.883.258.814.814,0,0,0-.312.656.7.7,0,0,0,.355.605,3.657,3.657,0,0,0,1.2.4A9.8,9.8,0,0,1,63.8-4.7,2.336,2.336,0,0,1,65.594-2.43,2.2,2.2,0,0,1,64.6-.559a4.28,4.28,0,0,1-2.562.715,4.47,4.47,0,0,1-1.887-.379,3.166,3.166,0,0,1-1.293-1.039,2.414,2.414,0,0,1-.469-1.426h2.141a1.179,1.179,0,0,0,.445.922,1.766,1.766,0,0,0,1.109.32,1.635,1.635,0,0,0,.98-.246A.766.766,0,0,0,63.4-2.336Z" transform="translate(470 4123)" fill="#12263f"/>
      <line id="Línea_140" data-name="Línea 140" y2="144" transform="translate(442.5 4115.5)" fill="none" stroke="#b0c0d2" stroke-width="1"/>
      <line id="Línea_141" data-name="Línea 141" y2="144" transform="translate(327.5 4115.5)" fill="none" stroke="#b0c0d2" stroke-width="1"/>
    </g>
  </g>
</svg>
