<svg xmlns="http://www.w3.org/2000/svg" width="82.096" height="113.999" viewBox="0 0 82.096 113.999">
  <g id="adaptador" transform="translate(-0.336)">
    <path id="Trazado_103501" data-name="Trazado 103501" d="M52.109,6.246V18.973H31.137V6.246A2.246,2.246,0,0,1,33.382,4H49.864a2.246,2.246,0,0,1,2.246,2.246Zm0,0" transform="translate(-23.884 -3.102)" fill="#d8d6d7"/>
    <path id="Trazado_103502" data-name="Trazado 103502" d="M62.738,211.977H56.749a2.245,2.245,0,0,1-2.246-2.246V197.008H64.983v12.724A2.245,2.245,0,0,1,62.738,211.977Zm0,0" transform="translate(-42.004 -152.77)" fill="#1c868e"/>
    <path id="Trazado_103503" data-name="Trazado 103503" d="M37.345,39.585V64.96A15.713,15.713,0,0,1,21.626,80.678H20.055A15.718,15.718,0,0,1,4.336,64.96V39.585A2.246,2.246,0,0,1,6.582,37.34H35.1a2.246,2.246,0,0,1,2.246,2.246Zm0,0" transform="translate(-3.101 -28.955)" fill="#1c868e"/>
    <path id="Trazado_103504" data-name="Trazado 103504" d="M283.647,6.246V18.973H266.8V6.246A2.246,2.246,0,0,1,269.042,4H281.4a2.246,2.246,0,0,1,2.246,2.246Zm0,0" transform="translate(-206.627 -3.102)" fill="#d8d6d7"/>
    <path id="Trazado_103505" data-name="Trazado 103505" d="M78.475,6.246V18.973H65.137V6.246A2.246,2.246,0,0,1,67.382,4h8.847a2.246,2.246,0,0,1,2.246,2.246Zm0,0" transform="translate(-50.249 -3.102)" fill="#fff"/>
    <path id="Trazado_103506" data-name="Trazado 103506" d="M310.012,6.246V18.973H300.8V6.246A2.246,2.246,0,0,1,303.042,4h4.724a2.246,2.246,0,0,1,2.245,2.246Zm0,0" transform="translate(-232.992 -3.102)" fill="#fff"/>
    <path id="Trazado_103507" data-name="Trazado 103507" d="M289.218,211.977H283.23a2.245,2.245,0,0,1-2.246-2.246V197.008h10.479v12.724A2.245,2.245,0,0,1,289.218,211.977Zm0,0" transform="translate(-217.628 -152.77)" fill="#1c868e"/>
    <path id="Trazado_103508" data-name="Trazado 103508" d="M272.574,39.585V67.739a12.939,12.939,0,0,1-25.878,0V39.585a2.246,2.246,0,0,1,2.245-2.246h21.387a2.246,2.246,0,0,1,2.246,2.246Zm0,0" transform="translate(-191.039 -28.955)" fill="#1c868e"/>
    <path id="Trazado_103509" data-name="Trazado 103509" d="M62.671,39.585V64.96a15.72,15.72,0,0,1-12.84,15.454A15.721,15.721,0,0,1,37,64.96V39.585a2.246,2.246,0,0,1,2.246-2.246H60.426a2.246,2.246,0,0,1,2.246,2.246Zm0,0" transform="translate(-28.428 -28.955)" fill="#40c4df"/>
    <path id="Trazado_103510" data-name="Trazado 103510" d="M297.9,39.585V67.739a12.944,12.944,0,0,1-9.27,12.409,12.934,12.934,0,0,1-9.274-12.409V39.585A2.246,2.246,0,0,1,281.6,37.34h14.053a2.246,2.246,0,0,1,2.245,2.246Zm0,0" transform="translate(-216.365 -28.955)" fill="#40c4df"/>
    <g id="Grupo_90994" data-name="Grupo 90994" transform="translate(0.336 0)">
      <path id="Trazado_103511" data-name="Trazado 103511" d="M79.289,7.486h-1.37V3.144A3.147,3.147,0,0,0,74.775,0H62.416a3.148,3.148,0,0,0-3.144,3.144V7.486H57.9a3.148,3.148,0,0,0-3.144,3.144V38.784a13.853,13.853,0,0,0,7.7,12.4v5.78A3.148,3.148,0,0,0,65.6,60.108h2.1v46.257a5.845,5.845,0,0,1-5.838,5.838H59.128a5.845,5.845,0,0,1-5.838-5.838V65.945a7.643,7.643,0,0,0-7.635-7.635H40.981a7.643,7.643,0,0,0-7.635,7.635v40.419a5.845,5.845,0,0,1-5.838,5.838H24.477a5.845,5.845,0,0,1-5.838-5.838V60.108h2.1a3.147,3.147,0,0,0,3.144-3.144V51.736A16.646,16.646,0,0,0,35.142,36V10.63A3.147,3.147,0,0,0,32,7.487H29.124V3.144A3.147,3.147,0,0,0,25.98,0H9.5A3.148,3.148,0,0,0,6.355,3.144V7.487H3.48A3.148,3.148,0,0,0,.336,10.63V36A16.646,16.646,0,0,0,11.6,51.736v5.228a3.148,3.148,0,0,0,3.144,3.144h2.1v46.257A7.643,7.643,0,0,0,24.477,114h3.031a7.644,7.644,0,0,0,7.635-7.635V65.945a5.845,5.845,0,0,1,5.838-5.838h4.674a5.845,5.845,0,0,1,5.838,5.838v40.419A7.643,7.643,0,0,0,59.128,114h2.731a7.643,7.643,0,0,0,7.635-7.635V60.108h2.1a3.147,3.147,0,0,0,3.144-3.144v-5.78a13.853,13.853,0,0,0,7.7-12.4V10.63a3.148,3.148,0,0,0-3.144-3.144ZM8.151,3.144A1.351,1.351,0,0,1,9.5,1.8H25.98a1.351,1.351,0,0,1,1.347,1.347V7.486H8.151ZM2.133,36V10.63A1.351,1.351,0,0,1,3.48,9.283H32a1.351,1.351,0,0,1,1.347,1.347V36a14.848,14.848,0,0,1-9.467,13.823C13.318,53.889,2.133,46.866,2.133,36ZM14.744,58.311A1.351,1.351,0,0,1,13.4,56.964V52.24a23.546,23.546,0,0,0,8.686,0v4.724a1.351,1.351,0,0,1-1.347,1.347ZM61.069,3.144A1.351,1.351,0,0,1,62.416,1.8H74.775a1.351,1.351,0,0,1,1.347,1.347V7.486H61.069Zm11.87,53.82a1.351,1.351,0,0,1-1.347,1.347H65.6a1.351,1.351,0,0,1-1.347-1.347V51.92a13.8,13.8,0,0,0,8.686,0Zm7.7-18.18a12.041,12.041,0,0,1-24.081,0V10.63A1.352,1.352,0,0,1,57.9,9.283H79.289a1.351,1.351,0,0,1,1.347,1.347Zm0,0" transform="translate(-0.336 0)" fill="#12263f"/>
      <path id="Trazado_103512" data-name="Trazado 103512" d="M281.963,16.922H279.24a.9.9,0,0,0,0,1.8h2.723a.9.9,0,0,0,0-1.8Zm0,0" transform="translate(-215.921 -13.122)" fill="#12263f"/>
      <path id="Trazado_103513" data-name="Trazado 103513" d="M313.812,16.922h-2.723a.9.9,0,0,0,0,1.8h2.723A.9.9,0,0,0,313.812,16.922Zm0,0" transform="translate(-240.613 -13.122)" fill="#12263f"/>
      <path id="Trazado_103514" data-name="Trazado 103514" d="M49.423,16.922H46.7a.9.9,0,0,0,0,1.8h2.724A.9.9,0,0,0,49.423,16.922Zm0,0" transform="translate(-35.599 -13.122)" fill="#12263f"/>
      <path id="Trazado_103515" data-name="Trazado 103515" d="M93.423,16.922H90.7a.9.9,0,0,0,0,1.8h2.724A.9.9,0,0,0,93.423,16.922Zm0,0" transform="translate(-69.718 -13.122)" fill="#12263f"/>
    </g>
  </g>
</svg>
