<svg xmlns="http://www.w3.org/2000/svg" xmlns:xlink="http://www.w3.org/1999/xlink" width="124" height="124" viewBox="0 0 124 124">
  <defs>
    <clipPath id="clip-path">
      <rect id="Rectángulo_12179" data-name="Rectángulo 12179" width="124" height="124" transform="translate(628 589)" fill="#ffca28" stroke="#707070" stroke-width="1"/>
    </clipPath>
  </defs>
  <g id="Enmascarar_grupo_54" data-name="Enmascarar grupo 54" transform="translate(-628 -589)" clip-path="url(#clip-path)">
    <g id="rendimiento" transform="translate(628 589.374)">
      <path id="Trazado_103785" data-name="Trazado 103785" d="M122.063,48.912l-2.983,8.195a1.89,1.89,0,0,1-2.419,1.129l-10.086-3.672a26.257,26.257,0,0,1-3.606,4.294l5.37,9.3a1.762,1.762,0,0,1,.092.184,1.888,1.888,0,0,1-.784,2.394l-7.553,4.359a1.886,1.886,0,0,1-2.579-.69l-5.365-9.292a26.064,26.064,0,0,1-5.523.967L84.761,76.652a1.885,1.885,0,0,1-2.185,1.531l-8.588-1.514a1.89,1.89,0,0,1-1.532-2.188l1.863-10.567a26.062,26.062,0,0,1-4.853-2.807l-8.226,6.9a1.887,1.887,0,0,1-2.659-.233l-5.605-6.679a1.891,1.891,0,0,1,.234-2.662l8.221-6.9a25.771,25.771,0,0,1-1.919-5.27H48.778a1.888,1.888,0,0,1-1.887-1.887V35.656a1.888,1.888,0,0,1,1.887-1.889H59.511A25.811,25.811,0,0,1,61.43,28.5l-8.221-6.9a1.888,1.888,0,0,1-.234-2.66l5.605-6.681a1.887,1.887,0,0,1,2.659-.233l8.226,6.9a26.079,26.079,0,0,1,4.853-2.811L72.456,5.551a1.889,1.889,0,0,1,1.532-2.186L82.576,1.85a1.887,1.887,0,0,1,1.991.972,1.851,1.851,0,0,1,.194.561l1.866,10.572a26.126,26.126,0,0,1,5.523.969l5.365-9.292a1.889,1.889,0,0,1,2.579-.692L107.647,9.3a1.888,1.888,0,0,1,.693,2.577l-5.37,9.3a26.1,26.1,0,0,1,3.606,4.294L116.661,21.8a1.887,1.887,0,0,1,2.419,1.13l2.983,8.194a1.888,1.888,0,0,1-1.127,2.419L110.85,37.214a26.543,26.543,0,0,1,0,5.608l10.087,3.67a1.889,1.889,0,0,1,1.127,2.421Zm0,0" fill="#4dd0e1"/>
      <path id="Trazado_103786" data-name="Trazado 103786" d="M107.647,70.734l-7.553,4.359a1.886,1.886,0,0,1-2.579-.69L92.15,65.112a26.064,26.064,0,0,1-5.523.967L84.761,76.652a1.885,1.885,0,0,1-2.185,1.531l-8.588-1.514a1.89,1.89,0,0,1-1.532-2.188l1.863-10.567a26.063,26.063,0,0,1-4.853-2.807l-8.226,6.9a1.887,1.887,0,0,1-2.659-.233l-5.605-6.679a1.891,1.891,0,0,1,.234-2.662l8.221-6.9a25.77,25.77,0,0,1-1.919-5.27H48.778a1.888,1.888,0,0,1-1.887-1.887V35.657a1.888,1.888,0,0,1,1.887-1.889H59.511A25.811,25.811,0,0,1,61.43,28.5l-8.221-6.9a1.888,1.888,0,0,1-.234-2.66l5.605-6.681a1.887,1.887,0,0,1,2.659-.233l8.226,6.9a26.079,26.079,0,0,1,4.853-2.811L72.456,5.552a1.889,1.889,0,0,1,1.532-2.186L82.576,1.85a1.887,1.887,0,0,1,1.991.972,40.44,40.44,0,0,0,23.864,65.518,1.888,1.888,0,0,1-.784,2.394Zm0,0" fill="#40b3c2"/>
      <path id="Trazado_103787" data-name="Trazado 103787" d="M119.569,97.626l-41.73,21.158a16.935,16.935,0,0,1-18.257-.047c-2.59-1.671-3.4-1.832-17.023-8.565-6.052-2.961-11.564-3.9-20.552-5.011V79.021h29.8a6.971,6.971,0,0,1,4.933,2.045l13.405,13.4a6.094,6.094,0,0,1,1.787,4.478l.287-.2,43.74-11.012a5.394,5.394,0,0,1,3.607,9.888Zm0,0" fill="#f2bb88"/>
      <path id="Trazado_103788" data-name="Trazado 103788" d="M70.315,102.847a5.905,5.905,0,0,1-8.431.074L50.737,91.773a3.171,3.171,0,0,0-2.243-.929H22.007V79.022h29.8a6.97,6.97,0,0,1,4.932,2.043l13.405,13.4a6,6,0,0,1,.167,8.379Zm0,0" fill="#f2d1a5"/>
      <path id="Trazado_103789" data-name="Trazado 103789" d="M23.5,78.3v32.316a7.449,7.449,0,0,1-.124,1.347h0a7.4,7.4,0,0,1-7.252,6.031H9.2a7.4,7.4,0,0,1-7.378-7.378V78.3A7.4,7.4,0,0,1,7.9,71.035a7.174,7.174,0,0,1,1.3-.116H16.12A7.4,7.4,0,0,1,23.5,78.3Zm0,0" fill="#4dd0e1"/>
      <path id="Trazado_103790" data-name="Trazado 103790" d="M23.372,111.961a7.4,7.4,0,0,1-7.252,6.03H9.2a7.4,7.4,0,0,1-7.378-7.378V78.3A7.4,7.4,0,0,1,7.9,71.035a7.212,7.212,0,0,0-.127,1.348V104.7a7.4,7.4,0,0,0,7.378,7.378h6.917a7.179,7.179,0,0,0,1.3-.116Zm0,0" fill="#0ea7bb"/>
      <path id="Trazado_103791" data-name="Trazado 103791" d="M17.024,106.367A4.364,4.364,0,1,1,12.66,102,4.364,4.364,0,0,1,17.024,106.367Zm0,0" fill="#ffca28"/>
      <path id="Trazado_103792" data-name="Trazado 103792" d="M115.518,86.042,73.53,96.611a7.882,7.882,0,0,0-2-3.374L58.157,79.86a8.727,8.727,0,0,0-6.211-2.571H25.263A9.212,9.212,0,0,0,16.119,69.1H9.2A9.209,9.209,0,0,0,0,78.3V96.811a1.822,1.822,0,0,0,3.643,0V78.3A5.562,5.562,0,0,1,9.2,72.74h6.919a5.567,5.567,0,0,1,5.464,4.549c.135.728.093-1.451.093,33.324a5.563,5.563,0,0,1-5.557,5.557H9.2a5.563,5.563,0,0,1-5.556-5.557V104.1A1.822,1.822,0,0,0,0,104.1v6.516a9.21,9.21,0,0,0,9.2,9.2h6.919a9.21,9.21,0,0,0,9.2-9.2v-3.224c13.415,2.317,10.529,1.473,30.522,11.255,3.249,1.59,6.382,4.609,13.011,4.609a18.687,18.687,0,0,0,9.97-2.877l34.646-17.567a1.822,1.822,0,0,0-1.647-3.25c-.125.063-34.76,17.619-34.878,17.694a15.048,15.048,0,0,1-8.092,2.357c-5.526,0-7.926-2.533-11.41-4.238-20.33-9.946-17.44-9.144-32.123-11.679V80.931H51.947a5.1,5.1,0,0,1,3.636,1.506L68.957,95.812a4.078,4.078,0,1,1-5.671,5.861L51.237,89.619A1.822,1.822,0,0,0,48.66,92.2l12.051,12.054A7.694,7.694,0,0,0,73.7,100.324c45.014-11.332,42.529-10.743,42.981-10.743a3.545,3.545,0,0,1,1.636,6.683,1.822,1.822,0,1,0,1.647,3.25,7.108,7.108,0,0,0,3.907-6.374c0-4.941-4.835-7.984-8.356-7.1Zm0,0"/>
      <path id="Trazado_103793" data-name="Trazado 103793" d="M6.474,106.367a6.185,6.185,0,1,0,8.628-5.684,1.822,1.822,0,0,0-1.44,3.347,2.543,2.543,0,1,1-3.427,1.567c.785-2.474-3.761-4.12-3.761.77Zm0,0"/>
      <path id="Trazado_103794" data-name="Trazado 103794" d="M121.558,44.78l-8.783-3.2a27.918,27.918,0,0,0,0-3.133l8.782-3.2a3.706,3.706,0,0,0,2.218-4.754l-2.983-8.2a3.714,3.714,0,0,0-4.754-2.218l-8.782,3.2a28.135,28.135,0,0,0-2.015-2.4l4.673-8.094a3.714,3.714,0,0,0-1.358-5.067L101,3.362A3.707,3.707,0,0,0,95.937,4.72l-4.672,8.09a27.76,27.76,0,0,0-3.088-.54l-1.622-9.2a3.714,3.714,0,0,0-4.3-3.008L73.669,1.57a3.713,3.713,0,0,0-3.008,4.3l1.622,9.2a28.068,28.068,0,0,0-2.714,1.57l-7.159-6.007a3.705,3.705,0,0,0-5.225.458l-5.606,6.681a3.706,3.706,0,0,0,.457,5.225l7.156,6a27.914,27.914,0,0,0-1.073,2.948H48.778a3.713,3.713,0,0,0-3.708,3.709v8.721a3.713,3.713,0,0,0,3.708,3.709h9.341a27.839,27.839,0,0,0,1.073,2.948l-7.156,6a3.715,3.715,0,0,0-.457,5.227l5.606,6.681a3.714,3.714,0,0,0,5.225.457L69.569,63.4a28.071,28.071,0,0,0,2.714,1.57l-1.622,9.2a3.708,3.708,0,0,0,3.008,4.3l8.589,1.514a3.713,3.713,0,0,0,4.3-3.008l1.622-9.2a27.815,27.815,0,0,0,3.089-.54l4.671,8.09A3.713,3.713,0,0,0,101,76.672l7.553-4.361a3.712,3.712,0,0,0,1.357-5.066l-4.673-8.1a27.988,27.988,0,0,0,2.015-2.4l8.782,3.2a3.707,3.707,0,0,0,4.754-2.218l2.983-8.195a3.707,3.707,0,0,0-2.217-4.755Zm-1.206,3.508-2.983,8.2a.061.061,0,0,1-.035.037.058.058,0,0,1-.05,0L107.2,52.852a1.823,1.823,0,0,0-2.135.7,24.44,24.44,0,0,1-3.356,4,1.821,1.821,0,0,0-.316,2.224l5.368,9.3a.066.066,0,0,1-.024.091l-7.553,4.36a.067.067,0,0,1-.091-.024L93.727,64.2a1.821,1.821,0,0,0-2.083-.839,24.3,24.3,0,0,1-5.138.9,1.821,1.821,0,0,0-1.674,1.5L82.968,76.335a.067.067,0,0,1-.078.054c-.1-.018-8.66-1.49-8.642-1.591l1.864-10.567a1.823,1.823,0,0,0-1.057-1.982,24.379,24.379,0,0,1-4.515-2.612,1.821,1.821,0,0,0-2.247.074l-8.224,6.9a.066.066,0,0,1-.093-.008L54.37,59.922a.067.067,0,0,1,.008-.094l8.22-6.9a1.82,1.82,0,0,0,.464-2.2,24.157,24.157,0,0,1-1.783-4.9,1.821,1.821,0,0,0-1.769-1.387H48.778a.066.066,0,0,1-.066-.066V35.655a.066.066,0,0,1,.066-.066H59.509A1.821,1.821,0,0,0,61.278,34.2a24.169,24.169,0,0,1,1.783-4.9,1.821,1.821,0,0,0-.464-2.2l-8.22-6.9a.059.059,0,0,1-.024-.044.058.058,0,0,1,.016-.048l5.605-6.681a.066.066,0,0,1,.045-.024.062.062,0,0,1,.048.015l8.224,6.9a1.82,1.82,0,0,0,2.247.075,24.275,24.275,0,0,1,4.515-2.612A1.823,1.823,0,0,0,76.112,15.8L74.248,5.235a.066.066,0,0,1,.054-.077l8.589-1.515a.062.062,0,0,1,.049.011.061.061,0,0,1,.027.043l1.864,10.573a1.822,1.822,0,0,0,1.674,1.5,24.276,24.276,0,0,1,5.138.9,1.823,1.823,0,0,0,2.084-.838l5.364-9.293a.061.061,0,0,1,.041-.03.057.057,0,0,1,.05.007l7.553,4.36a.067.067,0,0,1,.025.091l-5.369,9.3a1.821,1.821,0,0,0,.316,2.224,24.473,24.473,0,0,1,3.356,4,1.822,1.822,0,0,0,2.135.7l10.086-3.671a.068.068,0,0,1,.085.04l2.983,8.2a.058.058,0,0,1,0,.05.061.061,0,0,1-.037.035L110.225,35.5a1.822,1.822,0,0,0-1.187,1.905,24.493,24.493,0,0,1,0,5.22,1.822,1.822,0,0,0,1.187,1.905L120.312,48.2a.061.061,0,0,1,.037.035.058.058,0,0,1,0,.05Zm0,0"/>
      <path id="Trazado_103795" data-name="Trazado 103795" d="M99.089,28.163,78.61,48.642l-8.631-8.631A1.822,1.822,0,0,0,67.4,42.587l8.834,8.834a3.354,3.354,0,0,0,4.745,0l20.682-20.682a1.822,1.822,0,1,0-2.576-2.576Zm0,0"/>
    </g>
  </g>
</svg>
