<svg xmlns="http://www.w3.org/2000/svg" xmlns:xlink="http://www.w3.org/1999/xlink" width="124" height="124" viewBox="0 0 124 124">
  <defs>
    <clipPath id="clip-path">
      <rect id="Rectángulo_12180" data-name="Rectángulo 12180" width="124" height="124" transform="translate(1047 589)" fill="#70d2df" stroke="#707070" stroke-width="1"/>
    </clipPath>
  </defs>
  <g id="Enmascarar_grupo_55" data-name="Enmascarar grupo 55" transform="translate(-1047 -589)" clip-path="url(#clip-path)">
    <g id="satisfaccion" transform="translate(1047 594.295)">
      <path id="Trazado_103796" data-name="Trazado 103796" d="M121.284,37.317A35.382,35.382,0,0,1,91.84,72.194a35.878,35.878,0,0,1-5.927.493,35.37,35.37,0,1,1,0-70.74,35.776,35.776,0,0,1,5.927.494,35.383,35.383,0,0,1,29.444,34.877Zm0,0" fill="#ffc14f"/>
      <path id="Trazado_103797" data-name="Trazado 103797" d="M121.284,37.317A35.382,35.382,0,0,1,91.84,72.194a35.378,35.378,0,0,1,0-69.754A35.383,35.383,0,0,1,121.284,37.317Zm0,0" fill="#ffd993"/>
      <path id="Trazado_103798" data-name="Trazado 103798" d="M119.689,87.636l-41.772,21.18a16.953,16.953,0,0,1-18.275-.048c-2.593-1.672-3.407-1.833-17.04-8.574-6.058-2.964-11.577-3.907-20.573-5.016V69.012H51.861A6.982,6.982,0,0,1,56.8,71.059L70.217,84.475a6.1,6.1,0,0,1,1.789,4.482l.287-.2,43.785-11.023a5.4,5.4,0,0,1,3.611,9.9Zm0,0" fill="#f2bb88"/>
      <path id="Trazado_103799" data-name="Trazado 103799" d="M70.385,92.862a5.911,5.911,0,0,1-8.44.074L50.788,81.777a3.177,3.177,0,0,0-2.246-.931H22.029V69.013H51.861A6.98,6.98,0,0,1,56.8,71.057L70.217,84.474a6.009,6.009,0,0,1,.167,8.388Zm0,0" fill="#f2d1a5"/>
      <path id="Trazado_103800" data-name="Trazado 103800" d="M23.521,68.286v32.348a7.48,7.48,0,0,1-.125,1.35h0a7.41,7.41,0,0,1-7.259,6.036H9.209a7.407,7.407,0,0,1-7.386-7.386V68.286A7.408,7.408,0,0,1,9.209,60.9h6.927a7.407,7.407,0,0,1,7.386,7.386Zm0,0" fill="#1baabc"/>
      <path id="Trazado_103801" data-name="Trazado 103801" d="M23.521,68.286v32.348a7.48,7.48,0,0,1-.125,1.35h0a7.192,7.192,0,0,1-1.3.116H15.17a7.407,7.407,0,0,1-7.386-7.386c0-34.893-.054-32.742.127-33.7.846-.155.674-.116,8.225-.116a7.407,7.407,0,0,1,7.386,7.386Zm0,0" fill="#4dd0e1"/>
      <path id="Trazado_103802" data-name="Trazado 103802" d="M17.04,96.386a4.368,4.368,0,1,1-4.368-4.368A4.368,4.368,0,0,1,17.04,96.386Zm0,0" fill="#ffca28"/>
      <path id="Trazado_103803" data-name="Trazado 103803" d="M115.839,76c-.164.022.747-.2-13.9,3.486a1.823,1.823,0,0,0,.89,3.536l13.584-3.42a3.565,3.565,0,0,1,2.356,6.5c-.125.063-41.632,21.1-41.75,21.178a15.084,15.084,0,0,1-16.271-.044c-2.121-1.367-1.954-1.206-17.19-8.66-6.426-3.144-11-3.624-18.216-4.871V70.924H52a5.114,5.114,0,0,1,3.639,1.507L69.026,85.82a4.169,4.169,0,0,1,.146,5.815,4.077,4.077,0,0,1-5.822.051L51.289,79.62A1.824,1.824,0,1,0,48.71,82.2L60.773,94.265a7.7,7.7,0,0,0,13.005-3.929L95.759,84.8a1.823,1.823,0,0,0-.89-3.536L73.6,86.62a7.878,7.878,0,0,0-2-3.377l-13.39-13.39A8.732,8.732,0,0,0,52,67.277H25.289a9.221,9.221,0,0,0-9.153-8.2H9.209A9.219,9.219,0,0,0,0,68.286V89.25a1.823,1.823,0,0,0,3.647,0V68.286a5.569,5.569,0,0,1,5.562-5.563h6.927a5.574,5.574,0,0,1,5.47,4.553c.131.708.092-1.786.092,33.357a5.571,5.571,0,0,1-5.562,5.565H9.209a5.571,5.571,0,0,1-5.562-5.565V96.543a1.823,1.823,0,0,0-3.647,0v4.092a9.221,9.221,0,0,0,9.209,9.212h6.927a9.221,9.221,0,0,0,9.209-9.212V97.408c6.525,1.127,10.733,1.569,16.613,4.447,15.216,7.443,14.91,7.22,16.817,8.449a18.734,18.734,0,0,0,20.127.1c.124-.063,41.643-21.109,41.76-21.184A7.207,7.207,0,0,0,115.839,76Zm0,0"/>
      <path id="Trazado_103804" data-name="Trazado 103804" d="M18.864,96.386a6.192,6.192,0,1,0-6.192,6.192A6.2,6.2,0,0,0,18.864,96.386Zm-8.737,0a2.545,2.545,0,1,1,2.545,2.545A2.547,2.547,0,0,1,10.127,96.386Zm0,0"/>
      <path id="Trazado_103805" data-name="Trazado 103805" d="M85.912,74.511a37.237,37.237,0,0,0,37.195-37.195c0-32.181-38.185-48.936-61.929-27.779A1.823,1.823,0,1,0,63.6,12.261a33.548,33.548,0,1,1,22.309,58.6c-27.551,0-43.27-31.516-26.968-53.506a1.823,1.823,0,1,0-2.929-2.171c-18.037,24.329-.7,59.325,29.9,59.325Zm0,0"/>
      <path id="Trazado_103806" data-name="Trazado 103806" d="M75.957,25.139a4.217,4.217,0,1,1-4.217-4.217,4.216,4.216,0,0,1,4.217,4.217Zm0,0"/>
      <path id="Trazado_103807" data-name="Trazado 103807" d="M104.3,25.139a4.217,4.217,0,1,1-4.217-4.217,4.216,4.216,0,0,1,4.217,4.217Zm0,0"/>
      <path id="Trazado_103808" data-name="Trazado 103808" d="M77.232,33.367a1.824,1.824,0,0,0-1.823,1.824v3.63a10.5,10.5,0,0,0,21.007,0v-3.63a1.823,1.823,0,1,0-3.647,0v3.63a6.857,6.857,0,0,1-13.714,0v-3.63A1.824,1.824,0,0,0,77.232,33.367Zm0,0"/>
    </g>
  </g>
</svg>
