<svg xmlns="http://www.w3.org/2000/svg" xmlns:xlink="http://www.w3.org/1999/xlink" width="124" height="124" viewBox="0 0 124 124">
  <defs>
    <clipPath id="clip-path">
      <rect id="Rectángulo_12178" data-name="Rectángulo 12178" width="124" height="124" transform="translate(207 589)" fill="#ffca28" stroke="#707070" stroke-width="1"/>
    </clipPath>
  </defs>
  <g id="Enmascarar_grupo_53" data-name="Enmascarar grupo 53" transform="translate(-207 -589)" clip-path="url(#clip-path)">
    <g id="eficacia" transform="translate(197.552 579.584)">
      <g id="Grupo_91327" data-name="Grupo 91327">
        <path id="Trazado_103773" data-name="Trazado 103773" d="M76.391,53.585l3.89,7.869,6.791,2.813,8.314-2.814c3.268,3.267,3.806,3.805,7.073,7.073l-2.813,8.315,2.813,6.79,7.869,3.89v10l-7.87,3.888-2.812,6.79,2.814,8.315-7.073,7.073-8.314-2.814-6.791,2.813-3.89,7.869h-10l-3.89-7.869-6.79-2.813L47.4,123.593l-7.073-7.073,2.814-8.315-2.813-6.79-7.875-3.888v-10l7.869-3.89,2.813-6.79-2.814-8.315c3.267-3.268,3.806-3.806,7.073-7.073l8.315,2.814,6.79-2.813,3.9-7.869Z" fill="#4dd0e1"/>
        <circle id="Elipse_4083" data-name="Elipse 4083" cx="23.095" cy="23.095" r="23.095" transform="translate(48.294 69.428)" fill="#cce8fe"/>
        <path id="Trazado_103774" data-name="Trazado 103774" d="M77.24,93.131a5.782,5.782,0,1,1-5.782-5.781,5.783,5.783,0,0,1,5.782,5.781Z" fill="#ffca28"/>
      </g>
      <g id="Grupo_91328" data-name="Grupo 91328">
        <path id="Trazado_103775" data-name="Trazado 103775" d="M111.189,85.765l-3.1-1.529a1.953,1.953,0,1,0-1.726,3.5l2.009.993v7.581l-6.778,3.348a1.955,1.955,0,0,0-.941,1l-2.812,6.8a1.936,1.936,0,0,0-.045,1.371L100.215,116l-5.356,5.356-7.165-2.424a1.953,1.953,0,0,0-1.377.048l-1.833.755a1.953,1.953,0,1,0,1.486,3.611l1.166-.48,7.62,2.578a1.982,1.982,0,0,0,.625.1,1.953,1.953,0,0,0,1.384-.568l7.075-7.075a1.952,1.952,0,0,0,.468-2.009l-2.577-7.619,2.251-5.439,7.207-3.556a1.954,1.954,0,0,0,1.089-1.752V87.517a1.954,1.954,0,0,0-1.089-1.752Z"/>
        <path id="Trazado_103776" data-name="Trazado 103776" d="M103.84,67.145,96.765,60.07a1.953,1.953,0,0,0-2.009-.47l-3.215,1.082a1.954,1.954,0,1,0,1.251,3.7l2.068-.7,5.356,5.356L97.8,76.213a1.939,1.939,0,0,0,.045,1.373c.223.548.493,1.188.728,1.774a1.953,1.953,0,0,0,3.627-1.451c-.146-.364-.3-.741-.465-1.138l2.577-7.619a1.952,1.952,0,0,0-.468-2.007Z"/>
        <path id="Trazado_103777" data-name="Trazado 103777" d="M78.755,126.7a1.955,1.955,0,0,0-2.618.88l-.956,1.928H67.593l-3.348-6.779a1.951,1.951,0,0,0-1-.94l-6.8-2.812a1.952,1.952,0,0,0-1.373-.046l-7.165,2.424L42.552,116l2.424-7.165a1.943,1.943,0,0,0-.044-1.365c-.68-1.662-1.205-2.925-1.775-4.3l-1.039-2.5a1.955,1.955,0,0,0-.941-1L34.4,96.314V88.727l6.778-3.348a1.955,1.955,0,0,0,.941-1l1.039-2.5c.57-1.374,1.1-2.637,1.775-4.3a1.943,1.943,0,0,0,.044-1.365l-2.424-7.165,5.356-5.356,7.165,2.424a1.958,1.958,0,0,0,1.373-.046l6.8-2.811a1.957,1.957,0,0,0,1-.941l3.348-6.779h7.588l3.357,6.781a1.949,1.949,0,0,0,1.015.943c.112.048,1.489.618,1.839.755a1.953,1.953,0,1,0,1.428-3.635c-.316-.123-.637-.258-.974-.4l-.134-.056-3.571-7.21a1.953,1.953,0,0,0-1.75-1.086H66.383a1.951,1.951,0,0,0-1.751,1.088l-3.558,7.208-5.439,2.251L48.015,59.6a1.957,1.957,0,0,0-2.009.47l-7.073,7.075a1.951,1.951,0,0,0-.469,2.009l2.578,7.622c-.548,1.333-1,2.428-1.492,3.6l-.759,1.83-7.208,3.557a1.954,1.954,0,0,0-1.089,1.752V97.526a1.954,1.954,0,0,0,1.089,1.752l7.209,3.557.759,1.83c.489,1.177.944,2.271,1.492,3.6l-2.578,7.622a1.951,1.951,0,0,0,.469,2.009l7.076,7.076a1.955,1.955,0,0,0,2.009.47l7.619-2.578,5.439,2.251,3.558,7.207a1.952,1.952,0,0,0,1.751,1.089H76.394a1.952,1.952,0,0,0,1.749-1.085l1.5-3.013a1.953,1.953,0,0,0-.883-2.62Z"/>
        <path id="Trazado_103778" data-name="Trazado 103778" d="M71.389,67.475A25.048,25.048,0,1,0,96.437,92.523,25.048,25.048,0,0,0,71.389,67.475Zm0,46.19A21.142,21.142,0,1,1,92.532,92.523,21.142,21.142,0,0,1,71.389,113.665Z"/>
        <path id="Trazado_103779" data-name="Trazado 103779" d="M67.219,18.056l2.209-2.12v28.81a1.953,1.953,0,1,0,3.906,0V15.876l2.276,2.179a1.954,1.954,0,0,0,2.7-2.823L72.8,9.958a2.036,2.036,0,0,0-2.767,0l-5.512,5.275a1.954,1.954,0,0,0,2.7,2.823Z"/>
        <path id="Trazado_103780" data-name="Trazado 103780" d="M85.087,24.446l2.208-2.113v28.8a1.953,1.953,0,0,0,3.906,0V22.268l2.276,2.178a1.953,1.953,0,0,0,2.7-2.822l-5.511-5.276a2.04,2.04,0,0,0-2.768,0l-5.511,5.276a1.953,1.953,0,1,0,2.7,2.822Z"/>
        <path id="Trazado_103781" data-name="Trazado 103781" d="M49.352,24.446l2.209-2.113v28.8a1.953,1.953,0,0,0,3.906,0V22.268l2.276,2.178a1.953,1.953,0,1,0,2.7-2.822l-5.512-5.276a2.043,2.043,0,0,0-2.767,0l-5.511,5.276a1.953,1.953,0,1,0,2.7,2.822Z"/>
        <path id="Trazado_103782" data-name="Trazado 103782" d="M33.7,32.629v28.8a1.953,1.953,0,0,0,3.906,0V32.564l2.276,2.178a1.954,1.954,0,1,0,2.7-2.823L37.07,26.646a2.043,2.043,0,0,0-2.768,0l-5.512,5.274a1.954,1.954,0,0,0,2.7,2.823Z"/>
        <path id="Trazado_103783" data-name="Trazado 103783" d="M114.041,31.919l-5.511-5.274a2.041,2.041,0,0,0-2.768,0l-5.511,5.274a1.954,1.954,0,0,0,2.7,2.823l2.208-2.113v28.8a1.953,1.953,0,0,0,3.906,0V32.564l2.276,2.178a1.954,1.954,0,1,0,2.7-2.823Z"/>
        <path id="Trazado_103784" data-name="Trazado 103784" d="M81.248,98.455l-2.729-2.182a7.705,7.705,0,0,0-2.8-9.591l2.2-6.459a1.952,1.952,0,0,0-3.7-1.258l-2.2,6.459c-.187-.013-.374-.029-.565-.029a7.736,7.736,0,1,0,4.619,13.926l2.734,2.185a1.953,1.953,0,0,0,2.438-3.052Zm-13.62-5.323a3.83,3.83,0,1,1,3.83,3.83,3.83,3.83,0,0,1-3.83-3.83Z"/>
      </g>
    </g>
  </g>
</svg>
