<svg xmlns="http://www.w3.org/2000/svg" xmlns:xlink="http://www.w3.org/1999/xlink" width="94" height="94" viewBox="0 0 94 94">
  <defs>
    <clipPath id="clip-path">
      <rect id="Rectángulo_12215" data-name="Rectángulo 12215" width="94" height="94" transform="translate(519 5378)" fill="#12263f" stroke="#707070" stroke-width="1"/>
    </clipPath>
  </defs>
  <g id="Enmascarar_grupo_57" data-name="Enmascarar grupo 57" transform="translate(-519 -5378)" clip-path="url(#clip-path)">
    <g id="idea" transform="translate(519 5378)">
      <path id="Trazado_103829" data-name="Trazado 103829" d="M50.686,40.405h-8.8a4.259,4.259,0,0,1-4.258-4.258V31.238H54.944v4.908a4.259,4.259,0,0,1-4.259,4.258Z" fill="#bc95e2"/>
      <path id="Trazado_103830" data-name="Trazado 103830" d="M47.648,40.405H41.889a4.258,4.258,0,0,1-4.258-4.258V31.238h5.758v4.909A4.258,4.258,0,0,0,47.648,40.405Z" fill="#ac80dd"/>
      <circle id="Elipse_4084" data-name="Elipse 4084" cx="14.931" cy="14.931" r="14.931" transform="translate(31.357 1.377)" fill="#ffe07d"/>
      <path id="Trazado_103831" data-name="Trazado 103831" d="M50.507,30.633a14.931,14.931,0,1,1,0-28.651,14.935,14.935,0,0,0,0,28.651Z" fill="#ffd064"/>
      <path id="Trazado_103832" data-name="Trazado 103832" d="M54.944,27.131H37.631a3.013,3.013,0,1,0,0,6.026H54.944a3.013,3.013,0,1,0,0-6.026Z" fill="#f9f6f9"/>
      <path id="Trazado_103833" data-name="Trazado 103833" d="M42.222,32.274a3,3,0,0,0,2.13.883H37.63a3.013,3.013,0,0,1,0-6.026h6.722a3.013,3.013,0,0,0-2.13,5.143Z" fill="#dddaec"/>
      <circle id="Elipse_4085" data-name="Elipse 4085" cx="9.4" cy="9.4" r="9.4" transform="translate(4.967 56.738)" fill="#f7e3c1"/>
      <circle id="Elipse_4086" data-name="Elipse 4086" cx="9.4" cy="9.4" r="9.4" transform="translate(70.234 56.738)" fill="#f7e3c1"/>
      <path id="Trazado_103834" data-name="Trazado 103834" d="M74.926,37.864V66.891A25.732,25.732,0,0,1,49.194,92.623H44.809A25.734,25.734,0,0,1,19.074,66.891V37.864Z" fill="#fbf1dd"/>
      <path id="Trazado_103835" data-name="Trazado 103835" d="M74.926,37.865V58c-8.248,0-7.529-20.132-7.529-20.132Z" fill="#4a80aa"/>
      <path id="Trazado_103836" data-name="Trazado 103836" d="M55.568,91.828a25.766,25.766,0,0,1-6.374.795H44.809A25.734,25.734,0,0,1,19.074,66.889V37.864s17.14.122,17.039.055c-.043-.029.1.016.1.068v28.9A25.749,25.749,0,0,0,55.568,91.828Z" fill="#f7e3c1"/>
      <path id="Trazado_103837" data-name="Trazado 103837" d="M19.075,37.866V58c8.248,0,7.529-20.132,7.529-20.132Z" fill="#407093"/>
      <g id="Grupo_91348" data-name="Grupo 91348">
        <path id="Trazado_103838" data-name="Trazado 103838" d="M76.774,8.136l.2.394a2.962,2.962,0,0,0,3.8,1.386l4.409-1.871a2.962,2.962,0,0,0,1.484-4.068L86.168,3a2.962,2.962,0,0,0-4.16-1.2L77.9,4.251a2.962,2.962,0,0,0-1.123,3.884Z" fill="#ffe07d"/>
        <path id="Trazado_103839" data-name="Trazado 103839" d="M79,19.1l-.024.441a2.962,2.962,0,0,0,2.6,3.1l4.754.584a2.962,2.962,0,0,0,3.319-2.781l.059-1.1a2.962,2.962,0,0,0-3-3.121l-4.789.071A2.961,2.961,0,0,0,79,19.1Z" fill="#ffe07d"/>
        <path id="Trazado_103840" data-name="Trazado 103840" d="M75.847,29.847l-.241.37a2.962,2.962,0,0,0,.7,3.982l3.825,2.883a2.962,2.962,0,0,0,4.265-.749l.6-.919a2.962,2.962,0,0,0-1.039-4.2l-4.183-2.334a2.962,2.962,0,0,0-3.925.97Z" fill="#ffe07d"/>
        <path id="Trazado_103841" data-name="Trazado 103841" d="M17.226,8.136l-.2.394a2.962,2.962,0,0,1-3.8,1.386L8.819,8.044A2.962,2.962,0,0,1,7.335,3.976L7.832,3a2.962,2.962,0,0,1,4.16-1.2L16.1,4.252a2.962,2.962,0,0,1,1.122,3.884Z" fill="#ffe07d"/>
        <path id="Trazado_103842" data-name="Trazado 103842" d="M15,19.1l.024.441a2.962,2.962,0,0,1-2.6,3.1l-4.754.584a2.962,2.962,0,0,1-3.319-2.781l-.059-1.1a2.962,2.962,0,0,1,3-3.121l4.789.071A2.962,2.962,0,0,1,15,19.1Z" fill="#ffe07d"/>
        <path id="Trazado_103843" data-name="Trazado 103843" d="M18.153,29.847l.241.37a2.962,2.962,0,0,1-.7,3.982L13.87,37.081a2.962,2.962,0,0,1-4.265-.749l-.6-.919a2.962,2.962,0,0,1,1.039-4.2l4.183-2.334a2.962,2.962,0,0,1,3.925.97Z" fill="#ffe07d"/>
      </g>
      <path id="Trazado_103844" data-name="Trazado 103844" d="M79.633,55.36a10.8,10.8,0,0,0-3.33.528V37.864a1.377,1.377,0,0,0-1.377-1.377H56.309c.007-.113.011-.227.011-.341V34.311a4.385,4.385,0,0,0,1.985-6.986,16.292,16.292,0,0,0,2.232-3.085A1.377,1.377,0,0,0,58.132,22.9,13.564,13.564,0,0,1,55.9,25.86a4.385,4.385,0,0,0-.954-.106h-7.28v-6.32a5.85,5.85,0,0,0,4.464-5.675,1.377,1.377,0,1,0-2.754,0,3.087,3.087,0,1,1-6.174,0,1.377,1.377,0,0,0-2.754,0,5.85,5.85,0,0,0,4.464,5.675v6.32h-7.28a4.386,4.386,0,0,0-.956.106,13.553,13.553,0,1,1,23.167-9.551,13.9,13.9,0,0,1-.125,1.854,1.377,1.377,0,1,0,2.729.368,16.706,16.706,0,0,0,.15-2.222A16.309,16.309,0,1,0,34.268,27.326a4.385,4.385,0,0,0,1.986,6.985v1.835c0,.115,0,.228.011.341H19.075A1.377,1.377,0,0,0,17.7,37.864V55.888a10.777,10.777,0,1,0-3.331,21.026,10.69,10.69,0,0,0,4.821-1.137,27.043,27.043,0,0,0,5.986,9.8,1.377,1.377,0,0,0,1.994-1.9,24.247,24.247,0,0,1-6.716-16.791V59.219a6.208,6.208,0,0,0,3.09-1.812C27.581,53.222,27.993,43.025,28,39.241H66c.008,3.784.42,13.98,4.459,18.166a6.208,6.208,0,0,0,3.089,1.812V66.89A24.383,24.383,0,0,1,49.194,91.246H44.81A24.207,24.207,0,0,1,31.069,87a1.377,1.377,0,0,0-1.556,2.272A26.947,26.947,0,0,0,44.809,94h4.384A27.156,27.156,0,0,0,74.806,75.773,10.777,10.777,0,1,0,79.633,55.36Zm-42-26.852H54.944a1.636,1.636,0,0,1,0,3.272H37.631a1.636,1.636,0,1,1,0-3.272Zm1.377,7.638V34.534H53.567v1.612a2.963,2.963,0,0,1-.021.341H39.029a2.922,2.922,0,0,1-.022-.341ZM14.367,74.16A8.023,8.023,0,1,1,17.7,58.841v4.868a7.711,7.711,0,0,0-2.8-.8,10.559,10.559,0,0,0-3.24.189,1.377,1.377,0,0,0,.652,2.676c.159-.038,3.781-.865,5.391,1.512a27.2,27.2,0,0,0,.7,5.782,7.946,7.946,0,0,1-4.04,1.091ZM21.561,55.5a3.837,3.837,0,0,1-1.109.818V39.241h4.8c0,4.414-.638,13.09-3.691,16.254Zm50.882,0c-3.049-3.158-3.687-11.838-3.691-16.255h4.8V56.313a3.835,3.835,0,0,1-1.107-.817ZM79.633,74.16a7.957,7.957,0,0,1-4.041-1.092,27.073,27.073,0,0,0,.706-5.779c1.607-2.376,5.223-1.553,5.392-1.514a1.377,1.377,0,0,0,.652-2.676,10.543,10.543,0,0,0-3.24-.189,7.71,7.71,0,0,0-2.8.8V58.841a8.022,8.022,0,1,1,3.33,15.319Z"/>
      <path id="Trazado_103845" data-name="Trazado 103845" d="M33.737,56.708c-1.713,0-3.107,1.911-3.107,4.26s1.394,4.26,3.107,4.26,3.107-1.911,3.107-4.26S35.45,56.708,33.737,56.708Z"/>
      <path id="Trazado_103846" data-name="Trazado 103846" d="M60.265,56.708c-1.713,0-3.107,1.911-3.107,4.26s1.394,4.26,3.107,4.26,3.107-1.911,3.107-4.26S61.978,56.708,60.265,56.708Z"/>
      <path id="Trazado_103847" data-name="Trazado 103847" d="M38.714,52.767a1.377,1.377,0,0,0,0-1.947,6.786,6.786,0,0,0-9.586,0,1.377,1.377,0,1,0,1.947,1.947,4.029,4.029,0,0,1,5.691,0,1.377,1.377,0,0,0,1.947,0Z"/>
      <path id="Trazado_103848" data-name="Trazado 103848" d="M65.142,52.767a1.377,1.377,0,0,0,0-1.947,6.778,6.778,0,0,0-9.586,0A1.377,1.377,0,0,0,57.5,52.767a4.024,4.024,0,0,1,5.691,0,1.377,1.377,0,0,0,1.947,0Z"/>
      <path id="Trazado_103849" data-name="Trazado 103849" d="M47,74.244a7.121,7.121,0,0,0,6.79-5.058,1.377,1.377,0,1,0-2.64-.784,4.332,4.332,0,0,1-8.3,0,1.377,1.377,0,1,0-2.639.787A7.128,7.128,0,0,0,47,74.244Z"/>
      <path id="Trazado_103850" data-name="Trazado 103850" d="M75.745,9.153a4.354,4.354,0,0,0,3.88,2.373,4.3,4.3,0,0,0,1.684-.343l4.409-1.871a4.339,4.339,0,0,0,2.174-5.959l-.5-.978A4.339,4.339,0,0,0,81.3.614L77.19,3.07a4.352,4.352,0,0,0-1.644,5.69ZM78.6,5.434l4.112-2.456a1.572,1.572,0,0,1,.809-.225,1.6,1.6,0,0,1,.444.064,1.569,1.569,0,0,1,.973.805l.5.978a1.585,1.585,0,0,1-.794,2.177L80.233,8.648A1.589,1.589,0,0,1,78.2,7.906L78,7.513a1.59,1.59,0,0,1,.6-2.078Z"/>
      <path id="Trazado_103851" data-name="Trazado 103851" d="M81.9,14.923a4.352,4.352,0,0,0-4.269,4.105h0l-.024.441a4.352,4.352,0,0,0,3.8,4.54l4.754.584a4.3,4.3,0,0,0,.525.032,4.338,4.338,0,0,0,4.337-4.105l.059-1.1a4.339,4.339,0,0,0-4.4-4.571Zm6,3.169a1.569,1.569,0,0,1,.44,1.184l-.059,1.1A1.585,1.585,0,0,1,86.5,21.86l-4.754-.584a1.59,1.59,0,0,1-1.389-1.659l.024-.441a1.59,1.59,0,0,1,1.559-1.5l4.789-.071A1.59,1.59,0,0,1,87.891,18.093Z"/>
      <path id="Trazado_103852" data-name="Trazado 103852" d="M75.475,35.3,79.3,38.18a4.355,4.355,0,0,0,2.617.873,4.3,4.3,0,0,0,.745-.065,4.354,4.354,0,0,0,2.885-1.905l.6-.919a4.339,4.339,0,0,0-1.522-6.157l-4.183-2.333a4.352,4.352,0,0,0-5.749,1.421l-.241.37A4.351,4.351,0,0,0,75.475,35.3Zm1.284-4.33L77,30.6a1.59,1.59,0,0,1,2.1-.519l4.183,2.333a1.585,1.585,0,0,1,.556,2.249l-.6.919a1.585,1.585,0,0,1-2.282.4L77.133,33.1a1.589,1.589,0,0,1-.374-2.131Z"/>
      <path id="Trazado_103853" data-name="Trazado 103853" d="M8.282,9.312l4.409,1.871a4.3,4.3,0,0,0,1.684.343,4.354,4.354,0,0,0,3.88-2.373l.2-.394A4.352,4.352,0,0,0,16.81,3.07L12.7.614A4.339,4.339,0,0,0,6.6,2.375l-.5.978A4.339,4.339,0,0,0,8.282,9.312ZM8.564,4.6l.5-.978a1.57,1.57,0,0,1,.973-.805,1.6,1.6,0,0,1,.444-.064,1.571,1.571,0,0,1,.809.225L15.4,5.434A1.59,1.59,0,0,1,16,7.513l-.2.394a1.589,1.589,0,0,1-2.032.741L9.358,6.777A1.585,1.585,0,0,1,8.564,4.6Z"/>
      <path id="Trazado_103854" data-name="Trazado 103854" d="M7.315,24.625a4.3,4.3,0,0,0,.525-.032l4.754-.584a4.352,4.352,0,0,0,3.8-4.54l-.024-.441A4.352,4.352,0,0,0,12.1,14.923l-4.789-.071a4.339,4.339,0,0,0-4.4,4.572l.059,1.1a4.338,4.338,0,0,0,4.337,4.106ZM6.109,18.093a1.569,1.569,0,0,1,1.141-.486h.024l4.789.071a1.59,1.59,0,0,1,1.559,1.5l.024.441a1.589,1.589,0,0,1-1.389,1.658L7.5,21.86a1.585,1.585,0,0,1-1.776-1.488l-.059-1.1a1.569,1.569,0,0,1,.44-1.184Z"/>
      <path id="Trazado_103855" data-name="Trazado 103855" d="M13.559,27.673,9.376,30.006a4.339,4.339,0,0,0-1.521,6.157l.6.919a4.353,4.353,0,0,0,2.885,1.905,4.3,4.3,0,0,0,.745.065,4.356,4.356,0,0,0,2.617-.873L18.525,35.3a4.351,4.351,0,0,0,1.024-5.833l-.241-.37A4.352,4.352,0,0,0,13.559,27.673ZM16.867,33.1l-3.825,2.883a1.585,1.585,0,0,1-2.282-.4l-.6-.919a1.585,1.585,0,0,1,.556-2.249L14.9,30.078a1.573,1.573,0,0,1,.768-.2A1.589,1.589,0,0,1,17,30.6l.241.37a1.589,1.589,0,0,1-.374,2.131Z"/>
    </g>
  </g>
</svg>
