<svg xmlns="http://www.w3.org/2000/svg" width="111.41" height="113.999" viewBox="0 0 111.41 113.999">
  <g id="api" transform="translate(-0.5)">
    <path id="Trazado_103484" data-name="Trazado 103484" d="M221.559,293.84h12.39v37.7h-12.39Zm0,0" transform="translate(-171.549 -228.029)" fill="#d8d6d7"/>
    <path id="Trazado_103485" data-name="Trazado 103485" d="M255.4,293.84h4.811v37.7H255.4Zm0,0" transform="translate(-197.809 -228.029)" fill="#fff"/>
    <path id="Trazado_103486" data-name="Trazado 103486" d="M203.752,464.4v5.227a2.241,2.241,0,0,1-2.24,2.24H156.119a2.241,2.241,0,0,1-2.24-2.24V464.4a2.241,2.241,0,0,1,2.24-2.24h45.394A2.241,2.241,0,0,1,203.752,464.4Zm0,0" transform="translate(-119.027 -358.651)" fill="#fff"/>
    <path id="Trazado_103487" data-name="Trazado 103487" d="M111.879,77.467H6.74a2.24,2.24,0,0,1-2.24-2.24V6.74A2.24,2.24,0,0,1,6.74,4.5H111.879a2.24,2.24,0,0,1,2.24,2.24V75.227A2.24,2.24,0,0,1,111.879,77.467Zm0,0" transform="translate(-3.104 -3.492)" fill="#d8d6d7"/>
    <path id="Trazado_103488" data-name="Trazado 103488" d="M128.472,32.74V89.583a2.24,2.24,0,0,1-2.24,2.24H32.74a2.241,2.241,0,0,1-2.24-2.24V32.74a2.241,2.241,0,0,1,2.24-2.24h93.493A2.24,2.24,0,0,1,128.472,32.74Zm0,0" transform="translate(-23.281 -23.669)" fill="#56c1b3"/>
    <path id="Trazado_103489" data-name="Trazado 103489" d="M162.229,32.74V89.583a2.24,2.24,0,0,1-2.24,2.24H76.24A2.241,2.241,0,0,1,74,89.583V32.74a2.241,2.241,0,0,1,2.24-2.24h83.75A2.24,2.24,0,0,1,162.229,32.74Zm0,0" transform="translate(-57.038 -23.669)" fill="#7befe4"/>
    <path id="Trazado_103490" data-name="Trazado 103490" d="M268.7,77.73h-4.251a18.608,18.608,0,0,0-1.506-3.632l3.006-3.006a1.876,1.876,0,0,0,0-2.656l-4.919-4.91a1.877,1.877,0,0,0-2.656,0l-3,3.006a18.254,18.254,0,0,0-3.638-1.5V60.775a1.879,1.879,0,0,0-1.877-1.877h-6.947a1.881,1.881,0,0,0-1.882,1.877v4.251a18.325,18.325,0,0,0-3.628,1.5l-3.01-3.006a1.872,1.872,0,0,0-2.652,0l-4.914,4.91a1.876,1.876,0,0,0,0,2.656l3.005,3.006a18.608,18.608,0,0,0-1.594,3.96h-4.162a1.878,1.878,0,0,0-1.877,1.872v6.952a1.876,1.876,0,0,0,1.877,1.877h4.354a17.678,17.678,0,0,0,1.4,3.311l-3.005,3.006a1.876,1.876,0,0,0,0,2.656l4.914,4.918a1.878,1.878,0,0,0,2.652,0l3.01-3.01a18.663,18.663,0,0,0,3.628,1.509v4.247a1.881,1.881,0,0,0,1.882,1.881h6.947a1.879,1.879,0,0,0,1.877-1.881v-4.247a18.745,18.745,0,0,0,3.638-1.509l3,3.01a1.884,1.884,0,0,0,2.656,0l4.919-4.918a1.876,1.876,0,0,0,0-2.656l-3.006-3a18.667,18.667,0,0,0,1.506-3.637H268.7a1.88,1.88,0,0,0,1.877-1.877V79.611A1.88,1.88,0,0,0,268.7,77.73ZM246.388,94.5a11.418,11.418,0,1,1,11.418-11.418A11.419,11.419,0,0,1,246.388,94.5Zm0,0" transform="translate(-172.046 -45.707)" fill="#f85252"/>
    <path id="Trazado_103491" data-name="Trazado 103491" d="M178.919,464.4v5.227a2.241,2.241,0,0,1-2.24,2.24H124.119a2.241,2.241,0,0,1-2.24-2.24V464.4a2.241,2.241,0,0,1,2.24-2.24h52.561A2.241,2.241,0,0,1,178.919,464.4Zm0,0" transform="translate(-94.194 -358.651)" fill="#d8d6d7"/>
    <path id="Trazado_103492" data-name="Trazado 103492" d="M203.752,464.4v5.227a2.241,2.241,0,0,1-2.24,2.24H156.119a2.241,2.241,0,0,1-2.24-2.24V464.4a2.241,2.241,0,0,1,2.24-2.24h45.394A2.241,2.241,0,0,1,203.752,464.4Zm0,0" transform="translate(-119.027 -358.651)" fill="#fff"/>
    <path id="Trazado_103493" data-name="Trazado 103493" d="M96.512,126.928v6.952a1.876,1.876,0,0,0,1.877,1.877h4.354a17.68,17.68,0,0,0,1.4,3.311l-1.885,1.886H62.478a2.241,2.241,0,0,1-2.24-2.24V121.7a2.241,2.241,0,0,1,2.24-2.24H102.51l1.634,1.635a18.855,18.855,0,0,0-1.6,3.96H98.389a1.878,1.878,0,0,0-1.877,1.872Zm0,0" transform="translate(-46.359 -92.706)" fill="#fff"/>
    <g id="Grupo_90993" data-name="Grupo 90993" transform="translate(0.5)">
      <path id="Trazado_103494" data-name="Trazado 103494" d="M108.774,0H3.636A3.139,3.139,0,0,0,.5,3.136V71.623a3.139,3.139,0,0,0,3.136,3.136H49.114V102.5H29.926a3.139,3.139,0,0,0-3.136,3.136v5.227A3.138,3.138,0,0,0,29.926,114H82.484a3.139,3.139,0,0,0,3.136-3.136v-5.227a3.139,3.139,0,0,0-3.136-3.136H63.3V74.759h45.479a3.139,3.139,0,0,0,3.136-3.136V3.136A3.139,3.139,0,0,0,108.774,0ZM82.484,104.292a1.346,1.346,0,0,1,1.344,1.344v5.228a1.346,1.346,0,0,1-1.344,1.344H29.926a1.345,1.345,0,0,1-1.344-1.344v-5.228a1.346,1.346,0,0,1,1.344-1.344H82.484ZM61.5,102.5h-10.6V74.759H61.5Zm48.614-30.877a1.345,1.345,0,0,1-1.344,1.344H3.636a1.345,1.345,0,0,1-1.344-1.344V3.136A1.345,1.345,0,0,1,3.636,1.792H108.774a1.345,1.345,0,0,1,1.344,1.344Zm0,0" transform="translate(-0.5)" fill="#12263f"/>
      <path id="Trazado_103495" data-name="Trazado 103495" d="M123.128,26H29.636A3.139,3.139,0,0,0,26.5,29.136V85.977a3.139,3.139,0,0,0,3.136,3.136h93.493a3.139,3.139,0,0,0,3.136-3.136V29.136A3.139,3.139,0,0,0,123.128,26Zm1.344,59.977a1.345,1.345,0,0,1-1.344,1.344H29.636a1.345,1.345,0,0,1-1.344-1.344V29.136a1.345,1.345,0,0,1,1.344-1.344h93.493a1.345,1.345,0,0,1,1.344,1.344Zm0,0" transform="translate(-20.677 -20.177)" fill="#12263f"/>
      <path id="Trazado_103496" data-name="Trazado 103496" d="M287.533,111.91a12.314,12.314,0,1,0,12.313,12.316A12.329,12.329,0,0,0,287.533,111.91Zm0,22.837a10.523,10.523,0,1,1,10.521-10.521A10.534,10.534,0,0,1,287.533,134.747Zm0,0" transform="translate(-213.691 -86.846)" fill="#12263f"/>
      <path id="Trazado_103497" data-name="Trazado 103497" d="M139.906,73.731h-3.591a19.548,19.548,0,0,0-1.065-2.568l2.539-2.539a2.774,2.774,0,0,0,0-3.925l-4.917-4.911a2.778,2.778,0,0,0-3.922,0l-2.538,2.538a19.456,19.456,0,0,0-2.571-1.064v-3.59a2.777,2.777,0,0,0-2.774-2.774H114.12a2.778,2.778,0,0,0-2.775,2.774v3.59a19.612,19.612,0,0,0-2.567,1.064l-2.54-2.537a2.771,2.771,0,0,0-3.921,0L97.4,64.7a2.77,2.77,0,0,0-.146,3.763H59.374A3.139,3.139,0,0,0,56.238,71.6V88.61a3.139,3.139,0,0,0,3.136,3.136h37.7a2.776,2.776,0,0,0,.332,3.513l4.915,4.918a2.775,2.775,0,0,0,3.919,0l2.542-2.542a19.907,19.907,0,0,0,2.567,1.065v3.592a2.778,2.778,0,0,0,2.775,2.774h6.947a2.777,2.777,0,0,0,2.774-2.774V98.7a20.064,20.064,0,0,0,2.572-1.065l2.539,2.543a2.785,2.785,0,0,0,3.92,0l4.917-4.917a2.78,2.78,0,0,0,0-3.923L135.25,88.8a19.565,19.565,0,0,0,1.065-2.573h3.591a2.778,2.778,0,0,0,2.774-2.775V76.5a2.777,2.777,0,0,0-2.774-2.774ZM58.03,88.61V71.6a1.345,1.345,0,0,1,1.344-1.344H99.033l.908.909a19.533,19.533,0,0,0-1.08,2.634c-.029.086-.06.171-.087.258H95.287a2.784,2.784,0,0,0-2.774,2.77v6.953a2.777,2.777,0,0,0,2.774,2.774h3.7A18.93,18.93,0,0,0,99.94,88.8l-1.157,1.157H59.374A1.346,1.346,0,0,1,58.03,88.61Zm82.859-5.157a.984.984,0,0,1-.982.982h-4.248a.894.894,0,0,0-.858.641,17.762,17.762,0,0,1-1.436,3.463.9.9,0,0,0,.153,1.064l3.005,3a.987.987,0,0,1,0,1.391l-4.917,4.915a.987.987,0,0,1-1.389,0l-3-3.006a.9.9,0,0,0-1.062-.154,18.089,18.089,0,0,1-3.466,1.437.9.9,0,0,0-.639.858v4.248a.984.984,0,0,1-.983.982H114.12a.984.984,0,0,1-.982-.982V98.044a.9.9,0,0,0-.64-.858,18.07,18.07,0,0,1-3.46-1.437.9.9,0,0,0-1.061.154l-3.007,3.006a1.007,1.007,0,0,1-1.385,0L98.67,93.992a.986.986,0,0,1,0-1.389l1.117-1.119h0l1.886-1.886a.893.893,0,0,0,.151-1.064A16.857,16.857,0,0,1,100.5,85.39a.9.9,0,0,0-.857-.633H95.285a.981.981,0,0,1-.981-.981V76.827a.98.98,0,0,1,.982-.978h4.157a.9.9,0,0,0,.865-.66c.075-.272.161-.541.248-.808a17.874,17.874,0,0,1,1.272-2.96.9.9,0,0,0-.154-1.061l-1.634-1.635-.011-.009-1.36-1.362a.967.967,0,0,1-.286-.691.978.978,0,0,1,.287-.7l4.916-4.912a1,1,0,0,1,1.385,0l3.007,3a.9.9,0,0,0,1.061.153,17.724,17.724,0,0,1,3.457-1.432.9.9,0,0,0,.642-.859V57.672a.984.984,0,0,1,.983-.982h6.947a.984.984,0,0,1,.982.982v4.248a.9.9,0,0,0,.643.859,17.605,17.605,0,0,1,3.458,1.431.9.9,0,0,0,1.063-.153l3-3a.986.986,0,0,1,1.39,0l4.917,4.911a.982.982,0,0,1,0,1.389l-3.006,3.006a.9.9,0,0,0-.152,1.064,17.671,17.671,0,0,1,1.434,3.456.9.9,0,0,0,.859.641h4.248a.983.983,0,0,1,.982.982v6.948Zm0,0" transform="translate(-43.755 -42.603)" fill="#12263f"/>
      <path id="Trazado_103498" data-name="Trazado 103498" d="M84.133,139.207,79.41,152.195h1.8l1.05-2.9h5.7l1.049,2.9h1.8L86.1,139.207Zm-1.387,8.7,2.361-6.6,2.361,6.6Zm0,0" transform="translate(-61.737 -108.029)" fill="#12263f"/>
      <path id="Trazado_103499" data-name="Trazado 103499" d="M143.7,138.871h-4.217v13.063h1.706v-5.453H143.7c3.242,0,4.517-1.8,4.517-3.786,0-2.136-1.444-3.823-4.517-3.823Zm0,6.2H141.19v-4.8H143.7c1.948,0,2.773.9,2.773,2.417C146.475,144.156,145.651,145.075,143.7,145.075Zm0,0" transform="translate(-108.357 -107.768)" fill="#12263f"/>
      <path id="Trazado_103500" data-name="Trazado 103500" d="M187.926,138.871h1.706v13.063h-1.706Zm0,0" transform="translate(-145.949 -107.768)" fill="#12263f"/>
    </g>
  </g>
</svg>
