<svg xmlns="http://www.w3.org/2000/svg" xmlns:xlink="http://www.w3.org/1999/xlink" width="94" height="94" viewBox="0 0 94 94">
  <defs>
    <clipPath id="clip-path">
      <rect id="Rectángulo_12209" data-name="Rectángulo 12209" width="94" height="94" transform="translate(205 5378)" fill="#12263f" stroke="#707070" stroke-width="1"/>
    </clipPath>
  </defs>
  <g id="Enmascarar_grupo_56" data-name="Enmascarar grupo 56" transform="translate(-205 -5378)" clip-path="url(#clip-path)">
    <g id="buscar" transform="translate(205 5378)">
      <g id="Grupo_91329" data-name="Grupo 91329">
        <path id="Trazado_103809" data-name="Trazado 103809" d="M33.254,59.452l-8.041,8.041.333,4.884,5.095.538,8.036-8.035-.058-5.369Z" fill="#6d80aa" fill-rule="evenodd"/>
      </g>
      <g id="Grupo_91330" data-name="Grupo 91330">
        <path id="Trazado_103810" data-name="Trazado 103810" d="M26.315,71.908l1.138,7.814L16.417,90.754a6.4,6.4,0,0,1-9.044-9.044L18.408,70.676Z" fill="#fdb440" fill-rule="evenodd"/>
      </g>
      <g id="Grupo_91331" data-name="Grupo 91331">
        <path id="Trazado_103811" data-name="Trazado 103811" d="M22.695,66.389l-4.287,4.287,9.044,9.044,4.287-4.282a1.013,1.013,0,0,0,0-1.425l-1.1-1.1-5.428-5.422-1.1-1.1a1.007,1.007,0,0,0-1.42,0Z" fill="#f8f2f0" fill-rule="evenodd"/>
      </g>
      <g id="Grupo_91332" data-name="Grupo 91332">
        <path id="Trazado_103812" data-name="Trazado 103812" d="M24.411,76.679,13.376,87.713a6.419,6.419,0,0,1-7.26,1.257,6.339,6.339,0,0,0,1.257,1.785,6.405,6.405,0,0,0,9.044,0L27.452,79.72Z" fill="#fe9900" fill-rule="evenodd"/>
      </g>
      <g id="Grupo_91333" data-name="Grupo 91333">
        <path id="Trazado_103813" data-name="Trazado 103813" d="M28.407,72.677l-4,4,3.041,3.041,4.287-4.282a1.013,1.013,0,0,0,0-1.425l-1.1-1.1L28.7,70.972a1.007,1.007,0,0,1,0,1.42Z" fill="#eee1dc" fill-rule="evenodd"/>
      </g>
      <g id="Grupo_91334" data-name="Grupo 91334">
        <path id="Trazado_103814" data-name="Trazado 103814" d="M71.707,13.034H43.544a30.842,30.842,0,1,0,28.162,0Z" fill="#f8f2f0" fill-rule="evenodd"/>
      </g>
      <g id="Grupo_91335" data-name="Grupo 91335">
        <path id="Trazado_103815" data-name="Trazado 103815" d="M72.24,21.022H43.006a24.358,24.358,0,1,0,29.234,0Z" fill="#22a6fe" fill-rule="evenodd"/>
      </g>
      <g id="Grupo_91336" data-name="Grupo 91336">
        <path id="Trazado_103816" data-name="Trazado 103816" d="M49.078,39.231c-.829.227-1.674.444-2.518.681l9.081,9a3,3,0,0,0,3.965,0l9.081-9c-.845-.238-1.689-.454-2.513-.681-1.922-.523-2.429-3-2.819-3.8-4.023-3.083-7.429-3.094-11.457,0-.4.8-.9,3.279-2.819,3.8Z" fill="#fed1a3" fill-rule="evenodd"/>
      </g>
      <g id="Grupo_91337" data-name="Grupo 91337">
        <path id="Trazado_103817" data-name="Trazado 103817" d="M43.006,22.326c0,4.63,3.844,10.3,8.891,13.1a15.825,15.825,0,0,0,2.064.956,9.469,9.469,0,0,0,7.323,0,15.572,15.572,0,0,0,2.07-.956c5.047-2.8,8.886-8.474,8.886-13.1V17.855c-21.837-11.694-6.1-13.785-29.234,0v4.472Z" fill="#ffe5c1" fill-rule="evenodd"/>
      </g>
      <g id="Grupo_91338" data-name="Grupo 91338">
        <path id="Trazado_103818" data-name="Trazado 103818" d="M55.1,1.63a14.566,14.566,0,0,0-11.557,11.4,20.821,20.821,0,0,0-.538,4.82c5.919-.412,5.037-4.931,9.118-3.88,3.157.813,4.329,1.225,5.5,1.225s2.339-.412,5.5-1.225c4.087-1.051,3.2,3.469,9.118,3.88a20.832,20.832,0,0,0-.533-4.82A14.565,14.565,0,0,0,60.144,1.63a12.671,12.671,0,0,0-5.042,0Z" fill="#6d80aa" fill-rule="evenodd"/>
      </g>
      <g id="Grupo_91339" data-name="Grupo 91339">
        <path id="Trazado_103819" data-name="Trazado 103819" d="M46.559,39.912c-4.725,1.331-9.35,3.231-9.35,10.026V53.8a24.363,24.363,0,0,0,40.828,0V49.938c0-6.795-4.62-8.7-9.35-10.026l-9.081,5.327a3,3,0,0,1-3.965,0Z" fill="#fd4755" fill-rule="evenodd"/>
      </g>
      <g id="Grupo_91340" data-name="Grupo 91340">
        <path id="Trazado_103820" data-name="Trazado 103820" d="M68.174,21.022c-.053,4.366-3.485,9.625-8.1,12.534-.259.164-.523.322-.787.47a15.572,15.572,0,0,1-2.07.956,9.456,9.456,0,0,1-4.984.628,14.4,14.4,0,0,0,1.727.776,9.469,9.469,0,0,0,7.323,0,15.571,15.571,0,0,0,2.07-.956c5.047-2.8,8.886-8.474,8.886-13.1V17.855a7.168,7.168,0,0,1-4.06-1.4v4.466c0,.037-.005.074-.005.106Z" fill="#fed1a3" fill-rule="evenodd"/>
      </g>
      <g id="Grupo_91341" data-name="Grupo 91341">
        <path id="Trazado_103821" data-name="Trazado 103821" d="M67.926,13.076a21.065,21.065,0,0,1,.232,2.45c.011.306.021.612.021.924a7.165,7.165,0,0,0,4.06,1.4,20.832,20.832,0,0,0-.533-4.82A14.565,14.565,0,0,0,60.144,1.63h-.005a14.792,14.792,0,0,1,7.5,10c.106.454.2.919.274,1.4.005.016.005.027.011.042Z" fill="#49679b" fill-rule="evenodd"/>
      </g>
      <g id="Grupo_91342" data-name="Grupo 91342">
        <path id="Trazado_103822" data-name="Trazado 103822" d="M66.2,42.373c4.308,1.336,8.21,3.448,8.21,9.693v6.087A24.169,24.169,0,0,0,78.037,53.8V49.938c0-6.795-4.62-8.7-9.35-10.026L65.059,42.04c.38.106.766.217,1.14.333Z" fill="#e41e2b" fill-rule="evenodd"/>
      </g>
      <g id="Grupo_91343" data-name="Grupo 91343">
        <path id="Trazado_103823" data-name="Trazado 103823" d="M72.008,24.4a45.578,45.578,0,0,1,2.914,16.2c0,.692-.016,1.378-.048,2.064,1.89,1.494,3.163,3.712,3.163,7.275V53.8a24.361,24.361,0,0,0-5.8-32.775v1.3a9.825,9.825,0,0,1-.232,2.075Z" fill="#0182fc" fill-rule="evenodd"/>
      </g>
      <g id="Grupo_91344" data-name="Grupo 91344">
        <path id="Trazado_103824" data-name="Trazado 103824" d="M72.24,21.022A24.37,24.37,0,0,1,69.806,61.6a34.508,34.508,0,0,1-7.3,9.387,30.876,30.876,0,0,0,9.2-57.953,20.83,20.83,0,0,1,.533,4.82v3.168Z" fill="#eee1dc" fill-rule="evenodd"/>
      </g>
      <g id="Grupo_91345" data-name="Grupo 91345">
        <path id="Trazado_103825" data-name="Trazado 103825" d="M51.9,35.43a12.631,12.631,0,0,1-1.257,2.677c-.037.042,5.565,2.946,9.9,1.336.7-.216.75-.359,1.014.264.533,1.262,2.064,1.779,3.506,2.333l3.627-2.128c-.845-.238-1.689-.454-2.513-.681-1.922-.523-2.429-3-2.819-3.8a15.572,15.572,0,0,1-2.07.956,9.469,9.469,0,0,1-7.323,0,14.417,14.417,0,0,1-1.727-.776c-.116-.058-.227-.116-.338-.179Z" fill="#ffbc85" fill-rule="evenodd"/>
      </g>
      <g id="Grupo_91346" data-name="Grupo 91346">
        <path id="Trazado_103826" data-name="Trazado 103826" d="M36.581,63.089,28.7,70.972l1.943,1.943,8.036-8.036C37.959,64.32,37.256,63.723,36.581,63.089Z" fill="#49679b" fill-rule="evenodd"/>
      </g>
      <g id="Grupo_91347" data-name="Grupo 91347">
        <path id="Trazado_103827" data-name="Trazado 103827" d="M31.888,40.509a25.735,25.735,0,0,0,51.47,0,25.456,25.456,0,0,0-2.8-11.69,26,26,0,0,0-6.937-8.471V17.855c0-5.4-1.718-9.978-4.969-13.238A15.786,15.786,0,0,0,57.648,0H57.6a15.791,15.791,0,0,0-11,4.616c-3.251,3.26-4.97,7.837-4.97,13.238v2.493a25.994,25.994,0,0,0-6.937,8.471A25.456,25.456,0,0,0,31.888,40.509ZM76.66,53.368a22.966,22.966,0,0,1-38.074,0V49.938c0-5.575,3.557-7.3,7.787-8.539l8.546,5.013a4.327,4.327,0,0,0,5.408,0L68.874,41.4c4.229,1.239,7.786,2.963,7.786,8.539ZM50.021,40.347a5.424,5.424,0,0,0,2.606-3.021c.283.125.568.244.856.351a10.888,10.888,0,0,0,8.28,0c.288-.107.574-.226.857-.351a5.41,5.41,0,0,0,2.606,3.02l-6.317,3.706-.051.032c-1.084.7-1.384.7-2.469,0l-.051-.032Zm30.583.162a22.877,22.877,0,0,1-1.3,7.622c-.781-6.31-5.7-8.261-10.245-9.544l-.034-.01C68.51,38.433,68,38.3,67.5,38.163c-.324-.087-.646-.173-.967-.261-.729-.2-1.173-1.114-1.48-1.9,4.371-2.834,7.774-7.637,8.44-12.12A22.777,22.777,0,0,1,80.6,40.509ZM57.626,2.754C63.658,2.86,70.118,7.13,70.8,16.235a5.922,5.922,0,0,1-2.881-1.891c-1.055-1.077-2.368-2.417-5.144-1.7-.766.2-1.416.371-1.977.521a13.853,13.853,0,0,1-3.176.66,13.969,13.969,0,0,1-3.194-.664c-.559-.149-1.2-.322-1.964-.517-2.772-.714-4.084.626-5.138,1.7a5.926,5.926,0,0,1-2.886,1.893c.685-9.1,7.148-13.375,13.183-13.482ZM44.383,19.068a8.432,8.432,0,0,0,4.913-2.8c.937-.957,1.253-1.279,2.484-.962.75.193,1.388.364,1.939.511a15.383,15.383,0,0,0,3.905.757,15.28,15.28,0,0,0,3.887-.754c.554-.148,1.2-.32,1.952-.515,1.235-.318,1.552.005,2.49.964a8.429,8.429,0,0,0,4.908,2.8v3.258c0,4.817-4.7,10.784-10.058,12.768a8.077,8.077,0,0,1-6.365,0c-5.358-1.986-10.057-7.953-10.057-12.768ZM41.75,23.885c.666,4.483,4.07,9.286,8.442,12.12-.307.782-.752,1.7-1.477,1.9q-.478.131-.963.259c-.5.133-1.005.269-1.518.413-.026.006-.051.014-.076.021-4.54,1.283-9.435,3.24-10.215,9.534A22.985,22.985,0,0,1,41.75,23.885Z"/>
        <path id="Trazado_103828" data-name="Trazado 103828" d="M80.426,17.709c-.7-.7-1.405-1.346-2.1-1.927A1.377,1.377,0,0,0,76.56,17.9c.635.528,1.28,1.12,1.919,1.758a29.49,29.49,0,1,1-41.706,0c.536-.536,1.037-1,1.533-1.427a1.377,1.377,0,1,0-1.792-2.091c-.549.471-1.1.985-1.688,1.571a32.256,32.256,0,0,0-3.391,41.615l-6.219,6.218-.127-.127a2.384,2.384,0,0,0-3.368,0l-4.257,4.26-.03.027c-.01.01-.018.02-.027.03L14.181,72.96a1.377,1.377,0,0,0,1.948,1.947l2.28-2.282,7.1,7.1L15.442,89.782a5.018,5.018,0,0,1-7.1-7.1l3.59-3.59A1.377,1.377,0,1,0,9.99,77.147L6.4,80.737A7.772,7.772,0,0,0,17.391,91.728L32.713,76.412a2.391,2.391,0,0,0,0-3.373l-.124-.124,6.221-6.221A32.244,32.244,0,0,0,80.426,17.709ZM27.454,77.775l-7.1-7.1L23.4,67.626l7.1,7.1Zm3.187-6.807L27.163,67.49,33.151,61.5q.8.929,1.675,1.805t1.8,1.672Z"/>
      </g>
    </g>
  </g>
</svg>
