<svg id="prueba" xmlns="http://www.w3.org/2000/svg" width="85" height="85" viewBox="0 0 85 85">
  <path id="Trazado_103896" data-name="Trazado 103896" d="M85,42.5a42.314,42.314,0,0,1-8.327,25.271,42.755,42.755,0,0,1-6.592,7.064,42.468,42.468,0,0,1-55.164,0,42.755,42.755,0,0,1-6.592-7.064A42.495,42.495,0,0,1,42.5,0c.055,0,.111,0,.167,0A42.264,42.264,0,0,1,64.48,6.118,42.513,42.513,0,0,1,85,42.5Z" transform="translate(0 0)" fill="#7255ce"/>
  <path id="Trazado_103897" data-name="Trazado 103897" d="M108.638,36.626A36.465,36.465,0,0,1,101.462,58.4a36.857,36.857,0,0,1-5.681,6.087A36.629,36.629,0,1,1,72.012,0h.143a36.421,36.421,0,0,1,18.8,5.271,36.637,36.637,0,0,1,17.683,31.353Z" transform="translate(-29.512 0)" fill="#5232b8"/>
  <path id="Trazado_103898" data-name="Trazado 103898" d="M118.5,43.169V98.506a42.755,42.755,0,0,1-6.592,7.064,42.468,42.468,0,0,1-55.164,0,42.756,42.756,0,0,1-6.592-7.064V43.169a6.316,6.316,0,0,1,6.316-6.316h55.715A6.316,6.316,0,0,1,118.5,43.169Z" transform="translate(-41.828 -30.735)" fill="#343a6e"/>
  <path id="Trazado_103899" data-name="Trazado 103899" d="M145.024,126.517v50.511a42.468,42.468,0,0,1-55.164,0V126.517a3.98,3.98,0,0,1,3.979-3.981h47.2A3.981,3.981,0,0,1,145.024,126.517Z" transform="translate(-74.942 -102.193)" fill="#f0f0f0"/>
  <path id="Trazado_103900" data-name="Trazado 103900" d="M187.946,7.818V18.992a3.779,3.779,0,0,1-3.78,3.78H157.9a3.779,3.779,0,0,1-3.78-3.78V7.818a3.779,3.779,0,0,1,3.78-3.78h6.613a7.283,7.283,0,0,1,12.608-.753c.014.021.026.04.038.061.1.158.2.321.288.487.04.073.076.142.108.2h6.613A3.778,3.778,0,0,1,187.946,7.818Z" transform="translate(-128.534 -0.001)" fill="#f2ae5a"/>
  <path id="Trazado_103901" data-name="Trazado 103901" d="M201.017,7.818V18.992a3.779,3.779,0,0,1-3.78,3.78H173.573a3.779,3.779,0,0,1-3.78-3.78V7.818a3.779,3.779,0,0,1,3.78-3.78h4.011a7.283,7.283,0,0,1,12.608-.753c.014.021.026.04.038.061.111.179.208.343.288.487.04.073.076.142.108.2h6.613A3.778,3.778,0,0,1,201.017,7.818Z" transform="translate(-141.605 -0.001)" fill="#f9df73"/>
  <circle id="Elipse_4095" data-name="Elipse 4095" cx="2.515" cy="2.515" r="2.515" transform="translate(39.985 3.43)" fill="#343a6e"/>
  <path id="Trazado_103902" data-name="Trazado 103902" d="M209.157,85.429H190.422a1.821,1.821,0,0,1-1.821-1.821h0a1.821,1.821,0,0,1,1.821-1.821h18.735a1.821,1.821,0,0,1,1.821,1.821h0A1.821,1.821,0,0,1,209.157,85.429Z" transform="translate(-157.29 -68.208)" fill="#f2ae5a"/>
  <path id="Trazado_103903" data-name="Trazado 103903" d="M126.556,192.312H115.628a1.735,1.735,0,0,1-1.735-1.735V179.649a1.735,1.735,0,0,1,1.735-1.735h10.929a1.735,1.735,0,0,1,1.735,1.735v10.929A1.735,1.735,0,0,1,126.556,192.312Zm-9.194-3.469h7.459v-7.459h-7.459Z" transform="translate(-94.985 -148.377)" fill="#5897d1"/>
  <g id="Grupo_91368" data-name="Grupo 91368" transform="translate(36.428 31.618)">
    <path id="Trazado_103904" data-name="Trazado 103904" d="M232.091,193.923H221.163a1.735,1.735,0,1,1,0-3.469h10.929a1.735,1.735,0,0,1,0,3.469Z" transform="translate(-219.428 -190.454)" fill="#484b7f"/>
    <path id="Trazado_103905" data-name="Trazado 103905" d="M245.623,234.674H221.164a1.735,1.735,0,1,1,0-3.469h24.459a1.735,1.735,0,1,1,0,3.469Z" transform="translate(-219.429 -224.44)" fill="#484b7f"/>
  </g>
  <path id="Trazado_103906" data-name="Trazado 103906" d="M126.556,305.161H115.628a1.735,1.735,0,0,1-1.735-1.735V292.5a1.735,1.735,0,0,1,1.735-1.735h10.929a1.735,1.735,0,0,1,1.735,1.735v10.929A1.735,1.735,0,0,1,126.556,305.161Zm-9.194-3.469h7.459v-7.459h-7.459Z" transform="translate(-94.985 -242.492)" fill="#5897d1"/>
  <g id="Grupo_91369" data-name="Grupo 91369" transform="translate(36.428 50.353)">
    <path id="Trazado_103907" data-name="Trazado 103907" d="M232.091,306.771H221.163a1.735,1.735,0,1,1,0-3.469h10.929a1.735,1.735,0,1,1,0,3.469Z" transform="translate(-219.428 -303.302)" fill="#484b7f"/>
    <path id="Trazado_103908" data-name="Trazado 103908" d="M245.623,347.522H221.164a1.735,1.735,0,0,1,0-3.469h24.459a1.735,1.735,0,1,1,0,3.469Z" transform="translate(-219.429 -337.288)" fill="#484b7f"/>
  </g>
  <path id="Trazado_103909" data-name="Trazado 103909" d="M126.556,403.613H115.628a1.735,1.735,0,0,0-1.735,1.735v9.114a42.242,42.242,0,0,0,6.458,3.549h6.205a1.735,1.735,0,0,0,1.735-1.735V405.348A1.735,1.735,0,0,0,126.556,403.613Zm-1.735,10.928h-7.459v-7.459h7.459Z" transform="translate(-94.985 -336.607)" fill="#5897d1"/>
  <g id="Grupo_91370" data-name="Grupo 91370" transform="translate(36.428 69.088)">
    <path id="Trazado_103910" data-name="Trazado 103910" d="M232.091,419.62H221.163a1.735,1.735,0,0,1,0-3.469h10.929a1.735,1.735,0,0,1,0,3.469Z" transform="translate(-219.428 -416.151)" fill="#484b7f"/>
    <path id="Trazado_103911" data-name="Trazado 103911" d="M245.623,460.371H221.164a1.735,1.735,0,0,1,0-3.469h24.459a1.735,1.735,0,1,1,0,3.469Z" transform="translate(-219.429 -450.137)" fill="#484b7f"/>
  </g>
  <path id="Trazado_103912" data-name="Trazado 103912" d="M120.134,284.426a1.734,1.734,0,0,1-1.443-.772l-5.551-8.327a1.735,1.735,0,1,1,2.887-1.924l3.852,5.777,4.933-10.415a1.735,1.735,0,0,1,3.135,1.485L121.7,283.434a1.735,1.735,0,0,1-1.442.988Q120.2,284.426,120.134,284.426Z" transform="translate(-94.114 -223.318)" fill="#ef487d"/>
</svg>
