<svg xmlns="http://www.w3.org/2000/svg" width="85" height="85" viewBox="0 0 85 85">
  <g id="Grupo_91372" data-name="Grupo 91372" transform="translate(-810 -2059)">
    <circle id="Elipse_4093" data-name="Elipse 4093" cx="42.5" cy="42.5" r="42.5" transform="translate(810 2059)" fill="#7255ce"/>
    <g id="notes" transform="translate(815.172 2059)">
      <path id="Trazado_103935" data-name="Trazado 103935" d="M73.021,35.309H2.634A2.615,2.615,0,0,0,.028,37.916V90.054A2.614,2.614,0,0,0,2.634,92.66H73.021a2.615,2.615,0,0,0,2.607-2.606V37.916A2.615,2.615,0,0,0,73.021,35.309Zm0,0" transform="translate(0 -30.095)" fill="#35495e"/>
      <path id="Trazado_103936" data-name="Trazado 103936" d="M223.322,0h5.214a2.607,2.607,0,0,1,2.607,2.607V5.214H220.715V2.607A2.607,2.607,0,0,1,223.322,0Zm0,0" transform="translate(-188.101)" fill="#cb9080"/>
      <path id="Trazado_103937" data-name="Trazado 103937" d="M159.43,423.723l-4.119,11.314a2.607,2.607,0,0,1-4.9-1.772l3.467-9.542Zm0,0" transform="translate(-128.065 -361.158)" fill="#7f5b53"/>
      <path id="Trazado_103938" data-name="Trazado 103938" d="M305.365,423.723l3.467,9.542a2.608,2.608,0,0,1-4.9,1.786l-4.119-11.327Zm0,0" transform="translate(-255.52 -361.157)" fill="#7f5b53"/>
      <path id="Trazado_103939" data-name="Trazado 103939" d="M238.371,423.723h5.214v10.428a2.607,2.607,0,1,1-5.214,0Zm0,0" transform="translate(-203.15 -361.158)" fill="#59474e"/>
      <path id="Trazado_103940" data-name="Trazado 103940" d="M48.37,100.3H36.639a1.3,1.3,0,0,1-1.3-1.3V80.752a1.3,1.3,0,0,1,1.3-1.3H54.887a1.3,1.3,0,0,1,1.3,1.3V92.483Zm0,0" transform="translate(-30.095 -67.718)" fill="#f3d55b"/>
      <path id="Trazado_103941" data-name="Trazado 103941" d="M131.434,167.723h-6.517a1.3,1.3,0,0,0-1.3,1.3v6.518Zm0,0" transform="translate(-105.337 -142.958)" fill="#f0c419"/>
      <path id="Trazado_103942" data-name="Trazado 103942" d="M93.515,64.4a2.607,2.607,0,1,1-2.607-2.607A2.607,2.607,0,0,1,93.515,64.4Zm0,0" transform="translate(-75.239 -52.669)" fill="#4482c3"/>
      <path id="Trazado_103943" data-name="Trazado 103943" d="M348.507,303.339H336.776a1.3,1.3,0,0,1-1.3-1.3V283.787a1.3,1.3,0,0,1,1.3-1.3h18.248a1.3,1.3,0,0,1,1.3,1.3v11.731Zm0,0" transform="translate(-285.914 -240.774)" fill="#f3d55b"/>
      <path id="Trazado_103944" data-name="Trazado 103944" d="M431.571,370.758h-6.517a1.3,1.3,0,0,0-1.3,1.3v6.517Zm0,0" transform="translate(-361.157 -316.013)" fill="#f0c419"/>
      <path id="Trazado_103945" data-name="Trazado 103945" d="M393.655,267.435a2.607,2.607,0,1,1-2.607-2.607A2.606,2.606,0,0,1,393.655,267.435Zm0,0" transform="translate(-331.062 -225.724)" fill="#4482c3"/>
      <path id="Trazado_103946" data-name="Trazado 103946" d="M52.823,269.57,41.8,273.582a1.3,1.3,0,0,1-1.671-.782l-6.241-17.144a1.3,1.3,0,0,1,.782-1.671l6.126-2.229,4.9-1.783,6.126-2.229a1.3,1.3,0,0,1,1.671.782l4,11.021Zm0,0" transform="translate(-28.793 -211.096)" fill="#f0c419"/>
      <path id="Trazado_103947" data-name="Trazado 103947" d="M153.9,328.129l-6.127,2.229a1.3,1.3,0,0,0-.782,1.671l2.229,6.126Zm0,0" transform="translate(-125.198 -279.679)" fill="#f29c1f"/>
      <path id="Trazado_103948" data-name="Trazado 103948" d="M85.072,253.388a2.607,2.607,0,1,1-3.341-1.558A2.607,2.607,0,0,1,85.072,253.388Zm0,0" transform="translate(-68.176 -214.511)" fill="#4482c3"/>
      <path id="Trazado_103949" data-name="Trazado 103949" d="M325.586,81.12l2.125-7.925a1.3,1.3,0,0,1,1.6-.912l6.3,1.681,5.03,1.349,6.3,1.687a1.3,1.3,0,0,1,.921,1.6l-3.036,11.331-9.576,5.53-5.592-1.5Zm0,0" transform="translate(-277.488 -61.568)" fill="#f0c419"/>
      <path id="Trazado_103950" data-name="Trazado 103950" d="M400.559,182.069l-6.3-1.687a1.3,1.3,0,0,0-1.6.921l-1.685,6.3Zm0,0" transform="translate(-333.226 -153.71)" fill="#f29c1f"/>
      <path id="Trazado_103951" data-name="Trazado 103951" d="M396.11,70.948a2.607,2.607,0,1,1-3.192,1.843A2.608,2.608,0,0,1,396.11,70.948Zm0,0" transform="translate(-334.801 -60.396)" fill="#4482c3"/>
      <path id="Trazado_103952" data-name="Trazado 103952" d="M224.921,153.269H213.19a1.3,1.3,0,0,1-1.3-1.3V133.717a1.3,1.3,0,0,1,1.3-1.3h18.248a1.3,1.3,0,0,1,1.3,1.3v11.731Zm0,0" transform="translate(-180.577 -112.862)" fill="#f3d55b"/>
      <path id="Trazado_103953" data-name="Trazado 103953" d="M307.985,220.691l-7.821,7.821v-6.518a1.3,1.3,0,0,1,1.3-1.3Zm0,0" transform="translate(-255.819 -188.105)" fill="#f0c419"/>
      <path id="Trazado_103954" data-name="Trazado 103954" d="M270.069,117.365a2.607,2.607,0,1,1-2.607-2.607A2.607,2.607,0,0,1,270.069,117.365Zm0,0" transform="translate(-225.724 -97.813)" fill="#4482c3"/>
    </g>
  </g>
</svg>
