<svg xmlns="http://www.w3.org/2000/svg" width="85" height="87.217" viewBox="0 0 85 87.217">
  <g id="Grupo_91602" data-name="Grupo 91602" transform="translate(-180 -1833)">
    <circle id="Elipse_4089" data-name="Elipse 4089" cx="42.5" cy="42.5" r="42.5" transform="translate(180 1833)" fill="#7255ce"/>
    <g id="revision" transform="translate(181.381 1843.294)">
      <circle id="Elipse_4090" data-name="Elipse 4090" cx="12.189" cy="12.189" r="12.189" transform="translate(1.769 1.769)" fill="#ff5d5d"/>
      <circle id="Elipse_4091" data-name="Elipse 4091" cx="12.189" cy="12.189" r="12.189" transform="translate(52.308 1.769)" fill="#62cd4d"/>
      <rect id="Rectángulo_12478" data-name="Rectángulo 12478" width="30.647" height="8.581" transform="translate(28.696 68.342)" fill="#4dbaf6"/>
      <path id="Trazado_103889" data-name="Trazado 103889" d="M169.326,148.747l2.161-6.893a35.444,35.444,0,0,0,1.624-10.605v-12.93a3.684,3.684,0,0,0-3.684-3.684h0a3.684,3.684,0,0,0-3.684,3.684V115.6a3.684,3.684,0,0,0-3.684-3.684h0a3.684,3.684,0,0,0-3.684,3.684V113.27a3.684,3.684,0,0,0-3.684-3.684h0A3.684,3.684,0,0,0,151,113.27V98.639a3.684,3.684,0,0,0-3.684-3.684h0a3.684,3.684,0,0,0-3.684,3.684V127.9l-4.327-8.013a3.885,3.885,0,0,0-5.169-1.623h0a3.885,3.885,0,0,0-2.027,4.38l2.805,11.628a19.561,19.561,0,0,0,3.222,6.954l5.5,7.52Z" transform="translate(-111.777 -80.405)" fill="#feda9b"/>
      <path id="Trazado_103894" data-name="Trazado 103894" d="M64.5,54.337a1.533,1.533,0,0,0-2.167,0L59.42,57.253,56.5,54.337A1.532,1.532,0,0,0,54.337,56.5l2.916,2.916-2.916,2.916A1.532,1.532,0,1,0,56.5,64.5l2.915-2.916L62.335,64.5A1.532,1.532,0,0,0,64.5,62.335L61.586,59.42,64.5,56.5A1.532,1.532,0,0,0,64.5,54.337Z" transform="translate(-45.631 -45.631)" fill="#fff"/>
      <path id="Trazado_103895" data-name="Trazado 103895" d="M385.072,54.025l-7.015,7.015-2.915-2.916a1.532,1.532,0,1,0-2.167,2.167l4,4a1.532,1.532,0,0,0,2.167,0l8.1-8.1a1.532,1.532,0,0,0-2.167-2.167Z" transform="translate(-315.443 -45.366)" fill="#fff"/>
    </g>
  </g>
</svg>
