<svg xmlns="http://www.w3.org/2000/svg" width="144" height="118.394" viewBox="0 0 144 118.394">
  <g id="motor-de-busqueda-web" transform="translate(0 -45.521)">
    <g id="Grupo_91374" data-name="Grupo 91374" transform="translate(2.109 47.631)">
      <path id="Trazado_103955" data-name="Trazado 103955" d="M134.4,105.026H20.377A12.877,12.877,0,0,1,7.5,92.149V65.9A12.877,12.877,0,0,1,20.377,53.025H134.4A12.877,12.877,0,0,1,147.281,65.9V92.149A12.877,12.877,0,0,1,134.4,105.026Z" transform="translate(-7.5 -53.025)" fill="#e28086"/>
      <path id="Trazado_103956" data-name="Trazado 103956" d="M41.94,118.151a4.445,4.445,0,0,1-4.44-4.44V87.465a4.445,4.445,0,0,1,4.44-4.44H155.966a4.445,4.445,0,0,1,4.44,4.44v26.247a4.445,4.445,0,0,1-4.44,4.44Z" transform="translate(-29.062 -74.588)" fill="#f6f9f9"/>
      <g id="Grupo_91373" data-name="Grupo 91373" transform="translate(54.595 31.258)">
        <path id="Trazado_103957" data-name="Trazado 103957" d="M395.453,358a8.518,8.518,0,0,1-12.047,0l-23.993-23.993,12.047-12.047,23.993,23.993A8.518,8.518,0,0,1,395.453,358Z" transform="translate(-315.032 -277.583)" fill="#b46e59"/>
        <path id="Trazado_103958" data-name="Trazado 103958" d="M397.428,372.725a8.41,8.41,0,0,1-1.974,3.1,8.517,8.517,0,0,1-12.048,0L359.413,351.83l5.074-5.074,23.993,23.993a8.507,8.507,0,0,0,8.947,1.976Z" transform="translate(-315.032 -295.402)" fill="#a55e4d"/>
        <circle id="Elipse_4096" data-name="Elipse 4096" cx="33.418" cy="33.418" r="33.418" fill="#f6de81"/>
        <path id="Trazado_103959" data-name="Trazado 103959" d="M238.475,230.83a33.417,33.417,0,1,1,0-66.48,33.417,33.417,0,0,0,0,66.48Z" transform="translate(-201.614 -164.17)" fill="#f2ce6b"/>
        <circle id="Elipse_4097" data-name="Elipse 4097" cx="21.737" cy="21.737" r="21.737" transform="translate(11.681 11.681)" fill="#dee8fd"/>
        <path id="Trazado_103960" data-name="Trazado 103960" d="M267.995,248.955a21.736,21.736,0,1,1,0-43.025,21.737,21.737,0,0,0,0,43.025Z" transform="translate(-231.466 -194.023)" fill="#c9dbfd"/>
        <path id="Trazado_103961" data-name="Trazado 103961" d="M381.58,327.195l-16.936,16.936a5.862,5.862,0,0,0,8.29,8.29l16.936-16.936a5.862,5.862,0,0,0-8.29-8.29Z" transform="translate(-317.557 -280.108)" fill="#e28086"/>
        <path id="Trazado_103962" data-name="Trazado 103962" d="M377.359,371.328a5.842,5.842,0,0,0,4.145-1.716l-8.571,8.571a5.862,5.862,0,0,1-8.29-8.29l8.571-8.571a5.861,5.861,0,0,0,4.145,10.007Z" transform="translate(-317.556 -305.871)" fill="#dd636e"/>
      </g>
    </g>
    <g id="Grupo_91375" data-name="Grupo 91375" transform="translate(0 45.521)">
      <path id="Trazado_103963" data-name="Trazado 103963" d="M144,86.755V60.509a15,15,0,0,0-14.988-14.988H37.344a2.109,2.109,0,1,0,0,4.219h91.668a10.781,10.781,0,0,1,10.769,10.769V86.755a10.781,10.781,0,0,1-10.769,10.769h-6.57a34.95,34.95,0,0,0-2.291-4.218h8.861a6.558,6.558,0,0,0,6.55-6.55V60.509a6.558,6.558,0,0,0-6.55-6.55H14.988a6.558,6.558,0,0,0-6.55,6.55V86.755a6.558,6.558,0,0,0,6.55,6.55h45.1a35.139,35.139,0,0,0-2.29,4.218H14.988A10.781,10.781,0,0,1,4.219,86.755V60.509A10.781,10.781,0,0,1,14.988,49.74H28.924a2.109,2.109,0,0,0,0-4.219H14.988A15,15,0,0,0,0,60.509V86.755a15,15,0,0,0,14.988,14.988h41.2a35.542,35.542,0,0,0,43.808,44.7,7.97,7.97,0,0,0,13.578,6.252l.952-.952,9.061,9.061a10.558,10.558,0,0,0,7.515,3.113h0a10.628,10.628,0,0,0,7.514-18.143l-9.061-9.061.953-.953a7.966,7.966,0,0,0-6.257-13.578,35.516,35.516,0,0,0,1.117-5.4,2.109,2.109,0,1,0-4.185-.53,31.271,31.271,0,0,1-2.422,8.706L102.77,140.949a31.309,31.309,0,1,1,18.413-32.588,2.109,2.109,0,1,0,4.185-.529,35.81,35.81,0,0,0-1.316-6.089h4.961A15,15,0,0,0,144,86.755Zm-8.367,62A6.41,6.41,0,0,1,131.1,159.7h0a6.367,6.367,0,0,1-4.532-1.877l-9.061-9.061,9.064-9.064Zm-13.415-21.288a3.753,3.753,0,1,1,5.307,5.307L110.589,149.71a3.753,3.753,0,0,1-5.307-5.307ZM65,87.187q-.923.923-1.768,1.9H14.988a2.334,2.334,0,0,1-2.332-2.332V60.509a2.334,2.334,0,0,1,2.332-2.332H129.012a2.334,2.334,0,0,1,2.332,2.332V86.755a2.334,2.334,0,0,1-2.332,2.332h-12c-.564-.651-1.149-1.287-1.765-1.9a35.573,35.573,0,0,0-50.244,0Z" transform="translate(0 -45.521)"/>
      <path id="Trazado_103964" data-name="Trazado 103964" d="M242.63,205.211a23.847,23.847,0,1,0,33.724,0,23.69,23.69,0,0,0-33.724,0Zm30.741,30.741a19.618,19.618,0,1,1,0-27.758,19.65,19.65,0,0,1,0,27.758Z" transform="translate(-169.371 -155.286)"/>
      <path id="Trazado_103965" data-name="Trazado 103965" d="M68.527,108.043a2.109,2.109,0,0,0-2.109,2.109v16.835a2.109,2.109,0,1,0,4.219,0V110.152A2.109,2.109,0,0,0,68.527,108.043Z" transform="translate(-47.738 -90.459)"/>
    </g>
  </g>
</svg>
