<svg xmlns="http://www.w3.org/2000/svg" xmlns:xlink="http://www.w3.org/1999/xlink" width="94" height="94" viewBox="0 0 94 94">
  <defs>
    <clipPath id="clip-path">
      <rect id="Rectángulo_12216" data-name="Rectángulo 12216" width="94" height="94" transform="translate(832 5378)" fill="#12263f" stroke="#707070" stroke-width="1"/>
    </clipPath>
  </defs>
  <g id="Enmascarar_grupo_58" data-name="Enmascarar grupo 58" transform="translate(-832 -5378)" clip-path="url(#clip-path)">
    <g id="diseno-de-la-aplicacion" transform="translate(832 5378)">
      <g id="Grupo_91349" data-name="Grupo 91349">
        <path id="Trazado_103856" data-name="Trazado 103856" d="M67.1,92.623H29.65a5.508,5.508,0,0,1-5.508-5.508V15.881a5.508,5.508,0,0,1,5.508-5.508H67.1a5.508,5.508,0,0,1,5.508,5.508V87.115A5.508,5.508,0,0,1,67.1,92.623Z" fill="#6f6571"/>
        <path id="Trazado_103857" data-name="Trazado 103857" d="M72.611,15.881V87.115A5.507,5.507,0,0,1,67.1,92.623H61.6A5.507,5.507,0,0,0,67.1,87.115V15.881A5.507,5.507,0,0,0,61.6,10.373H67.1A5.507,5.507,0,0,1,72.611,15.881Z" fill="#5d5360"/>
        <path id="Trazado_103858" data-name="Trazado 103858" d="M66.186,84.361H30.568a.918.918,0,0,1-.918-.918V16.8a.918.918,0,0,1,.918-.918H66.186a.918.918,0,0,1,.918.918V83.443A.918.918,0,0,1,66.186,84.361Z" fill="#fff"/>
        <path id="Trazado_103859" data-name="Trazado 103859" d="M60.678,47.459h-24.6a.918.918,0,0,1-.918-.918V34.24a.918.918,0,0,1,.918-.918h24.6a.918.918,0,0,1,.918.918v12.3A.918.918,0,0,1,60.678,47.459Z" fill="#ffe07d"/>
        <path id="Trazado_103860" data-name="Trazado 103860" d="M60.678,78.3h-24.6a.918.918,0,0,1-.918-.918v-12.3a.918.918,0,0,1,.918-.918h24.6a.918.918,0,0,1,.918.918v12.3A.918.918,0,0,1,60.678,78.3Z" fill="#ffe07d"/>
        <path id="Trazado_103861" data-name="Trazado 103861" d="M56.088,27.814H40.666a5.508,5.508,0,0,1-5.508-5.508V6.885a5.508,5.508,0,0,1,5.508-5.508H56.088A5.508,5.508,0,0,1,61.6,6.885V22.307A5.508,5.508,0,0,1,56.088,27.814Z" fill="#ccf49f"/>
        <path id="Trazado_103862" data-name="Trazado 103862" d="M61.6,6.885V22.307a5.507,5.507,0,0,1-5.508,5.508H50.58a5.507,5.507,0,0,0,5.508-5.508V6.885A5.507,5.507,0,0,0,50.58,1.377h5.508A5.507,5.507,0,0,1,61.6,6.885Z" fill="#b3e59f"/>
      </g>
      <g id="Grupo_91350" data-name="Grupo 91350">
        <path id="Trazado_103863" data-name="Trazado 103863" d="M50.019,6.516,50,6.478a1.725,1.725,0,0,0-1.6-1.072h0a1.726,1.726,0,0,0-1.6,1.076l-.012.031L40.921,21.919a1.377,1.377,0,1,0,2.573.98l1.124-2.95h7.527L53.257,22.9a1.377,1.377,0,0,0,2.576-.972ZM45.667,17.2,48.4,10.022,51.106,17.2Z"/>
        <path id="Trazado_103864" data-name="Trazado 103864" d="M67.1,9H62.973V6.885A6.892,6.892,0,0,0,56.088,0H40.666a6.892,6.892,0,0,0-6.885,6.885V9H29.65a6.892,6.892,0,0,0-6.885,6.885v6.885h-.459a2.3,2.3,0,0,0-2.295,2.295v4.59a2.3,2.3,0,0,0,2.295,2.295h.459V34.7h-.459a2.3,2.3,0,0,0-2.295,2.295v4.59a2.3,2.3,0,0,0,2.295,2.295h.459V87.115A6.892,6.892,0,0,0,29.65,94h5.508a1.377,1.377,0,0,0,0-2.754H29.65a4.136,4.136,0,0,1-4.131-4.131V15.881A4.136,4.136,0,0,1,29.65,11.75h4.131V14.5H30.568A2.3,2.3,0,0,0,28.273,16.8V83.443a2.3,2.3,0,0,0,2.295,2.295H66.186a2.3,2.3,0,0,0,2.295-2.295V36.906a1.377,1.377,0,0,0-2.754,0V82.984h-34.7V17.258h2.754v5.049a6.892,6.892,0,0,0,6.885,6.885H56.088a6.892,6.892,0,0,0,6.885-6.885V17.258h2.754V30.48a1.377,1.377,0,0,0,2.754,0V16.8A2.3,2.3,0,0,0,66.186,14.5H62.973V11.75H67.1a4.136,4.136,0,0,1,4.131,4.131V87.115A4.136,4.136,0,0,1,67.1,91.246H41.584a1.377,1.377,0,0,0,0,2.754H67.1a6.892,6.892,0,0,0,6.885-6.885V15.881A6.892,6.892,0,0,0,67.1,9ZM60.219,22.307a4.136,4.136,0,0,1-4.131,4.131H40.666a4.136,4.136,0,0,1-4.131-4.131V6.885a4.136,4.136,0,0,1,4.131-4.131H56.088a4.136,4.136,0,0,1,4.131,4.131Z"/>
        <path id="Trazado_103865" data-name="Trazado 103865" d="M62.973,34.24a2.3,2.3,0,0,0-2.295-2.295h-24.6a2.3,2.3,0,0,0-2.295,2.295v12.3a2.3,2.3,0,0,0,2.295,2.295h24.6a2.3,2.3,0,0,0,2.295-2.295ZM36.535,35.62l8.922,4.771-8.922,4.771Zm4.118-.921H56.1l-7.724,4.13Zm7.723,7.253,7.724,4.13H40.654Zm2.92-1.561,8.922-4.771v9.541Z"/>
        <path id="Trazado_103866" data-name="Trazado 103866" d="M33.781,65.084v12.3a2.3,2.3,0,0,0,2.295,2.295h24.6a2.3,2.3,0,0,0,2.295-2.295v-12.3a2.3,2.3,0,0,0-2.295-2.295h-24.6A2.3,2.3,0,0,0,33.781,65.084ZM60.219,76.005,51.3,71.234l8.922-4.771Zm-4.118.921H40.654l7.723-4.13Zm-7.723-7.253-7.723-4.13H56.1Zm-2.92,1.561-8.922,4.771V66.464Z"/>
        <path id="Trazado_103867" data-name="Trazado 103867" d="M37.912,59.852H51.5a1.377,1.377,0,0,0,0-2.754H37.912a1.377,1.377,0,0,0,0,2.754Z"/>
        <path id="Trazado_103868" data-name="Trazado 103868" d="M37.912,54.344h20.93a1.377,1.377,0,0,0,0-2.754H37.912a1.377,1.377,0,0,0,0,2.754Z"/>
      </g>
    </g>
  </g>
</svg>
