<svg xmlns="http://www.w3.org/2000/svg" xmlns:xlink="http://www.w3.org/1999/xlink" width="85" height="85" viewBox="0 0 85 85">
  <defs>
    <clipPath id="clip-path">
      <circle id="Elipse_4094" data-name="Elipse 4094" cx="42.5" cy="42.5" r="42.5" transform="translate(180 2059)" fill="#7255ce"/>
    </clipPath>
  </defs>
  <g id="Enmascarar_grupo_60" data-name="Enmascarar grupo 60" transform="translate(-180 -2059)" clip-path="url(#clip-path)">
    <g id="clasificacion" transform="translate(180 2059)">
      <path id="Trazado_103913" data-name="Trazado 103913" d="M85,42.5a42.574,42.574,0,0,1-.91,8.781h0A42.556,42.556,0,0,1,62.638,79.935q-.687.37-1.388.715a42.582,42.582,0,0,1-37.5,0q-1.561-.767-3.05-1.66A42.5,42.5,0,1,1,85,42.5Zm0,0" fill="#663a91"/>
      <path id="Trazado_103914" data-name="Trazado 103914" d="M65.461,25.09A22.961,22.961,0,1,1,42.5,2.128,22.961,22.961,0,0,1,65.461,25.09Zm0,0" fill="#fdae2f"/>
      <path id="Trazado_103915" data-name="Trazado 103915" d="M65.461,25.09A22.965,22.965,0,0,1,45.68,47.833a22.964,22.964,0,0,1,0-45.485A22.965,22.965,0,0,1,65.461,25.09Zm0,0" fill="#fecf32"/>
      <path id="Trazado_103916" data-name="Trazado 103916" d="M84.09,51.281s0,0,0,0A42.556,42.556,0,0,1,62.638,79.935q-.687.37-1.388.715A22.961,22.961,0,1,1,84.09,51.281Zm0,0" fill="#dd104f"/>
      <path id="Trazado_103917" data-name="Trazado 103917" d="M45.923,57.7A22.925,22.925,0,0,1,23.748,80.649,42.562,42.562,0,0,1,.91,51.283,22.964,22.964,0,0,1,45.923,57.7Zm0,0" fill="#17a388"/>
      <path id="Trazado_103918" data-name="Trazado 103918" d="M84.09,51.283A42.556,42.556,0,0,1,62.638,79.935,22.966,22.966,0,0,1,65.22,34.959,22.983,22.983,0,0,1,84.09,51.283Zm0,0" fill="#fb3a4a"/>
      <path id="Trazado_103919" data-name="Trazado 103919" d="M45.923,57.7A22.966,22.966,0,0,1,26.142,80.445,22.813,22.813,0,0,1,20.7,78.989a42.652,42.652,0,0,1-11.23-9.745A22.968,22.968,0,0,1,26.142,34.959,22.965,22.965,0,0,1,45.923,57.7Zm0,0" fill="#3fc37c"/>
      <path id="Trazado_103920" data-name="Trazado 103920" d="M15.669,50.88a3.213,3.213,0,1,1-3.213-3.213A3.213,3.213,0,0,1,15.669,50.88Zm0,0" fill="#2f373b"/>
      <path id="Trazado_103921" data-name="Trazado 103921" d="M36.678,50.88a3.213,3.213,0,1,1-3.213-3.213A3.213,3.213,0,0,1,36.678,50.88Zm0,0" fill="#2f373b"/>
      <path id="Trazado_103922" data-name="Trazado 103922" d="M15.014,50.313a1.376,1.376,0,1,1-1.376-1.376A1.376,1.376,0,0,1,15.014,50.313Zm0,0" fill="#fff"/>
      <path id="Trazado_103923" data-name="Trazado 103923" d="M36.18,50.313A1.376,1.376,0,1,1,34.8,48.936,1.376,1.376,0,0,1,36.18,50.313Zm0,0" fill="#fff"/>
      <path id="Trazado_103924" data-name="Trazado 103924" d="M54.746,50.88a3.213,3.213,0,1,1-3.213-3.213A3.213,3.213,0,0,1,54.746,50.88Zm0,0" fill="#2f373b"/>
      <path id="Trazado_103925" data-name="Trazado 103925" d="M75.755,50.88a3.213,3.213,0,1,1-3.213-3.213A3.213,3.213,0,0,1,75.755,50.88Zm0,0" fill="#2f373b"/>
      <path id="Trazado_103926" data-name="Trazado 103926" d="M54.091,50.313a1.376,1.376,0,1,1-1.376-1.376A1.376,1.376,0,0,1,54.091,50.313Zm0,0" fill="#fff"/>
      <path id="Trazado_103927" data-name="Trazado 103927" d="M75.258,50.313a1.376,1.376,0,1,1-1.377-1.376A1.376,1.376,0,0,1,75.258,50.313Zm0,0" fill="#fff"/>
      <path id="Trazado_103928" data-name="Trazado 103928" d="M35.208,17.625a3.213,3.213,0,1,1-3.213-3.213A3.213,3.213,0,0,1,35.208,17.625Zm0,0" fill="#2f373b"/>
      <path id="Trazado_103929" data-name="Trazado 103929" d="M56.216,17.625A3.213,3.213,0,1,1,53,14.412,3.213,3.213,0,0,1,56.216,17.625Zm0,0" fill="#2f373b"/>
      <g id="Grupo_91371" data-name="Grupo 91371">
        <path id="Trazado_103930" data-name="Trazado 103930" d="M34.553,17.058a1.377,1.377,0,1,1-1.377-1.377A1.377,1.377,0,0,1,34.553,17.058Zm0,0" fill="#fff"/>
        <path id="Trazado_103931" data-name="Trazado 103931" d="M55.719,17.058a1.376,1.376,0,1,1-1.376-1.377A1.377,1.377,0,0,1,55.719,17.058Zm0,0" fill="#fff"/>
        <path id="Trazado_103932" data-name="Trazado 103932" d="M13.623,58.419a9.338,9.338,0,0,0,18.675,0" fill="#fff"/>
      </g>
      <path id="Trazado_103933" data-name="Trazado 103933" d="M70.537,65.618A1.735,1.735,0,0,1,68.958,64.6a7.606,7.606,0,0,0-13.84,0,1.735,1.735,0,1,1-3.156-1.44,11.075,11.075,0,0,1,20.153,0,1.735,1.735,0,0,1-1.577,2.455Zm0,0" fill="#dd104f"/>
      <path id="Trazado_103934" data-name="Trazado 103934" d="M51,29.19H34a1.734,1.734,0,1,1,0-3.469H51a1.734,1.734,0,1,1,0,3.469Zm0,0" fill="#fdae2f"/>
    </g>
  </g>
</svg>
