<svg xmlns="http://www.w3.org/2000/svg" xmlns:xlink="http://www.w3.org/1999/xlink" width="144" height="119" viewBox="0 0 144 119">
  <defs>
    <clipPath id="clip-path">
      <rect id="Rectángulo_12480" data-name="Rectángulo 12480" width="144" height="119" transform="translate(728 2766)" fill="#fff" stroke="#707070" stroke-width="1"/>
    </clipPath>
  </defs>
  <g id="Enmascarar_grupo_61" data-name="Enmascarar grupo 61" transform="translate(-728 -2766)" clip-path="url(#clip-path)">
    <g id="navegacion" transform="translate(728 2771.254)">
      <path id="Trazado_103966" data-name="Trazado 103966" d="M2.114,2.114H61.292V106.38H2.114Zm0,0" fill="#ffde7a"/>
      <path id="Trazado_103967" data-name="Trazado 103967" d="M82.708,2.114h59.178V106.38H82.708Zm0,0" fill="#a6e6a7"/>
      <path id="Trazado_103968" data-name="Trazado 103968" d="M92.572,24.658h39.452v8.454H92.572Zm0,0" fill="#ffde7a"/>
      <path id="Trazado_103969" data-name="Trazado 103969" d="M92.572,61.855h39.452v8.454H92.572Zm0,0" fill="#ffde7a"/>
      <path id="Trazado_103970" data-name="Trazado 103970" d="M11.976,24.658H51.428V44.384H11.976Zm0,0" fill="#b2ebf2"/>
      <path id="Trazado_103971" data-name="Trazado 103971" d="M20.43,88.063a4.228,4.228,0,0,1,4.228-4.228h14.09a4.227,4.227,0,0,1,0,8.454H24.658a4.228,4.228,0,0,1-4.228-4.226Zm0,0" fill="#90a4ae"/>
      <path id="Trazado_103972" data-name="Trazado 103972" d="M2.114,2.114H61.292v8.454H2.114Zm0,0" fill="#90a4ae"/>
      <path id="Trazado_103973" data-name="Trazado 103973" d="M82.708,2.114h59.178v8.454H82.708Zm0,0" fill="#90a4ae"/>
      <path id="Trazado_103974" data-name="Trazado 103974" d="M2.114,10.568H61.292v8.454H2.114Zm0,0" fill="#ffca28"/>
      <path id="Trazado_103975" data-name="Trazado 103975" d="M82.708,10.568h59.178v8.454H82.708Zm0,0" fill="#80d183"/>
      <path id="Trazado_103976" data-name="Trazado 103976" d="M122.16,24.658h9.864v8.454H122.16Zm0,0" fill="#d7dfed"/>
      <path id="Trazado_103977" data-name="Trazado 103977" d="M122.16,61.855h9.864v8.454H122.16Zm0,0" fill="#d7dfed"/>
      <path id="Trazado_103978" data-name="Trazado 103978" d="M32.548,33.393,20.713,44.384h12.4l5.968-5.819Zm0,0" fill="#80d183"/>
      <path id="Trazado_103979" data-name="Trazado 103979" d="M39.079,38.564l.232.183-.232-.183-5.968,5.819H51.428V38.465l-7.044-5.072Zm0,0" fill="#a6e6a7"/>
      <path id="Trazado_103980" data-name="Trazado 103980" d="M2.114,2.114h8.454v8.454H2.114Zm0,0" fill="#d7dfed"/>
      <path id="Trazado_103981" data-name="Trazado 103981" d="M82.708,2.114h8.454v8.454H82.708Zm0,0" fill="#d7dfed"/>
      <path id="Trazado_103982" data-name="Trazado 103982" d="M4.228,12.682h54.95V24.658h4.228V0H38.748V4.228h20.43V8.454h-46.5V4.228H34.52V0H0V71.154H4.228Zm0-8.454H8.454V8.454H4.228Zm0,0"/>
      <path id="Trazado_103983" data-name="Trazado 103983" d="M134.137,22.544H90.458V35.225h43.678ZM120.047,31H94.685V26.772h25.362Zm9.864,0h-5.636V26.772h5.636Zm0,0"/>
      <path id="Trazado_103984" data-name="Trazado 103984" d="M90.458,72.423h43.678V59.742H90.458Zm33.816-8.454h5.636V68.2h-5.636Zm-29.589,0h25.362V68.2H94.685Zm0,0"/>
      <path id="Trazado_103985" data-name="Trazado 103985" d="M24.658,81.722a6.341,6.341,0,0,0,0,12.682h14.09a6.341,6.341,0,0,0,0-12.682Zm16.2,6.341a2.116,2.116,0,0,1-2.114,2.113H24.658a2.113,2.113,0,1,1,0-4.226h14.09A2.116,2.116,0,0,1,40.861,88.063Zm0,0"/>
      <path id="Trazado_103986" data-name="Trazado 103986" d="M119.342,0V4.228h20.43V8.454h-46.5V4.228h21.84V0H80.595V43.68H69.886v42.27H63.405V28.884H59.178V85.949H53.965v4.226h5.213v14.09H4.228V75.382H0v33.112H63.405V90.176H74.114V47.906h6.481V71.154h4.228V47.906h5.213V43.679H84.822v-31h54.95V24.658H144V0ZM89.049,8.454H84.822V4.228h4.226Zm0,0"/>
      <path id="Trazado_103987" data-name="Trazado 103987" d="M139.773,104.266H84.822V75.382H80.595v33.112H144V28.884h-4.228Zm0,0"/>
      <path id="Trazado_103988" data-name="Trazado 103988" d="M53.542,22.544H27.476v4.228h21.84V34.34l-5.137-3.7-5.244,5.113-6.5-5.143L19.882,42.27H14.09v-15.5h9.158V22.544H9.863V46.5H53.542ZM32.251,42.27H26.095l6.563-6.094,3.226,2.553Zm17.064,0H38.307l6.282-6.125,4.726,3.4Zm0,0"/>
      <g id="Grupo_91376" data-name="Grupo 91376">
        <path id="Trazado_103989" data-name="Trazado 103989" d="M130.614,43.68h-28.18V39.452h28.18Zm-32.406,0H93.98V39.452h4.228Zm0,0" fill="#fff"/>
        <path id="Trazado_103990" data-name="Trazado 103990" d="M130.614,52.133h-28.18V47.906h28.18Zm-32.406,0H93.98V47.906h4.228Zm0,0" fill="#fff"/>
        <path id="Trazado_103991" data-name="Trazado 103991" d="M130.614,80.877h-28.18V76.65h28.18Zm-32.406,0H93.98V76.65h4.228Zm0,0" fill="#fff"/>
        <path id="Trazado_103992" data-name="Trazado 103992" d="M130.614,89.331h-28.18V85.1h28.18Zm-32.406,0H93.98V85.1h4.228Zm0,0" fill="#fff"/>
        <path id="Trazado_103993" data-name="Trazado 103993" d="M17.612,31H21.84v4.228H17.612Zm0,0" fill="#fff"/>
        <path id="Trazado_103994" data-name="Trazado 103994" d="M51.428,57.769H28.884V53.542H51.428Zm-26.77,0H11.976V53.542H24.658Zm0,0" fill="#fff"/>
        <path id="Trazado_103995" data-name="Trazado 103995" d="M51.428,66.223H41.566V62h9.862Zm-14.09,0H33.112V62h4.226Zm-8.454,0H11.976V62H28.884Zm0,0" fill="#fff"/>
        <path id="Trazado_103996" data-name="Trazado 103996" d="M40.156,74.678H35.93V70.45h4.226Zm-8.454,0H27.476V70.45H31.7Zm-8.454,0H11.976V70.45H23.248Zm0,0" fill="#fff"/>
      </g>
    </g>
  </g>
</svg>
