<svg xmlns="http://www.w3.org/2000/svg" xmlns:xlink="http://www.w3.org/1999/xlink" width="94" height="94" viewBox="0 0 94 94">
  <defs>
    <clipPath id="clip-path">
      <rect id="Rectángulo_12217" data-name="Rectángulo 12217" width="94" height="94" transform="translate(1150 5378)" fill="#12263f" stroke="#707070" stroke-width="1"/>
    </clipPath>
  </defs>
  <g id="Enmascarar_grupo_59" data-name="Enmascarar grupo 59" transform="translate(-1150 -5378)" clip-path="url(#clip-path)">
    <g id="inspeccion" transform="translate(1148.484 5376.484)">
      <g id="Grupo_91366" data-name="Grupo 91366">
        <g id="Grupo_91351" data-name="Grupo 91351">
          <path id="Trazado_103869" data-name="Trazado 103869" d="M33.355,54.581V84.9H3.032V54.581H33.355Z" fill="#ff826e"/>
        </g>
        <g id="Grupo_91352" data-name="Grupo 91352">
          <path id="Trazado_103870" data-name="Trazado 103870" d="M48.516,81.871V84.9h-9.1V54.581h9.1v27.29Z" fill="#ff826e"/>
        </g>
        <g id="Grupo_91353" data-name="Grupo 91353">
          <path id="Trazado_103871" data-name="Trazado 103871" d="M33.355,54.581h6.065V84.9H33.355Z" fill="#fc6e51"/>
        </g>
        <g id="Grupo_91354" data-name="Grupo 91354">
          <path id="Trazado_103872" data-name="Trazado 103872" d="M9.1,3.032V54.581H48.516v3.032H56.1l.364-.364A9.086,9.086,0,0,1,62.9,54.581h9.87V3.032Z" fill="#e6e9ed"/>
        </g>
        <g id="Grupo_91355" data-name="Grupo 91355">
          <path id="Trazado_103873" data-name="Trazado 103873" d="M15.161,9.1H45.484v27.29H15.161Z" fill="#ffeaa7"/>
        </g>
        <g id="Grupo_91356" data-name="Grupo 91356">
          <path id="Trazado_103874" data-name="Trazado 103874" d="M39.419,33.355v3.032H21.226V33.355a9.1,9.1,0,0,1,9.1-9.1,9.11,9.11,0,0,1,9.1,9.1Z" fill="#b4dd7f"/>
        </g>
        <g id="Grupo_91357" data-name="Grupo 91357">
          <circle id="Elipse_4087" data-name="Elipse 4087" cx="4.548" cy="4.548" r="4.548" transform="translate(25.774 15.161)" fill="#f0d0b4"/>
        </g>
        <g id="Grupo_91358" data-name="Grupo 91358">
          <path id="Trazado_103875" data-name="Trazado 103875" d="M78.839,84.9v3.032a6.065,6.065,0,1,1-12.129,0V60.645h9.1a3.054,3.054,0,0,0-3.032,3.032,3.041,3.041,0,0,0,3.032,3.032,3.054,3.054,0,0,0-3.032,3.032,3.041,3.041,0,0,0,3.032,3.032,3.054,3.054,0,0,0-3.032,3.032,3.041,3.041,0,0,0,3.032,3.032,3.054,3.054,0,0,0-3.032,3.032A3.041,3.041,0,0,0,75.806,84.9Z" fill="#969faa"/>
        </g>
        <g id="Grupo_91359" data-name="Grupo 91359">
          <path id="Trazado_103876" data-name="Trazado 103876" d="M81.871,78.839A3.041,3.041,0,0,1,84.9,81.871,3.054,3.054,0,0,1,81.871,84.9H75.806a3.041,3.041,0,0,1-3.032-3.032,3.054,3.054,0,0,1,3.032-3.032Z" fill="#f0d0b4"/>
        </g>
        <g id="Grupo_91360" data-name="Grupo 91360">
          <path id="Trazado_103877" data-name="Trazado 103877" d="M81.871,66.71A3.041,3.041,0,0,1,84.9,69.742a3.054,3.054,0,0,1-3.032,3.032H75.806a3.041,3.041,0,0,1-3.032-3.032,3.054,3.054,0,0,1,3.032-3.032Z" fill="#f0d0b4"/>
        </g>
        <g id="Grupo_91361" data-name="Grupo 91361">
          <path id="Trazado_103878" data-name="Trazado 103878" d="M81.871,60.645A3.041,3.041,0,0,1,84.9,63.677a3.054,3.054,0,0,1-3.032,3.032H75.806a3.041,3.041,0,0,1-3.032-3.032,3.054,3.054,0,0,1,3.032-3.032Z" fill="#f0d0b4"/>
        </g>
        <g id="Grupo_91362" data-name="Grupo 91362">
          <path id="Trazado_103879" data-name="Trazado 103879" d="M81.871,72.774A3.041,3.041,0,0,1,84.9,75.806a3.054,3.054,0,0,1-3.032,3.032H75.806a3.041,3.041,0,0,1-3.032-3.032,3.054,3.054,0,0,1,3.032-3.032Z" fill="#f0d0b4"/>
        </g>
        <g id="Grupo_91363" data-name="Grupo 91363">
          <path id="Trazado_103880" data-name="Trazado 103880" d="M66.71,60.645V84.9h-2.4a9.261,9.261,0,0,1-4.078-.955L56.1,81.871H48.516V57.613H56.1l.364-.364A9.086,9.086,0,0,1,62.9,54.581H78.839A1.521,1.521,0,0,1,80.355,56.1a4.555,4.555,0,0,1-4.548,4.548Z" fill="#f0d0b4"/>
        </g>
        <g id="Grupo_91364" data-name="Grupo 91364">
          <path id="Trazado_103881" data-name="Trazado 103881" d="M72.774,12.129A21.226,21.226,0,1,1,51.548,33.355,21.23,21.23,0,0,1,72.774,12.129Z" fill="#fcd770"/>
        </g>
        <g id="Grupo_91365" data-name="Grupo 91365">
          <circle id="Elipse_4088" data-name="Elipse 4088" cx="15.161" cy="15.161" r="15.161" transform="translate(57.613 18.194)" fill="#69d6f4"/>
        </g>
      </g>
      <g id="Grupo_91367" data-name="Grupo 91367">
        <path id="Trazado_103882" data-name="Trazado 103882" d="M72.774,16.677A16.677,16.677,0,1,0,89.452,33.355,16.7,16.7,0,0,0,72.774,16.677Zm0,30.323A13.645,13.645,0,1,1,86.419,33.355,13.661,13.661,0,0,1,72.774,47Z"/>
        <path id="Trazado_103883" data-name="Trazado 103883" d="M95.516,33.355A22.752,22.752,0,0,0,74.29,10.69V1.516H7.581V53.065H1.516V86.419H50.032V83.387h5.707L59.563,85.3a10.669,10.669,0,0,0,4.745,1.12h.885v1.516a7.581,7.581,0,0,0,15.161,0V86.419h1.516a4.529,4.529,0,0,0,3.366-7.581,4.479,4.479,0,0,0,0-6.065,4.479,4.479,0,0,0,0-6.065,4.529,4.529,0,0,0-3.366-7.581h-.843a6,6,0,0,0,.843-3.032,3.016,3.016,0,0,0-.519-1.694A22.765,22.765,0,0,0,95.516,33.355ZM10.613,4.548H71.258V10.69a22.71,22.71,0,0,0-9.641,42.459A10.531,10.531,0,0,0,55.469,56.1H50.032V53.065H10.613ZM37.9,56.1v27.29H34.871V56.1Zm-33.355,0h27.29v27.29H4.548ZM47,83.387H40.935V56.1H47Zm30.323,4.548a4.548,4.548,0,0,1-9.1,0V62.161h3.311a4.409,4.409,0,0,0,.9,4.548,4.479,4.479,0,0,0,0,6.065,4.479,4.479,0,0,0,0,6.065,4.529,4.529,0,0,0,3.366,7.581h1.516Zm6.065-18.194a1.517,1.517,0,0,1-1.516,1.516H75.806a1.516,1.516,0,0,1,0-3.032h6.065A1.517,1.517,0,0,1,83.387,69.742Zm0,6.065a1.517,1.517,0,0,1-1.516,1.516H75.806a1.516,1.516,0,0,1,0-3.032h6.065A1.517,1.517,0,0,1,83.387,75.806Zm-1.516,7.581H75.806a1.516,1.516,0,0,1,0-3.032h6.065a1.516,1.516,0,0,1,0,3.032Zm1.516-19.71a1.517,1.517,0,0,1-1.516,1.516H75.806a1.516,1.516,0,0,1,0-3.032h6.065A1.517,1.517,0,0,1,83.387,63.677ZM78.839,56.1a3.035,3.035,0,0,1-3.032,3.032H64.566l-.811.811a7.536,7.536,0,0,1-5.361,2.221H56.1v3.032h2.3a10.527,10.527,0,0,0,6.8-2.474V83.387h-.885a7.617,7.617,0,0,1-3.389-.8l-4.465-2.232H50.032V59.129h6.692l.811-.811A7.534,7.534,0,0,1,62.9,56.1Zm-6.065-3.032a19.71,19.71,0,1,1,19.71-19.71A19.732,19.732,0,0,1,72.774,53.065Z"/>
        <path id="Trazado_103884" data-name="Trazado 103884" d="M69.742,35.759l-1.96-1.96-2.144,2.144,4.1,4.1L81.427,28.362l-2.144-2.144Z"/>
        <path id="Trazado_103885" data-name="Trazado 103885" d="M13.645,37.9H47V7.581H13.645ZM27.29,19.71a3.032,3.032,0,1,1,3.032,3.032A3.035,3.035,0,0,1,27.29,19.71Zm3.032,6.065A7.589,7.589,0,0,1,37.9,33.355v1.516H22.742V33.355A7.589,7.589,0,0,1,30.323,25.774ZM16.677,10.613h27.29V34.871H40.935V33.355a10.618,10.618,0,0,0-6.125-9.6,6.065,6.065,0,1,0-8.975,0,10.618,10.618,0,0,0-6.125,9.6v1.516H16.677Z"/>
        <path id="Trazado_103886" data-name="Trazado 103886" d="M13.645,40.935h3.032v3.032H13.645Z"/>
        <path id="Trazado_103887" data-name="Trazado 103887" d="M19.71,40.935H47v3.032H19.71Z"/>
        <path id="Trazado_103888" data-name="Trazado 103888" d="M13.645,47H47v3.032H13.645Z"/>
      </g>
    </g>
  </g>
</svg>
