<svg xmlns="http://www.w3.org/2000/svg" xmlns:xlink="http://www.w3.org/1999/xlink" width="144" height="119" viewBox="0 0 144 119">
  <defs>
    <clipPath id="clip-path">
      <rect id="Rectángulo_12481" data-name="Rectángulo 12481" width="144" height="119" transform="translate(1148 2766)" fill="#fff" stroke="#707070" stroke-width="1"/>
    </clipPath>
  </defs>
  <g id="Enmascarar_grupo_62" data-name="Enmascarar grupo 62" transform="translate(-1148 -2766)" clip-path="url(#clip-path)">
    <g id="pregunta" transform="translate(1159.904 2765.404)">
      <g id="Grupo_91377" data-name="Grupo 91377">
        <path id="Trazado_103997" data-name="Trazado 103997" d="M2.407,96.224c9.271,1.649,21.449-.592,29.456-4.636a46.021,46.021,0,0,0,32.342.1V78.759A2.362,2.362,0,0,1,66.553,76.4H84.7A45.813,45.813,0,1,0,2.407,46.369v4.7a46.158,46.158,0,0,0,7.13,22.347,51.412,51.412,0,0,1-7.13,22.7ZM41.78,49.076a5.177,5.177,0,0,1,5.168-5.168,9.958,9.958,0,1,0-9.856-11.353,5.171,5.171,0,0,1-10.242-1.43A20.3,20.3,0,1,1,52.121,53.579v4.27a5.171,5.171,0,0,1-10.342,0Zm0,28.718a5.171,5.171,0,1,1,5.168,5.168,5.17,5.17,0,0,1-5.168-5.168Z" fill="#ffcd69" fill-rule="evenodd"/>
      </g>
      <g id="Grupo_91378" data-name="Grupo 91378">
        <path id="Trazado_103998" data-name="Trazado 103998" d="M41.78,57.849a5.171,5.171,0,0,0,10.342,0v-4.27A20.3,20.3,0,1,0,26.849,31.126a5.171,5.171,0,0,0,10.242,1.43,9.956,9.956,0,1,1,9.856,11.353,5.177,5.177,0,0,0-5.168,5.168Z" fill="#faf7f5" fill-rule="evenodd"/>
      </g>
      <g id="Grupo_91379" data-name="Grupo 91379">
        <path id="Trazado_103999" data-name="Trazado 103999" d="M41.78,77.795a5.171,5.171,0,1,0,5.168-5.174,5.169,5.169,0,0,0-5.168,5.174Z" fill="#faf7f5" fill-rule="evenodd"/>
      </g>
      <g id="Grupo_91380" data-name="Grupo 91380">
        <path id="Trazado_104000" data-name="Trazado 104000" d="M66.554,108.11H96.715l12.33,9.138V108.11h6.445a2.363,2.363,0,0,0,2.354-2.355v-27A2.363,2.363,0,0,0,115.49,76.4H66.554a2.362,2.362,0,0,0-2.348,2.355v27A2.362,2.362,0,0,0,66.554,108.11Z" fill="#66e0f7" fill-rule="evenodd"/>
      </g>
      <g id="Grupo_91381" data-name="Grupo 91381">
        <path id="Trazado_104001" data-name="Trazado 104001" d="M46.947,70.273a7.519,7.519,0,1,0,7.522,7.515,7.524,7.524,0,0,0-7.522-7.515Zm0,10.342a2.824,2.824,0,1,1,2.827-2.827A2.827,2.827,0,0,1,46.947,80.615Z"/>
        <path id="Trazado_104002" data-name="Trazado 104002" d="M54.469,55.309A22.643,22.643,0,1,0,24.524,30.8a7.518,7.518,0,0,0,14.892,2.076,7.6,7.6,0,0,1,7.542-6.537l.154,0a7.717,7.717,0,0,1,7.434,7.194,7.634,7.634,0,0,1-7.6,8.024,7.524,7.524,0,0,0-7.515,7.515v8.773a7.519,7.519,0,0,0,15.037,0Zm-2.948-4a2.347,2.347,0,0,0-1.747,2.269v4.27a2.824,2.824,0,0,1-5.647,0V49.076a2.824,2.824,0,0,1,2.82-2.82,12.181,12.181,0,0,0,8.915-3.839,12.294,12.294,0,0,0-8.655-20.768l-.248,0A12.3,12.3,0,0,0,34.766,32.232a2.823,2.823,0,0,1-5.592-.783A17.951,17.951,0,1,1,51.521,51.31Z"/>
        <path id="Trazado_104003" data-name="Trazado 104003" d="M115.49,74.057H89.139A48.162,48.162,0,0,0,22.476,8.024a2.348,2.348,0,0,0,2.507,3.97A43.467,43.467,0,0,1,83.51,74.057H66.554a4.7,4.7,0,0,0-4.7,4.7V90.023A43.886,43.886,0,0,1,56.12,91.5,43.359,43.359,0,0,1,32.7,89.4a2.346,2.346,0,0,0-1.9.1A51.188,51.188,0,0,1,6.062,94.307a53.745,53.745,0,0,0,5.812-20.675,2.348,2.348,0,0,0-.358-1.483,43.523,43.523,0,0,1-.479-45.975,2.347,2.347,0,1,0-4.01-2.442,48.222,48.222,0,0,0,.1,50.246,48.66,48.66,0,0,1-6.8,21.052,2.347,2.347,0,0,0,1.614,3.491,40.424,40.424,0,0,0,7.1.588,56.3,56.3,0,0,0,22.956-4.971,48.054,48.054,0,0,0,24.986,1.973,48.559,48.559,0,0,0,4.879-1.171v10.814a4.7,4.7,0,0,0,4.7,4.7H95.94l11.708,8.677a2.347,2.347,0,0,0,3.745-1.886v-6.791h4.1a4.707,4.707,0,0,0,4.7-4.7v-27a4.707,4.707,0,0,0-4.7-4.7Zm0,31.7h-6.445a2.348,2.348,0,0,0-2.347,2.347v4.477l-8.585-6.363a2.349,2.349,0,0,0-1.4-.462l-30.161-.007v-27H115.49l.007.007Z"/>
        <path id="Trazado_104004" data-name="Trazado 104004" d="M104.636,89.906a2.351,2.351,0,1,0,2.347,2.354v-.013A2.342,2.342,0,0,0,104.636,89.906Z"/>
        <path id="Trazado_104005" data-name="Trazado 104005" d="M91.021,89.906a2.351,2.351,0,1,0,2.347,2.354v-.013A2.342,2.342,0,0,0,91.021,89.906Z"/>
        <path id="Trazado_104006" data-name="Trazado 104006" d="M77.414,89.906a2.351,2.351,0,1,0,2.347,2.354v-.013A2.342,2.342,0,0,0,77.414,89.906Z"/>
        <path id="Trazado_104007" data-name="Trazado 104007" d="M15.484,19.008a2.336,2.336,0,0,0,1.048-.248l.013-.007a2.346,2.346,0,1,0-1.061.255Z"/>
      </g>
    </g>
  </g>
</svg>
