<svg xmlns="http://www.w3.org/2000/svg" width="1240" height="708" viewBox="0 0 1240 708">
  <g id="Grupo_91604" data-name="Grupo 91604" transform="translate(-180 -2844)">
    <rect id="Rectángulo_12510" data-name="Rectángulo 12510" width="1240" height="708" rx="10" transform="translate(180 2844)" fill="#ffca28" opacity="0.25"/>
    <g id="Grupo_91384" data-name="Grupo 91384" transform="translate(-785.142 2115.941)">
      <rect id="Rectángulo_12484" data-name="Rectángulo 12484" width="37.475" height="65.581" transform="translate(1607.196 750.059)" fill="#393a81"/>
      <rect id="Rectángulo_12485" data-name="Rectángulo 12485" width="37.475" height="65.581" transform="translate(1607.196 862.484)" fill="#bc966c"/>
      <rect id="Rectángulo_12486" data-name="Rectángulo 12486" width="37.475" height="65.581" transform="translate(1887.087 862.484)" fill="#bc966c"/>
      <rect id="Rectángulo_12487" data-name="Rectángulo 12487" width="37.475" height="65.581" transform="translate(1801.597 981.349)" fill="#bc966c"/>
      <rect id="Rectángulo_12488" data-name="Rectángulo 12488" width="57.383" height="65.581" transform="translate(1540.444 981.349)" fill="#9a2264"/>
      <rect id="Rectángulo_12489" data-name="Rectángulo 12489" width="57.383" height="65.581" transform="translate(1597.242 981.349)" fill="#b06689"/>
      <rect id="Rectángulo_12490" data-name="Rectángulo 12490" width="57.383" height="65.581" transform="translate(1654.625 981.349)" fill="#c189a3"/>
      <rect id="Rectángulo_12491" data-name="Rectángulo 12491" width="37.475" height="65.581" transform="translate(1887.087 981.349)" fill="#bc966c"/>
      <rect id="Rectángulo_12492" data-name="Rectángulo 12492" width="8.002" height="9.369" transform="translate(1902.506 1087.138)" fill="#bc966c"/>
      <rect id="Rectángulo_12493" data-name="Rectángulo 12493" width="37.475" height="65.581" transform="translate(1967.307 981.349)" fill="#bc966c"/>
      <rect id="Rectángulo_12494" data-name="Rectángulo 12494" width="37.475" height="65.581" transform="translate(1430.361 981.349)" fill="#888685"/>
      <rect id="Rectángulo_12495" data-name="Rectángulo 12495" width="37.475" height="65.581" transform="translate(1430.361 1080.307)" fill="#505995"/>
      <rect id="Rectángulo_12496" data-name="Rectángulo 12496" width="37.475" height="65.581" transform="translate(1786.373 1219.081)" fill="#9a2264"/>
      <rect id="Rectángulo_12497" data-name="Rectángulo 12497" width="37.475" height="65.581" transform="translate(1849.612 1219.081)" fill="#9a2264"/>
      <rect id="Rectángulo_12498" data-name="Rectángulo 12498" width="37.475" height="65.581" transform="translate(1910.509 1219.081)" fill="#9a2264"/>
      <rect id="Rectángulo_12499" data-name="Rectángulo 12499" width="37.475" height="65.581" transform="translate(1973.162 1219.081)" fill="#9a2264"/>
      <rect id="Rectángulo_12500" data-name="Rectángulo 12500" width="37.475" height="65.581" transform="translate(1607.196 1219.081)" fill="#505995"/>
      <rect id="Rectángulo_12501" data-name="Rectángulo 12501" width="37.475" height="65.581" transform="translate(1423.92 1219.081)" fill="#9a2264"/>
      <rect id="Rectángulo_12502" data-name="Rectángulo 12502" width="37.475" height="65.581" transform="translate(1245.914 1219.081)" fill="#9a2264"/>
      <rect id="Rectángulo_12503" data-name="Rectángulo 12503" width="37.475" height="65.581" transform="translate(1149.299 1333.848)" fill="#df5823"/>
      <rect id="Rectángulo_12504" data-name="Rectángulo 12504" width="37.475" height="65.581" transform="translate(1211.953 1333.848)" fill="#df5823"/>
      <rect id="Rectángulo_12505" data-name="Rectángulo 12505" width="37.475" height="65.581" transform="translate(1272.264 1333.848)" fill="#df5823"/>
      <rect id="Rectángulo_12506" data-name="Rectángulo 12506" width="37.475" height="65.581" transform="translate(1334.332 1333.848)" fill="#df5823"/>
      <rect id="Rectángulo_12507" data-name="Rectángulo 12507" width="37.475" height="65.581" transform="translate(1546.885 1333.848)" fill="#505995"/>
      <rect id="Rectángulo_12508" data-name="Rectángulo 12508" width="37.475" height="65.581" transform="translate(1607.196 1333.848)" fill="#505995"/>
      <rect id="Rectángulo_12509" data-name="Rectángulo 12509" width="37.475" height="65.581" transform="translate(1668.678 1333.848)" fill="#505995"/>
      <path id="Trazado_104501" data-name="Trazado 104501" d="M1.738-2.646V0H.918V-7H2.842a2.539,2.539,0,0,1,1.741.547A1.953,1.953,0,0,1,5.2-4.912a2.122,2.122,0,0,1-.686,1.631,2.621,2.621,0,0,1-1.853.635Zm0-3.613v2.871H2.6a1.921,1.921,0,0,0,1.3-.388,1.374,1.374,0,0,0,.447-1.1Q4.341-6.26,2.7-6.26ZM9.648,0h-.8V-.781h-.02a1.676,1.676,0,0,1-1.538.9,1.644,1.644,0,0,1-1.169-.4A1.37,1.37,0,0,1,5.7-1.328q0-1.4,1.65-1.631l1.5-.21q0-1.274-1.03-1.274a2.461,2.461,0,0,0-1.631.615v-.82a3.1,3.1,0,0,1,1.7-.469q1.763,0,1.763,1.865Zm-.8-2.529-1.206.166a1.958,1.958,0,0,0-.84.276.8.8,0,0,0-.283.7.763.763,0,0,0,.261.6,1.009,1.009,0,0,0,.7.232,1.285,1.285,0,0,0,.984-.417,1.492,1.492,0,0,0,.388-1.057ZM15.308,0h-.8V-2.852q0-1.592-1.162-1.592a1.261,1.261,0,0,0-.994.452,1.674,1.674,0,0,0-.393,1.14V0h-.8V-5h.8v.83h.02a1.8,1.8,0,0,1,1.641-.947,1.53,1.53,0,0,1,1.255.53,2.36,2.36,0,0,1,.435,1.531Zm3.6.117a2.319,2.319,0,0,1-1.77-.7,2.6,2.6,0,0,1-.662-1.858,2.7,2.7,0,0,1,.688-1.968,2.475,2.475,0,0,1,1.86-.708,2.243,2.243,0,0,1,1.746.688A2.73,2.73,0,0,1,21.4-2.52,2.686,2.686,0,0,1,20.72-.6,2.37,2.37,0,0,1,18.906.117Zm.059-4.561a1.523,1.523,0,0,0-1.221.525,2.156,2.156,0,0,0-.449,1.448,2.039,2.039,0,0,0,.454,1.4,1.543,1.543,0,0,0,1.216.513,1.464,1.464,0,0,0,1.194-.5,2.182,2.182,0,0,0,.417-1.431,2.22,2.22,0,0,0-.417-1.445A1.457,1.457,0,0,0,18.965-4.443Zm6.318.254a.979.979,0,0,0-.605-.161,1.022,1.022,0,0,0-.857.483,2.235,2.235,0,0,0-.344,1.318V0h-.8V-5h.8v1.03h.02a1.746,1.746,0,0,1,.522-.823,1.191,1.191,0,0,1,.786-.3,1.307,1.307,0,0,1,.479.068ZM29.731,0h-.8V-.781h-.02a1.676,1.676,0,0,1-1.538.9,1.644,1.644,0,0,1-1.169-.4,1.37,1.37,0,0,1-.422-1.05q0-1.4,1.65-1.631l1.5-.21q0-1.274-1.03-1.274a2.461,2.461,0,0,0-1.631.615v-.82a3.1,3.1,0,0,1,1.7-.469q1.763,0,1.763,1.865Zm-.8-2.529-1.206.166a1.958,1.958,0,0,0-.84.276.8.8,0,0,0-.283.7.763.763,0,0,0,.261.6,1.009,1.009,0,0,0,.7.232,1.285,1.285,0,0,0,.984-.417,1.492,1.492,0,0,0,.388-1.057ZM38.34,0h-.8V-2.871a2.166,2.166,0,0,0-.256-1.2.972.972,0,0,0-.862-.371,1.067,1.067,0,0,0-.872.469,1.793,1.793,0,0,0-.359,1.123V0h-.8V-2.969q0-1.475-1.138-1.475A1.054,1.054,0,0,0,32.383-4a1.827,1.827,0,0,0-.342,1.15V0h-.8V-5h.8v.791h.02a1.7,1.7,0,0,1,1.553-.908,1.448,1.448,0,0,1,.894.286,1.437,1.437,0,0,1,.522.75,1.784,1.784,0,0,1,1.66-1.035q1.65,0,1.65,2.036Zm5.093,0h-.8V-.781h-.02a1.676,1.676,0,0,1-1.538.9,1.644,1.644,0,0,1-1.169-.4,1.37,1.37,0,0,1-.422-1.05q0-1.4,1.65-1.631l1.5-.21q0-1.274-1.03-1.274a2.461,2.461,0,0,0-1.631.615v-.82a3.1,3.1,0,0,1,1.7-.469q1.763,0,1.763,1.865Zm-.8-2.529-1.206.166a1.958,1.958,0,0,0-.84.276.8.8,0,0,0-.283.7.763.763,0,0,0,.261.6,1.009,1.009,0,0,0,.7.232,1.285,1.285,0,0,0,.984-.417,1.492,1.492,0,0,0,.388-1.057Z" transform="translate(1663.444 1059.007)"/>
      <g id="Grupo_91385" data-name="Grupo 91385">
        <path id="Trazado_104495" data-name="Trazado 104495" d="M1.591-.69H4.623V0H.743V-6.4h.848ZM5.243-2.421a2.808,2.808,0,0,1,.275-1.257,2.049,2.049,0,0,1,.765-.861,2.081,2.081,0,0,1,1.118-.3,2.005,2.005,0,0,1,1.571.672,2.587,2.587,0,0,1,.6,1.789v.057a2.833,2.833,0,0,1-.266,1.246,2.019,2.019,0,0,1-.76.859A2.105,2.105,0,0,1,7.409.088,2,2,0,0,1,5.843-.584a2.574,2.574,0,0,1-.6-1.78Zm.817.1a2.034,2.034,0,0,0,.367,1.27,1.174,1.174,0,0,0,.982.479,1.167,1.167,0,0,0,.984-.486,2.224,2.224,0,0,0,.365-1.36,2.031,2.031,0,0,0-.371-1.268A1.181,1.181,0,0,0,7.4-4.175a1.167,1.167,0,0,0-.971.479A2.208,2.208,0,0,0,6.06-2.325ZM10.4-2.417a2.8,2.8,0,0,1,.514-1.769,1.644,1.644,0,0,1,1.362-.657,1.636,1.636,0,0,1,1.358.615l.04-.527h.743V-.114a1.934,1.934,0,0,1-.547,1.455,2.019,2.019,0,0,1-1.47.532,2.446,2.446,0,0,1-1.006-.22,1.732,1.732,0,0,1-.751-.6l.422-.488a1.59,1.59,0,0,0,1.279.646,1.246,1.246,0,0,0,.925-.334,1.277,1.277,0,0,0,.332-.94V-.475a1.671,1.671,0,0,1-1.332.563,1.624,1.624,0,0,1-1.351-.672A2.938,2.938,0,0,1,10.4-2.417Zm.817.092a2.132,2.132,0,0,0,.33,1.263,1.071,1.071,0,0,0,.923.459A1.191,1.191,0,0,0,13.6-1.3V-3.472a1.2,1.2,0,0,0-1.121-.681,1.081,1.081,0,0,0-.927.461A2.322,2.322,0,0,0,11.215-2.325ZM16.523,0H15.71V-4.755h.813Zm-.879-6.016a.485.485,0,0,1,.121-.334.454.454,0,0,1,.358-.136.461.461,0,0,1,.36.136.48.48,0,0,1,.123.334.464.464,0,0,1-.123.33.469.469,0,0,1-.36.132.462.462,0,0,1-.358-.132A.469.469,0,0,1,15.645-6.016Zm2.949,1.261.026.6a1.733,1.733,0,0,1,1.424-.686q1.507,0,1.521,1.7V0h-.813V-3.146a1.1,1.1,0,0,0-.235-.76.942.942,0,0,0-.719-.246,1.173,1.173,0,0,0-.694.211,1.432,1.432,0,0,0-.466.554V0h-.813V-4.755Zm4.359,5.3h-.7L24.926-6.4h.694Zm5.559-3.4a3.967,3.967,0,0,1-1.58-.767,1.465,1.465,0,0,1-.494-1.123,1.548,1.548,0,0,1,.6-1.25,2.4,2.4,0,0,1,1.571-.494,2.621,2.621,0,0,1,1.176.255,1.933,1.933,0,0,1,.8.7,1.8,1.8,0,0,1,.283.98h-.848a1.17,1.17,0,0,0-.369-.915A1.5,1.5,0,0,0,28.613-5.8a1.537,1.537,0,0,0-.973.275.918.918,0,0,0-.349.764.826.826,0,0,0,.332.663,3.254,3.254,0,0,0,1.129.5A5.24,5.24,0,0,1,30-3.1a1.894,1.894,0,0,1,.668.631,1.61,1.61,0,0,1,.218.848A1.5,1.5,0,0,1,30.278-.38a2.586,2.586,0,0,1-1.622.468,3.008,3.008,0,0,1-1.23-.253,2.071,2.071,0,0,1-.881-.692,1.689,1.689,0,0,1-.31-1h.848a1.1,1.1,0,0,0,.428.916A1.8,1.8,0,0,0,28.657-.6a1.658,1.658,0,0,0,1.024-.272.885.885,0,0,0,.356-.743.869.869,0,0,0-.33-.727A3.8,3.8,0,0,0,28.512-2.852ZM32.722,0h-.813V-4.755h.813Zm-.879-6.016a.485.485,0,0,1,.121-.334.454.454,0,0,1,.358-.136.461.461,0,0,1,.36.136.48.48,0,0,1,.123.334.464.464,0,0,1-.123.33.469.469,0,0,1-.36.132.462.462,0,0,1-.358-.132A.469.469,0,0,1,31.843-6.016Zm1.986,3.6a2.8,2.8,0,0,1,.514-1.769,1.644,1.644,0,0,1,1.362-.657,1.636,1.636,0,0,1,1.358.615l.04-.527h.743V-.114A1.934,1.934,0,0,1,37.3,1.34a2.019,2.019,0,0,1-1.47.532,2.446,2.446,0,0,1-1.006-.22,1.732,1.732,0,0,1-.751-.6l.422-.488a1.59,1.59,0,0,0,1.279.646A1.246,1.246,0,0,0,36.7.875a1.277,1.277,0,0,0,.332-.94V-.475A1.671,1.671,0,0,1,35.7.088a1.624,1.624,0,0,1-1.351-.672A2.938,2.938,0,0,1,33.829-2.417Zm.817.092a2.132,2.132,0,0,0,.33,1.263A1.071,1.071,0,0,0,35.9-.6a1.191,1.191,0,0,0,1.129-.7V-3.472a1.2,1.2,0,0,0-1.121-.681,1.081,1.081,0,0,0-.927.461A2.322,2.322,0,0,0,34.646-2.325Zm5.194-2.43.026.6a1.733,1.733,0,0,1,1.424-.686q1.507,0,1.521,1.7V0H42V-3.146a1.1,1.1,0,0,0-.235-.76.942.942,0,0,0-.719-.246,1.173,1.173,0,0,0-.694.211,1.432,1.432,0,0,0-.466.554V0h-.813V-4.755ZM49.2-.47a1.727,1.727,0,0,1-1.393.558A1.478,1.478,0,0,1,46.65-.354a1.912,1.912,0,0,1-.4-1.307V-4.755h.813v3.072q0,1.081.879,1.081A1.217,1.217,0,0,0,49.179-1.3V-4.755h.813V0h-.773Zm6.042-1.854a2.847,2.847,0,0,1-.5,1.749A1.592,1.592,0,0,1,53.4.088,1.744,1.744,0,0,1,52.04-.461v2.29h-.813V-4.755h.743l.04.527a1.675,1.675,0,0,1,1.38-.615,1.621,1.621,0,0,1,1.356.646,2.878,2.878,0,0,1,.5,1.8Zm-.813-.092a2.1,2.1,0,0,0-.343-1.27,1.1,1.1,0,0,0-.94-.466A1.2,1.2,0,0,0,52.04-3.5v2.272a1.2,1.2,0,0,0,1.116.65,1.1,1.1,0,0,0,.929-.464A2.293,2.293,0,0,0,54.431-2.417Z" transform="translate(1600.142 826.05)" fill="#12263f"/>
        <path id="Trazado_104496" data-name="Trazado 104496" d="M5.247-6.4v4.351A2.041,2.041,0,0,1,4.678-.567,2.293,2.293,0,0,1,3.146.079L2.922.088A2.4,2.4,0,0,1,1.248-.479a2.027,2.027,0,0,1-.633-1.56V-6.4H1.45v4.333A1.463,1.463,0,0,0,1.833-.987,1.469,1.469,0,0,0,2.922-.6a1.479,1.479,0,0,0,1.1-.382A1.461,1.461,0,0,0,4.4-2.061V-6.4ZM9.22-1.261a.6.6,0,0,0-.248-.512,2.39,2.39,0,0,0-.866-.314,4.093,4.093,0,0,1-.98-.316,1.394,1.394,0,0,1-.536-.439,1.051,1.051,0,0,1-.174-.606,1.233,1.233,0,0,1,.494-.989,1.931,1.931,0,0,1,1.263-.4,1.987,1.987,0,0,1,1.312.417,1.326,1.326,0,0,1,.5,1.068H9.171a.734.734,0,0,0-.283-.576,1.062,1.062,0,0,0-.714-.242,1.111,1.111,0,0,0-.694.193.609.609,0,0,0-.25.505.493.493,0,0,0,.233.444,2.866,2.866,0,0,0,.842.286,4.385,4.385,0,0,1,.987.325,1.439,1.439,0,0,1,.56.455,1.118,1.118,0,0,1,.182.648A1.217,1.217,0,0,1,9.523-.3,2.138,2.138,0,0,1,8.2.088a2.394,2.394,0,0,1-1.011-.2A1.644,1.644,0,0,1,6.5-.679a1.361,1.361,0,0,1-.248-.784h.813a.842.842,0,0,0,.327.648,1.27,1.27,0,0,0,.806.24,1.311,1.311,0,0,0,.74-.187A.574.574,0,0,0,9.22-1.261ZM13.065.088a2.078,2.078,0,0,1-1.573-.635,2.357,2.357,0,0,1-.606-1.7V-2.4a2.853,2.853,0,0,1,.27-1.263,2.108,2.108,0,0,1,.756-.87,1.9,1.9,0,0,1,1.052-.314,1.781,1.781,0,0,1,1.441.611,2.645,2.645,0,0,1,.514,1.749v.338H11.7a1.69,1.69,0,0,0,.411,1.136,1.292,1.292,0,0,0,1,.433,1.416,1.416,0,0,0,.729-.176,1.833,1.833,0,0,0,.523-.466l.5.387A2,2,0,0,1,13.065.088Zm-.1-4.263a1.084,1.084,0,0,0-.826.358,1.741,1.741,0,0,0-.413,1h2.382v-.062a1.548,1.548,0,0,0-.334-.96A1.021,1.021,0,0,0,12.964-4.175Zm5.194.149a2.436,2.436,0,0,0-.4-.031,1.071,1.071,0,0,0-1.085.681V0H15.86V-4.755h.791l.013.549A1.266,1.266,0,0,1,17.8-4.843a.831.831,0,0,1,.36.062ZM21.9-4.755l.026.6a1.733,1.733,0,0,1,1.424-.686q1.507,0,1.521,1.7V0H24.06V-3.146a1.1,1.1,0,0,0-.235-.76.942.942,0,0,0-.719-.246,1.173,1.173,0,0,0-.694.211,1.432,1.432,0,0,0-.466.554V0h-.813V-4.755ZM29.035,0a1.708,1.708,0,0,1-.114-.5,1.814,1.814,0,0,1-1.354.589,1.678,1.678,0,0,1-1.154-.4,1.287,1.287,0,0,1-.45-1.009,1.344,1.344,0,0,1,.565-1.154,2.662,2.662,0,0,1,1.589-.411h.791v-.374a.913.913,0,0,0-.255-.679,1.024,1.024,0,0,0-.751-.253,1.185,1.185,0,0,0-.729.22.647.647,0,0,0-.294.532H26.06a1.122,1.122,0,0,1,.253-.688A1.725,1.725,0,0,1,27-4.649a2.306,2.306,0,0,1,.951-.193,1.88,1.88,0,0,1,1.288.411A1.482,1.482,0,0,1,29.72-3.3v2.188A2.676,2.676,0,0,0,29.887-.07V0ZM27.686-.62a1.429,1.429,0,0,0,.725-.2,1.2,1.2,0,0,0,.5-.514v-.976H28.27q-1.494,0-1.494.875a.74.74,0,0,0,.255.6A.98.98,0,0,0,27.686-.62Zm4.074-4.135.022.527a1.756,1.756,0,0,1,1.411-.615,1.359,1.359,0,0,1,1.358.765,1.8,1.8,0,0,1,.617-.554,1.824,1.824,0,0,1,.9-.211q1.564,0,1.591,1.657V0h-.813V-3.138a1.092,1.092,0,0,0-.233-.762,1.026,1.026,0,0,0-.782-.253,1.078,1.078,0,0,0-.751.27,1.1,1.1,0,0,0-.347.727V0h-.817V-3.116A.907.907,0,0,0,32.9-4.153a1.088,1.088,0,0,0-1.094.681V0H30.99V-4.755Zm9.1,4.843a2.078,2.078,0,0,1-1.573-.635,2.357,2.357,0,0,1-.606-1.7V-2.4a2.853,2.853,0,0,1,.27-1.263,2.108,2.108,0,0,1,.756-.87,1.9,1.9,0,0,1,1.052-.314,1.781,1.781,0,0,1,1.441.611,2.645,2.645,0,0,1,.514,1.749v.338H39.489A1.69,1.69,0,0,0,39.9-1.009a1.292,1.292,0,0,0,1,.433,1.416,1.416,0,0,0,.729-.176,1.833,1.833,0,0,0,.523-.466l.5.387A2,2,0,0,1,40.856.088Zm-.1-4.263a1.084,1.084,0,0,0-.826.358,1.741,1.741,0,0,0-.413,1H41.9v-.062a1.548,1.548,0,0,0-.334-.96A1.021,1.021,0,0,0,40.755-4.175ZM43.813.549h-.7L45.787-6.4h.694ZM48.331-2.5V0h-.844V-6.4h2.36a2.371,2.371,0,0,1,1.646.536,1.818,1.818,0,0,1,.6,1.419,1.794,1.794,0,0,1-.582,1.435,2.477,2.477,0,0,1-1.668.5Zm0-.69h1.516a1.516,1.516,0,0,0,1.037-.319,1.167,1.167,0,0,0,.36-.922,1.206,1.206,0,0,0-.36-.916,1.42,1.42,0,0,0-.989-.357H48.331ZM55.925,0a1.708,1.708,0,0,1-.114-.5,1.814,1.814,0,0,1-1.354.589A1.678,1.678,0,0,1,53.3-.31a1.287,1.287,0,0,1-.45-1.009,1.344,1.344,0,0,1,.565-1.154,2.662,2.662,0,0,1,1.589-.411H55.8v-.374a.913.913,0,0,0-.255-.679,1.024,1.024,0,0,0-.751-.253,1.185,1.185,0,0,0-.729.22.647.647,0,0,0-.294.532H52.95a1.122,1.122,0,0,1,.253-.688,1.725,1.725,0,0,1,.686-.525,2.306,2.306,0,0,1,.951-.193,1.88,1.88,0,0,1,1.288.411A1.482,1.482,0,0,1,56.61-3.3v2.188A2.676,2.676,0,0,0,56.777-.07V0ZM54.576-.62a1.429,1.429,0,0,0,.725-.2,1.2,1.2,0,0,0,.5-.514v-.976H55.16q-1.494,0-1.494.875a.74.74,0,0,0,.255.6A.98.98,0,0,0,54.576-.62Zm6.078-.642a.6.6,0,0,0-.248-.512,2.39,2.39,0,0,0-.866-.314,4.093,4.093,0,0,1-.98-.316,1.394,1.394,0,0,1-.536-.439,1.051,1.051,0,0,1-.174-.606,1.233,1.233,0,0,1,.494-.989,1.931,1.931,0,0,1,1.263-.4,1.987,1.987,0,0,1,1.312.417,1.326,1.326,0,0,1,.5,1.068H60.6a.734.734,0,0,0-.283-.576,1.062,1.062,0,0,0-.714-.242,1.111,1.111,0,0,0-.694.193.609.609,0,0,0-.25.505.493.493,0,0,0,.233.444,2.866,2.866,0,0,0,.842.286,4.385,4.385,0,0,1,.987.325,1.439,1.439,0,0,1,.56.455,1.118,1.118,0,0,1,.182.648A1.217,1.217,0,0,1,60.957-.3a2.138,2.138,0,0,1-1.323.385,2.394,2.394,0,0,1-1.011-.2,1.644,1.644,0,0,1-.688-.565,1.361,1.361,0,0,1-.248-.784H58.5a.842.842,0,0,0,.327.648,1.27,1.27,0,0,0,.806.24,1.311,1.311,0,0,0,.74-.187A.574.574,0,0,0,60.653-1.261Zm4.641,0a.6.6,0,0,0-.248-.512,2.39,2.39,0,0,0-.866-.314A4.093,4.093,0,0,1,63.2-2.4a1.394,1.394,0,0,1-.536-.439,1.051,1.051,0,0,1-.174-.606,1.233,1.233,0,0,1,.494-.989,1.931,1.931,0,0,1,1.263-.4,1.987,1.987,0,0,1,1.312.417,1.326,1.326,0,0,1,.5,1.068h-.817a.734.734,0,0,0-.283-.576,1.062,1.062,0,0,0-.714-.242,1.111,1.111,0,0,0-.694.193.609.609,0,0,0-.25.505.493.493,0,0,0,.233.444,2.866,2.866,0,0,0,.842.286,4.385,4.385,0,0,1,.987.325,1.439,1.439,0,0,1,.56.455,1.118,1.118,0,0,1,.182.648A1.217,1.217,0,0,1,65.6-.3a2.138,2.138,0,0,1-1.323.385,2.394,2.394,0,0,1-1.011-.2,1.644,1.644,0,0,1-.688-.565,1.361,1.361,0,0,1-.248-.784h.813a.842.842,0,0,0,.327.648,1.27,1.27,0,0,0,.806.24,1.311,1.311,0,0,0,.74-.187A.574.574,0,0,0,65.294-1.261Zm6.082.141.914-3.634H73.1L71.719,0H71.06L69.9-3.6,68.779,0H68.12L66.74-4.755h.809l.936,3.56,1.107-3.56h.655Zm2.338-1.3a2.808,2.808,0,0,1,.275-1.257,2.049,2.049,0,0,1,.765-.861,2.081,2.081,0,0,1,1.118-.3,2.005,2.005,0,0,1,1.571.672,2.587,2.587,0,0,1,.6,1.789v.057a2.833,2.833,0,0,1-.266,1.246,2.019,2.019,0,0,1-.76.859A2.105,2.105,0,0,1,75.88.088a2,2,0,0,1-1.567-.672,2.574,2.574,0,0,1-.6-1.78Zm.817.1a2.034,2.034,0,0,0,.367,1.27,1.174,1.174,0,0,0,.982.479,1.167,1.167,0,0,0,.984-.486,2.224,2.224,0,0,0,.365-1.36,2.031,2.031,0,0,0-.371-1.268,1.181,1.181,0,0,0-.987-.486A1.167,1.167,0,0,0,74.9-3.7,2.208,2.208,0,0,0,74.531-2.325Zm6.829-1.7a2.436,2.436,0,0,0-.4-.031,1.071,1.071,0,0,0-1.085.681V0h-.813V-4.755h.791l.013.549A1.266,1.266,0,0,1,81-4.843a.831.831,0,0,1,.36.062Zm.466,1.608a2.785,2.785,0,0,1,.519-1.76A1.64,1.64,0,0,1,83.7-4.843a1.649,1.649,0,0,1,1.323.571V-6.75h.813V0h-.747l-.04-.51a1.656,1.656,0,0,1-1.358.6,1.624,1.624,0,0,1-1.347-.677,2.817,2.817,0,0,1-.521-1.767Zm.813.092a2.109,2.109,0,0,0,.334,1.266A1.08,1.08,0,0,0,83.9-.6,1.186,1.186,0,0,0,85.025-1.3V-3.48A1.2,1.2,0,0,0,83.9-4.153a1.085,1.085,0,0,0-.932.461A2.322,2.322,0,0,0,82.639-2.325Z" transform="translate(1585.142 939.507)" fill="#12263f"/>
        <path id="Trazado_104499" data-name="Trazado 104499" d="M-39.85-6.4v4.351a2.041,2.041,0,0,1-.569,1.481A2.293,2.293,0,0,1-41.95.079l-.224.009a2.4,2.4,0,0,1-1.674-.567,2.027,2.027,0,0,1-.633-1.56V-6.4h.835v4.333a1.463,1.463,0,0,0,.382,1.079,1.469,1.469,0,0,0,1.09.385,1.479,1.479,0,0,0,1.1-.382,1.461,1.461,0,0,0,.38-1.077V-6.4Zm3.973,5.137a.6.6,0,0,0-.248-.512,2.39,2.39,0,0,0-.866-.314,4.093,4.093,0,0,1-.98-.316,1.394,1.394,0,0,1-.536-.439,1.051,1.051,0,0,1-.174-.606,1.233,1.233,0,0,1,.494-.989,1.931,1.931,0,0,1,1.263-.4,1.987,1.987,0,0,1,1.312.417,1.326,1.326,0,0,1,.5,1.068h-.817a.734.734,0,0,0-.283-.576,1.062,1.062,0,0,0-.714-.242,1.111,1.111,0,0,0-.694.193.609.609,0,0,0-.25.505.493.493,0,0,0,.233.444,2.866,2.866,0,0,0,.842.286,4.385,4.385,0,0,1,.987.325,1.439,1.439,0,0,1,.56.455,1.118,1.118,0,0,1,.182.648A1.217,1.217,0,0,1-35.574-.3,2.138,2.138,0,0,1-36.9.088a2.394,2.394,0,0,1-1.011-.2,1.644,1.644,0,0,1-.688-.565,1.361,1.361,0,0,1-.248-.784h.813a.842.842,0,0,0,.327.648,1.27,1.27,0,0,0,.806.24,1.311,1.311,0,0,0,.74-.187A.574.574,0,0,0-35.877-1.261ZM-32.032.088A2.078,2.078,0,0,1-33.6-.547a2.357,2.357,0,0,1-.606-1.7V-2.4a2.853,2.853,0,0,1,.27-1.263,2.108,2.108,0,0,1,.756-.87,1.9,1.9,0,0,1,1.052-.314,1.781,1.781,0,0,1,1.441.611,2.645,2.645,0,0,1,.514,1.749v.338H-33.4a1.69,1.69,0,0,0,.411,1.136,1.292,1.292,0,0,0,1,.433,1.416,1.416,0,0,0,.729-.176,1.833,1.833,0,0,0,.523-.466l.5.387A2,2,0,0,1-32.032.088Zm-.1-4.263a1.084,1.084,0,0,0-.826.358,1.741,1.741,0,0,0-.413,1h2.382v-.062a1.548,1.548,0,0,0-.334-.96A1.021,1.021,0,0,0-32.133-4.175Zm5.194.149a2.436,2.436,0,0,0-.4-.031,1.071,1.071,0,0,0-1.085.681V0h-.813V-4.755h.791l.013.549A1.266,1.266,0,0,1-27.3-4.843a.831.831,0,0,1,.36.062Zm3.744-.729.026.6a1.733,1.733,0,0,1,1.424-.686q1.507,0,1.521,1.7V0h-.813V-3.146a1.1,1.1,0,0,0-.235-.76.942.942,0,0,0-.719-.246,1.173,1.173,0,0,0-.694.211,1.432,1.432,0,0,0-.466.554V0h-.813V-4.755ZM-16.062,0a1.708,1.708,0,0,1-.114-.5A1.814,1.814,0,0,1-17.53.088a1.678,1.678,0,0,1-1.154-.4,1.287,1.287,0,0,1-.45-1.009,1.344,1.344,0,0,1,.565-1.154,2.662,2.662,0,0,1,1.589-.411h.791v-.374a.913.913,0,0,0-.255-.679,1.024,1.024,0,0,0-.751-.253,1.185,1.185,0,0,0-.729.22.647.647,0,0,0-.294.532h-.817a1.122,1.122,0,0,1,.253-.688,1.725,1.725,0,0,1,.686-.525,2.306,2.306,0,0,1,.951-.193,1.88,1.88,0,0,1,1.288.411A1.482,1.482,0,0,1-15.376-3.3v2.188A2.676,2.676,0,0,0-15.209-.07V0Zm-1.349-.62a1.429,1.429,0,0,0,.725-.2,1.2,1.2,0,0,0,.5-.514v-.976h-.637q-1.494,0-1.494.875a.74.74,0,0,0,.255.6A.98.98,0,0,0-17.411-.62Zm4.074-4.135.022.527A1.756,1.756,0,0,1-11.9-4.843a1.359,1.359,0,0,1,1.358.765,1.8,1.8,0,0,1,.617-.554,1.824,1.824,0,0,1,.9-.211q1.564,0,1.591,1.657V0h-.813V-3.138A1.092,1.092,0,0,0-8.486-3.9a1.026,1.026,0,0,0-.782-.253,1.078,1.078,0,0,0-.751.27,1.1,1.1,0,0,0-.347.727V0h-.817V-3.116A.907.907,0,0,0-12.2-4.153a1.088,1.088,0,0,0-1.094.681V0h-.813V-4.755Zm9.1,4.843A2.078,2.078,0,0,1-5.814-.547a2.357,2.357,0,0,1-.606-1.7V-2.4a2.853,2.853,0,0,1,.27-1.263,2.108,2.108,0,0,1,.756-.87,1.9,1.9,0,0,1,1.052-.314A1.781,1.781,0,0,1-2.9-4.232a2.645,2.645,0,0,1,.514,1.749v.338H-5.607A1.69,1.69,0,0,0-5.2-1.009a1.292,1.292,0,0,0,1,.433,1.416,1.416,0,0,0,.729-.176,1.833,1.833,0,0,0,.523-.466l.5.387A2,2,0,0,1-4.241.088Zm-.1-4.263a1.084,1.084,0,0,0-.826.358,1.741,1.741,0,0,0-.413,1H-3.2v-.062a1.548,1.548,0,0,0-.334-.96A1.021,1.021,0,0,0-4.342-4.175ZM-1.283.549h-.7L.69-6.4h.694ZM3.234-2.5V0H2.391V-6.4H4.75A2.371,2.371,0,0,1,6.4-5.862a1.818,1.818,0,0,1,.6,1.419,1.794,1.794,0,0,1-.582,1.435,2.477,2.477,0,0,1-1.668.5Zm0-.69H4.75a1.516,1.516,0,0,0,1.037-.319,1.167,1.167,0,0,0,.36-.922,1.206,1.206,0,0,0-.36-.916A1.42,1.42,0,0,0,4.8-5.708H3.234ZM10.828,0a1.708,1.708,0,0,1-.114-.5A1.814,1.814,0,0,1,9.36.088a1.678,1.678,0,0,1-1.154-.4,1.287,1.287,0,0,1-.45-1.009,1.344,1.344,0,0,1,.565-1.154A2.662,2.662,0,0,1,9.91-2.883H10.7v-.374a.913.913,0,0,0-.255-.679,1.024,1.024,0,0,0-.751-.253,1.185,1.185,0,0,0-.729.22.647.647,0,0,0-.294.532H7.853a1.122,1.122,0,0,1,.253-.688,1.725,1.725,0,0,1,.686-.525,2.306,2.306,0,0,1,.951-.193,1.88,1.88,0,0,1,1.288.411A1.482,1.482,0,0,1,11.514-3.3v2.188A2.676,2.676,0,0,0,11.681-.07V0ZM9.479-.62a1.429,1.429,0,0,0,.725-.2,1.2,1.2,0,0,0,.5-.514v-.976h-.637q-1.494,0-1.494.875a.74.74,0,0,0,.255.6A.98.98,0,0,0,9.479-.62Zm6.078-.642a.6.6,0,0,0-.248-.512,2.39,2.39,0,0,0-.866-.314,4.093,4.093,0,0,1-.98-.316,1.394,1.394,0,0,1-.536-.439,1.051,1.051,0,0,1-.174-.606,1.233,1.233,0,0,1,.494-.989,1.931,1.931,0,0,1,1.263-.4,1.987,1.987,0,0,1,1.312.417,1.326,1.326,0,0,1,.5,1.068h-.817a.734.734,0,0,0-.283-.576,1.062,1.062,0,0,0-.714-.242,1.111,1.111,0,0,0-.694.193.609.609,0,0,0-.25.505.493.493,0,0,0,.233.444,2.866,2.866,0,0,0,.842.286,4.385,4.385,0,0,1,.987.325,1.439,1.439,0,0,1,.56.455,1.118,1.118,0,0,1,.182.648A1.217,1.217,0,0,1,15.86-.3a2.138,2.138,0,0,1-1.323.385,2.394,2.394,0,0,1-1.011-.2,1.644,1.644,0,0,1-.688-.565,1.361,1.361,0,0,1-.248-.784H13.4a.842.842,0,0,0,.327.648,1.27,1.27,0,0,0,.806.24,1.311,1.311,0,0,0,.74-.187A.574.574,0,0,0,15.557-1.261Zm4.641,0a.6.6,0,0,0-.248-.512,2.39,2.39,0,0,0-.866-.314A4.093,4.093,0,0,1,18.1-2.4a1.394,1.394,0,0,1-.536-.439,1.051,1.051,0,0,1-.174-.606,1.233,1.233,0,0,1,.494-.989,1.931,1.931,0,0,1,1.263-.4,1.987,1.987,0,0,1,1.312.417,1.326,1.326,0,0,1,.5,1.068h-.817a.734.734,0,0,0-.283-.576,1.062,1.062,0,0,0-.714-.242,1.111,1.111,0,0,0-.694.193.609.609,0,0,0-.25.505.493.493,0,0,0,.233.444,2.866,2.866,0,0,0,.842.286,4.385,4.385,0,0,1,.987.325,1.439,1.439,0,0,1,.56.455,1.118,1.118,0,0,1,.182.648A1.217,1.217,0,0,1,20.5-.3a2.138,2.138,0,0,1-1.323.385,2.394,2.394,0,0,1-1.011-.2,1.644,1.644,0,0,1-.688-.565,1.361,1.361,0,0,1-.248-.784h.813a.842.842,0,0,0,.327.648,1.27,1.27,0,0,0,.806.24,1.311,1.311,0,0,0,.74-.187A.574.574,0,0,0,20.2-1.261Zm6.082.141.914-3.634h.813L26.622,0h-.659L24.807-3.6,23.682,0h-.659l-1.38-4.755h.809l.936,3.56L24.5-4.755h.655Zm2.338-1.3a2.808,2.808,0,0,1,.275-1.257,2.049,2.049,0,0,1,.765-.861,2.081,2.081,0,0,1,1.118-.3,2.005,2.005,0,0,1,1.571.672,2.587,2.587,0,0,1,.6,1.789v.057a2.833,2.833,0,0,1-.266,1.246,2.019,2.019,0,0,1-.76.859,2.105,2.105,0,0,1-1.136.308,2,2,0,0,1-1.567-.672,2.574,2.574,0,0,1-.6-1.78Zm.817.1a2.034,2.034,0,0,0,.367,1.27,1.174,1.174,0,0,0,.982.479,1.167,1.167,0,0,0,.984-.486,2.224,2.224,0,0,0,.365-1.36,2.031,2.031,0,0,0-.371-1.268,1.181,1.181,0,0,0-.987-.486A1.167,1.167,0,0,0,29.8-3.7,2.208,2.208,0,0,0,29.435-2.325Zm6.829-1.7a2.436,2.436,0,0,0-.4-.031,1.071,1.071,0,0,0-1.085.681V0h-.813V-4.755h.791l.013.549A1.266,1.266,0,0,1,35.9-4.843a.831.831,0,0,1,.36.062Zm.466,1.608a2.785,2.785,0,0,1,.519-1.76,1.64,1.64,0,0,1,1.358-.666,1.649,1.649,0,0,1,1.323.571V-6.75h.813V0h-.747l-.04-.51a1.656,1.656,0,0,1-1.358.6A1.624,1.624,0,0,1,37.25-.589a2.817,2.817,0,0,1-.521-1.767Zm.813.092a2.109,2.109,0,0,0,.334,1.266A1.08,1.08,0,0,0,38.8-.6,1.186,1.186,0,0,0,39.929-1.3V-3.48a1.2,1.2,0,0,0-1.121-.672,1.085,1.085,0,0,0-.932.461A2.322,2.322,0,0,0,37.542-2.325ZM42.166.549h-.7L44.139-6.4h.694Zm-71,9.539A2.078,2.078,0,0,1-30.4,9.453a2.357,2.357,0,0,1-.606-1.7V7.6a2.853,2.853,0,0,1,.27-1.263,2.108,2.108,0,0,1,.756-.87,1.9,1.9,0,0,1,1.052-.314,1.781,1.781,0,0,1,1.441.611,2.645,2.645,0,0,1,.514,1.749v.338H-30.2a1.69,1.69,0,0,0,.411,1.136,1.292,1.292,0,0,0,1,.433,1.416,1.416,0,0,0,.729-.176,1.833,1.833,0,0,0,.523-.466l.5.387A2,2,0,0,1-28.83,10.088Zm-.1-4.263a1.084,1.084,0,0,0-.826.358,1.741,1.741,0,0,0-.413,1h2.382V7.126a1.548,1.548,0,0,0-.334-.96A1.021,1.021,0,0,0-28.931,5.825Zm3.661-.58.022.527a1.756,1.756,0,0,1,1.411-.615,1.359,1.359,0,0,1,1.358.765,1.8,1.8,0,0,1,.617-.554,1.824,1.824,0,0,1,.9-.211q1.564,0,1.591,1.657V10h-.813V6.862a1.092,1.092,0,0,0-.233-.762,1.026,1.026,0,0,0-.782-.253,1.078,1.078,0,0,0-.751.27,1.1,1.1,0,0,0-.347.727V10h-.817V6.884a.907.907,0,0,0-1.015-1.037,1.088,1.088,0,0,0-1.094.681V10h-.813V5.245ZM-15.212,10a1.708,1.708,0,0,1-.114-.5,1.814,1.814,0,0,1-1.354.589,1.678,1.678,0,0,1-1.154-.4,1.287,1.287,0,0,1-.45-1.009,1.344,1.344,0,0,1,.565-1.154,2.662,2.662,0,0,1,1.589-.411h.791V6.744a.913.913,0,0,0-.255-.679,1.024,1.024,0,0,0-.751-.253,1.185,1.185,0,0,0-.729.22.647.647,0,0,0-.294.532h-.817a1.122,1.122,0,0,1,.253-.688,1.725,1.725,0,0,1,.686-.525,2.306,2.306,0,0,1,.951-.193,1.88,1.88,0,0,1,1.288.411A1.482,1.482,0,0,1-14.526,6.7V8.888a2.676,2.676,0,0,0,.167,1.042V10Zm-1.349-.62a1.429,1.429,0,0,0,.725-.2,1.2,1.2,0,0,0,.5-.514V7.693h-.637q-1.494,0-1.494.875a.74.74,0,0,0,.255.6A.98.98,0,0,0-16.561,9.38Zm4.192.62h-.813V5.245h.813Zm-.879-6.016a.485.485,0,0,1,.121-.334.454.454,0,0,1,.358-.136.461.461,0,0,1,.36.136.48.48,0,0,1,.123.334.464.464,0,0,1-.123.33.469.469,0,0,1-.36.132.462.462,0,0,1-.358-.132A.469.469,0,0,1-13.247,3.984ZM-10.184,10H-11V3.25h.813Zm3.5-2.6A6.794,6.794,0,0,1-6.42,5.5a5.54,5.54,0,0,1,.793-1.661A3.374,3.374,0,0,1-4.533,2.78l.167.536a3.5,3.5,0,0,0-1.052,1.5,6.515,6.515,0,0,0-.45,2.263l0,.374a6.549,6.549,0,0,0,.62,2.944,3.517,3.517,0,0,0,.888,1.169l-.167.5a3.483,3.483,0,0,1-1.116-1.09A6.108,6.108,0,0,1-6.686,7.4Zm2.892.176A2.808,2.808,0,0,1-3.52,6.322a2.049,2.049,0,0,1,.765-.861,2.081,2.081,0,0,1,1.118-.3A2.005,2.005,0,0,1-.066,5.83a2.587,2.587,0,0,1,.6,1.789v.057A2.833,2.833,0,0,1,.268,8.921a2.019,2.019,0,0,1-.76.859,2.105,2.105,0,0,1-1.136.308,2,2,0,0,1-1.567-.672,2.574,2.574,0,0,1-.6-1.78Zm.817.1a2.034,2.034,0,0,0,.367,1.27,1.174,1.174,0,0,0,.982.479,1.167,1.167,0,0,0,.984-.486,2.224,2.224,0,0,0,.365-1.36A2.031,2.031,0,0,0-.65,6.311a1.181,1.181,0,0,0-.987-.486,1.167,1.167,0,0,0-.971.479A2.208,2.208,0,0,0-2.977,7.675Zm8.547,0a2.847,2.847,0,0,1-.5,1.749,1.592,1.592,0,0,1-1.345.664,1.744,1.744,0,0,1-1.362-.549v2.29H1.553V5.245H2.3l.04.527a1.675,1.675,0,0,1,1.38-.615A1.621,1.621,0,0,1,5.071,5.8a2.878,2.878,0,0,1,.5,1.8Zm-.813-.092a2.1,2.1,0,0,0-.343-1.27,1.1,1.1,0,0,0-.94-.466A1.2,1.2,0,0,0,2.366,6.5V8.774a1.2,1.2,0,0,0,1.116.65,1.1,1.1,0,0,0,.929-.464A2.293,2.293,0,0,0,4.757,7.583ZM7.706,4.094V5.245h.888v.628H7.706V8.826a.66.66,0,0,0,.119.429.5.5,0,0,0,.4.143,1.968,1.968,0,0,0,.387-.053V10a2.371,2.371,0,0,1-.624.087,1.012,1.012,0,0,1-.822-.33,1.416,1.416,0,0,1-.277-.936V5.874H6.027V5.245h.866V4.094ZM10.426,10H9.613V5.245h.813ZM9.547,3.984a.485.485,0,0,1,.121-.334.454.454,0,0,1,.358-.136.461.461,0,0,1,.36.136.48.48,0,0,1,.123.334.464.464,0,0,1-.123.33.469.469,0,0,1-.36.132.462.462,0,0,1-.358-.132A.469.469,0,0,1,9.547,3.984Zm1.964,3.595a2.808,2.808,0,0,1,.275-1.257,2.049,2.049,0,0,1,.765-.861,2.081,2.081,0,0,1,1.118-.3,2.005,2.005,0,0,1,1.571.672,2.587,2.587,0,0,1,.6,1.789v.057a2.833,2.833,0,0,1-.266,1.246,2.019,2.019,0,0,1-.76.859,2.105,2.105,0,0,1-1.136.308,2,2,0,0,1-1.567-.672,2.574,2.574,0,0,1-.6-1.78Zm.817.1a2.034,2.034,0,0,0,.367,1.27,1.243,1.243,0,0,0,1.967-.007,2.224,2.224,0,0,0,.365-1.36,2.031,2.031,0,0,0-.371-1.268,1.181,1.181,0,0,0-.987-.486A1.167,1.167,0,0,0,12.7,6.3,2.208,2.208,0,0,0,12.329,7.675Zm5.3-2.43.026.6a1.733,1.733,0,0,1,1.424-.686q1.507,0,1.521,1.7V10h-.813V6.854a1.1,1.1,0,0,0-.235-.76.942.942,0,0,0-.719-.246,1.173,1.173,0,0,0-.694.211,1.432,1.432,0,0,0-.466.554V10H16.86V5.245ZM24.761,10a1.708,1.708,0,0,1-.114-.5,1.814,1.814,0,0,1-1.354.589,1.678,1.678,0,0,1-1.154-.4,1.287,1.287,0,0,1-.45-1.009,1.344,1.344,0,0,1,.565-1.154,2.662,2.662,0,0,1,1.589-.411h.791V6.744a.913.913,0,0,0-.255-.679,1.024,1.024,0,0,0-.751-.253,1.185,1.185,0,0,0-.729.22.647.647,0,0,0-.294.532h-.817a1.122,1.122,0,0,1,.253-.688,1.725,1.725,0,0,1,.686-.525,2.306,2.306,0,0,1,.951-.193,1.88,1.88,0,0,1,1.288.411A1.482,1.482,0,0,1,25.447,6.7V8.888a2.676,2.676,0,0,0,.167,1.042V10Zm-1.349-.62a1.429,1.429,0,0,0,.725-.2,1.2,1.2,0,0,0,.5-.514V7.693H24q-1.494,0-1.494.875a.74.74,0,0,0,.255.6A.98.98,0,0,0,23.412,9.38ZM27.6,10h-.813V3.25H27.6Zm3.177-2.553a6.8,6.8,0,0,1-.257,1.879,5.555,5.555,0,0,1-.787,1.659,3.446,3.446,0,0,1-1.11,1.081l-.171-.5a3.533,3.533,0,0,0,1.088-1.611,6.968,6.968,0,0,0,.42-2.424V7.394a7.234,7.234,0,0,0-.193-1.716,5.792,5.792,0,0,0-.538-1.422,3.284,3.284,0,0,0-.776-.98l.171-.5a3.433,3.433,0,0,1,1.105,1.072,5.567,5.567,0,0,1,.787,1.657A6.954,6.954,0,0,1,30.781,7.447Zm-55.7,10.523a2.354,2.354,0,0,1-.749,1.567,2.456,2.456,0,0,1-1.677.552,2.255,2.255,0,0,1-1.817-.813,3.271,3.271,0,0,1-.683-2.175v-.615a3.646,3.646,0,0,1,.319-1.569,2.38,2.38,0,0,1,.9-1.039,2.514,2.514,0,0,1,1.354-.363,2.312,2.312,0,0,1,1.635.569,2.382,2.382,0,0,1,.716,1.575h-.848a1.838,1.838,0,0,0-.477-1.111A1.443,1.443,0,0,0-27.27,14.2a1.51,1.51,0,0,0-1.268.6A2.746,2.746,0,0,0-29,16.5v.62a2.823,2.823,0,0,0,.435,1.658,1.406,1.406,0,0,0,1.217.616,1.624,1.624,0,0,0,1.079-.319,1.768,1.768,0,0,0,.5-1.11Zm3.322-2a2.436,2.436,0,0,0-.4-.031,1.071,1.071,0,0,0-1.085.681V20H-23.9V15.245h.791l.013.549a1.266,1.266,0,0,1,1.134-.637.831.831,0,0,1,.36.062Zm2.637,4.113a2.078,2.078,0,0,1-1.573-.635,2.357,2.357,0,0,1-.606-1.7V17.6a2.853,2.853,0,0,1,.27-1.263,2.108,2.108,0,0,1,.756-.87,1.9,1.9,0,0,1,1.052-.314,1.781,1.781,0,0,1,1.441.611,2.645,2.645,0,0,1,.514,1.749v.338h-3.221a1.69,1.69,0,0,0,.411,1.136,1.292,1.292,0,0,0,1,.433,1.416,1.416,0,0,0,.729-.176,1.833,1.833,0,0,0,.523-.466l.5.387A2,2,0,0,1-18.96,20.088Zm-.1-4.263a1.084,1.084,0,0,0-.826.358,1.741,1.741,0,0,0-.413,1h2.382v-.062a1.548,1.548,0,0,0-.334-.96A1.021,1.021,0,0,0-19.061,15.825ZM-13.23,20a1.708,1.708,0,0,1-.114-.5,1.814,1.814,0,0,1-1.354.589,1.678,1.678,0,0,1-1.154-.4,1.287,1.287,0,0,1-.45-1.009,1.344,1.344,0,0,1,.565-1.154,2.662,2.662,0,0,1,1.589-.411h.791v-.374a.913.913,0,0,0-.255-.679,1.024,1.024,0,0,0-.751-.253,1.185,1.185,0,0,0-.729.22.647.647,0,0,0-.294.532H-16.2a1.122,1.122,0,0,1,.253-.688,1.725,1.725,0,0,1,.686-.525,2.306,2.306,0,0,1,.951-.193,1.88,1.88,0,0,1,1.288.411,1.482,1.482,0,0,1,.483,1.132v2.188a2.676,2.676,0,0,0,.167,1.042V20Zm-1.349-.62a1.429,1.429,0,0,0,.725-.2,1.2,1.2,0,0,0,.5-.514v-.976h-.637q-1.494,0-1.494.875a.74.74,0,0,0,.255.6A.98.98,0,0,0-14.579,19.38Zm4.412-5.287v1.151h.888v.628h-.888v2.952a.66.66,0,0,0,.119.429.5.5,0,0,0,.4.143,1.968,1.968,0,0,0,.387-.053V20a2.371,2.371,0,0,1-.624.087,1.012,1.012,0,0,1-.822-.33,1.416,1.416,0,0,1-.277-.936V15.874h-.866v-.628h.866V14.094Zm3.81,5.994a2.078,2.078,0,0,1-1.573-.635,2.357,2.357,0,0,1-.606-1.7V17.6a2.853,2.853,0,0,1,.27-1.263,2.108,2.108,0,0,1,.756-.87,1.9,1.9,0,0,1,1.052-.314,1.781,1.781,0,0,1,1.441.611A2.645,2.645,0,0,1-4.5,17.517v.338H-7.723a1.69,1.69,0,0,0,.411,1.136,1.292,1.292,0,0,0,1,.433,1.416,1.416,0,0,0,.729-.176,1.833,1.833,0,0,0,.523-.466l.5.387A2,2,0,0,1-6.357,20.088Zm-.1-4.263a1.084,1.084,0,0,0-.826.358,1.741,1.741,0,0,0-.413,1h2.382v-.062a1.548,1.548,0,0,0-.334-.96A1.021,1.021,0,0,0-6.458,15.825ZM1.6,20a1.708,1.708,0,0,1-.114-.5,1.814,1.814,0,0,1-1.354.589,1.678,1.678,0,0,1-1.154-.4,1.287,1.287,0,0,1-.45-1.009,1.344,1.344,0,0,1,.565-1.154,2.662,2.662,0,0,1,1.589-.411h.791v-.374a.913.913,0,0,0-.255-.679,1.024,1.024,0,0,0-.751-.253,1.185,1.185,0,0,0-.729.22.647.647,0,0,0-.294.532h-.817a1.122,1.122,0,0,1,.253-.688,1.725,1.725,0,0,1,.686-.525,2.306,2.306,0,0,1,.951-.193,1.88,1.88,0,0,1,1.288.411A1.482,1.482,0,0,1,2.287,16.7v2.188a2.676,2.676,0,0,0,.167,1.042V20ZM.253,19.38a1.429,1.429,0,0,0,.725-.2,1.2,1.2,0,0,0,.5-.514v-.976H.837q-1.494,0-1.494.875a.74.74,0,0,0,.255.6A.98.98,0,0,0,.253,19.38Zm5.216.044a1.171,1.171,0,0,0,.76-.264.928.928,0,0,0,.36-.659h.769a1.474,1.474,0,0,1-.281.778,1.852,1.852,0,0,1-.692.589,2,2,0,0,1-.916.22,1.959,1.959,0,0,1-1.545-.648,2.582,2.582,0,0,1-.573-1.773V17.53A2.863,2.863,0,0,1,3.606,16.3a1.941,1.941,0,0,1,.732-.839,2.078,2.078,0,0,1,1.127-.3,1.907,1.907,0,0,1,1.329.479,1.712,1.712,0,0,1,.565,1.244H6.59a1.12,1.12,0,0,0-.349-.758,1.087,1.087,0,0,0-.776-.3,1.138,1.138,0,0,0-.96.446,2.1,2.1,0,0,0-.341,1.29v.154A2.053,2.053,0,0,0,4.5,18.98,1.143,1.143,0,0,0,5.469,19.424Zm4.711,0a1.171,1.171,0,0,0,.76-.264.928.928,0,0,0,.36-.659h.769a1.474,1.474,0,0,1-.281.778,1.852,1.852,0,0,1-.692.589,2,2,0,0,1-.916.22,1.959,1.959,0,0,1-1.545-.648,2.582,2.582,0,0,1-.573-1.773V17.53A2.863,2.863,0,0,1,8.317,16.3a1.941,1.941,0,0,1,.732-.839,2.078,2.078,0,0,1,1.127-.3,1.907,1.907,0,0,1,1.329.479,1.712,1.712,0,0,1,.565,1.244H11.3a1.12,1.12,0,0,0-.349-.758,1.087,1.087,0,0,0-.776-.3,1.138,1.138,0,0,0-.96.446,2.1,2.1,0,0,0-.341,1.29v.154a2.053,2.053,0,0,0,.338,1.266A1.143,1.143,0,0,0,10.18,19.424Zm2.588-1.846a2.808,2.808,0,0,1,.275-1.257,2.049,2.049,0,0,1,.765-.861,2.081,2.081,0,0,1,1.118-.3,2.005,2.005,0,0,1,1.571.672,2.587,2.587,0,0,1,.6,1.789v.057a2.833,2.833,0,0,1-.266,1.246,2.019,2.019,0,0,1-.76.859,2.105,2.105,0,0,1-1.136.308,2,2,0,0,1-1.567-.672,2.574,2.574,0,0,1-.6-1.78Zm.817.1a2.034,2.034,0,0,0,.367,1.27,1.243,1.243,0,0,0,1.967-.007,2.224,2.224,0,0,0,.365-1.36,2.031,2.031,0,0,0-.371-1.268,1.181,1.181,0,0,0-.987-.486,1.167,1.167,0,0,0-.971.479A2.208,2.208,0,0,0,13.586,17.675Zm7.466,1.854a1.727,1.727,0,0,1-1.393.558,1.478,1.478,0,0,1-1.158-.442,1.912,1.912,0,0,1-.4-1.307V15.245h.813v3.072q0,1.081.879,1.081A1.217,1.217,0,0,0,21.03,18.7V15.245h.813V20H21.07Zm2.795-4.285.026.6a1.733,1.733,0,0,1,1.424-.686q1.507,0,1.521,1.7V20H26V16.854a1.1,1.1,0,0,0-.235-.76.942.942,0,0,0-.719-.246,1.173,1.173,0,0,0-.694.211,1.432,1.432,0,0,0-.466.554V20h-.813V15.245Zm5.3-1.151v1.151h.888v.628h-.888v2.952a.66.66,0,0,0,.119.429.5.5,0,0,0,.4.143,1.968,1.968,0,0,0,.387-.053V20a2.371,2.371,0,0,1-.624.087,1.012,1.012,0,0,1-.822-.33,1.416,1.416,0,0,1-.277-.936V15.874h-.866v-.628h.866V14.094Z" transform="translate(1906.142 1057.396)" fill="#12263f"/>
        <path id="Trazado_104497" data-name="Trazado 104497" d="M5.66,0H4.812L1.591-4.931V0H.743V-6.4h.848l3.23,4.953V-6.4H5.66ZM9,.088A2.078,2.078,0,0,1,7.431-.547a2.357,2.357,0,0,1-.606-1.7V-2.4a2.853,2.853,0,0,1,.27-1.263,2.108,2.108,0,0,1,.756-.87A1.9,1.9,0,0,1,8.9-4.843a1.781,1.781,0,0,1,1.441.611,2.645,2.645,0,0,1,.514,1.749v.338H7.638a1.69,1.69,0,0,0,.411,1.136,1.292,1.292,0,0,0,1,.433,1.416,1.416,0,0,0,.729-.176,1.833,1.833,0,0,0,.523-.466l.5.387A2,2,0,0,1,9,.088ZM8.9-4.175a1.084,1.084,0,0,0-.826.358,1.741,1.741,0,0,0-.413,1h2.382v-.062a1.548,1.548,0,0,0-.334-.96A1.021,1.021,0,0,0,8.9-4.175Zm7.106,3.054.914-3.634h.813L16.352,0h-.659L14.537-3.6,13.412,0h-.659l-1.38-4.755h.809l.936,3.56,1.107-3.56h.655Zm7.717.65a1.727,1.727,0,0,1-1.393.558,1.478,1.478,0,0,1-1.158-.442,1.912,1.912,0,0,1-.4-1.307V-4.755h.813v3.072q0,1.081.879,1.081A1.217,1.217,0,0,0,23.7-1.3V-4.755h.813V0h-.773Zm4.794-.791a.6.6,0,0,0-.248-.512,2.39,2.39,0,0,0-.866-.314,4.093,4.093,0,0,1-.98-.316,1.394,1.394,0,0,1-.536-.439,1.051,1.051,0,0,1-.174-.606,1.233,1.233,0,0,1,.494-.989,1.931,1.931,0,0,1,1.263-.4,1.987,1.987,0,0,1,1.312.417,1.326,1.326,0,0,1,.5,1.068h-.817a.734.734,0,0,0-.283-.576,1.062,1.062,0,0,0-.714-.242,1.111,1.111,0,0,0-.694.193.609.609,0,0,0-.25.505.493.493,0,0,0,.233.444,2.866,2.866,0,0,0,.842.286,4.385,4.385,0,0,1,.987.325,1.439,1.439,0,0,1,.56.455,1.118,1.118,0,0,1,.182.648A1.217,1.217,0,0,1,28.824-.3,2.138,2.138,0,0,1,27.5.088a2.394,2.394,0,0,1-1.011-.2A1.644,1.644,0,0,1,25.8-.679a1.361,1.361,0,0,1-.248-.784h.813a.842.842,0,0,0,.327.648,1.27,1.27,0,0,0,.806.24,1.311,1.311,0,0,0,.74-.187A.574.574,0,0,0,28.521-1.261ZM32.366.088a2.078,2.078,0,0,1-1.573-.635,2.357,2.357,0,0,1-.606-1.7V-2.4a2.853,2.853,0,0,1,.27-1.263,2.108,2.108,0,0,1,.756-.87,1.9,1.9,0,0,1,1.052-.314,1.781,1.781,0,0,1,1.441.611,2.645,2.645,0,0,1,.514,1.749v.338H31a1.69,1.69,0,0,0,.411,1.136,1.292,1.292,0,0,0,1,.433,1.416,1.416,0,0,0,.729-.176,1.833,1.833,0,0,0,.523-.466l.5.387A2,2,0,0,1,32.366.088Zm-.1-4.263a1.084,1.084,0,0,0-.826.358,1.741,1.741,0,0,0-.413,1h2.382v-.062a1.548,1.548,0,0,0-.334-.96A1.021,1.021,0,0,0,32.265-4.175Zm5.194.149a2.436,2.436,0,0,0-.4-.031,1.071,1.071,0,0,0-1.085.681V0h-.813V-4.755h.791l.013.549A1.266,1.266,0,0,1,37.1-4.843a.831.831,0,0,1,.36.062Zm5.273,0a2.436,2.436,0,0,0-.4-.031,1.071,1.071,0,0,0-1.085.681V0h-.813V-4.755h.791l.013.549a1.266,1.266,0,0,1,1.134-.637.831.831,0,0,1,.36.062ZM45.369.088A2.078,2.078,0,0,1,43.8-.547a2.357,2.357,0,0,1-.606-1.7V-2.4a2.853,2.853,0,0,1,.27-1.263,2.108,2.108,0,0,1,.756-.87,1.9,1.9,0,0,1,1.052-.314,1.781,1.781,0,0,1,1.441.611,2.645,2.645,0,0,1,.514,1.749v.338H44a1.69,1.69,0,0,0,.411,1.136,1.292,1.292,0,0,0,1,.433,1.416,1.416,0,0,0,.729-.176,1.833,1.833,0,0,0,.523-.466l.5.387A2,2,0,0,1,45.369.088Zm-.1-4.263a1.084,1.084,0,0,0-.826.358,1.741,1.741,0,0,0-.413,1h2.382v-.062a1.548,1.548,0,0,0-.334-.96A1.021,1.021,0,0,0,45.268-4.175Zm2.7,1.758a2.8,2.8,0,0,1,.514-1.769,1.644,1.644,0,0,1,1.362-.657,1.636,1.636,0,0,1,1.358.615l.04-.527h.743V-.114A1.934,1.934,0,0,1,51.44,1.34a2.019,2.019,0,0,1-1.47.532,2.446,2.446,0,0,1-1.006-.22,1.732,1.732,0,0,1-.751-.6l.422-.488a1.59,1.59,0,0,0,1.279.646,1.246,1.246,0,0,0,.925-.334,1.277,1.277,0,0,0,.332-.94V-.475a1.671,1.671,0,0,1-1.332.563,1.624,1.624,0,0,1-1.351-.672A2.938,2.938,0,0,1,47.971-2.417Zm.817.092a2.132,2.132,0,0,0,.33,1.263,1.071,1.071,0,0,0,.923.459,1.191,1.191,0,0,0,1.129-.7V-3.472a1.2,1.2,0,0,0-1.121-.681,1.081,1.081,0,0,0-.927.461A2.322,2.322,0,0,0,48.788-2.325ZM54.1,0h-.813V-4.755H54.1Zm-.879-6.016a.485.485,0,0,1,.121-.334.454.454,0,0,1,.358-.136.461.461,0,0,1,.36.136.48.48,0,0,1,.123.334.464.464,0,0,1-.123.33.469.469,0,0,1-.36.132.462.462,0,0,1-.358-.132A.469.469,0,0,1,53.218-6.016Zm4.948,4.755a.6.6,0,0,0-.248-.512,2.39,2.39,0,0,0-.866-.314,4.093,4.093,0,0,1-.98-.316,1.394,1.394,0,0,1-.536-.439,1.051,1.051,0,0,1-.174-.606,1.233,1.233,0,0,1,.494-.989,1.931,1.931,0,0,1,1.263-.4,1.987,1.987,0,0,1,1.312.417,1.326,1.326,0,0,1,.5,1.068h-.817a.734.734,0,0,0-.283-.576,1.062,1.062,0,0,0-.714-.242,1.111,1.111,0,0,0-.694.193.609.609,0,0,0-.25.505.493.493,0,0,0,.233.444,2.866,2.866,0,0,0,.842.286,4.385,4.385,0,0,1,.987.325,1.439,1.439,0,0,1,.56.455,1.118,1.118,0,0,1,.182.648A1.217,1.217,0,0,1,58.469-.3a2.138,2.138,0,0,1-1.323.385,2.394,2.394,0,0,1-1.011-.2,1.644,1.644,0,0,1-.688-.565,1.361,1.361,0,0,1-.248-.784h.813a.842.842,0,0,0,.327.648,1.27,1.27,0,0,0,.806.24,1.311,1.311,0,0,0,.74-.187A.574.574,0,0,0,58.166-1.261Zm2.975-4.645v1.151h.888v.628h-.888v2.952a.66.66,0,0,0,.119.429.5.5,0,0,0,.4.143,1.968,1.968,0,0,0,.387-.053V0a2.371,2.371,0,0,1-.624.087,1.012,1.012,0,0,1-.822-.33,1.416,1.416,0,0,1-.277-.936V-4.126h-.866v-.628h.866V-5.906Zm4.135,1.881a2.436,2.436,0,0,0-.4-.031,1.071,1.071,0,0,0-1.085.681V0h-.813V-4.755h.791l.013.549a1.266,1.266,0,0,1,1.134-.637.831.831,0,0,1,.36.062ZM68.783,0a1.708,1.708,0,0,1-.114-.5,1.814,1.814,0,0,1-1.354.589,1.678,1.678,0,0,1-1.154-.4,1.287,1.287,0,0,1-.45-1.009,1.344,1.344,0,0,1,.565-1.154,2.662,2.662,0,0,1,1.589-.411h.791v-.374a.913.913,0,0,0-.255-.679,1.024,1.024,0,0,0-.751-.253,1.185,1.185,0,0,0-.729.22.647.647,0,0,0-.294.532h-.817a1.122,1.122,0,0,1,.253-.688,1.725,1.725,0,0,1,.686-.525,2.306,2.306,0,0,1,.951-.193,1.88,1.88,0,0,1,1.288.411A1.482,1.482,0,0,1,69.469-3.3v2.188A2.676,2.676,0,0,0,69.636-.07V0ZM67.434-.62a1.429,1.429,0,0,0,.725-.2,1.2,1.2,0,0,0,.5-.514v-.976h-.637q-1.494,0-1.494.875a.74.74,0,0,0,.255.6A.98.98,0,0,0,67.434-.62Zm4.412-5.287v1.151h.888v.628h-.888v2.952a.66.66,0,0,0,.119.429.5.5,0,0,0,.4.143,1.968,1.968,0,0,0,.387-.053V0a2.371,2.371,0,0,1-.624.087,1.012,1.012,0,0,1-.822-.33,1.416,1.416,0,0,1-.277-.936V-4.126h-.866v-.628h.866V-5.906ZM74.566,0h-.813V-4.755h.813Zm-.879-6.016a.485.485,0,0,1,.121-.334.454.454,0,0,1,.358-.136.461.461,0,0,1,.36.136.48.48,0,0,1,.123.334.464.464,0,0,1-.123.33.469.469,0,0,1-.36.132.462.462,0,0,1-.358-.132A.469.469,0,0,1,73.688-6.016Zm1.964,3.595a2.808,2.808,0,0,1,.275-1.257,2.049,2.049,0,0,1,.765-.861,2.081,2.081,0,0,1,1.118-.3,2.005,2.005,0,0,1,1.571.672,2.587,2.587,0,0,1,.6,1.789v.057a2.833,2.833,0,0,1-.266,1.246,2.019,2.019,0,0,1-.76.859,2.105,2.105,0,0,1-1.136.308,2,2,0,0,1-1.567-.672,2.574,2.574,0,0,1-.6-1.78Zm.817.1a2.034,2.034,0,0,0,.367,1.27,1.174,1.174,0,0,0,.982.479,1.167,1.167,0,0,0,.984-.486,2.224,2.224,0,0,0,.365-1.36A2.031,2.031,0,0,0,78.8-3.689a1.181,1.181,0,0,0-.987-.486,1.167,1.167,0,0,0-.971.479A2.208,2.208,0,0,0,76.469-2.325Zm5.3-2.43.026.6a1.733,1.733,0,0,1,1.424-.686q1.507,0,1.521,1.7V0h-.813V-3.146a1.1,1.1,0,0,0-.235-.76.942.942,0,0,0-.719-.246,1.173,1.173,0,0,0-.694.211,1.432,1.432,0,0,0-.466.554V0H81V-4.755Z" transform="translate(1859.142 939.507)" fill="#12263f"/>
        <path id="Trazado_104502" data-name="Trazado 104502" d="M2.628-2.852a3.967,3.967,0,0,1-1.58-.767A1.465,1.465,0,0,1,.554-4.742a1.548,1.548,0,0,1,.6-1.25,2.4,2.4,0,0,1,1.571-.494A2.621,2.621,0,0,1,3.9-6.231a1.933,1.933,0,0,1,.8.7,1.8,1.8,0,0,1,.283.98H4.14a1.17,1.17,0,0,0-.369-.915A1.5,1.5,0,0,0,2.729-5.8a1.537,1.537,0,0,0-.973.275.918.918,0,0,0-.349.764.826.826,0,0,0,.332.663,3.254,3.254,0,0,0,1.129.5A5.24,5.24,0,0,1,4.115-3.1a1.894,1.894,0,0,1,.668.631A1.61,1.61,0,0,1,5-1.626,1.5,1.5,0,0,1,4.395-.38,2.586,2.586,0,0,1,2.773.088a3.008,3.008,0,0,1-1.23-.253A2.071,2.071,0,0,1,.661-.857a1.689,1.689,0,0,1-.31-1H1.2a1.1,1.1,0,0,0,.428.916A1.8,1.8,0,0,0,2.773-.6,1.658,1.658,0,0,0,3.8-.875a.885.885,0,0,0,.356-.743.869.869,0,0,0-.33-.727A3.8,3.8,0,0,0,2.628-2.852Zm5.3,2.94A2.078,2.078,0,0,1,6.354-.547a2.357,2.357,0,0,1-.606-1.7V-2.4a2.853,2.853,0,0,1,.27-1.263,2.108,2.108,0,0,1,.756-.87,1.9,1.9,0,0,1,1.052-.314,1.781,1.781,0,0,1,1.441.611,2.645,2.645,0,0,1,.514,1.749v.338H6.561a1.69,1.69,0,0,0,.411,1.136,1.292,1.292,0,0,0,1,.433A1.416,1.416,0,0,0,8.7-.751a1.833,1.833,0,0,0,.523-.466l.5.387A2,2,0,0,1,7.928.088Zm-.1-4.263A1.084,1.084,0,0,0,7-3.817a1.741,1.741,0,0,0-.413,1H8.969v-.062a1.548,1.548,0,0,0-.334-.96A1.021,1.021,0,0,0,7.827-4.175ZM13.658,0a1.708,1.708,0,0,1-.114-.5A1.814,1.814,0,0,1,12.19.088a1.678,1.678,0,0,1-1.154-.4,1.287,1.287,0,0,1-.45-1.009,1.344,1.344,0,0,1,.565-1.154,2.662,2.662,0,0,1,1.589-.411h.791v-.374a.913.913,0,0,0-.255-.679,1.024,1.024,0,0,0-.751-.253,1.185,1.185,0,0,0-.729.22.647.647,0,0,0-.294.532h-.817a1.122,1.122,0,0,1,.253-.688,1.725,1.725,0,0,1,.686-.525,2.306,2.306,0,0,1,.951-.193,1.88,1.88,0,0,1,1.288.411A1.482,1.482,0,0,1,14.344-3.3v2.188A2.676,2.676,0,0,0,14.511-.07V0ZM12.309-.62a1.429,1.429,0,0,0,.725-.2,1.2,1.2,0,0,0,.5-.514v-.976h-.637q-1.494,0-1.494.875a.74.74,0,0,0,.255.6A.98.98,0,0,0,12.309-.62Zm5.607-3.406a2.436,2.436,0,0,0-.4-.031,1.071,1.071,0,0,0-1.085.681V0h-.813V-4.755h.791l.013.549a1.266,1.266,0,0,1,1.134-.637.831.831,0,0,1,.36.062Zm2.571,3.45a1.171,1.171,0,0,0,.76-.264.928.928,0,0,0,.36-.659h.769a1.474,1.474,0,0,1-.281.778,1.852,1.852,0,0,1-.692.589,2,2,0,0,1-.916.22A1.959,1.959,0,0,1,18.943-.56a2.582,2.582,0,0,1-.573-1.773V-2.47A2.863,2.863,0,0,1,18.624-3.7a1.941,1.941,0,0,1,.732-.839,2.078,2.078,0,0,1,1.127-.3,1.907,1.907,0,0,1,1.329.479,1.712,1.712,0,0,1,.565,1.244h-.769a1.12,1.12,0,0,0-.349-.758,1.087,1.087,0,0,0-.776-.3,1.138,1.138,0,0,0-.96.446,2.1,2.1,0,0,0-.341,1.29v.154a2.053,2.053,0,0,0,.338,1.266A1.143,1.143,0,0,0,20.487-.576Zm3.617-3.6a1.728,1.728,0,0,1,1.406-.664q1.507,0,1.521,1.7V0h-.813V-3.146a1.1,1.1,0,0,0-.235-.76.942.942,0,0,0-.719-.246,1.173,1.173,0,0,0-.694.211,1.432,1.432,0,0,0-.466.554V0h-.813V-6.75H24.1ZM35.525-2.993a3.958,3.958,0,0,1-.316,1.641,2.4,2.4,0,0,1-.9,1.07,2.466,2.466,0,0,1-1.354.369,2.445,2.445,0,0,1-1.34-.371,2.454,2.454,0,0,1-.907-1.059,3.8,3.8,0,0,1-.332-1.593V-3.4a3.911,3.911,0,0,1,.321-1.63,2.445,2.445,0,0,1,.907-1.083,2.435,2.435,0,0,1,1.343-.376,2.48,2.48,0,0,1,1.356.371,2.392,2.392,0,0,1,.9,1.077A3.977,3.977,0,0,1,35.525-3.4Zm-.839-.413a2.869,2.869,0,0,0-.457-1.747,1.507,1.507,0,0,0-1.279-.609,1.491,1.491,0,0,0-1.259.609,2.81,2.81,0,0,0-.472,1.69v.47a2.873,2.873,0,0,0,.464,1.734,1.5,1.5,0,0,0,1.277.631,1.492,1.492,0,0,0,1.266-.6,2.857,2.857,0,0,0,.461-1.707Zm3.546,2.3L39.41-4.755h.831L38.536,0h-.62L36.193-4.755h.831ZM42.939.088a2.078,2.078,0,0,1-1.573-.635,2.357,2.357,0,0,1-.606-1.7V-2.4a2.853,2.853,0,0,1,.27-1.263,2.108,2.108,0,0,1,.756-.87,1.9,1.9,0,0,1,1.052-.314,1.781,1.781,0,0,1,1.441.611,2.645,2.645,0,0,1,.514,1.749v.338H41.572a1.69,1.69,0,0,0,.411,1.136,1.292,1.292,0,0,0,1,.433,1.416,1.416,0,0,0,.729-.176,1.833,1.833,0,0,0,.523-.466l.5.387A2,2,0,0,1,42.939.088Zm-.1-4.263a1.084,1.084,0,0,0-.826.358,1.741,1.741,0,0,0-.413,1H43.98v-.062a1.548,1.548,0,0,0-.334-.96A1.021,1.021,0,0,0,42.838-4.175Zm5.194.149a2.436,2.436,0,0,0-.4-.031,1.071,1.071,0,0,0-1.085.681V0h-.813V-4.755h.791l.013.549a1.266,1.266,0,0,1,1.134-.637.831.831,0,0,1,.36.062ZM49.663,0H48.85V-6.75h.813ZM53.9,0a1.708,1.708,0,0,1-.114-.5,1.814,1.814,0,0,1-1.354.589,1.678,1.678,0,0,1-1.154-.4,1.287,1.287,0,0,1-.45-1.009,1.344,1.344,0,0,1,.565-1.154,2.662,2.662,0,0,1,1.589-.411h.791v-.374a.913.913,0,0,0-.255-.679,1.024,1.024,0,0,0-.751-.253,1.185,1.185,0,0,0-.729.22.647.647,0,0,0-.294.532h-.817a1.122,1.122,0,0,1,.253-.688,1.725,1.725,0,0,1,.686-.525,2.306,2.306,0,0,1,.951-.193,1.88,1.88,0,0,1,1.288.411A1.482,1.482,0,0,1,54.584-3.3v2.188A2.676,2.676,0,0,0,54.751-.07V0ZM52.55-.62a1.429,1.429,0,0,0,.725-.2,1.2,1.2,0,0,0,.5-.514v-.976h-.637q-1.494,0-1.494.875a.74.74,0,0,0,.255.6A.98.98,0,0,0,52.55-.62Zm4.8-.571,1.107-3.564h.87L57.415.734Q56.971,1.92,56,1.92l-.154-.013-.3-.057V1.191l.22.018a1.082,1.082,0,0,0,.644-.167,1.209,1.209,0,0,0,.38-.611l.18-.483-1.7-4.7h.888Z" transform="translate(1413.34 1059.007)" fill="#12263f"/>
        <path id="Trazado_104503" data-name="Trazado 104503" d="M1.586-2.5V0H.743V-6.4H3.1a2.371,2.371,0,0,1,1.646.536,1.818,1.818,0,0,1,.6,1.419,1.794,1.794,0,0,1-.582,1.435,2.477,2.477,0,0,1-1.668.5Zm0-.69H3.1A1.516,1.516,0,0,0,4.14-3.514a1.167,1.167,0,0,0,.36-.922,1.206,1.206,0,0,0-.36-.916,1.42,1.42,0,0,0-.989-.357H1.586ZM7.176,0H6.363V-6.75h.813Zm4.236,0A1.708,1.708,0,0,1,11.3-.5,1.814,1.814,0,0,1,9.945.088a1.678,1.678,0,0,1-1.154-.4,1.287,1.287,0,0,1-.45-1.009,1.344,1.344,0,0,1,.565-1.154,2.662,2.662,0,0,1,1.589-.411h.791v-.374a.913.913,0,0,0-.255-.679,1.024,1.024,0,0,0-.751-.253,1.185,1.185,0,0,0-.729.22.647.647,0,0,0-.294.532H8.438a1.122,1.122,0,0,1,.253-.688,1.725,1.725,0,0,1,.686-.525,2.306,2.306,0,0,1,.951-.193,1.88,1.88,0,0,1,1.288.411A1.482,1.482,0,0,1,12.1-3.3v2.188A2.676,2.676,0,0,0,12.265-.07V0ZM10.063-.62a1.429,1.429,0,0,0,.725-.2,1.2,1.2,0,0,0,.5-.514v-.976h-.637q-1.494,0-1.494.875a.74.74,0,0,0,.255.6A.98.98,0,0,0,10.063-.62Zm4.8-.571L15.97-4.755h.87L14.928.734Q14.484,1.92,13.518,1.92l-.154-.013-.3-.057V1.191l.22.018a1.082,1.082,0,0,0,.644-.167A1.209,1.209,0,0,0,14.3.431l.18-.483-1.7-4.7h.888ZM19.481.088a2.078,2.078,0,0,1-1.573-.635,2.357,2.357,0,0,1-.606-1.7V-2.4a2.853,2.853,0,0,1,.27-1.263,2.108,2.108,0,0,1,.756-.87,1.9,1.9,0,0,1,1.052-.314,1.781,1.781,0,0,1,1.441.611,2.645,2.645,0,0,1,.514,1.749v.338H18.114a1.69,1.69,0,0,0,.411,1.136,1.292,1.292,0,0,0,1,.433,1.416,1.416,0,0,0,.729-.176,1.833,1.833,0,0,0,.523-.466l.5.387A2,2,0,0,1,19.481.088Zm-.1-4.263a1.084,1.084,0,0,0-.826.358,1.741,1.741,0,0,0-.413,1h2.382v-.062a1.548,1.548,0,0,0-.334-.96A1.021,1.021,0,0,0,19.38-4.175Zm5.194.149a2.436,2.436,0,0,0-.4-.031,1.071,1.071,0,0,0-1.085.681V0h-.813V-4.755h.791l.013.549a1.266,1.266,0,0,1,1.134-.637.831.831,0,0,1,.36.062Z" transform="translate(1435.621 1156.891)" fill="#12263f"/>
        <path id="Trazado_104506" data-name="Trazado 104506" d="M1.586-2.5V0H.743V-6.4H3.1a2.371,2.371,0,0,1,1.646.536,1.818,1.818,0,0,1,.6,1.419,1.794,1.794,0,0,1-.582,1.435,2.477,2.477,0,0,1-1.668.5Zm0-.69H3.1A1.516,1.516,0,0,0,4.14-3.514a1.167,1.167,0,0,0,.36-.922,1.206,1.206,0,0,0-.36-.916,1.42,1.42,0,0,0-.989-.357H1.586Zm7-.831a2.436,2.436,0,0,0-.4-.031,1.071,1.071,0,0,0-1.085.681V0H6.293V-4.755h.791l.013.549a1.266,1.266,0,0,1,1.134-.637.831.831,0,0,1,.36.062Zm.444,1.6A2.808,2.808,0,0,1,9.31-3.678a2.049,2.049,0,0,1,.765-.861,2.081,2.081,0,0,1,1.118-.3,2.005,2.005,0,0,1,1.571.672,2.587,2.587,0,0,1,.6,1.789v.057A2.833,2.833,0,0,1,13.1-1.079a2.019,2.019,0,0,1-.76.859A2.105,2.105,0,0,1,11.2.088,2,2,0,0,1,9.635-.584a2.574,2.574,0,0,1-.6-1.78Zm.817.1a2.034,2.034,0,0,0,.367,1.27,1.174,1.174,0,0,0,.982.479,1.167,1.167,0,0,0,.984-.486,2.224,2.224,0,0,0,.365-1.36,2.031,2.031,0,0,0-.371-1.268,1.181,1.181,0,0,0-.987-.486,1.167,1.167,0,0,0-.971.479A2.208,2.208,0,0,0,9.853-2.325ZM14.656,0V-4.126H13.9v-.628h.751v-.4A1.652,1.652,0,0,1,15.111-6.4,1.764,1.764,0,0,1,16.4-6.842a3.87,3.87,0,0,1,1.244.268l-.136.686a2.817,2.817,0,0,0-1.046-.22,1.023,1.023,0,0,0-.754.235.969.969,0,0,0-.231.705v.413h.971v.628h-.971V0Zm3.388,0h-.817V-4.755h.817ZM20.25,0h-.813V-6.75h.813Zm3.274.088a2.078,2.078,0,0,1-1.573-.635,2.357,2.357,0,0,1-.606-1.7V-2.4a2.853,2.853,0,0,1,.27-1.263,2.108,2.108,0,0,1,.756-.87,1.9,1.9,0,0,1,1.052-.314,1.781,1.781,0,0,1,1.441.611,2.645,2.645,0,0,1,.514,1.749v.338H22.157a1.69,1.69,0,0,0,.411,1.136,1.292,1.292,0,0,0,1,.433A1.416,1.416,0,0,0,24.3-.751a1.833,1.833,0,0,0,.523-.466l.5.387A2,2,0,0,1,23.524.088Zm-.1-4.263a1.084,1.084,0,0,0-.826.358,1.741,1.741,0,0,0-.413,1h2.382v-.062a1.548,1.548,0,0,0-.334-.96A1.021,1.021,0,0,0,23.423-4.175Z" transform="translate(1249.427 1295.551)" fill="#12263f"/>
        <path id="Trazado_104504" data-name="Trazado 104504" d="M4.359-2.958H1.586V-.69H4.808V0H.743V-6.4H4.764v.69H1.586v2.061H4.359ZM7.185-1.1,8.363-4.755h.831L7.488,0h-.62L5.146-4.755h.831ZM11.892.088a2.078,2.078,0,0,1-1.573-.635,2.357,2.357,0,0,1-.606-1.7V-2.4a2.853,2.853,0,0,1,.27-1.263,2.108,2.108,0,0,1,.756-.87,1.9,1.9,0,0,1,1.052-.314,1.781,1.781,0,0,1,1.441.611,2.645,2.645,0,0,1,.514,1.749v.338H10.525a1.69,1.69,0,0,0,.411,1.136,1.292,1.292,0,0,0,1,.433,1.416,1.416,0,0,0,.729-.176,1.833,1.833,0,0,0,.523-.466l.5.387A2,2,0,0,1,11.892.088Zm-.1-4.263a1.084,1.084,0,0,0-.826.358,1.741,1.741,0,0,0-.413,1h2.382v-.062a1.548,1.548,0,0,0-.334-.96A1.021,1.021,0,0,0,11.791-4.175Zm3.665-.58.026.6a1.733,1.733,0,0,1,1.424-.686q1.507,0,1.521,1.7V0h-.813V-3.146a1.1,1.1,0,0,0-.235-.76.942.942,0,0,0-.719-.246,1.173,1.173,0,0,0-.694.211,1.432,1.432,0,0,0-.466.554V0h-.813V-4.755Zm5.3-1.151v1.151h.888v.628h-.888v2.952a.66.66,0,0,0,.119.429.5.5,0,0,0,.4.143,1.968,1.968,0,0,0,.387-.053V0a2.371,2.371,0,0,1-.624.087,1.012,1.012,0,0,1-.822-.33,1.416,1.416,0,0,1-.277-.936V-4.126h-.866v-.628h.866V-5.906Zm4.605,4.645a.6.6,0,0,0-.248-.512,2.39,2.39,0,0,0-.866-.314,4.093,4.093,0,0,1-.98-.316,1.394,1.394,0,0,1-.536-.439,1.051,1.051,0,0,1-.174-.606,1.233,1.233,0,0,1,.494-.989,1.931,1.931,0,0,1,1.263-.4,1.987,1.987,0,0,1,1.312.417,1.326,1.326,0,0,1,.5,1.068h-.817a.734.734,0,0,0-.283-.576,1.062,1.062,0,0,0-.714-.242,1.111,1.111,0,0,0-.694.193.609.609,0,0,0-.25.505.493.493,0,0,0,.233.444,2.866,2.866,0,0,0,.842.286,4.385,4.385,0,0,1,.987.325,1.439,1.439,0,0,1,.56.455,1.118,1.118,0,0,1,.182.648A1.217,1.217,0,0,1,25.664-.3a2.138,2.138,0,0,1-1.323.385,2.394,2.394,0,0,1-1.011-.2,1.644,1.644,0,0,1-.688-.565,1.361,1.361,0,0,1-.248-.784h.813a.842.842,0,0,0,.327.648,1.27,1.27,0,0,0,.806.24,1.311,1.311,0,0,0,.74-.187A.574.574,0,0,0,25.361-1.261Z" transform="translate(1430.362 1295.551)" fill="#12263f"/>
        <path id="Trazado_104505" data-name="Trazado 104505" d="M1.586-2.5V0H.743V-6.4H3.1a2.371,2.371,0,0,1,1.646.536,1.818,1.818,0,0,1,.6,1.419,1.794,1.794,0,0,1-.582,1.435,2.477,2.477,0,0,1-1.668.5Zm0-.69H3.1A1.516,1.516,0,0,0,4.14-3.514a1.167,1.167,0,0,0,.36-.922,1.206,1.206,0,0,0-.36-.916,1.42,1.42,0,0,0-.989-.357H1.586ZM7.176,0H6.363V-6.75h.813Zm4.236,0A1.708,1.708,0,0,1,11.3-.5,1.814,1.814,0,0,1,9.945.088a1.678,1.678,0,0,1-1.154-.4,1.287,1.287,0,0,1-.45-1.009,1.344,1.344,0,0,1,.565-1.154,2.662,2.662,0,0,1,1.589-.411h.791v-.374a.913.913,0,0,0-.255-.679,1.024,1.024,0,0,0-.751-.253,1.185,1.185,0,0,0-.729.22.647.647,0,0,0-.294.532H8.438a1.122,1.122,0,0,1,.253-.688,1.725,1.725,0,0,1,.686-.525,2.306,2.306,0,0,1,.951-.193,1.88,1.88,0,0,1,1.288.411A1.482,1.482,0,0,1,12.1-3.3v2.188A2.676,2.676,0,0,0,12.265-.07V0ZM10.063-.62a1.429,1.429,0,0,0,.725-.2,1.2,1.2,0,0,0,.5-.514v-.976h-.637q-1.494,0-1.494.875a.74.74,0,0,0,.255.6A.98.98,0,0,0,10.063-.62Zm4.8-.571L15.97-4.755h.87L14.928.734Q14.484,1.92,13.518,1.92l-.154-.013-.3-.057V1.191l.22.018a1.082,1.082,0,0,0,.644-.167A1.209,1.209,0,0,0,14.3.431l.18-.483-1.7-4.7h.888ZM19.481.088a2.078,2.078,0,0,1-1.573-.635,2.357,2.357,0,0,1-.606-1.7V-2.4a2.853,2.853,0,0,1,.27-1.263,2.108,2.108,0,0,1,.756-.87,1.9,1.9,0,0,1,1.052-.314,1.781,1.781,0,0,1,1.441.611,2.645,2.645,0,0,1,.514,1.749v.338H18.114a1.69,1.69,0,0,0,.411,1.136,1.292,1.292,0,0,0,1,.433,1.416,1.416,0,0,0,.729-.176,1.833,1.833,0,0,0,.523-.466l.5.387A2,2,0,0,1,19.481.088Zm-.1-4.263a1.084,1.084,0,0,0-.826.358,1.741,1.741,0,0,0-.413,1h2.382v-.062a1.548,1.548,0,0,0-.334-.96A1.021,1.021,0,0,0,19.38-4.175Zm5.194.149a2.436,2.436,0,0,0-.4-.031,1.071,1.071,0,0,0-1.085.681V0h-.813V-4.755h.791l.013.549a1.266,1.266,0,0,1,1.134-.637.831.831,0,0,1,.36.062Z" transform="translate(1616.142 1295.551)" fill="#12263f"/>
        <path id="Trazado_104514" data-name="Trazado 104514" d="M3.089-2.588h-1.5V0H.738V-6.4H2.856a2.507,2.507,0,0,1,1.663.492A1.771,1.771,0,0,1,5.1-4.474a1.723,1.723,0,0,1-.323,1.042,1.928,1.928,0,0,1-.9.664l1.5,2.716V0H4.478Zm-1.5-.69h1.3a1.462,1.462,0,0,0,1-.326,1.1,1.1,0,0,0,.371-.872A1.16,1.16,0,0,0,3.9-5.387a1.5,1.5,0,0,0-1.022-.321H1.586ZM8.13.088A2.078,2.078,0,0,1,6.557-.547a2.357,2.357,0,0,1-.606-1.7V-2.4a2.853,2.853,0,0,1,.27-1.263,2.108,2.108,0,0,1,.756-.87,1.9,1.9,0,0,1,1.052-.314,1.781,1.781,0,0,1,1.441.611,2.645,2.645,0,0,1,.514,1.749v.338H6.763a1.69,1.69,0,0,0,.411,1.136,1.292,1.292,0,0,0,1,.433A1.416,1.416,0,0,0,8.9-.751a1.833,1.833,0,0,0,.523-.466l.5.387A2,2,0,0,1,8.13.088Zm-.1-4.263a1.084,1.084,0,0,0-.826.358,1.741,1.741,0,0,0-.413,1H9.171v-.062a1.548,1.548,0,0,0-.334-.96A1.021,1.021,0,0,0,8.029-4.175Zm4.8,3.6a1.171,1.171,0,0,0,.76-.264.928.928,0,0,0,.36-.659h.769a1.474,1.474,0,0,1-.281.778,1.852,1.852,0,0,1-.692.589,2,2,0,0,1-.916.22A1.959,1.959,0,0,1,11.287-.56a2.582,2.582,0,0,1-.573-1.773V-2.47A2.863,2.863,0,0,1,10.969-3.7a1.941,1.941,0,0,1,.732-.839,2.078,2.078,0,0,1,1.127-.3,1.907,1.907,0,0,1,1.329.479,1.712,1.712,0,0,1,.565,1.244h-.769a1.12,1.12,0,0,0-.349-.758,1.087,1.087,0,0,0-.776-.3,1.138,1.138,0,0,0-.96.446,2.1,2.1,0,0,0-.341,1.29v.154a2.053,2.053,0,0,0,.338,1.266A1.143,1.143,0,0,0,12.832-.576Zm4.777.664a2.078,2.078,0,0,1-1.573-.635,2.357,2.357,0,0,1-.606-1.7V-2.4a2.853,2.853,0,0,1,.27-1.263,2.108,2.108,0,0,1,.756-.87,1.9,1.9,0,0,1,1.052-.314,1.781,1.781,0,0,1,1.441.611,2.645,2.645,0,0,1,.514,1.749v.338H16.242a1.69,1.69,0,0,0,.411,1.136,1.292,1.292,0,0,0,1,.433,1.416,1.416,0,0,0,.729-.176,1.833,1.833,0,0,0,.523-.466l.5.387A2,2,0,0,1,17.609.088Zm-.1-4.263a1.084,1.084,0,0,0-.826.358,1.741,1.741,0,0,0-.413,1H18.65v-.062a1.548,1.548,0,0,0-.334-.96A1.021,1.021,0,0,0,17.508-4.175Zm3.665-.58.026.6a1.733,1.733,0,0,1,1.424-.686q1.507,0,1.521,1.7V0h-.813V-3.146a1.1,1.1,0,0,0-.235-.76.942.942,0,0,0-.719-.246,1.173,1.173,0,0,0-.694.211,1.432,1.432,0,0,0-.466.554V0H20.4V-4.755Zm5.3-1.151v1.151h.888v.628h-.888v2.952a.66.66,0,0,0,.119.429A.5.5,0,0,0,27-.6a1.968,1.968,0,0,0,.387-.053V0a2.371,2.371,0,0,1-.624.087,1.012,1.012,0,0,1-.822-.33,1.416,1.416,0,0,1-.277-.936V-4.126h-.866v-.628h.866V-5.906Z" transform="translate(1792.331 1295.551)" fill="#12263f"/>
        <path id="Trazado_104515" data-name="Trazado 104515" d="M1.591-.69H4.623V0H.743V-6.4h.848ZM6.341,0H5.528V-4.755h.813ZM5.462-6.016a.485.485,0,0,1,.121-.334.454.454,0,0,1,.358-.136.461.461,0,0,1,.36.136.48.48,0,0,1,.123.334.464.464,0,0,1-.123.33.469.469,0,0,1-.36.132.462.462,0,0,1-.358-.132A.469.469,0,0,1,5.462-6.016Zm6.205,3.691a2.827,2.827,0,0,1-.5,1.751A1.6,1.6,0,0,1,9.822.088,1.658,1.658,0,0,1,8.429-.549L8.389,0H7.642V-6.75h.813v2.518a1.648,1.648,0,0,1,1.358-.611,1.61,1.61,0,0,1,1.36.655A2.912,2.912,0,0,1,11.667-2.4Zm-.813-.092A2.2,2.2,0,0,0,10.534-3.7a1.062,1.062,0,0,0-.923-.453,1.194,1.194,0,0,0-1.156.747v2.057A1.227,1.227,0,0,0,9.62-.6a1.056,1.056,0,0,0,.91-.453A2.336,2.336,0,0,0,10.854-2.417ZM14.99-4.025a2.436,2.436,0,0,0-.4-.031,1.071,1.071,0,0,0-1.085.681V0h-.813V-4.755h.791l.013.549a1.266,1.266,0,0,1,1.134-.637.831.831,0,0,1,.36.062ZM18.5,0a1.708,1.708,0,0,1-.114-.5,1.814,1.814,0,0,1-1.354.589,1.678,1.678,0,0,1-1.154-.4,1.287,1.287,0,0,1-.45-1.009,1.344,1.344,0,0,1,.565-1.154,2.662,2.662,0,0,1,1.589-.411h.791v-.374a.913.913,0,0,0-.255-.679,1.024,1.024,0,0,0-.751-.253,1.185,1.185,0,0,0-.729.22.647.647,0,0,0-.294.532h-.817a1.122,1.122,0,0,1,.253-.688,1.725,1.725,0,0,1,.686-.525,2.306,2.306,0,0,1,.951-.193,1.88,1.88,0,0,1,1.288.411A1.482,1.482,0,0,1,19.182-3.3v2.188A2.676,2.676,0,0,0,19.349-.07V0ZM17.147-.62a1.429,1.429,0,0,0,.725-.2,1.2,1.2,0,0,0,.5-.514v-.976h-.637q-1.494,0-1.494.875a.74.74,0,0,0,.255.6A.98.98,0,0,0,17.147-.62Zm5.607-3.406a2.436,2.436,0,0,0-.4-.031,1.071,1.071,0,0,0-1.085.681V0h-.813V-4.755h.791l.013.549a1.266,1.266,0,0,1,1.134-.637.831.831,0,0,1,.36.062Zm2.382,2.834,1.107-3.564h.87L25.2.734Q24.759,1.92,23.792,1.92l-.154-.013-.3-.057V1.191l.22.018a1.082,1.082,0,0,0,.644-.167,1.209,1.209,0,0,0,.38-.611l.18-.483-1.7-4.7h.888Z" transform="translate(1852.643 1295.551)" fill="#12263f"/>
        <path id="Trazado_104516" data-name="Trazado 104516" d="M5.164-5.708H3.107V0H2.268V-5.708H.215V-6.4H5.164Zm.171,3.287A2.808,2.808,0,0,1,5.61-3.678a2.049,2.049,0,0,1,.765-.861,2.081,2.081,0,0,1,1.118-.3,2.005,2.005,0,0,1,1.571.672,2.587,2.587,0,0,1,.6,1.789v.057A2.833,2.833,0,0,1,9.4-1.079a2.019,2.019,0,0,1-.76.859A2.105,2.105,0,0,1,7.5.088,2,2,0,0,1,5.935-.584a2.574,2.574,0,0,1-.6-1.78Zm.817.1a2.034,2.034,0,0,0,.367,1.27A1.174,1.174,0,0,0,7.5-.576a1.167,1.167,0,0,0,.984-.486,2.224,2.224,0,0,0,.365-1.36,2.031,2.031,0,0,0-.371-1.268,1.181,1.181,0,0,0-.987-.486,1.167,1.167,0,0,0-.971.479A2.208,2.208,0,0,0,6.152-2.325Zm8.547,0a2.847,2.847,0,0,1-.5,1.749,1.592,1.592,0,0,1-1.345.664A1.744,1.744,0,0,1,11.5-.461v2.29h-.813V-4.755h.743l.04.527a1.675,1.675,0,0,1,1.38-.615A1.621,1.621,0,0,1,14.2-4.2a2.878,2.878,0,0,1,.5,1.8Zm-.813-.092a2.1,2.1,0,0,0-.343-1.27,1.1,1.1,0,0,0-.94-.466A1.2,1.2,0,0,0,11.5-3.5v2.272a1.2,1.2,0,0,0,1.116.65,1.1,1.1,0,0,0,.929-.464A2.293,2.293,0,0,0,13.887-2.417Zm7.734.743H18.94L18.338,0h-.87l2.443-6.4h.738L23.1,0h-.866ZM19.2-2.364h2.175l-1.09-2.993ZM26.13-4.025a2.436,2.436,0,0,0-.4-.031,1.071,1.071,0,0,0-1.085.681V0h-.813V-4.755h.791l.013.549a1.266,1.266,0,0,1,1.134-.637.831.831,0,0,1,.36.062ZM28.2-5.906v1.151h.888v.628H28.2v2.952a.66.66,0,0,0,.119.429.5.5,0,0,0,.4.143,1.968,1.968,0,0,0,.387-.053V0a2.371,2.371,0,0,1-.624.087,1.012,1.012,0,0,1-.822-.33,1.416,1.416,0,0,1-.277-.936V-4.126h-.866v-.628h.866V-5.906ZM30.92,0h-.813V-4.755h.813Zm-.879-6.016a.485.485,0,0,1,.121-.334.454.454,0,0,1,.358-.136.461.461,0,0,1,.36.136A.48.48,0,0,1,31-6.016a.464.464,0,0,1-.123.33.469.469,0,0,1-.36.132.462.462,0,0,1-.358-.132A.469.469,0,0,1,30.041-6.016Zm4.948,4.755a.6.6,0,0,0-.248-.512,2.39,2.39,0,0,0-.866-.314A4.093,4.093,0,0,1,32.9-2.4a1.394,1.394,0,0,1-.536-.439,1.051,1.051,0,0,1-.174-.606,1.233,1.233,0,0,1,.494-.989,1.931,1.931,0,0,1,1.263-.4,1.987,1.987,0,0,1,1.312.417,1.326,1.326,0,0,1,.5,1.068h-.817a.734.734,0,0,0-.283-.576,1.062,1.062,0,0,0-.714-.242,1.111,1.111,0,0,0-.694.193.609.609,0,0,0-.25.505.493.493,0,0,0,.233.444,2.866,2.866,0,0,0,.842.286,4.385,4.385,0,0,1,.987.325,1.439,1.439,0,0,1,.56.455,1.118,1.118,0,0,1,.182.648A1.217,1.217,0,0,1,35.292-.3,2.138,2.138,0,0,1,33.97.088a2.394,2.394,0,0,1-1.011-.2,1.644,1.644,0,0,1-.688-.565,1.361,1.361,0,0,1-.248-.784h.813a.842.842,0,0,0,.327.648,1.27,1.27,0,0,0,.806.24,1.311,1.311,0,0,0,.74-.187A.574.574,0,0,0,34.989-1.261Zm2.975-4.645v1.151h.888v.628h-.888v2.952a.66.66,0,0,0,.119.429.5.5,0,0,0,.4.143,1.968,1.968,0,0,0,.387-.053V0a2.371,2.371,0,0,1-.624.087,1.012,1.012,0,0,1-.822-.33,1.416,1.416,0,0,1-.277-.936V-4.126h-.866v-.628h.866V-5.906ZM42.57-1.261a.6.6,0,0,0-.248-.512,2.39,2.39,0,0,0-.866-.314,4.093,4.093,0,0,1-.98-.316,1.394,1.394,0,0,1-.536-.439,1.051,1.051,0,0,1-.174-.606,1.233,1.233,0,0,1,.494-.989,1.931,1.931,0,0,1,1.263-.4,1.987,1.987,0,0,1,1.312.417,1.326,1.326,0,0,1,.5,1.068h-.817a.734.734,0,0,0-.283-.576,1.062,1.062,0,0,0-.714-.242,1.111,1.111,0,0,0-.694.193.609.609,0,0,0-.25.505.493.493,0,0,0,.233.444,2.866,2.866,0,0,0,.842.286,4.385,4.385,0,0,1,.987.325,1.439,1.439,0,0,1,.56.455,1.118,1.118,0,0,1,.182.648A1.217,1.217,0,0,1,42.873-.3,2.138,2.138,0,0,1,41.55.088a2.394,2.394,0,0,1-1.011-.2,1.644,1.644,0,0,1-.688-.565,1.361,1.361,0,0,1-.248-.784h.813a.842.842,0,0,0,.327.648,1.27,1.27,0,0,0,.806.24,1.311,1.311,0,0,0,.74-.187A.574.574,0,0,0,42.57-1.261Z" transform="translate(1905.824 1295.551)" fill="#12263f"/>
        <path id="Trazado_104507" data-name="Trazado 104507" d="M5.164-5.708H3.107V0H2.268V-5.708H.215V-6.4H5.164Zm.171,3.287A2.808,2.808,0,0,1,5.61-3.678a2.049,2.049,0,0,1,.765-.861,2.081,2.081,0,0,1,1.118-.3,2.005,2.005,0,0,1,1.571.672,2.587,2.587,0,0,1,.6,1.789v.057A2.833,2.833,0,0,1,9.4-1.079a2.019,2.019,0,0,1-.76.859A2.105,2.105,0,0,1,7.5.088,2,2,0,0,1,5.935-.584a2.574,2.574,0,0,1-.6-1.78Zm.817.1a2.034,2.034,0,0,0,.367,1.27A1.174,1.174,0,0,0,7.5-.576a1.167,1.167,0,0,0,.984-.486,2.224,2.224,0,0,0,.365-1.36,2.031,2.031,0,0,0-.371-1.268,1.181,1.181,0,0,0-.987-.486,1.167,1.167,0,0,0-.971.479A2.208,2.208,0,0,0,6.152-2.325Zm8.547,0a2.847,2.847,0,0,1-.5,1.749,1.592,1.592,0,0,1-1.345.664A1.744,1.744,0,0,1,11.5-.461v2.29h-.813V-4.755h.743l.04.527a1.675,1.675,0,0,1,1.38-.615A1.621,1.621,0,0,1,14.2-4.2a2.878,2.878,0,0,1,.5,1.8Zm-.813-.092a2.1,2.1,0,0,0-.343-1.27,1.1,1.1,0,0,0-.94-.466A1.2,1.2,0,0,0,11.5-3.5v2.272a1.2,1.2,0,0,0,1.116.65,1.1,1.1,0,0,0,.929-.464A2.293,2.293,0,0,0,13.887-2.417Zm7.734.743H18.94L18.338,0h-.87l2.443-6.4h.738L23.1,0h-.866ZM19.2-2.364h2.175l-1.09-2.993ZM26.13-4.025a2.436,2.436,0,0,0-.4-.031,1.071,1.071,0,0,0-1.085.681V0h-.813V-4.755h.791l.013.549a1.266,1.266,0,0,1,1.134-.637.831.831,0,0,1,.36.062ZM28.2-5.906v1.151h.888v.628H28.2v2.952a.66.66,0,0,0,.119.429.5.5,0,0,0,.4.143,1.968,1.968,0,0,0,.387-.053V0a2.371,2.371,0,0,1-.624.087,1.012,1.012,0,0,1-.822-.33,1.416,1.416,0,0,1-.277-.936V-4.126h-.866v-.628h.866V-5.906ZM30.92,0h-.813V-4.755h.813Zm-.879-6.016a.485.485,0,0,1,.121-.334.454.454,0,0,1,.358-.136.461.461,0,0,1,.36.136A.48.48,0,0,1,31-6.016a.464.464,0,0,1-.123.33.469.469,0,0,1-.36.132.462.462,0,0,1-.358-.132A.469.469,0,0,1,30.041-6.016Zm4.948,4.755a.6.6,0,0,0-.248-.512,2.39,2.39,0,0,0-.866-.314A4.093,4.093,0,0,1,32.9-2.4a1.394,1.394,0,0,1-.536-.439,1.051,1.051,0,0,1-.174-.606,1.233,1.233,0,0,1,.494-.989,1.931,1.931,0,0,1,1.263-.4,1.987,1.987,0,0,1,1.312.417,1.326,1.326,0,0,1,.5,1.068h-.817a.734.734,0,0,0-.283-.576,1.062,1.062,0,0,0-.714-.242,1.111,1.111,0,0,0-.694.193.609.609,0,0,0-.25.505.493.493,0,0,0,.233.444,2.866,2.866,0,0,0,.842.286,4.385,4.385,0,0,1,.987.325,1.439,1.439,0,0,1,.56.455,1.118,1.118,0,0,1,.182.648A1.217,1.217,0,0,1,35.292-.3,2.138,2.138,0,0,1,33.97.088a2.394,2.394,0,0,1-1.011-.2,1.644,1.644,0,0,1-.688-.565,1.361,1.361,0,0,1-.248-.784h.813a.842.842,0,0,0,.327.648,1.27,1.27,0,0,0,.806.24,1.311,1.311,0,0,0,.74-.187A.574.574,0,0,0,34.989-1.261Zm2.975-4.645v1.151h.888v.628h-.888v2.952a.66.66,0,0,0,.119.429.5.5,0,0,0,.4.143,1.968,1.968,0,0,0,.387-.053V0a2.371,2.371,0,0,1-.624.087,1.012,1.012,0,0,1-.822-.33,1.416,1.416,0,0,1-.277-.936V-4.126h-.866v-.628h.866V-5.906ZM42.57-1.261a.6.6,0,0,0-.248-.512,2.39,2.39,0,0,0-.866-.314,4.093,4.093,0,0,1-.98-.316,1.394,1.394,0,0,1-.536-.439,1.051,1.051,0,0,1-.174-.606,1.233,1.233,0,0,1,.494-.989,1.931,1.931,0,0,1,1.263-.4,1.987,1.987,0,0,1,1.312.417,1.326,1.326,0,0,1,.5,1.068h-.817a.734.734,0,0,0-.283-.576,1.062,1.062,0,0,0-.714-.242,1.111,1.111,0,0,0-.694.193.609.609,0,0,0-.25.505.493.493,0,0,0,.233.444,2.866,2.866,0,0,0,.842.286,4.385,4.385,0,0,1,.987.325,1.439,1.439,0,0,1,.56.455,1.118,1.118,0,0,1,.182.648A1.217,1.217,0,0,1,42.873-.3,2.138,2.138,0,0,1,41.55.088a2.394,2.394,0,0,1-1.011-.2,1.644,1.644,0,0,1-.688-.565,1.361,1.361,0,0,1-.248-.784h.813a.842.842,0,0,0,.327.648,1.27,1.27,0,0,0,.806.24,1.311,1.311,0,0,0,.74-.187A.574.574,0,0,0,42.57-1.261Z" transform="translate(1141.142 1409.23)" fill="#12263f"/>
        <path id="Trazado_104508" data-name="Trazado 104508" d="M5.164-5.708H3.107V0H2.268V-5.708H.215V-6.4H5.164Zm.171,3.287A2.808,2.808,0,0,1,5.61-3.678a2.049,2.049,0,0,1,.765-.861,2.081,2.081,0,0,1,1.118-.3,2.005,2.005,0,0,1,1.571.672,2.587,2.587,0,0,1,.6,1.789v.057A2.833,2.833,0,0,1,9.4-1.079a2.019,2.019,0,0,1-.76.859A2.105,2.105,0,0,1,7.5.088,2,2,0,0,1,5.935-.584a2.574,2.574,0,0,1-.6-1.78Zm.817.1a2.034,2.034,0,0,0,.367,1.27A1.174,1.174,0,0,0,7.5-.576a1.167,1.167,0,0,0,.984-.486,2.224,2.224,0,0,0,.365-1.36,2.031,2.031,0,0,0-.371-1.268,1.181,1.181,0,0,0-.987-.486,1.167,1.167,0,0,0-.971.479A2.208,2.208,0,0,0,6.152-2.325Zm8.547,0a2.847,2.847,0,0,1-.5,1.749,1.592,1.592,0,0,1-1.345.664A1.744,1.744,0,0,1,11.5-.461v2.29h-.813V-4.755h.743l.04.527a1.675,1.675,0,0,1,1.38-.615A1.621,1.621,0,0,1,14.2-4.2a2.878,2.878,0,0,1,.5,1.8Zm-.813-.092a2.1,2.1,0,0,0-.343-1.27,1.1,1.1,0,0,0-.94-.466A1.2,1.2,0,0,0,11.5-3.5v2.272a1.2,1.2,0,0,0,1.116.65,1.1,1.1,0,0,0,.929-.464A2.293,2.293,0,0,0,13.887-2.417Zm7.734.743H18.94L18.338,0h-.87l2.443-6.4h.738L23.1,0h-.866ZM19.2-2.364h2.175l-1.09-2.993ZM24.715,0H23.9V-6.75h.813Zm5.326-2.325a2.827,2.827,0,0,1-.5,1.751A1.6,1.6,0,0,1,28.2.088,1.658,1.658,0,0,1,26.8-.549L26.763,0h-.747V-6.75h.813v2.518a1.648,1.648,0,0,1,1.358-.611,1.61,1.61,0,0,1,1.36.655A2.912,2.912,0,0,1,30.041-2.4Zm-.813-.092A2.2,2.2,0,0,0,28.907-3.7a1.062,1.062,0,0,0-.923-.453,1.194,1.194,0,0,0-1.156.747v2.057A1.227,1.227,0,0,0,27.993-.6a1.056,1.056,0,0,0,.91-.453A2.336,2.336,0,0,0,29.228-2.417ZM34-.47a1.727,1.727,0,0,1-1.393.558,1.478,1.478,0,0,1-1.158-.442,1.912,1.912,0,0,1-.4-1.307V-4.755h.813v3.072q0,1.081.879,1.081A1.217,1.217,0,0,0,33.979-1.3V-4.755h.813V0h-.773Zm2.791-4.285.022.527a1.756,1.756,0,0,1,1.411-.615,1.359,1.359,0,0,1,1.358.765,1.8,1.8,0,0,1,.617-.554,1.824,1.824,0,0,1,.9-.211q1.564,0,1.591,1.657V0h-.813V-3.138a1.092,1.092,0,0,0-.233-.762,1.026,1.026,0,0,0-.782-.253,1.078,1.078,0,0,0-.751.27,1.1,1.1,0,0,0-.347.727V0h-.817V-3.116a.907.907,0,0,0-1.015-1.037,1.088,1.088,0,0,0-1.094.681V0h-.813V-4.755Zm9.892,3.494a.6.6,0,0,0-.248-.512,2.39,2.39,0,0,0-.866-.314,4.093,4.093,0,0,1-.98-.316,1.394,1.394,0,0,1-.536-.439,1.051,1.051,0,0,1-.174-.606,1.233,1.233,0,0,1,.494-.989,1.931,1.931,0,0,1,1.263-.4,1.987,1.987,0,0,1,1.312.417,1.326,1.326,0,0,1,.5,1.068h-.817a.734.734,0,0,0-.283-.576,1.062,1.062,0,0,0-.714-.242,1.111,1.111,0,0,0-.694.193.609.609,0,0,0-.25.505.493.493,0,0,0,.233.444,2.866,2.866,0,0,0,.842.286,4.385,4.385,0,0,1,.987.325,1.439,1.439,0,0,1,.56.455,1.118,1.118,0,0,1,.182.648A1.217,1.217,0,0,1,46.986-.3a2.138,2.138,0,0,1-1.323.385,2.394,2.394,0,0,1-1.011-.2,1.644,1.644,0,0,1-.688-.565,1.361,1.361,0,0,1-.248-.784h.813a.842.842,0,0,0,.327.648,1.27,1.27,0,0,0,.806.24,1.311,1.311,0,0,0,.74-.187A.574.574,0,0,0,46.683-1.261Z" transform="translate(1202.913 1411.301)" fill="#12263f"/>
        <path id="Trazado_104517" data-name="Trazado 104517" d="M5.164-5.708H3.107V0H2.268V-5.708H.215V-6.4H5.164Zm.171,3.287A2.808,2.808,0,0,1,5.61-3.678a2.049,2.049,0,0,1,.765-.861,2.081,2.081,0,0,1,1.118-.3,2.005,2.005,0,0,1,1.571.672,2.587,2.587,0,0,1,.6,1.789v.057A2.833,2.833,0,0,1,9.4-1.079a2.019,2.019,0,0,1-.76.859A2.105,2.105,0,0,1,7.5.088,2,2,0,0,1,5.935-.584a2.574,2.574,0,0,1-.6-1.78Zm.817.1a2.034,2.034,0,0,0,.367,1.27A1.174,1.174,0,0,0,7.5-.576a1.167,1.167,0,0,0,.984-.486,2.224,2.224,0,0,0,.365-1.36,2.031,2.031,0,0,0-.371-1.268,1.181,1.181,0,0,0-.987-.486,1.167,1.167,0,0,0-.971.479A2.208,2.208,0,0,0,6.152-2.325Zm8.547,0a2.847,2.847,0,0,1-.5,1.749,1.592,1.592,0,0,1-1.345.664A1.744,1.744,0,0,1,11.5-.461v2.29h-.813V-4.755h.743l.04.527a1.675,1.675,0,0,1,1.38-.615A1.621,1.621,0,0,1,14.2-4.2a2.878,2.878,0,0,1,.5,1.8Zm-.813-.092a2.1,2.1,0,0,0-.343-1.27,1.1,1.1,0,0,0-.94-.466A1.2,1.2,0,0,0,11.5-3.5v2.272a1.2,1.2,0,0,0,1.116.65,1.1,1.1,0,0,0,.929-.464A2.293,2.293,0,0,0,13.887-2.417Zm8.446-3.292H20.276V0h-.839V-5.708H17.385V-6.4h4.948Zm2.791,1.683a2.436,2.436,0,0,0-.4-.031,1.071,1.071,0,0,0-1.085.681V0h-.813V-4.755h.791l.013.549a1.266,1.266,0,0,1,1.134-.637.831.831,0,0,1,.36.062ZM28.63,0a1.708,1.708,0,0,1-.114-.5,1.814,1.814,0,0,1-1.354.589,1.678,1.678,0,0,1-1.154-.4,1.287,1.287,0,0,1-.45-1.009,1.344,1.344,0,0,1,.565-1.154,2.662,2.662,0,0,1,1.589-.411H28.5v-.374a.913.913,0,0,0-.255-.679,1.024,1.024,0,0,0-.751-.253,1.185,1.185,0,0,0-.729.22.647.647,0,0,0-.294.532h-.817a1.122,1.122,0,0,1,.253-.688,1.725,1.725,0,0,1,.686-.525,2.306,2.306,0,0,1,.951-.193,1.88,1.88,0,0,1,1.288.411A1.482,1.482,0,0,1,29.316-3.3v2.188A2.676,2.676,0,0,0,29.483-.07V0ZM27.281-.62a1.429,1.429,0,0,0,.725-.2,1.2,1.2,0,0,0,.5-.514v-.976h-.637q-1.494,0-1.494.875a.74.74,0,0,0,.255.6A.98.98,0,0,0,27.281-.62ZM32.5-.576a1.171,1.171,0,0,0,.76-.264.928.928,0,0,0,.36-.659h.769a1.474,1.474,0,0,1-.281.778,1.852,1.852,0,0,1-.692.589,2,2,0,0,1-.916.22A1.959,1.959,0,0,1,30.953-.56a2.582,2.582,0,0,1-.573-1.773V-2.47A2.863,2.863,0,0,1,30.634-3.7a1.941,1.941,0,0,1,.732-.839,2.078,2.078,0,0,1,1.127-.3,1.907,1.907,0,0,1,1.329.479,1.712,1.712,0,0,1,.565,1.244h-.769a1.12,1.12,0,0,0-.349-.758,1.087,1.087,0,0,0-.776-.3,1.138,1.138,0,0,0-.96.446,2.1,2.1,0,0,0-.341,1.29v.154a2.053,2.053,0,0,0,.338,1.266A1.143,1.143,0,0,0,32.5-.576ZM36.628-2.2l-.51.532V0h-.813V-6.75h.813v4.083l.435-.523,1.481-1.564h.989l-1.85,1.986L39.239,0h-.954Zm6,.94a.6.6,0,0,0-.248-.512,2.39,2.39,0,0,0-.866-.314,4.093,4.093,0,0,1-.98-.316A1.394,1.394,0,0,1,40-2.843a1.051,1.051,0,0,1-.174-.606,1.233,1.233,0,0,1,.494-.989,1.931,1.931,0,0,1,1.263-.4,1.987,1.987,0,0,1,1.312.417,1.326,1.326,0,0,1,.5,1.068h-.817a.734.734,0,0,0-.283-.576,1.062,1.062,0,0,0-.714-.242,1.111,1.111,0,0,0-.694.193.609.609,0,0,0-.25.505.493.493,0,0,0,.233.444,2.866,2.866,0,0,0,.842.286,4.385,4.385,0,0,1,.987.325,1.439,1.439,0,0,1,.56.455,1.118,1.118,0,0,1,.182.648A1.217,1.217,0,0,1,42.935-.3a2.138,2.138,0,0,1-1.323.385,2.394,2.394,0,0,1-1.011-.2,1.644,1.644,0,0,1-.688-.565,1.361,1.361,0,0,1-.248-.784h.813a.842.842,0,0,0,.327.648,1.27,1.27,0,0,0,.806.24,1.311,1.311,0,0,0,.74-.187A.574.574,0,0,0,42.631-1.261Z" transform="translate(1967.307 1295.551)" fill="#12263f"/>
        <path id="Trazado_104509" data-name="Trazado 104509" d="M5.164-5.708H3.107V0H2.268V-5.708H.215V-6.4H5.164Zm.171,3.287A2.808,2.808,0,0,1,5.61-3.678a2.049,2.049,0,0,1,.765-.861,2.081,2.081,0,0,1,1.118-.3,2.005,2.005,0,0,1,1.571.672,2.587,2.587,0,0,1,.6,1.789v.057A2.833,2.833,0,0,1,9.4-1.079a2.019,2.019,0,0,1-.76.859A2.105,2.105,0,0,1,7.5.088,2,2,0,0,1,5.935-.584a2.574,2.574,0,0,1-.6-1.78Zm.817.1a2.034,2.034,0,0,0,.367,1.27A1.174,1.174,0,0,0,7.5-.576a1.167,1.167,0,0,0,.984-.486,2.224,2.224,0,0,0,.365-1.36,2.031,2.031,0,0,0-.371-1.268,1.181,1.181,0,0,0-.987-.486,1.167,1.167,0,0,0-.971.479A2.208,2.208,0,0,0,6.152-2.325Zm8.547,0a2.847,2.847,0,0,1-.5,1.749,1.592,1.592,0,0,1-1.345.664A1.744,1.744,0,0,1,11.5-.461v2.29h-.813V-4.755h.743l.04.527a1.675,1.675,0,0,1,1.38-.615A1.621,1.621,0,0,1,14.2-4.2a2.878,2.878,0,0,1,.5,1.8Zm-.813-.092a2.1,2.1,0,0,0-.343-1.27,1.1,1.1,0,0,0-.94-.466A1.2,1.2,0,0,0,11.5-3.5v2.272a1.2,1.2,0,0,0,1.116.65,1.1,1.1,0,0,0,.929-.464A2.293,2.293,0,0,0,13.887-2.417Zm8.446-3.292H20.276V0h-.839V-5.708H17.385V-6.4h4.948Zm2.791,1.683a2.436,2.436,0,0,0-.4-.031,1.071,1.071,0,0,0-1.085.681V0h-.813V-4.755h.791l.013.549a1.266,1.266,0,0,1,1.134-.637.831.831,0,0,1,.36.062ZM28.63,0a1.708,1.708,0,0,1-.114-.5,1.814,1.814,0,0,1-1.354.589,1.678,1.678,0,0,1-1.154-.4,1.287,1.287,0,0,1-.45-1.009,1.344,1.344,0,0,1,.565-1.154,2.662,2.662,0,0,1,1.589-.411H28.5v-.374a.913.913,0,0,0-.255-.679,1.024,1.024,0,0,0-.751-.253,1.185,1.185,0,0,0-.729.22.647.647,0,0,0-.294.532h-.817a1.122,1.122,0,0,1,.253-.688,1.725,1.725,0,0,1,.686-.525,2.306,2.306,0,0,1,.951-.193,1.88,1.88,0,0,1,1.288.411A1.482,1.482,0,0,1,29.316-3.3v2.188A2.676,2.676,0,0,0,29.483-.07V0ZM27.281-.62a1.429,1.429,0,0,0,.725-.2,1.2,1.2,0,0,0,.5-.514v-.976h-.637q-1.494,0-1.494.875a.74.74,0,0,0,.255.6A.98.98,0,0,0,27.281-.62ZM32.5-.576a1.171,1.171,0,0,0,.76-.264.928.928,0,0,0,.36-.659h.769a1.474,1.474,0,0,1-.281.778,1.852,1.852,0,0,1-.692.589,2,2,0,0,1-.916.22A1.959,1.959,0,0,1,30.953-.56a2.582,2.582,0,0,1-.573-1.773V-2.47A2.863,2.863,0,0,1,30.634-3.7a1.941,1.941,0,0,1,.732-.839,2.078,2.078,0,0,1,1.127-.3,1.907,1.907,0,0,1,1.329.479,1.712,1.712,0,0,1,.565,1.244h-.769a1.12,1.12,0,0,0-.349-.758,1.087,1.087,0,0,0-.776-.3,1.138,1.138,0,0,0-.96.446,2.1,2.1,0,0,0-.341,1.29v.154a2.053,2.053,0,0,0,.338,1.266A1.143,1.143,0,0,0,32.5-.576ZM36.628-2.2l-.51.532V0h-.813V-6.75h.813v4.083l.435-.523,1.481-1.564h.989l-1.85,1.986L39.239,0h-.954Zm6,.94a.6.6,0,0,0-.248-.512,2.39,2.39,0,0,0-.866-.314,4.093,4.093,0,0,1-.98-.316A1.394,1.394,0,0,1,40-2.843a1.051,1.051,0,0,1-.174-.606,1.233,1.233,0,0,1,.494-.989,1.931,1.931,0,0,1,1.263-.4,1.987,1.987,0,0,1,1.312.417,1.326,1.326,0,0,1,.5,1.068h-.817a.734.734,0,0,0-.283-.576,1.062,1.062,0,0,0-.714-.242,1.111,1.111,0,0,0-.694.193.609.609,0,0,0-.25.505.493.493,0,0,0,.233.444,2.866,2.866,0,0,0,.842.286,4.385,4.385,0,0,1,.987.325,1.439,1.439,0,0,1,.56.455,1.118,1.118,0,0,1,.182.648A1.217,1.217,0,0,1,42.935-.3a2.138,2.138,0,0,1-1.323.385,2.394,2.394,0,0,1-1.011-.2,1.644,1.644,0,0,1-.688-.565,1.361,1.361,0,0,1-.248-.784h.813a.842.842,0,0,0,.327.648,1.27,1.27,0,0,0,.806.24,1.311,1.311,0,0,0,.74-.187A.574.574,0,0,0,42.631-1.261Z" transform="translate(1267.859 1409.23)" fill="#12263f"/>
        <path id="Trazado_104510" data-name="Trazado 104510" d="M1.586-2.5V0H.743V-6.4H3.1a2.371,2.371,0,0,1,1.646.536,1.818,1.818,0,0,1,.6,1.419,1.794,1.794,0,0,1-.582,1.435,2.477,2.477,0,0,1-1.668.5Zm0-.69H3.1A1.516,1.516,0,0,0,4.14-3.514a1.167,1.167,0,0,0,.36-.922,1.206,1.206,0,0,0-.36-.916,1.42,1.42,0,0,0-.989-.357H1.586ZM7.176,0H6.363V-6.75h.813Zm4.236,0A1.708,1.708,0,0,1,11.3-.5,1.814,1.814,0,0,1,9.945.088a1.678,1.678,0,0,1-1.154-.4,1.287,1.287,0,0,1-.45-1.009,1.344,1.344,0,0,1,.565-1.154,2.662,2.662,0,0,1,1.589-.411h.791v-.374a.913.913,0,0,0-.255-.679,1.024,1.024,0,0,0-.751-.253,1.185,1.185,0,0,0-.729.22.647.647,0,0,0-.294.532H8.438a1.122,1.122,0,0,1,.253-.688,1.725,1.725,0,0,1,.686-.525,2.306,2.306,0,0,1,.951-.193,1.88,1.88,0,0,1,1.288.411A1.482,1.482,0,0,1,12.1-3.3v2.188A2.676,2.676,0,0,0,12.265-.07V0ZM10.063-.62a1.429,1.429,0,0,0,.725-.2,1.2,1.2,0,0,0,.5-.514v-.976h-.637q-1.494,0-1.494.875a.74.74,0,0,0,.255.6A.98.98,0,0,0,10.063-.62Zm4.8-.571L15.97-4.755h.87L14.928.734Q14.484,1.92,13.518,1.92l-.154-.013-.3-.057V1.191l.22.018a1.082,1.082,0,0,0,.644-.167A1.209,1.209,0,0,0,14.3.431l.18-.483-1.7-4.7h.888ZM19.481.088a2.078,2.078,0,0,1-1.573-.635,2.357,2.357,0,0,1-.606-1.7V-2.4a2.853,2.853,0,0,1,.27-1.263,2.108,2.108,0,0,1,.756-.87,1.9,1.9,0,0,1,1.052-.314,1.781,1.781,0,0,1,1.441.611,2.645,2.645,0,0,1,.514,1.749v.338H18.114a1.69,1.69,0,0,0,.411,1.136,1.292,1.292,0,0,0,1,.433,1.416,1.416,0,0,0,.729-.176,1.833,1.833,0,0,0,.523-.466l.5.387A2,2,0,0,1,19.481.088Zm-.1-4.263a1.084,1.084,0,0,0-.826.358,1.741,1.741,0,0,0-.413,1h2.382v-.062a1.548,1.548,0,0,0-.334-.96A1.021,1.021,0,0,0,19.38-4.175Zm2.7,1.758a2.785,2.785,0,0,1,.519-1.76,1.64,1.64,0,0,1,1.358-.666,1.649,1.649,0,0,1,1.323.571V-6.75h.813V0h-.747L25.3-.51a1.656,1.656,0,0,1-1.358.6A1.624,1.624,0,0,1,22.6-.589a2.817,2.817,0,0,1-.521-1.767Zm.813.092a2.109,2.109,0,0,0,.334,1.266,1.08,1.08,0,0,0,.923.457A1.186,1.186,0,0,0,25.277-1.3V-3.48a1.2,1.2,0,0,0-1.121-.672,1.085,1.085,0,0,0-.932.461A2.322,2.322,0,0,0,22.891-2.325Z" transform="translate(1339.6 1409.23)" fill="#12263f"/>
        <path id="Trazado_104511" data-name="Trazado 104511" d="M1.833-6.4,3.924-1.178,6.016-6.4H7.11V0H6.267V-2.492l.079-2.689L4.245,0H3.6L1.5-5.168l.083,2.676V0H.743V-6.4Zm8.2,5.208,1.107-3.564h.87L10.094.734Q9.65,1.92,8.684,1.92L8.53,1.907l-.3-.057V1.191l.22.018a1.082,1.082,0,0,0,.644-.167A1.209,1.209,0,0,0,9.47.431l.18-.483-1.7-4.7h.888ZM15.842,0h-.813V-6.75h.813Zm2.184,0h-.813V-4.755h.813Zm-.879-6.016a.485.485,0,0,1,.121-.334.454.454,0,0,1,.358-.136.461.461,0,0,1,.36.136.48.48,0,0,1,.123.334.464.464,0,0,1-.123.33.469.469,0,0,1-.36.132.462.462,0,0,1-.358-.132A.469.469,0,0,1,17.147-6.016Zm6.205,3.691a2.827,2.827,0,0,1-.5,1.751,1.6,1.6,0,0,1-1.345.661,1.658,1.658,0,0,1-1.393-.637L20.074,0h-.747V-6.75h.813v2.518A1.648,1.648,0,0,1,21.5-4.843a1.61,1.61,0,0,1,1.36.655A2.912,2.912,0,0,1,23.353-2.4Zm-.813-.092A2.2,2.2,0,0,0,22.219-3.7a1.062,1.062,0,0,0-.923-.453,1.194,1.194,0,0,0-1.156.747v2.057A1.227,1.227,0,0,0,21.3-.6a1.056,1.056,0,0,0,.91-.453A2.336,2.336,0,0,0,22.54-2.417Zm4.135-1.608a2.436,2.436,0,0,0-.4-.031,1.071,1.071,0,0,0-1.085.681V0h-.813V-4.755h.791l.013.549a1.266,1.266,0,0,1,1.134-.637.831.831,0,0,1,.36.062ZM30.182,0a1.708,1.708,0,0,1-.114-.5,1.814,1.814,0,0,1-1.354.589,1.678,1.678,0,0,1-1.154-.4,1.287,1.287,0,0,1-.45-1.009,1.344,1.344,0,0,1,.565-1.154,2.662,2.662,0,0,1,1.589-.411h.791v-.374a.913.913,0,0,0-.255-.679,1.024,1.024,0,0,0-.751-.253,1.185,1.185,0,0,0-.729.22.647.647,0,0,0-.294.532h-.817a1.122,1.122,0,0,1,.253-.688,1.725,1.725,0,0,1,.686-.525,2.306,2.306,0,0,1,.951-.193,1.88,1.88,0,0,1,1.288.411A1.482,1.482,0,0,1,30.867-3.3v2.188A2.676,2.676,0,0,0,31.034-.07V0ZM28.833-.62a1.429,1.429,0,0,0,.725-.2,1.2,1.2,0,0,0,.5-.514v-.976h-.637q-1.494,0-1.494.875a.74.74,0,0,0,.255.6A.98.98,0,0,0,28.833-.62ZM34.44-4.025a2.436,2.436,0,0,0-.4-.031,1.071,1.071,0,0,0-1.085.681V0h-.813V-4.755h.791l.013.549a1.266,1.266,0,0,1,1.134-.637.831.831,0,0,1,.36.062Zm2.382,2.834,1.107-3.564h.87L36.888.734Q36.444,1.92,35.477,1.92l-.154-.013-.3-.057V1.191l.22.018a1.082,1.082,0,0,0,.644-.167,1.209,1.209,0,0,0,.38-.611l.18-.483-1.7-4.7h.888Z" transform="translate(1541.433 1409.23)" fill="#12263f"/>
        <path id="Trazado_104512" data-name="Trazado 104512" d="M3.089-2.588h-1.5V0H.738V-6.4H2.856a2.507,2.507,0,0,1,1.663.492A1.771,1.771,0,0,1,5.1-4.474a1.723,1.723,0,0,1-.323,1.042,1.928,1.928,0,0,1-.9.664l1.5,2.716V0H4.478Zm-1.5-.69h1.3a1.462,1.462,0,0,0,1-.326,1.1,1.1,0,0,0,.371-.872A1.16,1.16,0,0,0,3.9-5.387a1.5,1.5,0,0,0-1.022-.321H1.586ZM8.13.088A2.078,2.078,0,0,1,6.557-.547a2.357,2.357,0,0,1-.606-1.7V-2.4a2.853,2.853,0,0,1,.27-1.263,2.108,2.108,0,0,1,.756-.87,1.9,1.9,0,0,1,1.052-.314,1.781,1.781,0,0,1,1.441.611,2.645,2.645,0,0,1,.514,1.749v.338H6.763a1.69,1.69,0,0,0,.411,1.136,1.292,1.292,0,0,0,1,.433A1.416,1.416,0,0,0,8.9-.751a1.833,1.833,0,0,0,.523-.466l.5.387A2,2,0,0,1,8.13.088Zm-.1-4.263a1.084,1.084,0,0,0-.826.358,1.741,1.741,0,0,0-.413,1H9.171v-.062a1.548,1.548,0,0,0-.334-.96A1.021,1.021,0,0,0,8.029-4.175Zm4.8,3.6a1.171,1.171,0,0,0,.76-.264.928.928,0,0,0,.36-.659h.769a1.474,1.474,0,0,1-.281.778,1.852,1.852,0,0,1-.692.589,2,2,0,0,1-.916.22A1.959,1.959,0,0,1,11.287-.56a2.582,2.582,0,0,1-.573-1.773V-2.47A2.863,2.863,0,0,1,10.969-3.7a1.941,1.941,0,0,1,.732-.839,2.078,2.078,0,0,1,1.127-.3,1.907,1.907,0,0,1,1.329.479,1.712,1.712,0,0,1,.565,1.244h-.769a1.12,1.12,0,0,0-.349-.758,1.087,1.087,0,0,0-.776-.3,1.138,1.138,0,0,0-.96.446,2.1,2.1,0,0,0-.341,1.29v.154a2.053,2.053,0,0,0,.338,1.266A1.143,1.143,0,0,0,12.832-.576ZM15.42-2.421A2.808,2.808,0,0,1,15.7-3.678a2.049,2.049,0,0,1,.765-.861,2.081,2.081,0,0,1,1.118-.3,2.005,2.005,0,0,1,1.571.672,2.587,2.587,0,0,1,.6,1.789v.057a2.833,2.833,0,0,1-.266,1.246,2.019,2.019,0,0,1-.76.859,2.105,2.105,0,0,1-1.136.308A2,2,0,0,1,16.02-.584a2.574,2.574,0,0,1-.6-1.78Zm.817.1a2.034,2.034,0,0,0,.367,1.27,1.174,1.174,0,0,0,.982.479,1.167,1.167,0,0,0,.984-.486,2.224,2.224,0,0,0,.365-1.36,2.031,2.031,0,0,0-.371-1.268,1.181,1.181,0,0,0-.987-.486,1.167,1.167,0,0,0-.971.479A2.208,2.208,0,0,0,16.238-2.325Zm5.3-2.43.022.527a1.756,1.756,0,0,1,1.411-.615,1.359,1.359,0,0,1,1.358.765,1.8,1.8,0,0,1,.617-.554,1.824,1.824,0,0,1,.9-.211q1.564,0,1.591,1.657V0h-.813V-3.138a1.092,1.092,0,0,0-.233-.762,1.026,1.026,0,0,0-.782-.253,1.078,1.078,0,0,0-.751.27,1.1,1.1,0,0,0-.347.727V0h-.817V-3.116a.907.907,0,0,0-1.015-1.037,1.088,1.088,0,0,0-1.094.681V0h-.813V-4.755Zm7.888,0,.022.527a1.756,1.756,0,0,1,1.411-.615,1.359,1.359,0,0,1,1.358.765,1.8,1.8,0,0,1,.617-.554,1.824,1.824,0,0,1,.9-.211q1.564,0,1.591,1.657V0h-.813V-3.138a1.092,1.092,0,0,0-.233-.762,1.026,1.026,0,0,0-.782-.253,1.078,1.078,0,0,0-.751.27,1.1,1.1,0,0,0-.347.727V0h-.817V-3.116A.907.907,0,0,0,30.56-4.153a1.088,1.088,0,0,0-1.094.681V0h-.813V-4.755Zm9.1,4.843a2.078,2.078,0,0,1-1.573-.635,2.357,2.357,0,0,1-.606-1.7V-2.4a2.853,2.853,0,0,1,.27-1.263,2.108,2.108,0,0,1,.756-.87,1.9,1.9,0,0,1,1.052-.314,1.781,1.781,0,0,1,1.441.611,2.645,2.645,0,0,1,.514,1.749v.338H37.151a1.69,1.69,0,0,0,.411,1.136,1.292,1.292,0,0,0,1,.433,1.416,1.416,0,0,0,.729-.176,1.833,1.833,0,0,0,.523-.466l.5.387A2,2,0,0,1,38.518.088Zm-.1-4.263a1.084,1.084,0,0,0-.826.358,1.741,1.741,0,0,0-.413,1H39.56v-.062a1.548,1.548,0,0,0-.334-.96A1.021,1.021,0,0,0,38.417-4.175Zm3.665-.58.026.6a1.733,1.733,0,0,1,1.424-.686q1.507,0,1.521,1.7V0H44.24V-3.146A1.1,1.1,0,0,0,44-3.907a.942.942,0,0,0-.719-.246,1.173,1.173,0,0,0-.694.211,1.432,1.432,0,0,0-.466.554V0h-.813V-4.755Zm4,2.338a2.785,2.785,0,0,1,.519-1.76,1.64,1.64,0,0,1,1.358-.666,1.649,1.649,0,0,1,1.323.571V-6.75h.813V0h-.747l-.04-.51a1.656,1.656,0,0,1-1.358.6A1.624,1.624,0,0,1,46.6-.589a2.817,2.817,0,0,1-.521-1.767Zm.813.092a2.109,2.109,0,0,0,.334,1.266,1.08,1.08,0,0,0,.923.457A1.186,1.186,0,0,0,49.28-1.3V-3.48a1.2,1.2,0,0,0-1.121-.672,1.085,1.085,0,0,0-.932.461A2.322,2.322,0,0,0,46.894-2.325ZM53.328.088a2.078,2.078,0,0,1-1.573-.635,2.357,2.357,0,0,1-.606-1.7V-2.4a2.853,2.853,0,0,1,.27-1.263,2.108,2.108,0,0,1,.756-.87,1.9,1.9,0,0,1,1.052-.314,1.781,1.781,0,0,1,1.441.611,2.645,2.645,0,0,1,.514,1.749v.338H51.961a1.69,1.69,0,0,0,.411,1.136,1.292,1.292,0,0,0,1,.433A1.416,1.416,0,0,0,54.1-.751a1.833,1.833,0,0,0,.523-.466l.5.387A2,2,0,0,1,53.328.088Zm-.1-4.263a1.084,1.084,0,0,0-.826.358,1.741,1.741,0,0,0-.413,1h2.382v-.062a1.548,1.548,0,0,0-.334-.96A1.021,1.021,0,0,0,53.227-4.175Zm2.7,1.758a2.785,2.785,0,0,1,.519-1.76A1.64,1.64,0,0,1,57.8-4.843a1.649,1.649,0,0,1,1.323.571V-6.75h.813V0H59.19l-.04-.51a1.656,1.656,0,0,1-1.358.6,1.624,1.624,0,0,1-1.347-.677,2.817,2.817,0,0,1-.521-1.767Zm.813.092a2.109,2.109,0,0,0,.334,1.266,1.08,1.08,0,0,0,.923.457A1.186,1.186,0,0,0,59.124-1.3V-3.48A1.2,1.2,0,0,0,58-4.153a1.085,1.085,0,0,0-.932.461A2.322,2.322,0,0,0,56.738-2.325Z" transform="translate(1598.142 1409.23)" fill="#12263f"/>
        <path id="Trazado_104513" data-name="Trazado 104513" d="M3.089-2.588h-1.5V0H.738V-6.4H2.856a2.507,2.507,0,0,1,1.663.492A1.771,1.771,0,0,1,5.1-4.474a1.723,1.723,0,0,1-.323,1.042,1.928,1.928,0,0,1-.9.664l1.5,2.716V0H4.478Zm-1.5-.69h1.3a1.462,1.462,0,0,0,1-.326,1.1,1.1,0,0,0,.371-.872A1.16,1.16,0,0,0,3.9-5.387a1.5,1.5,0,0,0-1.022-.321H1.586ZM8.13.088A2.078,2.078,0,0,1,6.557-.547a2.357,2.357,0,0,1-.606-1.7V-2.4a2.853,2.853,0,0,1,.27-1.263,2.108,2.108,0,0,1,.756-.87,1.9,1.9,0,0,1,1.052-.314,1.781,1.781,0,0,1,1.441.611,2.645,2.645,0,0,1,.514,1.749v.338H6.763a1.69,1.69,0,0,0,.411,1.136,1.292,1.292,0,0,0,1,.433A1.416,1.416,0,0,0,8.9-.751a1.833,1.833,0,0,0,.523-.466l.5.387A2,2,0,0,1,8.13.088Zm-.1-4.263a1.084,1.084,0,0,0-.826.358,1.741,1.741,0,0,0-.413,1H9.171v-.062a1.548,1.548,0,0,0-.334-.96A1.021,1.021,0,0,0,8.029-4.175Zm4.8,3.6a1.171,1.171,0,0,0,.76-.264.928.928,0,0,0,.36-.659h.769a1.474,1.474,0,0,1-.281.778,1.852,1.852,0,0,1-.692.589,2,2,0,0,1-.916.22A1.959,1.959,0,0,1,11.287-.56a2.582,2.582,0,0,1-.573-1.773V-2.47A2.863,2.863,0,0,1,10.969-3.7a1.941,1.941,0,0,1,.732-.839,2.078,2.078,0,0,1,1.127-.3,1.907,1.907,0,0,1,1.329.479,1.712,1.712,0,0,1,.565,1.244h-.769a1.12,1.12,0,0,0-.349-.758,1.087,1.087,0,0,0-.776-.3,1.138,1.138,0,0,0-.96.446,2.1,2.1,0,0,0-.341,1.29v.154a2.053,2.053,0,0,0,.338,1.266A1.143,1.143,0,0,0,12.832-.576Zm4.777.664a2.078,2.078,0,0,1-1.573-.635,2.357,2.357,0,0,1-.606-1.7V-2.4a2.853,2.853,0,0,1,.27-1.263,2.108,2.108,0,0,1,.756-.87,1.9,1.9,0,0,1,1.052-.314,1.781,1.781,0,0,1,1.441.611,2.645,2.645,0,0,1,.514,1.749v.338H16.242a1.69,1.69,0,0,0,.411,1.136,1.292,1.292,0,0,0,1,.433,1.416,1.416,0,0,0,.729-.176,1.833,1.833,0,0,0,.523-.466l.5.387A2,2,0,0,1,17.609.088Zm-.1-4.263a1.084,1.084,0,0,0-.826.358,1.741,1.741,0,0,0-.413,1H18.65v-.062a1.548,1.548,0,0,0-.334-.96A1.021,1.021,0,0,0,17.508-4.175Zm3.665-.58.026.6a1.733,1.733,0,0,1,1.424-.686q1.507,0,1.521,1.7V0h-.813V-3.146a1.1,1.1,0,0,0-.235-.76.942.942,0,0,0-.719-.246,1.173,1.173,0,0,0-.694.211,1.432,1.432,0,0,0-.466.554V0H20.4V-4.755Zm5.3-1.151v1.151h.888v.628h-.888v2.952a.66.66,0,0,0,.119.429A.5.5,0,0,0,27-.6a1.968,1.968,0,0,0,.387-.053V0a2.371,2.371,0,0,1-.624.087,1.012,1.012,0,0,1-.822-.33,1.416,1.416,0,0,1-.277-.936V-4.126h-.866v-.628h.866V-5.906Z" transform="translate(1672.142 1409.23)" fill="#12263f"/>
        <path id="Trazado_104500" data-name="Trazado 104500" d="M5.449-2.03A2.354,2.354,0,0,1,4.7-.464,2.456,2.456,0,0,1,3.023.088,2.255,2.255,0,0,1,1.206-.725,3.271,3.271,0,0,1,.523-2.9v-.615A3.646,3.646,0,0,1,.842-5.084a2.38,2.38,0,0,1,.9-1.039A2.514,2.514,0,0,1,3.1-6.486a2.312,2.312,0,0,1,1.635.569,2.382,2.382,0,0,1,.716,1.575H4.6a1.838,1.838,0,0,0-.477-1.111A1.443,1.443,0,0,0,3.1-5.8a1.51,1.51,0,0,0-1.268.6,2.746,2.746,0,0,0-.459,1.7v.62a2.823,2.823,0,0,0,.435,1.658A1.406,1.406,0,0,0,3.023-.6,1.624,1.624,0,0,0,4.1-.921a1.768,1.768,0,0,0,.5-1.11ZM9.409,0a1.708,1.708,0,0,1-.114-.5A1.814,1.814,0,0,1,7.941.088a1.678,1.678,0,0,1-1.154-.4,1.287,1.287,0,0,1-.45-1.009A1.344,1.344,0,0,1,6.9-2.472,2.662,2.662,0,0,1,8.49-2.883h.791v-.374a.913.913,0,0,0-.255-.679,1.024,1.024,0,0,0-.751-.253,1.185,1.185,0,0,0-.729.22.647.647,0,0,0-.294.532H6.434a1.122,1.122,0,0,1,.253-.688,1.725,1.725,0,0,1,.686-.525,2.306,2.306,0,0,1,.951-.193,1.88,1.88,0,0,1,1.288.411A1.482,1.482,0,0,1,10.094-3.3v2.188A2.676,2.676,0,0,0,10.261-.07V0ZM8.06-.62a1.429,1.429,0,0,0,.725-.2,1.2,1.2,0,0,0,.5-.514v-.976H8.644q-1.494,0-1.494.875a.74.74,0,0,0,.255.6A.98.98,0,0,0,8.06-.62Zm4.078-4.135.026.6a1.733,1.733,0,0,1,1.424-.686q1.507,0,1.521,1.7V0H14.3V-3.146a1.1,1.1,0,0,0-.235-.76.942.942,0,0,0-.719-.246,1.173,1.173,0,0,0-.694.211,1.432,1.432,0,0,0-.466.554V0h-.813V-4.755Zm6.1,4.179A1.171,1.171,0,0,0,19-.839a.928.928,0,0,0,.36-.659h.769a1.474,1.474,0,0,1-.281.778,1.852,1.852,0,0,1-.692.589,2,2,0,0,1-.916.22A1.959,1.959,0,0,1,16.7-.56a2.582,2.582,0,0,1-.573-1.773V-2.47A2.863,2.863,0,0,1,16.378-3.7a1.941,1.941,0,0,1,.732-.839,2.078,2.078,0,0,1,1.127-.3,1.907,1.907,0,0,1,1.329.479,1.712,1.712,0,0,1,.565,1.244h-.769a1.12,1.12,0,0,0-.349-.758,1.087,1.087,0,0,0-.776-.3,1.138,1.138,0,0,0-.96.446,2.1,2.1,0,0,0-.341,1.29v.154a2.053,2.053,0,0,0,.338,1.266A1.143,1.143,0,0,0,18.242-.576Zm4.777.664a2.078,2.078,0,0,1-1.573-.635,2.357,2.357,0,0,1-.606-1.7V-2.4a2.853,2.853,0,0,1,.27-1.263,2.108,2.108,0,0,1,.756-.87,1.9,1.9,0,0,1,1.052-.314,1.781,1.781,0,0,1,1.441.611,2.645,2.645,0,0,1,.514,1.749v.338H21.652a1.69,1.69,0,0,0,.411,1.136,1.292,1.292,0,0,0,1,.433,1.416,1.416,0,0,0,.729-.176,1.833,1.833,0,0,0,.523-.466l.5.387A2,2,0,0,1,23.019.088Zm-.1-4.263a1.084,1.084,0,0,0-.826.358,1.741,1.741,0,0,0-.413,1H24.06v-.062a1.548,1.548,0,0,0-.334-.96A1.021,1.021,0,0,0,22.917-4.175ZM26.7,0h-.813V-6.75H26.7Z" transform="translate(1976.307 1059.007)" fill="#12263f"/>
        <path id="Trazado_104498" data-name="Trazado 104498" d="M4.359-2.958H1.586V-.69H4.808V0H.743V-6.4H4.764v.69H1.586v2.061H4.359ZM8.029-4.025a2.436,2.436,0,0,0-.4-.031,1.071,1.071,0,0,0-1.085.681V0H5.73V-4.755h.791l.013.549a1.266,1.266,0,0,1,1.134-.637.831.831,0,0,1,.36.062Zm3.045,0a2.436,2.436,0,0,0-.4-.031,1.071,1.071,0,0,0-1.085.681V0H8.776V-4.755h.791l.013.549a1.266,1.266,0,0,1,1.134-.637.831.831,0,0,1,.36.062Zm.444,1.6a2.808,2.808,0,0,1,.275-1.257,2.049,2.049,0,0,1,.765-.861,2.081,2.081,0,0,1,1.118-.3,2.005,2.005,0,0,1,1.571.672,2.587,2.587,0,0,1,.6,1.789v.057a2.833,2.833,0,0,1-.266,1.246,2.019,2.019,0,0,1-.76.859,2.105,2.105,0,0,1-1.136.308,2,2,0,0,1-1.567-.672,2.574,2.574,0,0,1-.6-1.78Zm.817.1a2.034,2.034,0,0,0,.367,1.27,1.174,1.174,0,0,0,.982.479,1.167,1.167,0,0,0,.984-.486,2.224,2.224,0,0,0,.365-1.36,2.031,2.031,0,0,0-.371-1.268,1.181,1.181,0,0,0-.987-.486A1.167,1.167,0,0,0,12.7-3.7,2.208,2.208,0,0,0,12.335-2.325Zm7.3,1.063a.6.6,0,0,0-.248-.512,2.39,2.39,0,0,0-.866-.314,4.093,4.093,0,0,1-.98-.316A1.394,1.394,0,0,1,17-2.843a1.051,1.051,0,0,1-.174-.606,1.233,1.233,0,0,1,.494-.989,1.931,1.931,0,0,1,1.263-.4,1.987,1.987,0,0,1,1.312.417,1.326,1.326,0,0,1,.5,1.068h-.817a.734.734,0,0,0-.283-.576,1.062,1.062,0,0,0-.714-.242,1.111,1.111,0,0,0-.694.193.609.609,0,0,0-.25.505.493.493,0,0,0,.233.444,2.866,2.866,0,0,0,.842.286,4.385,4.385,0,0,1,.987.325,1.439,1.439,0,0,1,.56.455,1.118,1.118,0,0,1,.182.648A1.217,1.217,0,0,1,19.938-.3a2.138,2.138,0,0,1-1.323.385,2.394,2.394,0,0,1-1.011-.2,1.644,1.644,0,0,1-.688-.565,1.361,1.361,0,0,1-.248-.784h.813a.842.842,0,0,0,.327.648,1.27,1.27,0,0,0,.806.24,1.311,1.311,0,0,0,.74-.187A.574.574,0,0,0,19.635-1.261ZM24.5-4.755l.022.527a1.756,1.756,0,0,1,1.411-.615,1.359,1.359,0,0,1,1.358.765,1.8,1.8,0,0,1,.617-.554,1.824,1.824,0,0,1,.9-.211q1.564,0,1.591,1.657V0h-.813V-3.138a1.092,1.092,0,0,0-.233-.762,1.026,1.026,0,0,0-.782-.253,1.078,1.078,0,0,0-.751.27,1.1,1.1,0,0,0-.347.727V0h-.817V-3.116a.907.907,0,0,0-1.015-1.037,1.088,1.088,0,0,0-1.094.681V0H23.73V-4.755ZM33.6.088a2.078,2.078,0,0,1-1.573-.635,2.357,2.357,0,0,1-.606-1.7V-2.4a2.853,2.853,0,0,1,.27-1.263,2.108,2.108,0,0,1,.756-.87A1.9,1.9,0,0,1,33.5-4.843a1.781,1.781,0,0,1,1.441.611,2.645,2.645,0,0,1,.514,1.749v.338H32.229a1.69,1.69,0,0,0,.411,1.136,1.292,1.292,0,0,0,1,.433,1.416,1.416,0,0,0,.729-.176,1.833,1.833,0,0,0,.523-.466l.5.387A2,2,0,0,1,33.6.088Zm-.1-4.263a1.084,1.084,0,0,0-.826.358,1.741,1.741,0,0,0-.413,1h2.382v-.062a1.548,1.548,0,0,0-.334-.96A1.021,1.021,0,0,0,33.5-4.175ZM39.16-1.261a.6.6,0,0,0-.248-.512,2.39,2.39,0,0,0-.866-.314,4.093,4.093,0,0,1-.98-.316,1.394,1.394,0,0,1-.536-.439,1.051,1.051,0,0,1-.174-.606,1.233,1.233,0,0,1,.494-.989,1.931,1.931,0,0,1,1.263-.4,1.987,1.987,0,0,1,1.312.417,1.326,1.326,0,0,1,.5,1.068h-.817a.734.734,0,0,0-.283-.576,1.062,1.062,0,0,0-.714-.242,1.111,1.111,0,0,0-.694.193.609.609,0,0,0-.25.505.493.493,0,0,0,.233.444,2.866,2.866,0,0,0,.842.286,4.385,4.385,0,0,1,.987.325,1.439,1.439,0,0,1,.56.455,1.118,1.118,0,0,1,.182.648A1.217,1.217,0,0,1,39.463-.3,2.138,2.138,0,0,1,38.14.088a2.394,2.394,0,0,1-1.011-.2,1.644,1.644,0,0,1-.688-.565,1.361,1.361,0,0,1-.248-.784h.813a.842.842,0,0,0,.327.648,1.27,1.27,0,0,0,.806.24,1.311,1.311,0,0,0,.74-.187A.574.574,0,0,0,39.16-1.261Zm4.641,0a.6.6,0,0,0-.248-.512,2.39,2.39,0,0,0-.866-.314,4.093,4.093,0,0,1-.98-.316,1.394,1.394,0,0,1-.536-.439A1.051,1.051,0,0,1,41-3.45a1.233,1.233,0,0,1,.494-.989,1.931,1.931,0,0,1,1.263-.4,1.987,1.987,0,0,1,1.312.417,1.326,1.326,0,0,1,.5,1.068h-.817a.734.734,0,0,0-.283-.576,1.062,1.062,0,0,0-.714-.242,1.111,1.111,0,0,0-.694.193.609.609,0,0,0-.25.505.493.493,0,0,0,.233.444,2.866,2.866,0,0,0,.842.286,4.385,4.385,0,0,1,.987.325,1.439,1.439,0,0,1,.56.455,1.118,1.118,0,0,1,.182.648A1.217,1.217,0,0,1,44.1-.3a2.138,2.138,0,0,1-1.323.385,2.394,2.394,0,0,1-1.011-.2,1.644,1.644,0,0,1-.688-.565,1.361,1.361,0,0,1-.248-.784h.813a.842.842,0,0,0,.327.648,1.27,1.27,0,0,0,.806.24,1.311,1.311,0,0,0,.74-.187A.574.574,0,0,0,43.8-1.261ZM48.608,0a1.708,1.708,0,0,1-.114-.5A1.814,1.814,0,0,1,47.14.088a1.678,1.678,0,0,1-1.154-.4,1.287,1.287,0,0,1-.45-1.009A1.344,1.344,0,0,1,46.1-2.472a2.662,2.662,0,0,1,1.589-.411h.791v-.374a.913.913,0,0,0-.255-.679,1.024,1.024,0,0,0-.751-.253,1.185,1.185,0,0,0-.729.22.647.647,0,0,0-.294.532h-.817a1.122,1.122,0,0,1,.253-.688,1.725,1.725,0,0,1,.686-.525,2.306,2.306,0,0,1,.951-.193,1.88,1.88,0,0,1,1.288.411A1.482,1.482,0,0,1,49.293-3.3v2.188A2.676,2.676,0,0,0,49.46-.07V0ZM47.259-.62a1.429,1.429,0,0,0,.725-.2,1.2,1.2,0,0,0,.5-.514v-.976h-.637q-1.494,0-1.494.875a.74.74,0,0,0,.255.6A.98.98,0,0,0,47.259-.62Zm3.116-1.8a2.8,2.8,0,0,1,.514-1.769,1.644,1.644,0,0,1,1.362-.657,1.636,1.636,0,0,1,1.358.615l.04-.527h.743V-.114a1.934,1.934,0,0,1-.547,1.455,2.019,2.019,0,0,1-1.47.532,2.446,2.446,0,0,1-1.006-.22,1.732,1.732,0,0,1-.751-.6l.422-.488a1.59,1.59,0,0,0,1.279.646,1.246,1.246,0,0,0,.925-.334,1.277,1.277,0,0,0,.332-.94V-.475a1.671,1.671,0,0,1-1.332.563,1.624,1.624,0,0,1-1.351-.672A2.938,2.938,0,0,1,50.375-2.417Zm.817.092a2.132,2.132,0,0,0,.33,1.263,1.071,1.071,0,0,0,.923.459,1.191,1.191,0,0,0,1.129-.7V-3.472a1.2,1.2,0,0,0-1.121-.681,1.081,1.081,0,0,0-.927.461A2.322,2.322,0,0,0,51.192-2.325ZM57.59.088a2.078,2.078,0,0,1-1.573-.635,2.357,2.357,0,0,1-.606-1.7V-2.4a2.853,2.853,0,0,1,.27-1.263,2.108,2.108,0,0,1,.756-.87,1.9,1.9,0,0,1,1.052-.314,1.781,1.781,0,0,1,1.441.611,2.645,2.645,0,0,1,.514,1.749v.338H56.224a1.69,1.69,0,0,0,.411,1.136,1.292,1.292,0,0,0,1,.433,1.416,1.416,0,0,0,.729-.176,1.833,1.833,0,0,0,.523-.466l.5.387A2,2,0,0,1,57.59.088Zm-.1-4.263a1.084,1.084,0,0,0-.826.358,1.741,1.741,0,0,0-.413,1h2.382v-.062a1.548,1.548,0,0,0-.334-.96A1.021,1.021,0,0,0,57.489-4.175Z" transform="translate(1786.372 1059.007)" fill="#12263f"/>
      </g>
      <path id="Trazado_104008" data-name="Trazado 104008" d="M1700.218,1080.605v9.466h123.95V777H1453.1" transform="translate(205.596 17.755)" fill="none" stroke="#12263f" stroke-miterlimit="10" stroke-width="2"/>
      <path id="Trazado_104009" data-name="Trazado 104009" d="M1713.234,819.919V806.647H1433.353v13.272" transform="translate(192.581 37.294)" fill="none" stroke="#12263f" stroke-miterlimit="10" stroke-width="2"/>
      <line id="Línea_158" data-name="Línea 158" y2="23.031" transform="translate(1625.933 951.291)" fill="none" stroke="#12263f" stroke-miterlimit="10" stroke-width="2"/>
      <line id="Línea_159" data-name="Línea 159" y2="29.668" transform="translate(1905.815 947.778)" fill="none" stroke="#12263f" stroke-miterlimit="10" stroke-width="2"/>
      <line id="Línea_160" data-name="Línea 160" x1="32.595" transform="translate(1929.246 1014.14)" fill="none" stroke="#12263f" stroke-miterlimit="10" stroke-width="2"/>
      <line id="Línea_161" data-name="Línea 161" x1="25.091" transform="translate(1848.384 1014.14)" fill="none" stroke="#12263f" stroke-miterlimit="10" stroke-width="2"/>
      <line id="Línea_162" data-name="Línea 162" x1="55.889" transform="translate(1478.114 1014.14)" fill="none" stroke="#12263f" stroke-miterlimit="10" stroke-width="2"/>
      <line id="Línea_163" data-name="Línea 163" y2="140.596" transform="translate(1625.933 1072.63)" fill="none" stroke="#12263f" stroke-miterlimit="10" stroke-width="2"/>
      <path id="Trazado_104010" data-name="Trazado 104010" d="M1467.941,943.242v102.849h121.793v16.4" transform="translate(215.376 127.317)" fill="none" stroke="#12263f" stroke-miterlimit="10" stroke-width="2"/>
      <path id="Trazado_104011" data-name="Trazado 104011" d="M1541.353,1032.647v-8.588h186.789v8.588" transform="translate(263.758 180.579)" fill="none" stroke="#12263f" stroke-miterlimit="10" stroke-width="2"/>
      <line id="Línea_164" data-name="Línea 164" y1="8.588" transform="translate(1929.246 1204.637)" fill="none" stroke="#12263f" stroke-miterlimit="10" stroke-width="2"/>
      <line id="Línea_165" data-name="Línea 165" y1="8.588" transform="translate(1868.349 1204.637)" fill="none" stroke="#12263f" stroke-miterlimit="10" stroke-width="2"/>
      <path id="Trazado_104012" data-name="Trazado 104012" d="M1481.435,944.49v104.682H1268.882v16.4" transform="translate(84.187 128.139)" fill="none" stroke="#12263f" stroke-miterlimit="10" stroke-width="2"/>
      <path id="Trazado_104013" data-name="Trazado 104013" d="M1213.706,1032.647v-8.588h181.129v8.588" transform="translate(47.823 180.579)" fill="none" stroke="#12263f" stroke-miterlimit="10" stroke-width="2"/>
      <path id="Trazado_104014" data-name="Trazado 104014" d="M1394.882,1101.192v-9.369h126.269v9.369" transform="translate(167.227 225.239)" fill="none" stroke="#12263f" stroke-miterlimit="10" stroke-width="2"/>
      <line id="Línea_166" data-name="Línea 166" y1="9.369" transform="translate(1625.243 1317.062)" fill="none" stroke="#12263f" stroke-miterlimit="10" stroke-width="2"/>
      <path id="Trazado_104015" data-name="Trazado 104015" d="M1341.409,1101.192v-9.369H1157.353V1105.1" transform="translate(10.684 225.239)" fill="none" stroke="#12263f" stroke-miterlimit="10" stroke-width="2"/>
      <line id="Línea_167" data-name="Línea 167" y1="13.496" transform="translate(1227.957 1317.063)" fill="none" stroke="#12263f" stroke-miterlimit="10" stroke-width="2"/>
      <line id="Línea_168" data-name="Línea 168" y1="13.272" transform="translate(1291.001 1317.062)" fill="none" stroke="#12263f" stroke-miterlimit="10" stroke-width="2"/>
    </g>
  </g>
</svg>
